<svg version="1.2" xmlns="http://www.w3.org/2000/svg" viewBox="0 0 1500 1000" width="1500" height="1000">
	<title>28541332_7454883-ai</title>
	<defs>
		<radialGradient id="g1" cx="937.2" cy="766.6" r=".2" gradientUnits="userSpaceOnUse">
			<stop offset="0" stop-color="#fefefe"/>
			<stop offset="1" stop-color="#9797c7"/>
		</radialGradient>
		<clipPath clipPathUnits="userSpaceOnUse" id="cp1">
			<path d="m1011.43 643.01c34.68 47.51 24.28 114.14-23.23 148.82-47.52 34.68-114.14 24.27-148.82-23.24-34.68-47.51-24.28-114.14 23.23-148.82 47.51-34.68 114.14-24.28 148.82 23.24z"/>
		</clipPath>
		<radialGradient id="g2" cx="700.8" cy="680.2" r="80.9" gradientUnits="userSpaceOnUse">
			<stop offset="0" stop-color="#fefefe"/>
			<stop offset="1" stop-color="#c3c3c3" stop-opacity="0"/>
		</radialGradient>
		<radialGradient id="g3" cx="710.5" cy="685.9" r="58.5" gradientUnits="userSpaceOnUse">
			<stop offset="0" stop-color="#fefefe"/>
			<stop offset="1" stop-color="#c3c3c3" stop-opacity="0"/>
		</radialGradient>
	</defs>
	<style>
		.s0 { fill: #fa9347 } 
		.s1 { fill: #ccc3bc } 
		.s2 { fill: #f2e2e5 } 
		.s3 { fill: #e0d3d5 } 
		.s4 { fill: #ccbec1 } 
		.s5 { fill: #e8e2dd } 
		.s6 { fill: #0a6c8e } 
		.s7 { fill: #eee6de } 
		.s8 { fill: #efd5bf } 
		.s9 { mix-blend-mode: multiply;fill: #e8d3c1 } 
		.s10 { fill: #fa4747 } 
		.s11 { fill: #ffffff } 
		.s12 { opacity: .5;mix-blend-mode: overlay;fill: #ffffff } 
		.s13 { fill: #ee6d4a } 
		.s14 { fill: #007f7c } 
		.s15 { fill: #001bac } 
		.s16 { fill: #4b64ed } 
		.s17 { mix-blend-mode: overlay;fill: #00c1bc } 
		.s18 { fill: #bb3a3a } 
		.s19 { fill: #db4545 } 
		.s20 { fill: #b6e2ff } 
		.s21 { fill: #003e60 } 
		.s22 { fill: #0a759b } 
		.s23 { fill: #e0512f } 
		.s24 { fill: #f48369 } 
		.s25 { fill: #f9a0a0 } 
		.s26 { fill: #cc3a1d } 
		.s27 { fill: #ffbc00 } 
		.s28 { fill: #ffd773 } 
		.s29 { fill: #f7a500 } 
		.s30 { fill: #3989b4 } 
		.s31 { opacity: .4;mix-blend-mode: overlay;fill: #ffffff } 
		.s32 { fill: #cc8200 } 
		.s33 { fill: #87510a } 
		.s34 { fill: #6d3e06 } 
		.s35 { fill: #eadbce } 
		.s36 { fill: #e5d1c3 } 
		.s37 { fill: #d6b8a1 } 
		.s38 { fill: #dbc2ad } 
		.s39 { mix-blend-mode: multiply;fill: #eee6de } 
		.s40 { fill: #c4c4c3 } 
		.s41 { fill: url(#g1) } 
		.s42 { opacity: .5;mix-blend-mode: overlay;fill: url(#g2) } 
		.s43 { opacity: .5;mix-blend-mode: overlay;fill: url(#g3) } 
		.s44 { opacity: .4;mix-blend-mode: overlay;fill: #e9f8ff } 
	</style>
	<g id="BACKGROUND">
		<path id="&lt;Path&gt;" class="s0" d="m1500 1000h-1500v-1000h1500z"/>
	</g>
	<g id="book">
		<g id="&lt;Group&gt;">
			<g id="&lt;Group&gt;">
				<g id="&lt;Group&gt;">
					<g id="&lt;Group&gt;">
						<g id="&lt;Group&gt;">
							<path id="&lt;Path&gt;" class="s1" d="m987.7 453.2l-1.4-1.6c3.5-3.1 5.7-4.8 5.8-4.8l1.3 1.7c0 0-2.3 1.6-5.7 4.7z"/>
						</g>
						<g id="&lt;Group&gt;">
							<path id="&lt;Compound Path&gt;" class="s1" d="m959 767.8v-2.2q7.5-0.2 14.7-0.6l0.1 2.1q-7.2 0.4-14.8 0.7zm23.2-1.2l-0.1-2.1c4.9-0.3 9.9-0.7 14.7-1.1l0.2 2.2c-4.8 0.4-9.8 0.7-14.8 1zm23.2-1.8l-0.2-2.1c5-0.5 9.9-1.1 14.6-1.7l0.3 2.1c-4.8 0.6-9.7 1.2-14.7 1.7zm23.1-2.8l-0.3-2.1c4.9-0.7 9.8-1.5 14.5-2.3l0.4 2.1c-4.7 0.8-9.6 1.6-14.6 2.3zm22.9-3.9l-0.5-2.1c5-0.9 9.8-2 14.4-3.1l0.5 2c-4.6 1.2-9.5 2.2-14.4 3.2zm22.6-5.3l-0.6-2.1c4.9-1.3 9.6-2.7 14.1-4.3l0.7 2.1c-4.5 1.5-9.3 2.9-14.2 4.3zm22.1-7.2l-0.7-2c4.7-1.8 9.2-3.8 13.4-5.8l0.9 1.9c-4.2 2.1-8.8 4.1-13.6 5.9zm21.2-9.8l-1.1-1.8c4.5-2.5 8.6-5.1 12.4-7.8l1.2 1.7c-3.8 2.8-8 5.4-12.5 7.9zm19.2-13.1l-1.3-1.7c3.8-3.2 7.2-6.7 10.2-10.3l1.6 1.4c-3 3.7-6.6 7.2-10.5 10.6zm15.6-17.4l-1.7-1.2c2.6-4.1 4.9-8.4 6.7-12.9l2 0.8c-1.9 4.6-4.2 9.1-7 13.3zm9.7-21.4l-2.1-0.5c1.2-4.6 2-9.4 2.4-14.4l2.2 0.2c-0.4 5.1-1.3 10.1-2.5 14.7zm0.6-23.2q0-2.8-0.2-5.7c-0.1-3-0.5-6-0.9-8.8l2.1-0.4c0.5 2.9 0.8 6 1 9.1q0.2 2.9 0.2 5.8zm-2.8-22.7c-1.3-4.8-2.9-9.4-5-13.7l1.9-0.9c2.1 4.4 3.9 9.1 5.1 14zm-9-20.8c-2.6-4.1-5.7-7.9-9.1-11.2l1.4-1.6c3.6 3.5 6.8 7.4 9.5 11.6zm-15.4-16.6c-3.8-2.8-8-5.3-12.5-7.5l0.9-1.9c4.7 2.2 9 4.8 12.8 7.7zm-20.1-10.7c-4.4-1.6-9.1-2.9-14-3.9l0.4-2.1c5 1.1 9.8 2.4 14.3 4zm-102.4-0.8q-1.9 0-3.7-0.1v-2.1c4.7 0.1 9.6 0 14.7-0.4l0.1 2.1c-3.8 0.3-7.5 0.5-11.1 0.5zm-12.2-0.6c-5.1-0.5-10.1-1.3-14.7-2.5l0.5-2c4.5 1.1 9.4 1.9 14.4 2.4zm31.8-0.7l-0.3-2.1c2.5-0.4 5-0.7 7.6-1.2q3.5-0.6 7-1l0.3 2.1q-3.4 0.4-7 1c-2.6 0.5-5.1 0.9-7.6 1.2zm60.5-3.1c-4.6-0.6-9.5-1-14.6-1.1l0.1-2.2c5.1 0.2 10.1 0.5 14.8 1.1zm-37.6-0.1l-0.2-2.1c5-0.5 10-0.8 14.8-1v2.2c-4.7 0.1-9.6 0.4-14.6 0.9zm-77.6-0.9c-4.9-1.8-9.5-3.9-13.6-6.4l1.2-1.8c3.9 2.4 8.3 4.5 13.1 6.2zm-20.5-11.4c-4-3.3-7.4-7.1-10.1-11.2l1.8-1.2c2.6 4 5.8 7.6 9.6 10.7zm-14.1-18.7c-1.9-4.6-3.1-9.5-3.6-14.6l2.1-0.2c0.5 4.9 1.6 9.6 3.5 14zm-1.5-23.1l-2.2-0.1c0.3-4 1.1-8 2.2-12.1q0.4-1.3 0.8-2.6l2.1 0.7q-0.4 1.2-0.8 2.5c-1.1 3.9-1.8 7.8-2.1 11.6zm5.7-22l-2-0.8c1.8-4.5 4-9 6.4-13.4l1.9 1c-2.4 4.3-4.5 8.8-6.3 13.2zm10.6-20.4l-1.8-1.2c2.5-4 5.4-8.1 8.5-12.1l1.7 1.3c-3 3.9-5.9 8-8.4 12zm13.8-18.4l-1.7-1.4c3.3-3.8 6.7-7.4 10.3-10.8l1.4 1.5c-3.5 3.4-6.9 7-10 10.7z"/>
						</g>
						<g id="&lt;Group&gt;">
							<path id="&lt;Path&gt;" class="s1" d="m942.6 768.2v-2.2q3.7 0 7.4-0.1l0.1 2.1q-3.7 0.1-7.5 0.2z"/>
						</g>
					</g>
					<g id="&lt;Group&gt;">
						<g id="&lt;Group&gt;">
							<path id="&lt;Path&gt;" class="s2" d="m992.7 424.6l-40.5-26.6 174.9-34.2z"/>
						</g>
						<g id="&lt;Group&gt;">
							<path id="&lt;Path&gt;" class="s3" d="m1127.1 363.8l-122.6 87.4-11.8-26.6z"/>
						</g>
						<g id="&lt;Group&gt;">
							<path id="&lt;Path&gt;" class="s4" d="m1030.8 433.8l-26.3 17.4 5.6-14.1z"/>
						</g>
						<g id="&lt;Group&gt;">
							<path id="&lt;Path&gt;" class="s2" d="m1127.1 363.8l-83.6 129.4-33.4-56.1z"/>
						</g>
					</g>
				</g>
				<g id="&lt;Group&gt;">
					<path id="&lt;Path&gt;" class="s5" d="m1068.4 825.7l107.2 26.4c0 0-134.6 57.9-212.3 90.4-48.5-35.2-124.8-42.1-124.8-42.1 0 0-11.8 9.6-45.4 13.3-33.6 3.7-121.6-4.3-115.3-13.3 6.2-9.1-7-15.3-203.6-48.3-196.6-33-171.8-32.5-153.3-40.4 18.5-8 54.1-16.6 54.1-16.6z"/>
					<g id="&lt;Group&gt;">
						<g id="&lt;Group&gt;">
							<path id="&lt;Path&gt;" class="s6" d="m899.7 797.6l6.2-7.6 18.8 2.2z"/>
							<g id="&lt;Group&gt;">
								<g id="&lt;Group&gt;">
									<g id="&lt;Group&gt;">
										<g id="&lt;Group&gt;">
											<g id="&lt;Group&gt;">
												<g id="&lt;Group&gt;">
													<g id="&lt;Group&gt;">
														<path id="&lt;Path&gt;" class="s7" d="m851.3 347l-0.2 90.6c0 0-106.5 8.1-129.6 0.8-23.1-7.3-12.3-37.9-12.3-52.5 0-14.5 0.4-50.1 4.1-58.5 3.7-8.3 21.3-4 42.9-1.3 21.6 2.7 95.1 20.9 95.1 20.9z"/>
													</g>
												</g>
												<g id="&lt;Group&gt;">
													<path id="&lt;Path&gt;" class="s8" d="m709.2 385.9c0-14.5 0.4-50.1 4.1-58.5 3.7-8.3 21.3-4 42.9-1.3 21.6 2.7 95.1 20.9 95.1 20.9l-0.1 15.1c-19.7-4.8-71-14.6-88.2-16.8-21.6-2.7-36.8-5.5-40.6 2.9-3.7 8.3-4.9 40.3-5 54.9 0 8.1-3.3 20.9-2.4 32.1-14.4-10.6-5.8-36.3-5.8-49.3z"/>
												</g>
												<g id="&lt;Group&gt;" style="opacity: .6">
													<g id="&lt;Group&gt;">
														<path id="&lt;Path&gt;" class="s9" d="m709.9 328.7l140.3 25.6c0 0-112.6-24.8-140.3-25.6z"/>
														<path id="&lt;Path&gt;" class="s9" d="m706.1 380.7l141.7 11c0 0-114.1-12.9-141.7-11z"/>
														<path id="&lt;Path&gt;" class="s9" d="m706.1 374.9l141.6 14.7c0 0-113.9-16-141.6-14.7z"/>
														<path id="&lt;Path&gt;" class="s9" d="m706.1 371.4l141.6 14.7c0 0-113.9-16-141.6-14.7z"/>
														<path id="&lt;Path&gt;" class="s9" d="m706.2 366.8l141.4 16.1c0 0-113.8-17.2-141.4-16.1z"/>
														<path id="&lt;Path&gt;" class="s9" d="m706.3 360.7l141.2 19c0 0-113.5-19.5-141.2-19z"/>
														<path id="&lt;Path&gt;" class="s9" d="m706.3 356.3l141.2 19c0 0-113.5-19.5-141.2-19z"/>
														<path id="&lt;Path&gt;" class="s9" d="m706.4 350.9l141.1 20.4c0 0-113.4-20.6-141.1-20.4z"/>
														<path id="&lt;Path&gt;" class="s9" d="m706.4 345.8l141.1 20.4c0 0-113.4-20.6-141.1-20.4z"/>
														<path id="&lt;Path&gt;" class="s9" d="m706.5 340.7l140.9 21.9c0 0-113.2-21.8-140.9-21.9z"/>
														<path id="&lt;Path&gt;" class="s9" d="m705.9 335l140.9 21.8c0 0-113.2-21.8-140.9-21.8z"/>
													</g>
													<g id="&lt;Group&gt;">
														<path id="&lt;Path&gt;" class="s9" d="m710.2 428.7l136.6-0.2c0 0-109.1 4.1-136.6 0.2z"/>
														<path id="&lt;Path&gt;" class="s9" d="m706.7 385l140.5 9.5c0 0-112.8-4.4-140.5-9.5z"/>
														<path id="&lt;Path&gt;" class="s9" d="m706.7 389.7l140.4 8c0 0-113-2.2-140.4-8z"/>
														<path id="&lt;Path&gt;" class="s9" d="m706.8 395.9l140.2 5c0 0-112.7 0.2-140.2-5z"/>
														<path id="&lt;Path&gt;" class="s9" d="m706.8 400.3l140.2 5.1c0 0-112.7 0.1-140.2-5.1z"/>
														<path id="&lt;Path&gt;" class="s9" d="m706.9 405.8l140 3.6c0 0-112.5 1.3-140-3.6z"/>
														<path id="&lt;Path&gt;" class="s9" d="m706.9 410.8l140 3.7c0 0-112.6 1.3-140-3.7z"/>
														<path id="&lt;Path&gt;" class="s9" d="m706.9 416l139.9 2.1c0 0-112.4 2.6-139.9-2.1z"/>
														<path id="&lt;Path&gt;" class="s9" d="m706.3 421.7l139.9 2.1c0 0-112.4 2.6-139.9-2.1z"/>
													</g>
													<path id="&lt;Path&gt;" class="s9" d="m709.1 432.9l140.5 1.6c0 0-113 2.5-140.5-1.6z"/>
												</g>
												<g id="&lt;Group&gt;">
													<g id="&lt;Group&gt;">
														<path id="&lt;Path&gt;" class="s10" d="m711.4 335.4c-1.1 8.3-6.7 57.1-3.3 81.6 3.5 24.6 35.7 30.5 35.7 30.5 0 0-239.5 1-253.1 0.4-13.5-0.5-26.3-5.6-29.6-23.1-3.2-17.4-7.5-73.6 11.5-79.3 18.9-5.6 251.2-30.6 251.2-30.6 0 0-11.3 12.2-12.4 20.5z"/>
													</g>
													<path id="&lt;Path&gt;" class="s11" d="m636.1 447.9q-8.7 0-17.6 0c-5-3.8-11.4-11.2-13.2-25.2-3.2-24 2-71.6 3-79.6 0.7-5.3 5.3-12.1 8.4-16.2q8.5-1.1 16.7-2 0 0 0 0c-3.2 4-8.3 11.4-9 17-1.1 8.1-6.3 55.6-3.1 79.6 2.1 15.5 9.7 23 14.8 26.4z"/>
													<path id="&lt;Path&gt;" class="s11" d="m608.2 447.9q-8.9 0.1-17.6 0.1c-5-3.7-11.3-11-13.2-24.6-3.2-23.3 2.1-69.7 3.1-77.5 0.6-5.1 5.1-11.6 8.3-15.7q8.3-1 16.7-2c-3.2 4-8.3 11.1-9 16.5-1 7.9-6.2 54.3-3 77.6 2 15 9.6 22.3 14.7 25.6z"/>
													<g id="&lt;Group&gt;">
														<path id="&lt;Path&gt;" class="s10" d="m702.1 379.9c0.2-3.7 0.4-7.2 0.5-10.6q0.1-3.3 0.2-6.7c0.4-17.5 0.9-35.7 11.2-43.8 4.6-3.7 10.6-4.9 17.8-3.6 20.7 3.8 108 22.4 126.9 26.4v12.4c-12.3-2.6-107.5-23-128.7-26.8-4.8-0.9-6.9 0.3-8.1 1.2-6 4.8-6.4 20.8-6.8 35q-0.1 3.4-0.2 6.8c-0.1 3.4-0.4 9.4-0.5 10.8-0.1 3.1-1.7 47 5.7 51.9 8.2 4 76.5 7.5 138.5 4.5l-0.1 12.2c-24 1.2-79.5-0.7-114.7-2.1-14.4-0.6-25.4-1.8-29.4-4-15.1-8.3-13.7-36.4-12.3-63.6z"/>
													</g>
												</g>
											</g>
											<g id="&lt;Group&gt;" style="mix-blend-mode: multiply">
												<path id="&lt;Path&gt;" class="s8" d="m747.6 447.6c0 0-12.4-0.5-23.9-1.7 0.2-19.4-1.9-49.5-1.9-49.5 20.7 1.4 25.8 51.2 25.8 51.2z"/>
											</g>
										</g>
										<path id="&lt;Path&gt;" class="s12" d="m475.9 348.8c0 0 157.1-18.3 182.8-20.7 25.8-2.5 34.5-4.8 38-2.3 3.5 2.4 2 25.2 0 28.5-2 3.3-17.8 3.2-35.1 3.6-17.3 0.5-186.1 8.2-191 8.3-4.9 0.2-3.9-7.7-2.2-10.9 1.7-3.1 3.9-6.1 7.5-6.5z"/>
									</g>
								</g>
								<g id="&lt;Group&gt;">
									<g id="&lt;Group&gt;">
										<path id="&lt;Path&gt;" class="s13" d="m872.9 519.4c11.1 17.6 19.8 75.6 19.8 75.6l-14-12.5c0 0-4.3 8.2-8.6 14.3 0.3-26-11.4-57.6-11.4-57.6 0 0 3.1-37.5 14.2-19.8z"/>
									</g>
									<g id="&lt;Group&gt;">
										<g id="&lt;Group&gt;">
											<path id="&lt;Path&gt;" class="s14" d="m646 530.2c56 4.1 226.9 10 226.9 10l-39.1 27.2h-353.9l-42.3-27.2c0 0 152.4-14.1 208.4-10z"/>
										</g>
										<g id="&lt;Group&gt;">
											<g id="&lt;Group&gt;">
												<g id="&lt;Group&gt;">
													<g id="&lt;Group&gt;">
														<g id="&lt;Group&gt;">
															<path id="&lt;Path&gt;" class="s15" d="m438.6 450.7c0 0 418.6 1.8 433.9 3.5 9.4 3 8.8 27.1 9.4 47.6 0.6 20.6 1.1 40.3-8 43.4-9.1 3.1-428.4 0.2-435.3 0-6.8-0.3-11.5-13.6-12.3-35.1-0.8-21.6-3.1-59.5 12.3-59.4z"/>
														</g>
													</g>
												</g>
												<path id="&lt;Path&gt;" class="s16" d="m477.2 460.7c-0.8 8.5-1.1 44.7 0.7 58.9 1.2 9.5 6.7 17 10.3 21-6.8-0.1-13-0.1-18.6-0.2-2.9-5.1-6.7-14.3-6.7-22.1 0-10.9 0-47.7 0-59.9 0-6.4 1.8-10.3 3.4-12.6q7 0.1 15.2 0.1c-2 2.5-3.8 8.1-4.3 14.8z"/>
												<path id="&lt;Path&gt;" class="s16" d="m503.9 460.7c-0.7 8.5-1 44.7 0.8 58.9 1.2 9.6 6.8 17.2 10.4 21.1q-9.8 0-18.6-0.1c-3-5.1-6.8-14.4-6.8-22.3 0-10.9 0-47.7 0-59.9 0-6.3 1.7-10.2 3.3-12.4q7.2 0 15.2 0c-2 2.6-3.7 8.1-4.3 14.7z"/>
												<path id="&lt;Path&gt;" class="s16" d="m831.2 521c1.8-14.3 1.5-50.4 0.8-59-0.5-5.9-2-10.9-3.7-13.7q8.4 0.1 15.3 0.2c1.4 2.3 2.6 5.9 2.6 11.3 0 12.1 0 49 0 59.8 0 7.6-3.5 16.4-6.4 21.6-5.6 0.1-11.8 0.2-18.5 0.2 3.6-4.1 8.7-11.3 9.9-20.4z"/>
												<path id="&lt;Path&gt;" class="s16" d="m804.4 521c1.9-14.3 1.6-50.4 0.8-59-0.5-6.1-2.1-11.3-3.9-14q8.1 0.1 15.4 0.1c1.4 2.4 2.8 6.1 2.8 11.7 0 12.1 0 49 0 59.8 0 7.7-3.7 16.6-6.5 21.9q-8.8 0-18.5 0c3.6-4 8.8-11.3 9.9-20.5z"/>
											</g>
											<path id="&lt;Path&gt;" class="s17" d="m437.6 452.2c0 0 228.3 0 300.2 0 71.9 0 114.1 0 123.9 0 9.8 0 13.1 4.4 13.9 12.2 0.8 7.8-2.4 9.1-22 8.9-19.6-0.2-403 0-416 0-12.9 0-9.7-21.1 0-21.1z"/>
										</g>
									</g>
								</g>
								<g id="&lt;Group&gt;">
									<g id="&lt;Group&gt;">
										<g id="&lt;Group&gt;">
											<g id="&lt;Group&gt;">
												<g id="&lt;Group&gt;">
													<path id="&lt;Path&gt;" class="s18" d="m669.9 869.2c0 0-273.3-54.4-293.7-60.6-20.4-6.2-26.6-66.4-3.5-73.9 23-7.6 283.5-23.5 283.5-23.5l303.2 17.4z"/>
												</g>
												<path id="&lt;Path&gt;" class="s10" d="m364.1 741.4l461.9 48.2-156.1 79.6c0 0-273.3-54.4-293.7-60.6-17.3-5.2-24.3-49.3-12.1-67.2z"/>
											</g>
											<g id="&lt;Group&gt;">
												<g id="&lt;Group&gt;">
													<path id="&lt;Path&gt;" class="s7" d="m952.1 809.1c-70.4 15.2-257.6 55-279.1 53.6-26.6-1.8-37.2-71.8-5.3-89.5 27.4-15.2 228.1-32.7 284.4-37.4z"/>
												</g>
											</g>
											<g id="&lt;Group&gt;">
												<path id="&lt;Path&gt;" class="s8" d="m666.1 860.5c-21.3-12-27.4-71.2 1.6-87.3 27.4-15.2 228.1-32.7 284.4-37.4v23.2c-70.3 6-244.3 22-269.7 36.1-20 11.2-23.2 42.9-16.3 65.4z"/>
											</g>
											<g id="&lt;Group&gt;">
												<path id="&lt;Path&gt;" class="s10" d="m959.4 813.3c-66.9 14.5-256.4 55.1-285.4 55.1-0.5 0-2.6-0.1-3-0.2-13.4-0.9-23-14-27.6-34.5-5.3-23.8-1-55.1 21.1-67.3 30.4-16.9 247.1-35 294.9-38.8v13.3c-79.1 6.3-264.2 23.6-288.5 37.1-15.4 8.6-18.9 33-14.5 52.8 3.2 14 10 23.8 17.1 24.3q0.5 0 1.1 0c24.4 0 199.1-36.8 284.8-55.4z"/>
											</g>
											<path id="&lt;Path&gt;" class="s9" d="m673 784.3l275.6-37.7c0 0-222.9 24.4-275.6 37.7z"/>
											<path id="&lt;Path&gt;" class="s9" d="m669.7 792l275.5-37.7c0 0-222.8 24.4-275.5 37.7z"/>
											<path id="&lt;Path&gt;" class="s9" d="m662.6 800.6l280.4-39.4c0 0-227.7 26.1-280.4 39.4z"/>
											<path id="&lt;Path&gt;" class="s9" d="m662.3 809.3l280.3-42.2c0 0-227.6 28.9-280.3 42.2z"/>
											<path id="&lt;Path&gt;" class="s9" d="m662.3 817.1l280.3-43.9c0 0-227.6 30.6-280.3 43.9z"/>
											<path id="&lt;Path&gt;" class="s9" d="m662.3 824.4l280.3-46.2c0 0-227.6 32.9-280.3 46.2z"/>
											<path id="&lt;Path&gt;" class="s9" d="m664.4 829.6l278.6-45.8c0 0-225.9 32.5-278.6 45.8z"/>
											<path id="&lt;Path&gt;" class="s9" d="m664.4 835.9l278.2-46.3c0 0-225.5 33.1-278.2 46.3z"/>
											<path id="&lt;Path&gt;" class="s9" d="m668.4 843.3l275.3-49.8c0 0-222.6 36.5-275.3 49.8z"/>
											<path id="&lt;Path&gt;" class="s9" d="m673 849.7l272.2-51.4c0 0-219.5 38.1-272.2 51.4z"/>
										</g>
										<g id="&lt;Group&gt;">
											<path id="&lt;Path&gt;" class="s19" d="m367.7 744.3c0 0 185 27.2 223.6 32.9 38.5 5.6 47.8 4 46.5 20.1-1.3 16.1-6.6 16-61.5 8.4-54.8-7.6-198.3-35.5-208.6-37.2-10.3-1.6-5.7-25 0-24.2z"/>
										</g>
										<g id="&lt;Group&gt;">
											<path id="&lt;Compound Path&gt;" fill-rule="evenodd" class="s20" d="m541.9 837.8q-0.5 0-1.1-0.1c-49.5-8-109-20.6-126.1-24.2-3.3-0.7-5.9-3.3-6.7-6.5-2.3-9.8-6.5-34.2 5.2-49.9 1.6-2.3 4.4-3.4 7.3-3.1l125.5 15.4c1.9 0.2 3.6 1.3 4.7 2.9 1.1 1.5 1.5 3.5 1 5.4-2.2 9.1-5.6 28.2-3.3 52.9 0.2 2.1-0.6 4-2.1 5.5-1.2 1.1-2.8 1.7-4.4 1.7zm-122.4-82.3c-2 0-3.9 0.9-5.1 2.5-11.2 15.2-7.1 39.1-4.8 48.6 0.6 2.7 2.7 4.8 5.4 5.3 17.1 3.7 76.6 16.2 126.1 24.3 1.5 0.2 3-0.3 4.1-1.3 1.2-1.1 1.8-2.6 1.6-4.2-2.3-24.9 1.2-44.2 3.4-53.4 0.4-1.4 0.1-2.9-0.8-4.1-0.8-1.3-2.1-2.1-3.6-2.2l-125.5-15.4q-0.4-0.1-0.8-0.1z"/>
										</g>
										<g id="&lt;Group&gt;">
											<g id="&lt;Group&gt;">
												<path id="&lt;Path&gt;" class="s21" d="m605.6 815.5c0 11.3-6.6 20.4-14.7 20.4-8 0-14.6-9.1-14.6-20.4 0-11.2 6.6-20.4 14.6-20.4 8.1 0 14.7 9.2 14.7 20.4z"/>
											</g>
											<path id="&lt;Path&gt;" class="s22" d="m591 835.9q0 0-0.1 0c-8 0-14.6-9.1-14.6-20.4 0-11.2 6.6-20.4 14.6-20.4 1.3 0 2.5 0.3 3.7 0.7-8.1 0-14.6 9.1-14.6 20.4 0 9.5 4.7 17.5 11 19.7z"/>
										</g>
										<g id="&lt;Group&gt;">
											<g id="&lt;Group&gt;">
												<path id="&lt;Path&gt;" class="s21" d="m402.6 778.5c0 8.6-5 15.6-11.2 15.6-6.2 0-11.2-7-11.2-15.6 0-8.6 5-15.6 11.2-15.6 6.2 0 11.2 7 11.2 15.6z"/>
											</g>
											<path id="&lt;Path&gt;" class="s22" d="m391.4 794.1q0 0 0 0c-6.2 0-11.2-7-11.2-15.6 0-8.6 5-15.6 11.2-15.6q1.4 0 2.8 0.5c-6.2 0-11.2 7-11.2 15.6 0 7.3 3.6 13.4 8.4 15.1z"/>
										</g>
									</g>
									<g id="&lt;Group&gt;" style="mix-blend-mode: multiply">
										<path id="&lt;Path&gt;" class="s8" d="m703 865.9c0 0-19 2.8-25.1 3.3 0.2-21.2-2.2-55-2.2-55 22.3 0.6 27.3 51.7 27.3 51.7z"/>
									</g>
									<g id="&lt;Group&gt;">
										<path id="&lt;Path&gt;" class="s13" d="m709.4 807.6c14.9 10.1 27.5 82.1 27.5 82.1l-19.2-11.2c0 0-7.3 7-17.9 18-1.3-68-24.1-82.4-24.1-82.4 0 0 11.9-4.1 33.7-6.5z"/>
									</g>
								</g>
								<g id="&lt;Group&gt;">
									<g id="&lt;Group&gt;">
										<g id="&lt;Group&gt;">
											<g id="&lt;Group&gt;">
												<g id="&lt;Group&gt;">
													<g id="&lt;Group&gt;">
														<g id="&lt;Group&gt;">
															<path id="&lt;Path&gt;" class="s23" d="m389.7 653.8l261.7-8.9c0 0 224.9 11.7 244.8 17 19.8 5.4 14.5 57.7-3.1 64.1-17.6 6.3-256.2 35.3-256.2 35.3z"/>
														</g>
													</g>
													<g id="&lt;Group&gt;">
														<g id="&lt;Group&gt;">
															<path id="&lt;Path&gt;" class="s13" d="m893.1 726c-17.6 6.3-256.2 35.3-256.2 35.3l-116.1-68.5 116.6-22.7 266.1-2.8c10.6 14.9 4.5 53.3-10.4 58.7z"/>
														</g>
													</g>
												</g>
												<g id="&lt;Group&gt;">
													<g id="&lt;Group&gt;">
														<path id="&lt;Path&gt;" class="s7" d="m396 659.7c48.5 1.2 221.8 6.2 245.5 17.9 27.5 13.7 18.3 74.7-4.6 77.6-18.6 2.3-180.2-22.7-240.9-32.2z"/>
													</g>
												</g>
												<g id="&lt;Group&gt;">
													<path id="&lt;Path&gt;" class="s8" d="m628.7 697.3c-21.8-10.9-172.1-15.9-232.7-17.6v-20c48.5 1.2 221.8 6.2 245.5 17.9 25 12.5 19.7 63.8 1.4 75.4 5.9-19.8 3.1-47.1-14.2-55.7z"/>
												</g>
												<g id="&lt;Group&gt;">
													<g id="&lt;Group&gt;">
														<path id="&lt;Path&gt;" class="s24" d="m389.7 716.1c73.9 11.7 224.7 34.7 245.8 33.4q0.6 0 1 0c6.1-0.8 12-9.6 14.7-21.9 3.8-17.2 0.8-38.2-12.5-44.8-21-10.4-180.8-16-249-17.5v-11.5c41.2 0.9 228.3 5.6 254.6 18.7 19 9.4 22.7 36.2 18.1 57-3.9 17.9-13.6 29.9-25.1 31.4q-0.6 0-1.3 0.1c-25 1.4-188.6-24-246.3-33.1z"/>
													</g>
												</g>
												<g id="&lt;Group&gt;" style="opacity: .6">
													<path id="&lt;Path&gt;" class="s9" d="m636.9 687.5l-237.9-18.6c0 0 192.4 9.8 237.9 18.6z"/>
													<path id="&lt;Path&gt;" class="s9" d="m639.7 693.9l-237.8-18.6c0 0 192.3 9.8 237.8 18.6z"/>
													<path id="&lt;Path&gt;" class="s9" d="m645.9 701l-242.1-19.8c0 0 196.6 11 242.1 19.8z"/>
													<path id="&lt;Path&gt;" class="s9" d="m646.1 708.5l-241.9-22.3c0 0 196.4 13.5 241.9 22.3z"/>
													<path id="&lt;Path&gt;" class="s9" d="m646.1 715.3l-241.9-23.8c0 0 196.4 15 241.9 23.8z"/>
													<path id="&lt;Path&gt;" class="s9" d="m646.1 721.6l-241.9-25.8c0 0 196.4 17 241.9 25.8z"/>
													<path id="&lt;Path&gt;" class="s9" d="m644.3 726.2l-240.5-25.5c0 0 195 16.7 240.5 25.5z"/>
													<path id="&lt;Path&gt;" class="s9" d="m644.3 731.6l-240.1-25.9c0 0 194.6 17.1 240.1 25.9z"/>
													<path id="&lt;Path&gt;" class="s9" d="m640.9 738.1l-237.7-29c0 0 192.2 20.2 237.7 29z"/>
													<path id="&lt;Path&gt;" class="s9" d="m636.9 743.9l-235-30.6c0 0 189.5 21.8 235 30.6z"/>
												</g>
											</g>
											<g id="&lt;Group&gt;">
												<g id="&lt;Group&gt;">
													<path id="&lt;Path&gt;" class="s24" d="m900.5 691.8c-8.9 1.9-109.3 11.6-162.6 17.3-48 5.1-67.3 8-68.4-5.8-1.2-13.9 8.4-11.6 42.2-14.9 39.2-3.9 189-15.6 189-15.6 5-1 8.6 17-0.2 19z"/>
												</g>
											</g>
											<g id="&lt;Group&gt;">
												<path id="&lt;Path&gt;" class="s25" d="m877.4 729.2c-0.4 0-0.7-0.3-0.8-0.6-0.1-0.5 0.2-0.9 0.6-1 2.5-0.5 10.8-5.8 12-11.5 1.4-5.9 3-19.4 3.9-30.7 0.7-10.8-6.6-15.1-6.9-15.2-0.4-0.3-0.6-0.7-0.4-1.1 0.2-0.4 0.7-0.5 1.1-0.3 0 0 8.6 5 7.7 16.8-0.8 11.4-2.5 25-3.8 31-1.4 6.1-10.1 11.9-13.2 12.6q-0.1 0-0.2 0z"/>
											</g>
											<g id="&lt;Group&gt;">
												<path id="&lt;Path&gt;" class="s25" d="m867.1 730.3c-0.3 0-0.6-0.3-0.7-0.6-0.2-0.5 0.1-0.9 0.5-1 2.6-0.5 10.8-5.8 12.1-11.5 1.3-5.9 3-19.4 3.8-30.7 0.7-10.8-6.6-15.1-6.9-15.3-0.4-0.2-0.6-0.7-0.4-1 0.2-0.4 0.7-0.6 1.1-0.3 0.1 0 8.6 5 7.7 16.8-0.8 11.4-2.5 25-3.8 30.9-1.4 6.2-10 12-13.2 12.7q-0.1 0-0.2 0z"/>
											</g>
										</g>
										<path id="&lt;Path&gt;" class="s26" d="m695.2 681.2l18.7-1.2c3.9 5.6 7.4 14 7.3 26.3-0.3 25.5-7.5 43.7-8.3 45.5-7 0.9-13.8 1.8-20.2 2.6 8-17.9 10.8-31.8 9.9-51-0.5-9.3-3.9-16.8-7.4-22.2z"/>
										<path id="&lt;Path&gt;" class="s26" d="m724.6 679.3l18.7-1.3c3.9 5.6 7.4 14.1 7.3 26.4-0.2 21.6-5.5 38-7.6 43.6-6.8 0.9-13.5 1.7-20.1 2.6 7.4-17 10-30.7 9.1-49.2-0.4-9.2-3.9-16.8-7.4-22.1z"/>
									</g>
									<g id="&lt;Group&gt;" style="mix-blend-mode: multiply">
										<path id="&lt;Path&gt;" class="s8" d="m627.5 705.7c0 0-2.2 35.3-2 55-5.8-0.4-24.1-2.2-24.1-2.2 0 0 5.3-52.3 26.1-52.8z"/>
									</g>
									<path id="&lt;Path&gt;" class="s27" d="m627.5 705.7c0 0-21.2 15.8-22.5 79.2-9.9-10.3-16.7-16.8-16.7-16.8l-17.9 10.5c0 0 11.8-67.1 25.6-76.6 20.4 2.3 31.5 3.7 31.5 3.7z"/>
								</g>
								<g id="&lt;Group&gt;">
									<g id="&lt;Group&gt;">
										<g id="&lt;Group&gt;">
											<g id="&lt;Group&gt;">
												<path id="&lt;Path&gt;" class="s7" d="m563.2 533.1c21.4-1.9 38.7-5.5 42.4 3 3.7 8.5 4 44.2 4 58.9 0 14.6 10.6 45.7-12.2 52.1-22.8 6.4-128.1-6.1-128.1-6.1v-90.9c0 0 72.6-15.2 93.9-17z"/>
											</g>
										</g>
										<g id="&lt;Group&gt;">
											<path id="&lt;Path&gt;" class="s8" d="m603.8 644.1c0.9-11.1-2.4-24.2-2.4-32.2 0-14.7-1.2-46.8-4.8-55.4-3.7-8.5-18.8-6.3-40.1-4.4-17 1.4-67.7 9.2-87.2 13.3v-15.3c0 0 72.6-15.2 93.9-17 21.4-1.9 38.7-5.5 42.4 3 3.7 8.5 4 44.2 4 58.9 0 13 8.4 39-5.8 49.1z"/>
										</g>
										<g id="&lt;Group&gt;" style="opacity: .6">
											<g id="&lt;Group&gt;">
												<path id="&lt;Path&gt;" class="s9" d="m609 537.5l-138.7 20c0 0 111.3-20.3 138.7-20z"/>
												<path id="&lt;Path&gt;" class="s9" d="m612.6 589.8l-139.9 5.4c0 0 112.7-8.4 139.9-5.4z"/>
												<path id="&lt;Path&gt;" class="s9" d="m612.6 584l-139.8 9c0 0 112.5-11.4 139.8-9z"/>
												<path id="&lt;Path&gt;" class="s9" d="m612.6 580.5l-139.8 9c0 0 112.5-11.5 139.8-9z"/>
												<path id="&lt;Path&gt;" class="s9" d="m612.6 575.9l-139.8 10.4c0 0 112.5-12.6 139.8-10.4z"/>
												<path id="&lt;Path&gt;" class="s9" d="m612.5 569.7l-139.6 13.4c0 0 112.2-15 139.6-13.4z"/>
												<path id="&lt;Path&gt;" class="s9" d="m612.5 565.3l-139.6 13.4c0 0 112.2-15 139.6-13.4z"/>
												<path id="&lt;Path&gt;" class="s9" d="m612.4 559.9l-139.4 14.8c0 0 112-16.1 139.4-14.8z"/>
												<path id="&lt;Path&gt;" class="s9" d="m612.4 554.9l-139.4 14.7c0 0 112-16.1 139.4-14.7z"/>
												<path id="&lt;Path&gt;" class="s9" d="m612.3 549.7l-139.2 16.3c0 0 111.8-17.4 139.2-16.3z"/>
												<path id="&lt;Path&gt;" class="s9" d="m612.9 543.9l-139.2 16.3c0 0 111.8-17.3 139.2-16.3z"/>
											</g>
											<g id="&lt;Group&gt;">
												<path id="&lt;Path&gt;" class="s9" d="m608.6 637.8l-137.7-7.4c0 0 110.5 10.2 137.7 7.4z"/>
												<path id="&lt;Path&gt;" class="s9" d="m612.1 594.2l-138.8 3.8c0 0 111.4 0.1 138.8-3.8z"/>
												<path id="&lt;Path&gt;" class="s9" d="m612 598.8l-138.7 2.4c0 0 111.6 2.3 138.7-2.4z"/>
												<path id="&lt;Path&gt;" class="s9" d="m611.9 605l-138.5-0.6c0 0 111.4 4.8 138.5 0.6z"/>
												<path id="&lt;Path&gt;" class="s9" d="m611.9 609.5l-138.5-0.6c0 0 111.4 4.7 138.5 0.6z"/>
												<path id="&lt;Path&gt;" class="s9" d="m611.9 614.9l-138.4-2c0 0 111.2 5.9 138.4 2z"/>
												<path id="&lt;Path&gt;" class="s9" d="m611.9 620l-138.4-2c0 0 111.2 5.9 138.4 2z"/>
												<path id="&lt;Path&gt;" class="s9" d="m611.8 625.2l-138.2-3.5c0 0 111 7.1 138.2 3.5z"/>
												<path id="&lt;Path&gt;" class="s9" d="m612.4 631l-138.2-3.6c0 0 111 7.1 138.2 3.6z"/>
											</g>
											<path id="&lt;Path&gt;" class="s9" d="m609.7 642.1l-140-6.5c0 0 112.7 9.4 140 6.5z"/>
										</g>
										<g id="&lt;Group&gt;">
											<g id="&lt;Group&gt;">
												<path id="&lt;Path&gt;" class="s27" d="m595.3 523.1c0 0 229.4 34.4 248.1 40.9 18.7 6.4 16.3 54.5 13.1 71.8-3.3 17.4-15.9 22-29.3 22-13.4 0-237.6-2.9-237.6-2.9 0 0 17.6-4.3 21-28.7 3.4-24.5-2.1-73.7-3.1-82-1.1-8.4-12.2-21.1-12.2-21.1z"/>
											</g>
											<path id="&lt;Path&gt;" class="s28" d="m684.6 536.8q8.1 1.2 16.4 2.5c3.1 4.2 7.7 10.8 8.3 15.9 1 7.7 6.1 53.4 2.9 76.2-2.1 15.3-10.1 22.1-15.2 24.9-6.5-0.1-12.9-0.2-19.2-0.3 3.4-1.2 15.8-6.8 18.6-26.4 3.2-22.8-1.9-68.5-2.9-76.2-0.7-5.4-5.8-12.6-8.9-16.6z"/>
											<path id="&lt;Path&gt;" class="s28" d="m712.1 541.1q8.3 1.3 16.6 2.6c3.1 4 7.5 10.4 8.1 15.3 1 7.5 6.1 52.1 2.9 74.2-1.9 13.5-8.7 20.3-13.7 23.4q-9.3-0.1-18.6-0.2c4.8-2.3 14.2-8.7 16.5-24.9 3.2-22.2-1.9-66.7-2.9-74.3-0.7-5.2-5.8-12.2-8.9-16.1z"/>
											<g id="&lt;Group&gt;">
												<path id="&lt;Path&gt;" class="s29" d="m604.3 652.5c-3.9 2-14.8 2.8-29 2.8-34.7 0-89.5-4.6-113.3-6.7v-12.3c61.2 5.6 128.6 9 136.7 5.3 7.4-4.6 5.8-48.7 5.7-51.8 0-1.5-0.3-7.4-0.4-10.8q-0.2-3.4-0.2-6.9c-0.4-14.2-0.7-30.3-6.7-35.4-1.2-1-3.3-2.2-8-1.5-20.9 3-115 19.5-127.1 21.7v-12.4c18.6-3.3 104.9-18.4 125.4-21.4 7.1-1 13 0.4 17.6 4.3 10.1 8.6 10.5 26.8 11 44.4q0 3.4 0.1 6.8c0.2 3.3 0.3 6.9 0.5 10.6 1.3 27.3 2.7 55.5-12.3 63.3z"/>
											</g>
										</g>
									</g>
									<g id="&lt;Group&gt;" style="mix-blend-mode: multiply">
										<path id="&lt;Path&gt;" class="s8" d="m597.2 605c0 0-2.2 30.1-2 49.5-11.4 0.8-23.7 0.8-23.7 0.8 0 0 5.2-49.8 25.7-50.3z"/>
									</g>
									<path id="&lt;Path&gt;" class="s30" d="m597.2 605c0 0-22.2 18.2-23.4 80.9-9.8-8.6-16.5-14.1-16.5-14.1l-17.6 13c0 0 12.4-68.6 26.1-80 20-0.8 31.4 0.2 31.4 0.2z"/>
								</g>
								<g id="&lt;Group&gt;">
									<path id="&lt;Path&gt;" class="s31" d="m618.9 533.4c0 0 208 32.6 215.5 34 7.5 1.3 8.8 8.8 10.4 14.5 1.5 5.7-4.5 3.3-17.1 2.1-12.5-1.1-186.1-23.2-195.5-24.5-9.4-1.3-10.8-4.8-12.4-9.9-1.5-5.1-3.8-12.8-3.5-14.4 0.3-1.5 1-2.1 2.6-1.8z"/>
								</g>
								<g id="&lt;Group&gt;">
									<path id="&lt;Path&gt;" class="s32" d="m632.3 654.9c-0.4 0-0.7-0.2-0.9-0.5-0.3-0.5-0.2-1.1 0.3-1.5 1.8-1.2 8.8-12.9 9.4-25.5 0.5-12.3 0.5-40.2 0-63.6-0.5-22.6-7.9-30.9-8-31-0.4-0.4-0.4-1.1 0.1-1.5 0.4-0.4 1.1-0.4 1.5 0 0.3 0.4 8 8.9 8.5 32.5 0.5 23.3 0.5 51.3 0 63.7-0.5 12.6-7.6 25.4-10.3 27.2q-0.3 0.2-0.6 0.2z"/>
								</g>
								<g id="&lt;Group&gt;">
									<path id="&lt;Path&gt;" class="s32" d="m644.1 656.1c-0.3 0-0.7-0.2-0.9-0.5-0.3-0.5-0.2-1.1 0.3-1.4 1.9-1.3 8.9-13 9.4-25.6 0.6-12.3 0.6-40.2 0-63.6-0.5-22.6-7.9-30.9-8-31-0.4-0.4-0.3-1.1 0.1-1.5 0.4-0.4 1.1-0.4 1.5 0 0.3 0.4 8 8.9 8.6 32.5 0.5 23.4 0.5 51.3 0 63.7-0.6 12.6-7.7 25.4-10.4 27.2q-0.3 0.2-0.6 0.2z"/>
								</g>
								<path id="&lt;Path&gt;" class="s27" d="m753.6 397.6c13.7 11.8 26.2 80.8 26.2 80.8l-17.8-13.7c0 0-6.8 5.1-16.7 13.4-1.1-62.6-23.5-81.7-23.5-81.7 0 0 11.5-0.5 31.8 1.2z"/>
							</g>
						</g>
						<g id="&lt;Group&gt;">
							<g id="&lt;Group&gt;">
								<g id="&lt;Group&gt;">
									<g id="&lt;Group&gt;">
										<path id="&lt;Path&gt;" class="s33" d="m668.4 693.2c2.4-0.4 10.9 8 12.2 8 36.6-0.6 129.4-18.6 188.2-19.1 23.8 21.7 54.8 106.2 54.8 116.2 0 10 9.7 12.8 27.9 8.9 46.8-10.3 123.1 20.4 157.3 35.8 5.9 2.7 17.7-4.4 20.5-2.4 0.6 0.4-3.1 10.7-3.1 10.7 0 0-100.2 33.3-188 68.6-59.3-77-144.8-54.3-160.2-50.4-22.2 8.5-32.3-12.3-25.3-28.5-31.8-99.4-88.9-136.7-88.9-136.7 0 0 3-10.8 4.6-11.1z"/>
										<path id="&lt;Path&gt;" class="s34" d="m877.1 672.9c23.8 21.8 54.8 106.3 54.8 116.3 0 10 9.7 12.8 27.9 8.9 61.6-13.6 169.5 42.5 169.5 42.5 0 0-98.9 34-186.7 69.4-58.1-70.6-142.6-54.6-158-50.7-22.3 8.5-29.2-6-22.2-22.1-31.7-99.5-94-144-94-144 0 0 135.2-19.5 208.7-20.3z"/>
									</g>
									<g id="&lt;Group&gt;">
										<path id="&lt;Path&gt;" class="s35" d="m942.5 789.1l-156 45.2c-10.9-21.8-15-36.1-15-36.1 0 0-79.2-106.5-72.3-128.4l179.9-12c0 0 46.7 60.9 63.4 131.3z"/>
									</g>
									<path id="&lt;Path&gt;" class="s36" d="m1134.5 809.3c-147.3 56.2-185.9 68.7-185.9 68.7 0 0-77-57.8-161.3-42.1q-0.4-0.8-0.8-1.6l156-45.2q0 0.3 0.1 0.5c31.8-7.6 154.2 1.2 191.9 19.7z"/>
									<g id="&lt;Group&gt;">
										<path id="&lt;Path&gt;" class="s37" d="m1134.5 809.3l-2.2 24.4-184.5 66.5-0.6 0.2c0 0-25.3-34.2-65.6-46.7-40.2-12.5-92.1-1.6-92.1-1.6 0 0-7.4-16.8-22.7-16.2-20.3-86.1-89-150-89-150 0 0 11.8-8.5 21.4-16.1 30.4 13.8 80.6 114.8 91.8 162.8 95.7-21.1 161.1 32.6 161.1 32.6l0.1-0.1z"/>
									</g>
									<g id="&lt;Group&gt;">
										<path id="&lt;Path&gt;" class="s38" d="m952.2 865.1l-4.4 35.1-0.6 0.2c0 0-25.3-34.2-65.6-46.7-40.2-12.5-92.1-1.6-92.1-1.6 0 0-7.4-16.8-22.7-16.2-20.3-86.1-89-150-89-150 0 0 11.8-8.5 21.4-16.1 30.4 13.8 80.6 114.8 91.8 162.8 95.7-21.1 161.1 32.6 161.1 32.6z"/>
									</g>
								</g>
								<path id="&lt;Path&gt;" class="s35" d="m942.6 789.6c80.6-19.6 184.4 8.6 184.4 8.6 0 0-76.8 24.3-174.8 51.5-92.2-44.4-161.2-15.4-161.2-15.4 8-5.4 70.9-25.1 151.6-44.7z"/>
								<path id="&lt;Path&gt;" class="s7" d="m791 832.6c0 0 5.7-95.4-65-176 45.8-5.3 177-7.7 177-7.7 0 0 42.9 77.4 39.6 140.7-71.1 18-151.6 43-151.6 43z"/>
							</g>
							<path id="&lt;Path&gt;" class="s27" d="m955.8 786.8c0 0-123.3 33-149.8 43.1-26.4 10-24.6 73-24.6 73l-11.4-16.4-10.7 10c0 0 4.6-52.2 30-70.2 25.5-18 142.8-39.5 166.5-39.5z"/>
							<path id="&lt;Path&gt;" class="s39" d="m1012.3 798c0 14.4-41.2 26-92 26-38.5 0-71.5-6.7-85.2-16.1-13.8-8.9-27.3-29.9-34.5-56.5-10.4-38.4-3.8-73.6 14.9-78.6 18.6-5.1 42.2 21.9 52.6 60.3 4.2 15.3 5.6 30.1 4.7 42.7 13.8-2.4 30.1-3.7 47.5-3.7 50.8 0 92 11.6 92 25.9z"/>
							<g id="&lt;Group&gt;">
								<g id="&lt;Group&gt;">
									<g id="&lt;Group&gt;">
										<g id="&lt;Group&gt;">
											<g id="&lt;Group&gt;">
												<path id="&lt;Path&gt;" class="s21" d="m1011.4 643c34.7 47.5 24.3 114.1-23.2 148.8-47.5 34.7-114.1 24.3-148.8-23.2-34.7-47.5-24.3-114.2 23.2-148.8 47.5-34.7 114.2-24.3 148.8 23.2z"/>
											</g>
											<g id="&lt;Group&gt;" style="mix-blend-mode: multiply">
												<path id="&lt;Path&gt;" class="s40" d="m937.6 767.2q0.1 0 0.1 0 0.2 0.3 0.3 0.6z"/>
											</g>
											<g id="&lt;Group&gt;">
												<path id="&lt;Path&gt;" class="s30" d="m836.8 651.5c-1.4 1.1-2.9 2.2-4.2 3.4q0.3-1.6 0.9-3.1 1.5-2.4 3.1-4.8c0.9-1.2 1.8-2.4 2.7-3.6 3.3-4.4 6.8-8.7 10.5-12.7q5.9-5.9 12.8-10.9c9.7-7.1 20.2-12.3 31.1-15.7q2.8-0.5 5.6-0.6c1.1-0.1 6.7-1.1 7.3-0.1 0.6 1.2-4.5 2-5.4 2.5-0.3 0.2-0.7 0.8-1.2 1-0.6 0.3-0.8 0-1.3 0.1-1 0.1-1.6 1.2-2.6 1.6-1.8 0.8-4.1 1.6-5.7 2.6-0.5 0.2-1.1 1-1.7 1.3-0.5 0.4-1.3 0.9-1.9 1.3 0 0-0.1-0.2-0.1-0.2-0.9-0.2-1.8 0.8-2.5 1.3-1.2 0.7-2.6 1.2-3.8 1.8-1.1 0.5-1.9 1-2.7 1.9-1 1-2.4 1.8-3.2 2.9-0.7 0.9-0.7 2.1-1.2 3.1-0.2 0.6-2 2.8-2.2 1.6-0.2-0.9 1.7-1.8 0.7-2.9-0.8-0.9-1.6 0.6-2.7 0.7-0.3-0.5-0.8-0.4-1.4-0.4-0.2-1.2 1.1-1.5 1.9-2.1 1-0.8 0.5-0.9 1-1.9 0.7-1.4 2.8-2.3 3.6-3.6-2.2-0.4-4.7 2.8-6 4.2-0.9 1-1.6 2.2-2.5 3.2-0.8 0.9-1.9 1.5-2.7 2.5-1.5 1.8-3.1 3.3-4.3 5.4-0.6 1.1-0.6 2.2-0.9 3.4-0.3 1.2-0.8 1.8-1.4 2.8-0.8 1.2-1 2.3-1.2 3.7-0.2 1.1-0.2 3.1-1.9 2.8-0.4-1-0.1-2.5-0.1-3.6-0.6 0.1-1.7 1.2-2.3 0.5-0.5-0.5 0.3-2 0.4-2.5-1.7-1.1-4.4 2.6-5.3 3.7-1.5 2.1-2.4 4.1-4.4 5.7-0.9 0.6-1.8 0.8-2.7 1.5-0.7 0.7-1.4 1.6-2.1 2.2z"/>
												<path id="&lt;Path&gt;" class="s30" d="m895.2 626.6c0.4 0.5 0.7 1.3 0.2 1.9-0.3-0.2-0.6-0.3-0.8-0.4 0.2 1.4-1.1 1.5-1.4 2.6-0.7 0.1-1.2-0.2-1.6-0.7-0.4 1.1-2.1 2-3.2 2.4-0.9-1.7-1 0.4-1.4 0.6-0.6 0.3-1.7 1.2-1.5-0.4 0.1-1.4 2.7-2.5 3-4-0.4 0.2-1.6 0.1-1.8 0.2-0.8 0.5-0.7 1.2-1.3 1.9-0.5 0.7-2.8 2.6-3.5 2.2-0.9 1.3-2.1-0.2-3.2 0.8-1.2-2.2 2.3-2.4 3.2-3.6 0.3-0.4-0.2-1.1 0.1-1.4 0.2-0.4 0.7-0.3 0.9-0.6 0.7-1 1-0.8 0.6-2.3 0.6-0.1 1.2-0.2 1.8-0.5 0.9-0.2 1.8-0.4 2.6 0.3 0.7-1.4-1.6-0.7-0.7-2.3 0.1-0.2 1.8-0.7 2.6-0.8 0-1.1 0.8-0.7 1.2-0.9 0.2-0.1 1.4-0.6 1.9-0.7 0.1 0.1 0.3 0.3 0.3 0.4 0 0.6 0.1 0.8-0.5 1.3 0 0.2 0.2 0.3 0.2 0.5-0.2 0.1-0.5 0.2-0.5 0.3-0.1 0.2-0.1 1-0.1 1.2 0.7-0.1 1.2-0.1 1.9-0.1 0 0.2 0 0.5 0.1 0.7 0.9-0.3 1.3-1.5 2.5-1.1-0.1 1-0.4 2.2-1.6 2.5z"/>
												<path id="&lt;Path&gt;" class="s41" d="m937 766.3q0 0 0.1 0.1 0.2 0.3 0.3 0.5z"/>
												<path id="&lt;Compound Path&gt;" fill-rule="evenodd" class="s30" d="m1019.7 665.8c0.1-1-0.5-1.4-0.7-2.1-0.1-0.8 0.1-1.9-0.1-2.6-0.3-0.8-0.9-1.2-1.3-1.8-0.2-0.4 0.1-2.5-1.2-1.2 0.5 0.5 0.4 0.9 0.6 1.5-2.3 0.4-2.5-2-4.3-2.8 0-0.6 0.1-1.7-0.2-2.1-0.5-0.6-1.4-0.2-2-0.7-1.4-1.3 0.4-2.1-0.4-3.6-1.6 0.1-2-2.2-1.8-3.6-1.8-0.5-1.3 1.3-1.4 2.4-0.2 0-0.6 0.1-0.9 0.1-0.2 0.8 0.2 1.7-0.2 2.4-0.3 0.6-1.4 0.3-1.6 1-0.5 1.1 0.5 1.2 0.9 1.8 0.3 0.5 0.4 1.2 1 1.7 0.8 0.7 3.2 0.8 3.8 1.6 1 1.1-0.9 2.9 0.7 3.5v14.5c-1.4-1-0.8-2.4-2.4-3.6-0.7-0.6-1.5 0-2-1.2-0.4-0.7 0.2-1.4 0.2-2.3 0-1.8-1.1-3.6-3-4-0.1-1.4-0.1-1.6-0.8-2.6 0.1 0.1-1.1-0.5-1.1-0.6-0.1 0-0.2-0.7-0.4-0.9-1-0.8-1.6-0.6-1.9-1.5-0.4-0.9 0.8-1.6-0.5-2.1 0.3-1.6-1.4-1.3-2.2-2.3-1.4 0.3-7-0.1-6.8-2-1.2-1.3-0.8-0.8-2.6-1-0.8 0-1.8-0.6-2.8-0.4 0.5-2.5-1.5-1.5-2.7-1.3-0.5 0.1-1-0.3-1.6 0-0.6 0.3-0.4 1.2-1.1 1.5-0.6 0.2-3.4 0.2-3.9 0-0.4-0.2-2.3-1.5-2.5-2-1.4-0.1-2.1 1.4-3.5 1-0.5-1.2-1.3-0.7-2-1.3-0.8-0.7-0.7-1-0.7-2.4-2.3 0.9-2-1.5-3.4-1.9-2-0.7-3.1 2.6-1.2 2.9-0.8 1.9 1.4 2.2 2.3 3.1 0.8 0.8 1.5 2.7 2.6 3.3 1 0.4 1.2-0.3 2.2-0.1 0.7 0.2 0.6 1.1 1.5 1.2 2.4 0.3 2.1-2.2 2.6-3.6 1.9-0.5 2.4 2.2 2.9 3.4 0.5 1.6 0 1 1.5 1.3 0.8 0.2 1.8-0.6 1.7 1.1 2.7-2.5 0.9 2.8 0.9 3.4 0.3-0.1 1 0 1.3-0.1-0.4 1.4-0.8 3.7 1.3 3.7-0.3 1.3-2.4 2.7-1.2 3.8-1.3 1.4-3.2 2.2-4.2 3.6-0.4 0.5 0.3 0.6-0.6 1.3-0.5 0.4-1.2 0.3-1.7 0.4-1.1 0.3-2.1 0.6-3.2 1-1.8 0.7-3.6 1.4-5.5 0.7-2.4-0.8 0-3.7-1.9-3.8 0.4-1.7 1-3.7-1.5-4 0-0.7-5.4-2.6-6.6-3.1-2.2-1-4.5-2.7-7-2.5-0.4-0.9-1.2-1.5-2.3-1.3 0.2-1.2-1.3-2-1.9-2.7-0.5-0.6-1.2-2-2.2-2.5-1.8 0.9-3.6 1.7-2.9 3.1 1.3 0.3 2.9-1 3.7 0.6 0.6 1.1-1.7 0.5-2.7 0.9-1.4 0.6-2.3 1.7-0.4 2.8 0.9 0.5 4 0 3.2 1.9 1.9 0.9 3.7 1.3 5.5 2.1 0.5 0.3 1.2 0.1 1.7 0.6 0.2 0.3-0.1 1.1 0.3 1.6 0.6 0.6 1.9 0.9 2.9 1.1 0.1 0.8 0.1 2 0.4 2.7 0.4 1.2 0.3 0.5 0.9 1.3 1 1.1 1.5 1.1 1.4 2.9 0.7 0 1.3-0.1 2-0.1 1.2 3 1.8 0.1 4 0.4 0.4 0.6 0.5 1.3 0.2 2 3.2 0.2-0.6 2.3-1.5 2.7 0.7 2.8 5.5-0.1 7.3 0.1 0.1-2.7 2.6-1.6 4-2.1 1.5-0.5 1.9-2.8 3.6-3 0-1.8 2.1-0.5 3-1.5 0.8-0.8 0-3.1 1.9-2.8 0.8 1.5-0.3 4.4-0.7 6-0.4 2-2 3.6-1.9 5.5q0.3 0.1 0.5 0.2c-0.2 2.3-1.7 3.8-3.9 4.2-0.2 1 0.7 2 0.3 2.8-0.3 0.6-1.5 0.6-1.8 1.3-0.8 1.4 0.6 3.4-1.9 3.9-0.1 0.9-1.1 1.3-0.9 2.4 0.2-0.1 0.6 0 0.8 0 0 1.8-0.4 2.1-1.5 3.2-1.1 1.1-1.4 1.7-2 3-0.4 0.9-0.3 1-1 1.7-0.4 0.5-1.4 0.8-1.6 1.3-0.6 1.1 0 2.7-0.5 3.8-0.4-0.1-1 0-1.4-0.1-0.5 1.5-0.1 1.4-1.4 2-0.8 0.4-2.1 0-2.8 0.8-1.9 2.7 2.7 1.8 3.7 2.1 0.3 1.1 1.3 1.2 2 1.9 0.6 0.7 1.1 1.3 1.6 2.1q0.1 0.1 0.2 0.3 0 0 0 0c1.4 0.4 3.5 0.6 2.7 2.6 0.3 0.1 0.5 0.2 0.7 0.3-0.4 1.3 0.4 2.4 0.6 3.7 0.2 0.9-0.3 2.8 0 3.1-0.1 0.6-0.1 1.1-0.4 1.7-0.3 0.8-1 0.9-1.3 1.5-0.4 0.7-0.1 1.8-0.5 2.4-0.4 0.4-1.3 0.4-1.8 1-1.3 1.4-0.9 2.4-3 3-1.3 0.4-3.4 0.2-3 2.1 0.3 1.4 1.7 1 2.7 2 0.7 0.8 0.2 0.8 0.5 1.4 0.3 0.6 0.8 1.1 1.1 1.7 0.5 1 0.4 1.9-0.6 3.2-0.8 1.1-1.9 1.3-3.1 1.7-0.3 2-4.1 0.6-4.7 2.8 2.1 0.4 0 2.6 1.8 3.3-0.2 1.4 0.6 1.5-0.4 3-0.7 1.1-1.6 1.4-2.7 1.9-2.1 1.1-3.8 2.2-6.3 2.3-0.1 1.5-1.2 1.5-2.3 1.8-1.8 0.5-1 0.2-2.1 1.5-0.7 0.9-1.3 1.4-1.7 2.3-0.5 1-0.2 2.7-1.7 2.5 0.1-1.8-1.5-2.1-3-2.3 0-1.3 0-1.9-0.4-3.1-0.1-0.2-0.6 0-0.7-0.3-0.1-0.3 0.2-0.8 0.1-0.9-0.2-0.6 0-0.8-0.4-0.9-0.6-0.9-1.8-2.1-2.7-2.2-0.5-0.5-0.2-0.4-0.8-0.7 0-0.3 0-0.7-0.1-0.9-1.2-0.7-0.6-2.2-1.3-2.9-0.6-0.7-2-0.3-2.6-0.9-1.8-1.6 2.4-3.7 0.4-4.6 0-1.1 1-0.9 1.5-1.5 1.7-1.8 0.3-1.3-1.5-1.7-0.7-0.1-1.2-0.6-1.9-0.8-0.7-0.1-1.5 0.2-2.1-0.1-1.1-0.6-1.5-1.6-3.1-2.3-1-0.4-3.2-1-3.7-2.1 0 0-0.3-2.4-0.4-2.3 0.1-0.9 0.1-0.8 0.4-1.7 0.5-1.6 1.4-1.9 2.4-3.2 0.9-1.2 1.4-2 1.3-3.3 0-0.3-0.8-0.6-0.9-1 0-0.3 0.6-0.5 0.6-0.8 0-0.7-0.1-1.3 0-2-2-0.3-1.9-1.9-1.2-3.2q-0.1-0.1-0.2-0.2c-0.6-1.2 1.4-2.9-1.2-3 2.5-2.2-3.9-2.8-5.2-3.8-1.1-0.9-1.5-1.7-2.6-2.6-1-0.9-1.8-1.6-1.7-3.2 0.1-1.6 1.3-3 1.1-4.7-0.1-1.5-1-2.6-1.7-3.6-0.6-0.9 0.1-0.8-1.1-1.3-0.5-0.3-1.5-0.3-2.1-0.2-0.8 0.2-1.1 0.9-1.7 1.1-0.8 0.2-1-0.5-1.9-0.3 0 1-1.3 2.1-2.3 1.5-0.1-0.1-0.3-2.2-0.6-2.6-0.6-1.3-1.4-3.9-3.3-3.7 0-0.2 0-0.3-0.1-0.5-1.9-2.5-2.1 1.7-3.4 2.8-0.7 0.6-2.1 0.6-3 1.4-0.7 0.6-1.2 1.7-2.4 1.7-0.4 2.5-2.1 1.1-3.4 1.1-0.9 0-1.2 0.4-2.1 0.3-0.8 0-1.1-1-2.2-0.7 0 1.9-2.9 2.7-4.4 2.4-1.7-0.2-1.2-1.1-2.1-2-0.7-0.8-1.6-0.8-2.1-1.7-0.4-0.6-0.5-1.7-0.9-2.5-0.6-0.9-0.8-1.4-1.5-2.3-0.9-1.2-1.5-4.2-3.4-3.9-0.1 0.2-0.3 0.5-0.4 0.7-0.4-0.3-0.8-0.8-1-1.4 0.5-0.6 0.5-1.4 0.2-2.1-0.3 0-0.6-0.1-0.9-0.1 0.1-0.7-0.2-1.4-0.6-1.8-0.3 0-0.5-0.1-0.7-0.1 0-2.3 1.8-3.8 2.6-6 0.6-1.7-0.1-1.7-0.4-3.2-0.2-1 0.5-2.6 0.9-3.4-0.6-0.4-0.3-0.3-0.5-1 1.2-0.2 1.6-1.6 3-1.5 0.5-1-0.3-1.9-0.2-3-0.3 0-0.8-0.1-1.1-0.1 0.5-1.5 2.7-2.8 3-4.2-0.3-0.1-0.5-0.3-0.7-0.3 0.7-0.7 2.4-2.2 2.3-3.2 1.5-0.7 2-1 3-2.3 0.5-0.7 1.8-1.7 1.7-2.8 1.6-0.7 1.7-3.4 2.5-4.7 0.2-0.3 1.4-1.4 1.8-1.7 0.7-0.6 1-1.2 2.1-1 0.5-1.5 1.7-0.2 2.6 0.1 1.4 0.4 1.2 0.3 2.5-0.6 1.8-1.4 2.8-2.5 5.1-2.7 0.7-1.7 4-1.4 5.3-1.5 0.7 0 2.2 0.1 3-0.2 1-0.3 1.4-1.2 2.5-0.7 0.6 1.1 1.3 1.6 1 3.1 0.2 0.1 0.4 0.2 0.7 0.3-1.7 2.7 3.1 2.5 4.2 2.4 0.8 0 2-0.6 2.7 0.4 0.5 0.8-1.4 1.7 0.6 1.9-0.6 2.6 6-0.7 6.3-0.4 2.7-0.3-0.8-4.7 2.9-4.2 0.4 0.1 1.4 0.6 1.8 0.8 0.5 0.2 0.9-0.2 1.3 0 0.9 0.6 0.5 2 1.9 2.1 0.5-0.6 0.5-1.2 0.1-1.8 0.4-0.8 1.2-0.9 1.7-1.6 0.4-0.5 0-1.4 0.5-2.1 0.8 0 1.4 0.4 1.8 1.1 0.5-0.3 0.8 0 1.4 0.1 0.2 1.5 4.4-0.4 5.3-1 0.1 0.2 0.2 0.4 0.3 0.5 0.7 0.1 1.3-0.2 1.3-1 0.3 0 0.6-0.1 0.9-0.1 0.1-0.3 0.2-0.4 0.3-0.6q0-0.2 0.1-0.5c-0.4 0-0.8 0-1.1 0 0-1.4-1.9-1.9-2.6-2.1 1.1 0 1.9 0.3 2.9 0.2-0.5-0.5-1.2-0.8-1.8-1.3 0.3 0.1 0.5 0.1 0.8 0.2-0.8-1.5 0.3-3.1-2.1-2-0.4 0.2-1 1.3-1.6 1.4-0.9 0-0.7-0.8-1.5-1-1.1-0.2-3 0.7-4 1-1.5 0.5-2.5 1.3-4.1 1.1-0.1-0.3-0.1-0.6-0.1-0.9-1.4-0.6-0.7-2.7-0.9-4q-0.4 0-0.7 0 0.2-1.1-0.8-1.5c0.5-1.3-0.7-1.6-1.7-1.2-1.8 0.8 0.1 0.8-0.3 1.9-0.1 0.5-1.2 0.4-1.3 0.8-0.2 0.8 0.4 0.6 0.4 1 0.1 0.6 1.6 1 0.1 1.7 0 0.1 0.2 0.3 0.2 0.4 0 0.3-0.2 0.9-0.3 1.2-2.5 0.6-1.7-1.4-2.4-2.8-0.6-1.3-2.1-2.2-3-2.8-2.6-1.6-4.7-4.4-8.3-2.8-0.7 2.2 2.5 2.7 4.1 2.8-0.4 3.1-4.1 0.1-5.3-0.2-0.5-0.2-1 0-1.5-0.2-0.5-0.2-0.8-0.6-1.2-0.7-1.5-0.5-1.5-0.1-2.8 0.5-0.6 0.2-1 0-1.6 0.3-0.5 0.4-0.3 1.2-0.9 1.6-1.3 0.8-2-0.4-3.3 0.1-2.5 0.9 0.6 3.9-3.4 3.7-0.2 0.8-1.3 2.2-1.8 2.8-0.8 0.8-1.3 1.6-2 2.3-0.6 0.5-1.3 0.7-1.9 1-0.4 0.1-0.8-0.2-1.2 0-0.3 0.1-0.4 0.7-0.7 0.9-0.8 0.3-2.1 1.3-2.9 1.5-4.2 0.7-1-3.4-0.8-5.3 0.2-1.5 0.3-2.2 0.8-3.4 0.4-0.9 0.9-1.8 1.6-2.5 0.7 0.6 1.3 0.3 2.2 0.2 0.3 0 0.4 0.5 0.8 0.4 0.3 0 0.4-0.5 0.7-0.6 0.9-0.2 2.4-1.4 3.1-0.7 1.7-1 3.5-4.7 0.2-4.6 0.2-0.2 0.2-0.8 0.5-1-0.2-0.1-0.5-0.1-0.7-0.1 0.8-2.1 3.4-0.3 4.3-1.7 0.8 0.4 1.4 0.3 2.2 0.4 0.6-0.6 0.5-1.5 1-2 0.4-0.5 1.2-0.5 1.6-1 0.9-1.2 0.2-3 1.7-4 0.6-0.4 1.5-0.1 2.2-0.6 0.9-0.6 0.7-1.2 1.9-1.5 1.6-0.4 2.6 0.9 3.8 0.9 0.4 0 1.7-0.8 2.3-0.9 0.6-0.2 1.7-0.1 2.2-0.4 0.7-0.3 1-0.9 1.7-1.2 1-0.3 1.2 0.2 1.9 0.1 2.3 0 0.4-0.6 1.1-2.1 0.6-1.1 3.2-2.1 3.9-0.8 0.3-0.2 6.8 1.5 4.1-1.8-0.1-0.1-1.4-0.3-1.7-0.4-0.3-0.2-0.4-0.8-0.9-1-1.3-0.4-2.7 0.3-4-0.2 0.1-2.4-1.3-1.6-2.7-1-2.2 1-2-0.3-4.1-0.5-0.2-1.3 1.1-1.9 0.9-3.1-1.2-0.3-1.3 0.4-1.9 0.9-0.2 0.1-1.2 1.2-1.3 1.6-0.6 1.3 1.1 3.3-0.9 3.7 0.7 1.7-1.8 3.8-3.4 3.3-0.3-1.4 0.1-3.1 0.1-4.6-1.1-0.2-1.2 0.8-2.2 0.9-0.5-2.7-2.2 0.6-2.7 1.1-0.4-0.3-0.7-0.1-1.1-0.3 1 1.9-2.4 3.2-1.9 1 0 0-0.2 0.2-0.4 0.1-0.2-2 2.4-4.4 4-5.5 2.3-1.6 4.7-1.5 6.4-3.8 1.6-2.1 3.9-2.8 6.6-3.2 1.2-0.2 2.5 0.4 3.7 0.5 0.9 0.1 2.7-0.1 3.4 0.6-0.5 0.7-1.4 1-2 1.5 0.7 0.5 1.5 0.4 2.3 0.7-0.6 0.1-1.5 0.6-0.8 1.3 0.4 0.4 1.7-0.1 2.3 0-0.2 0.1-0.6 0.4-0.8 0.5 0.7 0.3 1.7 0.5 2.7 0.4-0.8 0.9-0.2 1.4 0.4 1.5 0.6 0.2 1.1-1.8 1.7 0 1.5-0.2 1.2-1.8 0.5-2.7 1.9-1.2 0.9-2.3-0.9-2.6-1.4-0.2-2.9 0.4-3.2-1.5 0.1-0.1 0.4-0.1 0.5-0.1-1.7-1.8 0.9-1.2 1.6-1.5-0.6-1.5 3.2-0.8 1.6-2.9-0.4-0.6-3.1-0.5-3.6-1.3-0.6-0.8-0.7-0.4-0.1-1.4 0.4-0.7 1.1-1.3 2-1.7 33.2-0.3 66 14.9 87 43.7 6.2 8.4 10.9 17.4 14.2 26.7-1.4-0.2-5-3.4-5.9-3.9zm-76.7-31.1q-0.2 0-0.3-0.1c-0.2-0.6-0.5-0.8-1.4-0.7 0.1-0.2 0.1-0.5 0.2-0.7-1.7-0.3-3.9 0.7-5.5 0-2.5-1.3 1.5-1.1 1.7-2.3-0.4-0.1-0.6-0.4-1.1-0.4 0.2-0.2 0.2-0.4 0.5-0.6 0-0.2-0.1-0.6-0.2-0.9q-0.3 0-0.7 0c0.1-0.5-0.1-0.5-0.4-0.8l-0.9-0.3c-0.8-1.4-1.3 0.3-1.7 0.6-0.9 0.5-1.1 0.7-2.1 0.4-0.9-0.3-1.4-0.9-2.3-1-0.2 0-1.7 0.5-2.2 0.6-1.7 0.3-3.8 0.8-5.5 1.1-2 0.2-4.2 0.3-4.7 2.6 1.3 0.2 2.4 0 3.7 0 0.2 1.4 2.5 0.1 3.6 0.2 0 0.3 0.1 0.7 0.1 0.9 1.6 0.4-0.1 0.9 0.1 1.3 0.5 1 0.7 0.4 1.7 1.2 1.3 0.8 1.9 2.1 3.4 2.6 0.8 0.3 1.7-0.1 2.5 0 0.8 0.2 1.6 1.3 2.6 0.8 1.1-0.6 0.6-4.1 2.5-1.9 0.5-3 6.7 1.3 6.4-2.6zm21.6 4.5c-0.5-0.7-1.3-1.2-2.3-1.2 1.6-2.4-1.3-1.5-0.8-3.9-0.9-0.5-1.8 0.2-2.7 0.2 0-0.3-0.1-0.7-0.1-0.9-1.1 0-5.2-1.4-2.7-2.7-0.8-0.4-1.1-1.2-0.9-2.1-2.1-0.1-6-0.1-6.5-2.8-0.3-1.8 4.1-2.6 2.9-4.8l-0.2-1.1c0.1-0.1 0.4 0 0.2-0.3-0.9-0.1-1.9-0.1-2.8 0 0.1 0.2-0.1 0.6 0 0.8-1.3 0.3-1.9 1.5-3.2 1.6 0.5 1.5-0.5 1.7-1.1 2.8 1.2 0.4 0.5 1.9 0.4 2.8 0.5 0.8 0.8 1.7 2.2 1.4-0.4 1.5 0.9 1.8 2 1.9-0.1 1.9 2.2 2.3 2.5 4.1 0.4 2.1-0.1 2.8 2 3.8 2.8 1.3 8.4 3.1 11.1 0.4z"/>
												<path id="&lt;Path&gt;" class="s30" d="m973.5 752.3c0.4-1.5 0.8-2.9 0.7-4.4 0-0.1-0.6-0.6-0.7-1 0 0.2 0.5-0.9 0.5-1 0.3-0.7 0.7-1.5 0.8-2.3 0.3-1.5 0.2-3.1 0-4.3-0.4-1.6-1-2.6 0.6-4.1 0.7-0.6 1.6-0.7 2.2-1.6 0.3-0.4 0.5-1.5 0.8-2.1 0.3-0.6 0.8-1.6 1.3-2.1 0.6-0.5 1.7-0.6 2.2-1.2 0.8-1.1 0-3.1 0.7-4.2 0.9-1.8 1.8-2 0.1-4l1.2-0.2c0.3 0.4 0.7 0.6 1 1.1 2.6 0.7 1.5 6.5 1.4 7.8-0.1 0.5 0.3 1.3 0.2 2.1 0 0.8-0.4 1.3-0.5 2-0.2 1.1 0.2 3.6-1.7 3.7 0.1 0.4-0.1 0.9 0.1 1.4-1.2 0.1-1.9 0.9-1.8 2.1 2.2 0.3 1.7 0.6 1.5 2.3 1.1 0.3 2.4-0.6 3 0.4 0.6 1.1-0.7 1.5-1.6 2-1.9 1.1-4.3 1.3-4.7 3.5-0.2 1.4 0.4 2.3-0.7 3.2-0.5 0.5-1.3 0.2-1.8 0.7-0.3 0.4 0.1 1.2-0.3 1.7-0.3 0.4-1.2 0.4-1.5 0.7-0.4 0.3-0.4 1-0.8 1.4-0.9 1-1.8 1.2-3.1 0.8 0.8-1.1 0.5-3.1 0.9-4.4z"/>
												<path id="&lt;Path&gt;" class="s30" d="m863.1 790.7c-0.6 0-1.4 0-2.1 0-8-6.2-15.4-13.5-21.6-22.1-17.2-23.6-23.3-51.8-19.3-78.5 0.5 2.6 0.8 5.1 1.5 7.6 0.4 1.6-0.1 2.7 0.5 4.3 0.7 1.8 1 2.4 0.7 4.4-0.2 1.2-0.3 3.4 0.7 4.3 1.2 0.9 2.5-0.2 3.6 0.5 2.6 1.6 1 5.3 1.5 7.6 0.1 0.7 0 0.5 0.5 0.8 0 0.7 0.1 1.4 0.1 2.1 2.5-0.5 0.9 2.7 1.1 3.9 1.3 0.3 2.6 3.2 3 4.4 1.9 0.4 1.7-2.3 3.8-1.7 0 2.3 1.9 0.5 3.2 0.8 0.2 0.9 2.5 1.3 3.4 1.9 1.8 1.3 1 1.9 1.2 3.5 0.1 1.5 1 2.4 0.9 3.9-0.1 1.4-0.9 2.6-1.6 3.9-0.1 0.2-0.7 0.2-0.8 0.6-0.1 0.3 0.3 0.8 0.3 0.8-0.4 0.9-0.3 0.7-0.9 1.4-0.9 1-2 1.1-0.5 2.7 0.5 0.5 1.2 0.4 1.6 0.9 0.4 0.6 0.2 1.8 0.4 2.5 0.3 1.3 0.8 2.5 1.3 3.8 0.3 0.8-0.1 1.4 0.8 2 2.1 0.1 2.1 1.3 2.9 3.1 0.3 0.6 0.8 2 0.7 2.5-0.6 1.4-1 0.4-2.1 0.9-1.3 0.6-1 0.7-1.3 1.9-0.1 0-0.4 1.2-0.4 1.2 0.2 0.5 0.8 0.7 0.9 1.1 0.3 1.2 0.3 1.7 1 2.6 0.3 0.4 1.5 1.5 2.2 1.5-0.2 1.5 1.1 2.1 0.8 3.6 1.8 0.5 1.8 2.8 2.4 4.2 0.7 1.5 2.5 2.5 3.6 3.8 1 1.1 1.9 2.4 2.7 3.7 0.5 0.6 0.8 1.6 1.3 2.1 0.6 0.7 1.4 0.9 2 1.5z"/>
												<path id="&lt;Path&gt;" class="s30" d="m989.6 786.7c-0.1 0.5 0.4 0.8-0.3 1.4 1.4 0-0.2 1.2-0.3 1.6-0.2 0.6-0.2 1.1-0.3 1.7q-0.2 0.2-0.5 0.4c-19.7 14.4-42.7 21-65.3 20.5 0.4-0.3 0.8-0.6 1.1-0.9 0.4-0.3 0.7-0.7 1.2-1.1 0.2-0.2 0.6-0.3 0.9-0.5 0.2-0.2 0.2-0.7 0.5-0.9 1.1-0.9 4.7-3.8 6-2.5 0.6-0.5 1.3-0.3 1.9 0 0.5-0.4 1-0.3 1.6-0.3-0.1-1.1 1-1.3 1.1-0.1 1.3-0.4 2.8 0.6 4.3 0.1 0.9-0.3 1.1-0.9 2.3-0.7 0.8 0.1 1.3 0.5 2 0.7 0.3-0.6 1.3-0.7 1.8-1.2 0.4 1 2.4 1.2 3.3 0.6-0.1 0 0.8-1.2 0.7-1.2 0.2-0.5 0.5-0.8-0.3-1 0.2-0.3 0.3-0.5 0.6-0.7 0.3-0.3 0.6-0.2 0.9-0.4 0.5-0.3 0.8-0.9 1.5-0.9 0-0.2 0.1-0.5 0-0.7 0.5-0.1 1 0.2 1.4 0.5 0.7-0.5 2.1-0.6 2.9-1 1.1-0.5 2.1-0.4 3.2-0.8 0.9-0.3 1.5-1 2.2-1.5 0.7-0.5 1.5-0.5 2.2-1 0.4-0.3 0.2-0.6 0.7-1 0.3-0.2 1.1-0.3 1.4-0.3 1.1 0.2 0.9 0.7 2.2 0.4 1.6-0.4 2.7-1.7 3.5-3.1 0.8-0.2 1.5-0.6 2 0.3 0.6-0.3 1.3-0.3 1.5-0.8 1.8-0.3 1.6 2.2 3.5 1.9 0.8-0.1 1.6-0.6 2.3-0.9 1.1-0.5 0.9-0.8 1.7-1.5 0.4-0.5 1.1-0.6 1.6-0.9-0.1 0 0.6-0.9 0.6-0.9 0.3-0.5 0.3-0.5 0.5-1.1 0.4-1.1 0.3-1 1.1-1.8 0.6-0.7 0.8-1.3 1.1-2.2v0.3c0.2 0.5-0.1 1-0.3 1.5z"/>
												<path id="&lt;Path&gt;" class="s30" d="m883.4 617.6c0.8-1.2-0.1-1.3 1.8-1.8 0.8-0.2 1.4-0.1 2.2-0.3 1-0.2 4.2-1.7 4.7-2.2l-0.9 0.9c-0.3 0.2-0.5 0.6-0.9 0.6-0.9 1.6-1.8 2.5-2.7 4.1-1.7-0.2-1.1 1.1-1.9 1.8-0.1 0.1-2.6 1.3-2.6 1.3-2.6-0.3-0.1-3.5 0.3-4.4z"/>
											</g>
											<g id="&lt;Clip Group&gt;" clip-path="url(#cp1)">
												<path id="&lt;Path&gt;" class="s42" d="m785.9 636.1c29.9 40.9 20.9 98.3-20 128.2-40.9 29.9-98.3 20.9-128.2-20-29.9-40.9-20.9-98.3 20-128.2 40.9-29.9 98.3-20.9 128.2 20z"/>
												<path id="&lt;Path&gt;" class="s43" d="m778.1 641.8c26.8 36.6 18.8 88-17.9 114.7-36.6 26.8-88 18.8-114.8-17.9-26.7-36.6-18.7-88 18-114.8 36.6-26.7 88-18.7 114.7 18z"/>
											</g>
										</g>
									</g>
								</g>
								<path id="&lt;Path&gt;" class="s44" d="m1011.4 643c15.3 20.9 21.8 45.4 20.3 69.4-17.6 32-63.5 46.3-108.9 32-50.3-15.8-81-60.6-68.6-100.1 5.2-16.7 17.4-29.8 33.5-38.1 43.8-16.6 94.8-2.8 123.7 36.8z"/>
							</g>
						</g>
					</g>
				</g>
			</g>
			<path id="Biblioteca" class="s11" aria-label="Biblioteca"  d="m557.8 196.9l-14.5-98.1q-1.3-2.4-1.8-4.2-0.5-1.8-0.5-4.2 0-0.8 0-1.7 0.2-0.8 0.5-1.4 0.5-0.7 1.3-1 1-0.3 2.4 0.2 1 0.3 2 1.3 1 0.8 1.8 2.3 1 1.3 1.4 2.6 0.7 1.3 1 2.1 3.8-3 8.2-5.9 4.4-3.1 9.3-5.4 5-2.4 10-3.9 5.3-1.4 10-1.4 1.6 0 3.9 0.3 2.3 0.3 4.2 1.1 2.1 0.8 3.4 2.3 1.5 1.3 1.5 3.4 0.5 3.9-1 8-1.3 3.9-3.7 7.7-2.3 3.7-5.4 7.3-2.9 3.6-6 6.8-2.9 3.3-5.5 6.1-2.5 2.7-3.8 4.8 6.7-4.4 14.3-6.3 7.9-2.1 15.7-2.1 2.4 0 5.2 0.3 2.9 0.2 5.4 1.1 2.4 1 4 2.8 1.7 1.8 1.7 5.1 0 3.2-3.1 9.1-3 5.7-7.9 12.7-4.7 6.8-10.5 14-5.7 7-11.1 12.8-5.4 5.7-9.8 9.5-4.2 3.6-6 3.6l-4.2-2q0.8-3.1 4-7.3 3.3-4.2 7.7-8.8 4.5-4.6 9.6-9.6 5.2-5.1 9.8-9.8 4.5-4.7 7.9-9.1 3.5-4.6 4.4-8.1 1.2-3.8-0.8-6.2-1.9-2.6-8-3.9-6.3 0-13.3 2.2-7 2.2-13.4 6.2-6.3 4.1-11.4 9.8-4.9 5.5-7.1 12.5 0 4.6 0.6 9 0.8 4.4 1.6 8.8 0.9 4.2 1.5 8.6 0.8 4.4 0.8 8.8 0 3.3-0.5 5.4-0.4 2.1-4 2.1-0.4 0-1.2 0-0.6-0.2-0.6-0.3zm-4.1-87.8q0 6 0.8 12.9 0.8 6.6 3.3 12.3 2.4-2.1 6-5.5 3.7-3.6 7.7-7.6 4-4.1 7.8-8.7 3.9-4.5 7-8.8 3.2-4.2 5-7.8 2-3.7 2-6.2 0-1.9-1.3-2.6-1.2-0.6-2.8-0.6-3.9 0-10.1 1.6-6 1.6-11.7 4.6-5.6 2.9-9.6 7.1-4.1 4.1-4.1 9.3zm79.6 86.6q0-10.5-0.4-22.3-0.4-11.7-0.9-23.6-0.3-12-0.1-23.6 0.1-11.6 1.4-21.7 0.4-0.1 1.5-0.1 1.3-0.2 1.8-0.2 2.3 0 3.6 0.8 1.4 0.7 1.4 3.1 0 9.6-0.1 21 0 11.3-0.2 23 0 11.6 0 23 0 11.4 0.3 20.6 0.2 2.8-1.1 3.8-1.1 0.8-2.9 0.8-2 0-3.3-0.8-1.3-1-1-3.8zm-3.5-116.6q0-1.9 1.3-2.6 1.3-0.6 2.9-0.6 3.3 0 4.1 2.1 0.8 2.1 0.8 4.9-1 1.8-2.5 2.6-1.4 0.6-3.1 0.3-1.4-0.5-2.6-2.1-0.9-1.6-0.9-4.6zm25.7 118.8q-0.8-12.9-0.7-27.4 0.4-14.5 0.9-31.3 0.4-16.7 0.8-36.3 0.5-19.7 0.1-43 1.8 0 3.8-0.1 1.9-0.4 3.4-0.2 1.6 0.2 2.6 1 1.1 0.8 1.1 2.9 0 6-0.4 14-0.4 7.8-1 17.3-0.7 9.3-1.2 20-0.3 10.8-0.3 22.6 5.7-7.4 10.6-12.2 4.9-4.7 9.3-7.5 4.4-2.9 8.6-3.5 4.2-0.9 8.3-0.5 4.7 0 7.7 2.6 3.1 2.6 4.7 6.5 1.6 3.9 2.3 8.8 0.6 4.7 0.6 9.3 0 3.2-0.5 7-0.3 3.5-1.8 7.9-1.4 4.4-4.5 9.2-2.9 4.5-8.3 9.7-5.4 5.2-13.7 10.8-8.1 5.5-19.9 11.4-3.9 1.1-6.3 1.4-2.3 0.2-3.8 0.2-1.3-0.2-1.9-0.3-0.5-0.2-0.5-0.3zm7.6-41.2l-0.6 31.4q0.8-0.5 4.4-2.1 3.6-1.8 8.5-4.6 4.8-2.8 10.5-6.7 5.7-3.9 10.5-9.1 4.9-5.2 8.3-11.7 3.4-6.5 4-14.3 0-2.3-0.6-4.9-0.7-2.6-2.1-4.9-1.3-2.3-3.4-3.8-2.2-1.6-5.1-1.6-6 0-11.4 3.3-5.2 3.2-9.6 8.1-4.4 4.9-7.8 10.6-3.4 5.5-5.6 10.3zm67 34q1.1-7.5 1.4-18.7 0.5-11.3 0.4-24 0-12.7-0.5-26.2-0.5-13.5-1.3-25.6-0.8-12.2-2-21.8-1-9.6-2.1-15.1 1.5-1 2.4-1.5 1.2-0.6 2.7-0.6 1.1 0 1.9 0.4 0.8 0.4 1.3 1.7 3.3 31.9 4.4 64.3 1.3 32.4 2 64.5 0 1.5 0 4.1 0 2.4-0.2 2.6-2.3 1.1-4.1 1.1-1.8-0.2-3.2-1-1.5-0.9-2.3-2.1-0.8-1.1-0.8-2.1zm22.1 5q0-10.5-0.5-22.3-0.3-11.7-0.8-23.6-0.3-12-0.1-23.6 0.1-11.6 1.4-21.7 0.4-0.1 1.5-0.1 1.3-0.2 1.8-0.2 2.3 0 3.6 0.8 1.4 0.7 1.4 3.1 0 9.6-0.1 21 0 11.3-0.2 23 0 11.6 0 23 0 11.4 0.3 20.6 0.2 2.8-1.1 3.8-1.1 0.8-2.9 0.8-2 0-3.3-0.8-1.3-1-1-3.8zm-3.6-116.6q0-1.9 1.3-2.6 1.3-0.6 3-0.6 3.2 0 4 2.1 0.9 2.1 0.9 4.9-1 1.8-2.5 2.6-1.4 0.6-3.1 0.3-1.4-0.5-2.6-2.1-1-1.6-1-4.6zm23 97.6q-1.1-7.5-1.1-14.5 0-7.2 0.8-14.5 1-7.3 2.6-15.1 1.8-8 4.1-17.1 0-1.8 0.9-3.3 1-1.6 2.6-2.6 1.7-1.1 3.5-1.8 1.8-0.6 3.4-0.6 3.6 0 6.5 2.2 2.9 2.3 5.2 5.6 2.4 3.2 4.1 7 1.8 3.6 2.9 6.2 1.3 5.7 1.8 13 0.6 7.2 0.2 14.6-0.5 7.5-2.3 14.9-1.8 7.1-5.1 13.2-3.2 6-8.4 10.1-5.1 4-12.1 5-3.7 0-5.7-2.4-1.9-2.6-2.9-6.2-0.8-3.8-1-7.5 0-3.8 0-6.2zm8.3-0.5q0 1.6 0 3.1 0.2 1.5 0.3 2.9 0.4 1.3 0.7 3 0.5 1.4 1.1 3.4h1q3.9 0 6.7-2.6 2.7-2.6 4.7-6.7 2-4.2 3.3-9.3 1.3-5.2 1.9-10.1 0.8-5 1-9.3 0.3-4.4 0.3-7v-3.2q0-2.1-0.1-4.7-0.2-2.8-0.7-5.6-0.3-2.9-1.1-5.2-0.9-2.4-2.2-3.9-1.3-1.5-3.4-1.5-3.6-1.1-6.2 0.5-2.4 1.6-4 5.6-1.5 3.7-2.3 9.2-0.8 5.6-1 12.2-0.2 6.7-0.2 14.2 0.2 7.5 0.2 15zm44.8 24.1l-4.1-70.8q-1.6 0.8-3.1 1.8-1.3 0.8-2.6 1.6-1.3 0.6-2.6 1-1.3 0.3-2.8 0-0.9 0-1.6-1.2-0.6-1.3-1.1-2.7-0.3-1.7-0.5-3.1-0.2-1.7 0-2.5l15.6-8.9 1-41.7q0.3-2.2 2.6-1.7 2.3 0.4 4.7 1 0.4 0 1 0.3 0.8 0.2 1.1 0.4-0.3 4.4-0.8 9.6-0.3 5-0.6 10.2-0.3 5.1-0.5 10 0 4.9 0.5 8.8l24.4-6.9q0.7-0.1 1 1 0.5 1 0.8 2.4 0.5 1.5 0.7 3 0.1 1.4 0.1 1.4l-27.7 11.8q0 1.4 0.2 7 0.3 5.5 0.6 13.2 0.4 7.4 0.7 16.2 0.3 8.7 0.6 16.2 0.4 7.5 0.5 13.2 0.2 5.5 0.2 7-0.3 4.8-2.9 4.8-2.5 0-5.4-2.4zm41-36.5q-0.8 0.2-2.4 0.5-1.6 0.3-3.4 0.2-1.8-0.2-3.3-1-1.3-0.8-1.3-2.8 0-1.1 0.5-1.6 0.5-0.5 1.6-1.5 3.6-2.9 6.1-7.5 2.6-4.7 4.7-9.9 2.1-5.4 4.4-10.6 2.4-5.3 5.5-9.6 3.1-4.2 7.7-6.8 4.5-2.6 11.2-2.5 2.8 0 6.2 1.3 3.4 1.3 6.3 3.6 3 2.1 4.9 5.2 2 3.1 2 6.9 0.8 1.3-1.6 3.7-2.3 2.5-6.4 5.4-4.1 2.8-9.3 5.9-5 2.9-9.8 5.5-4.7 2.6-8.3 4.5-3.5 2-4.7 3-0.8 1.6-1.3 3.7-0.5 2.1-0.8 4.1-0.2 1.8-0.3 3.4 0 1.5 0 2.3 0 3.1-0.3 6.8-0.2 3.8 0.3 7.2 0.6 3.3 2.7 5.5 2.2 2.2 7.2 2.2 5.4 0 10.1-2.6 4.7-2.8 8.8-6.7 4.1-3.9 7.3-8.5 3.4-4.6 6.1-8.5 2.7-4 4.8-6.6 2.2-2.6 3.6-2.6 1.7 0 3.4 0.6 2 0.5 2 2.6 0 2.9-2.4 7-2.3 4.1-6.2 8.6-3.8 4.6-8.8 9.2-4.9 4.4-10 7.9-5 3.5-9.9 5.7-4.9 2.2-8.6 2.2-7.4 0-11.1-3.6-3.7-3.6-5.4-9-1.4-5.4-1.6-11.4 0-6.2-0.2-11.4zm30-43.9q-2.8 0-5.9 2.7-3.1 2.6-5.8 6.5-2.6 3.8-4.4 7.9-1.7 3.9-1.7 6.5 2.5 0 7.1-1.8 4.7-2 9.2-4.7 4.6-2.8 8-5.9 3.4-3.1 3.4-5.9 0-1.4-1.1-2.4-1.1-1-2.8-1.6-1.4-0.7-3.1-1-1.6-0.3-2.9-0.3zm42.3 41.6q0.5-5.8 1-12.7 0.5-7 1.5-13.8 1.1-6.8 2.8-13 1.7-6.2 4.5-10.9 2.9-4.9 7.2-7.7 4.2-2.9 10.2-2.8 4.1 0 6.2 3.5 2.3 3.4 3.1 8.3 1 4.8 1 10.1 0.2 5 0.2 8.3-3.3 0-5.4-2.8-2.1-2.9-3.3-6.7-1.1-3.7-1.6-7.3l-0.5-4.7q-0.2 0-0.6 0-0.4-0.2-0.5-0.2-2.8 0-5.2 3.1-2.3 3.1-4.4 8-2 4.7-3.5 10.7-1.4 5.9-2.4 11.6-1 5.7-1.6 10.6-0.5 4.7-0.5 7.3-0.3 4.2 0 9.3 0.3 5 1.9 9.4 1.7 4.4 4.6 7.7 2.9 3.1 7.8 4.2 6 0 9.8-1.6 3.7-1.6 6-4.4 2.5-2.8 3.8-6.2 1.3-3.4 2.4-7 1.3-3.7 2.6-7.3 1.3-3.6 3.8-6.7 1.9-0.5 2.7 0.2 1 0.4 1.3 1.4 0.3 1 0.3 2.3v1.8q0 6.8-2.2 13.2-2.3 6.3-6.7 11.4-4.4 4.9-10.6 8-6 2.9-13.8 2.9-6.6 0-10.9-4.1-4.3-4.2-6.7-10.1-2.3-5.8-3.3-12.2-1-6.5-1-11.1zm111.4 33.3q-0.8-4.3-1.4-10.1-0.5-6.1-1.2-12.1-0.6-6.2-1.6-11.5-0.8-5.4-2.6-8.8-8.3 16.9-14.7 26.7-6.3 9.6-11.2 13.8-4.7 4.1-8 3.9-3.2-0.1-5.4-2.9-2.1-2.8-3-7-0.9-4.4-1.2-8.2 0-3.5 1.6-10.1 1.7-6.5 4.4-14.1 2.8-7.8 6.6-15.8 3.9-8 8.3-14.5 4.4-6.5 9.1-10.8 4.7-4.2 9.4-4.2 7-1.1 10.3 3.1 3.4 4.1 1.3 13.8 0 10.8 0.8 18.4 1 7.7 2 14.7 1.1 7 1.9 14.7 1 7.6 1 18.4 0 1.9-0.5 3.4-0.3 1.3-3.9 1.3-0.5 0-1.3-0.8-0.7-0.8-0.7-1.3zm-8.8-72.8q-1.8-2.6-4.8-0.5-3.1 2.1-6.6 7-3.4 4.9-7 11.7-3.5 6.8-6.6 13.9-3.1 7-5.4 13.3-2.3 6.2-3.1 10.3 0 5.8 1.8 6.6 1.8 0.7 4.4-1.9 2.6-2.6 5.8-7.5 3.5-4.9 6.6-10.4 3.2-5.6 6-10.8 2.9-5.2 4.5-8.4 1.5-3.5 2.3-6.4 0.8-2.9 1.3-5.5 0.7-2.8 0.7-5.6 0.1-2.7 0.1-5.8z"/>
		</g>
	</g>
</svg>