<svg version="1.2" xmlns="http://www.w3.org/2000/svg" viewBox="0 0 1500 1000" width="1500" height="1000">
	<title>28541332_7454883-ai</title>
	<defs>
		<clipPath clipPathUnits="userSpaceOnUse" id="cp1">
			<path d="m703.12 509.85v392.68l-282.7-68.14c-7.49-1.81-12.77-8.51-12.77-16.22v-358.36c0-10.79 10.09-18.74 20.59-16.21z"/>
		</clipPath>
	</defs>
	<style>
		.s0 { fill: #fa9347 } 
		.s1 { fill: #3f568e } 
		.s2 { fill: #ffffff } 
		.s3 { fill: #d14a67 } 
		.s4 { fill: #243a66 } 
		.s5 { fill: #fa4747 } 
		.s6 { fill: #9b2942 } 
		.s7 { fill: #fafcff } 
		.s8 { fill: #284070 } 
		.s9 { fill: #62748e } 
		.s10 { fill: #5775b2 } 
		.s11 { fill: #f7b24d } 
		.s12 { fill: #4a5972 } 
		.s13 { fill: none;stroke: #3f568e;stroke-linecap: round;stroke-linejoin: round;stroke-width: 2 } 
		.s14 { fill: none;stroke: #3f568e;stroke-linecap: round;stroke-linejoin: round;stroke-width: 4 } 
		.s15 { fill: #d34040 } 
		.s16 { fill: #e74f4f } 
		.s17 { fill: #f48b19 } 
		.s18 { fill: #ce3737 } 
		.s19 { fill: #d32222 } 
		.s20 { fill: #f8e8c4 } 
		.s21 { fill: #eacc8f } 
		.s22 { fill: #9a3636 } 
	</style>
	<g id="BACKGROUND">
		<path id="&lt;Path&gt;" class="s0" d="m1500 1000h-1500v-1000h1500z"/>
	</g>
	<g id="OBJECTS">
		<g id="&lt;Group&gt;">
			<g id="&lt;Group&gt;">
				<path id="&lt;Path&gt;" class="s1" d="m927.7 622.4c-4.5-0.9-7.3-5.3-6.4-9.7l84.6-410.3c1-4.5 5.3-7.3 9.7-6.4 4.5 0.9 7.3 5.2 6.4 9.7l-84.6 410.3c-0.9 4.4-5.3 7.3-9.7 6.4z"/>
				<g id="&lt;Group&gt;">
					<g id="&lt;Group&gt;">
						<path id="&lt;Path&gt;" class="s1" d="m1245.4 452.6l-263.1-54.2 38.9-188.8 263.1 54.3z"/>
						<g id="&lt;Group&gt;">
							<g id="&lt;Group&gt;">
								<path id="&lt;Path&gt;" class="s2" d="m1282.8 271.3l-2.2 10.4-111.8 34.3 20.1 4.1 89.5-27.4-2.2 10.5-68.2 20.9 61.3 12.6-1.9 9.2-97.2-20-20.1-4.2-2.3-0.5-23.9-4.9-2.3-0.5-20.1-4.1-97.2-20.1 1.9-9.2 61.3 12.7-54.4-46.2 2.1-10.4 71.4 60.5 20.1 4.2-71-60.3-18.2-15.5 2.2-10.4 97.9 83.2 13.8-66.9 9.2 1.9-14.8 71.9 23.9 5 14.8-71.9 9.2 1.9-13.8 66.8z"/>
								<path id="&lt;Path&gt;" class="s2" d="m1261.9 372.5l-1.9 9.2-61.3-12.6 54.4 46.1-2.2 10.5-16.7-14.2-54.6-46.4-20.1-4.1 51.2 43.4 38 32.3-2.2 10.5-97.9-83.2-13.8 66.8-9.2-1.9 14.8-71.9-23.9-4.9-14.8 71.9-9.2-1.9 13.8-66.8-122.9 37.6 2.2-10.5 111.8-34.2-20.1-4.2-89.5 27.4 2.2-10.5 68.2-20.8-61.3-12.7 1.9-9.2 97.2 20.1 20.1 4.1 2.3 0.5 23.9 4.9 2.3 0.5 20.1 4.2z"/>
							</g>
							<path id="&lt;Path&gt;" class="s3" d="m1168.8 316l111.8-34.3-2.2 11-89.5 27.4z"/>
							<path id="&lt;Path&gt;" class="s3" d="m1106.7 303.2l-20.1-4.2-71.4-60.5 2.3-11.1z"/>
							<path id="&lt;Path&gt;" class="s3" d="m1097.4 348.2l-111.8 34.2 2.2-11 89.5-27.4z"/>
							<path id="&lt;Path&gt;" class="s3" d="m1234.2 411.5l16.7 14.2-2.2 11-38-32.3-51.2-43.4 20.1 4.1z"/>
							<path id="&lt;Path&gt;" class="s3" d="m1267.4 345.9l-5.5 26.6-119.6-24.7-16.7 81.1-23.9-4.9 16.7-81.1-119.6-24.7 5.5-26.6 119.6 24.7 16.7-81.1 23.9 5-16.7 81z"/>
						</g>
					</g>
				</g>
			</g>
			<g id="&lt;Group&gt;">
				<path id="&lt;Path&gt;" class="s4" d="m564.3 458.5c-94 91.8-184.3 91.5-186.7 91.1 69.8-111.9 184.3-91.6 186.7-91.2z"/>
				<g id="&lt;Group&gt;">
					<g id="&lt;Group&gt;">
						<g id="&lt;Group&gt;">
							<g id="&lt;Group&gt;">
								<path id="&lt;Path&gt;" class="s1" d="m799.4 509.9v392.6h-96.3v-392.6z"/>
								<path id="&lt;Path&gt;" class="s1" d="m799.4 902.5c0 16.2-21.6 29.4-48.2 29.4-26.5 0-48.1-13.2-48.1-29.4z"/>
							</g>
							<path id="&lt;Path&gt;" class="s4" d="m799.4 509.9c0 16.2-21.6 29.3-48.2 29.3-26.5 0-48.1-13.1-48.1-29.3z"/>
						</g>
						<path id="Reading
" class="s2" aria-label="Reading"  d="m740.1 646.3l41.4-0.1q0 0.1 0 0.4-0.1 0.3-0.1 0.6 0 0.4-0.1 0.7 0 0.4 0 0.4 0 0.3-0.1 0.8-0.1 0.5-0.6 0.5h-4.6q0.2 0.9 1 2 0.7 1.2 1.5 2.7 0.8 1.6 1.3 3.5 0.5 1.9 0.3 4.4-0.8 3.9-1.9 5.6-1 1.7-2.3 1.8-1.3 0.1-2.7-1.1-1.5-1.2-3-3.1-1.5-1.9-3-4.3-1.5-2.3-3-4.6-1.4-2.2-2.6-4.1-1.3-1.8-2.3-2.8-0.3 0.9-1.1 2.4-0.8 1.6-1.8 3.5-0.9 1.9-2 3.9-1.1 2.1-2.1 3.9-0.8 1.8-1.6 3.3-0.6 1.4-0.8 2-0.3 0.6-0.5 1-0.3 0.4-0.5 0.7-0.2 0.4-0.4 0.4-0.2 0-0.6-0.2-0.3-0.1-0.6-0.4-0.3-0.2-0.6-0.5-0.2-0.3-0.2-0.5 0-0.1 0-0.3 0-0.1 0-0.2 0.1-0.1 0.4-0.7 0.3-0.6 0.6-1.2 0.4-0.6 0.7-1.3 0.3-0.5 0.3-0.7 0.2-0.6 0.8-1.9 0.6-1.2 1.3-2.8 0.8-1.6 1.7-3.3 0.9-1.8 1.7-3.4 0.7-1.6 1.3-2.8 0.6-1.3 0.7-1.9h-15.9zm32.5 3.4q-0.9-0.1-2.2-0.3-1.2-0.1-2.6-0.2-1.3-0.1-2.7-0.2-1.3-0.1-2.4-0.1 0.2 0.2 0.8 1.5 0.7 1.2 1.6 3 0.9 1.7 2.1 3.8 1.1 2 2.3 3.9 1.2 1.8 2.4 3.1 1.2 1.4 2.2 1.8 1 0.4 1.9-0.4 0.8-0.8 1.3-3.4 0.1-1.4-0.2-3.2-0.2-1.7-0.9-3.5-0.6-1.8-1.5-3.4-0.9-1.5-2.1-2.4zm-22 24.1q0-0.3-0.1-0.8-0.1-0.5-0.1-1.1 0.1-0.6 0.3-1.1 0.3-0.4 0.9-0.4 0.4 0 0.5 0.2 0.2 0.1 0.5 0.5 0.9 1.1 2.4 1.9 1.5 0.9 3.2 1.5 1.7 0.7 3.3 1.4 1.7 0.8 3.1 1.8 1.3 1 2.2 2.4 0.8 1.5 0.7 3.6 0 0.9-0.4 2-0.4 1.1-1.1 2-0.7 0.9-1.7 1.5-1 0.7-2.2 0.7-0.4 0.2-1.1-0.6-0.8-0.7-1.8-2-0.8-1.3-1.8-2.9-1-1.6-1.8-3.1-0.8-1.5-1.4-2.7-0.7-1.1-1-1.5-0.5-0.2-1.2-0.4-0.6-0.2-1.3-0.3-0.5 0-1-0.1-0.5 0-0.8 0-1 0-2.1-0.1-1.2 0-2.3 0.1-1.1 0.2-1.8 0.9-0.7 0.7-0.7 2.3 0 1.7 0.9 3.2 0.8 1.5 2.1 2.8 1.2 1.3 2.7 2.3 1.4 1.1 2.7 2 1.3 0.8 2.1 1.5 0.8 0.7 0.8 1.2 0 0.5-0.2 1-0.1 0.7-0.8 0.7-0.9 0-2.2-0.8-1.3-0.7-2.8-2-1.4-1.2-2.9-2.8-1.4-1.5-2.5-3.1-1.1-1.6-1.8-3.2-0.7-1.6-0.7-2.7 0-2.4 1.1-3.6 1.2-1.2 2.9-1.7 1.7-0.4 3.6-0.5 2 0 3.6 0zm14 9.5q0-0.9-0.9-1.9-0.8-1-2-1.8-1.2-0.9-2.5-1.4-1.3-0.6-2.1-0.6 0 0.8 0.6 2.3 0.6 1.5 1.5 2.9 0.9 1.5 1.9 2.6 0.9 1 1.8 1 0.5 0 0.8-0.3 0.3-0.4 0.5-0.9 0.2-0.5 0.3-1 0.1-0.5 0.1-0.9zm-23.8 28.2q1.3-0.3 3.2-0.5 1.9-0.2 3.8-0.4 2-0.2 3.7-0.5 1.7-0.2 2.8-0.8-5.4-2.6-8.5-4.7-3-2-4.4-3.5-1.3-1.5-1.2-2.6 0-1 0.9-1.7 0.9-0.7 2.2-1 1.4-0.2 2.6-0.3 1.2 0 3.2 0.5 2.1 0.5 4.5 1.4 2.5 0.9 5.1 2.1 2.5 1.2 4.6 2.6 2.1 1.4 3.4 2.9 1.3 1.5 1.3 3 0.4 2.2-0.9 3.3-1.3 1.1-4.4 0.4-3.5 0-5.9 0.2-2.4 0.3-4.7 0.7-2.2 0.3-4.6 0.6-2.5 0.3-5.9 0.3-0.6 0-1.1-0.2-0.4-0.1-0.4-1.2 0-0.2 0.3-0.4 0.2-0.2 0.4-0.2zm23.2-2.8q0.8-0.6 0.1-1.6-0.7-1-2.2-2.1-1.6-1-3.7-2.2-2.2-1.1-4.5-2.1-2.2-1-4.2-1.7-2-0.7-3.3-1-1.8 0-2.1 0.6-0.2 0.5 0.6 1.4 0.9 0.8 2.4 1.8 1.6 1.1 3.3 2.1 1.8 1 3.5 1.9 1.6 1 2.6 1.5 1.1 0.4 2.1 0.7 0.9 0.3 1.7 0.4 0.9 0.2 1.8 0.2 0.9 0.1 1.9 0.1zm-28.3 19l13.2-0.2q-1.2-0.5-2.7-1.3-1.6-0.8-3-1.9-1.4-1-2.4-2.4-0.9-1.4-0.9-3.1 0-0.8 0.1-1.3 0.2-0.4 0.6-0.7 0.3-0.4 0.9-0.7 0.5-0.2 1.1-0.6 2.5-0.2 5.4-0.2 3 0 5.9 0.3 3 0.3 5.5 1 2.6 0.8 4.5 2.1 1.8 1.4 2.5 3.5 0.8 2.1 0.1 5 1.5 0.2 3.9 0.1 2.5-0.1 5.2-0.3 2.7-0.2 5.1-0.5 2.6-0.2 4.2-0.2 0.5 0 0.7 0.4 0.2 0.5 0.3 1 0 0.5 0 1-0.1 0.5-0.2 0.6-6.4-0.1-12.5 0-6.1 0-12.2 0.1-6.1 0.1-12.1 0.2-6 0.1-12 0.1-0.6 0-1.3-0.1-0.6 0-0.6-0.9 0-0.3 0.1-0.6 0.3-0.3 0.6-0.4zm28.3-2.4q0.1-1.6-1.3-3-1.4-1.3-3.6-2.4-2.1-1-4.8-1.6-2.6-0.6-5-0.8-2.4-0.1-4.3 0.3-1.8 0.5-2.5 1.7 0 1.1 0.9 2.1 0.9 1 2.3 1.8 1.4 0.8 3.1 1.4 1.8 0.7 3.4 1.1 1.6 0.4 2.9 0.6 1.3 0.3 2 0.3 0.5 0 1.7 0.1 1.1 0 2.3-0.1 1.1-0.1 2-0.5 0.9-0.3 0.9-1zm-23.5 8.5q3.4 0 7.1-0.2 3.7-0.1 7.5-0.2 3.8-0.1 7.5-0.1 3.7 0.1 6.9 0.5 0.1 0.1 0.1 0.5 0 0.4 0 0.5 0 0.8-0.3 1.2-0.2 0.4-0.9 0.4-3.1 0-6.7 0-3.6 0-7.3-0.1-3.7 0-7.3 0-3.7 0-6.6 0.1-0.9 0.1-1.2-0.3-0.3-0.4-0.3-0.9 0-0.7 0.3-1.1 0.3-0.4 1.2-0.3zm37.1-1.1q0.6 0 0.8 0.4 0.2 0.4 0.2 0.9 0 1-0.7 1.3-0.6 0.3-1.5 0.3-0.6-0.3-0.8-0.8-0.2-0.5-0.1-1 0.1-0.5 0.6-0.8 0.5-0.3 1.5-0.3zm-37.5 9.5q7-0.6 14-1 7.1-0.5 14.6-1 1.3 0 1.3 1.4v0.4q0 0.1-0.4 0.4-0.5 0.2-1.6 0.4-1.1 0.2-3.4 0.5-2.2 0.3-5.8 0.7-3.7 0.4-9.1 0.9 3.5 1.1 6.8 1.8 3.4 0.6 6.1 1.6 2.7 0.9 4.8 2.7 2 1.8 3 5.2-0.3 1.9-2.2 3-2 1.1-4.8 1.8-2.9 0.7-6.2 0.9-3.3 0.3-6.4 0.3-3.1 0.1-5.5 0.1-2.4 0-3.4 0.1-0.4-0.2-0.7-0.5-0.4-0.3-0.5-0.7-0.1-0.3-0.1-0.7 0.1-0.4 0.6-0.7 0.6 0 2.3-0.1 1.8-0.1 4.1-0.2 2.4-0.2 5.1-0.4 2.7-0.2 5-0.3 2.4-0.1 4.1-0.2 1.8-0.1 2.4-0.2 1.9-1.1 2.1-2.2 0.3-1-0.6-2.1-1-1-2.9-2-1.9-1-4.3-1.9-2.4-0.9-5.1-1.6-2.6-0.8-5.1-1.4-2.4-0.5-4.4-1-2-0.3-3.1-0.4-0.4-0.2-0.7-0.7-0.3-0.5-0.5-1-0.2-0.6-0.1-1.1 0.1-0.5 0.6-0.8zm-20.9 27q0.2 4.6 2.4 7.2 2.1 2.6 5.5 3.9 3.3 1.3 7.6 1.6 4.4 0.2 9 0 4.6-0.2 9.2-0.6 4.7-0.3 8.7-0.3-6.6-2.2-10.6-4.2-4-2-6.1-3.7-2-1.6-2.4-3-0.5-1.4 0.1-2.4 0.6-1 1.9-1.7 1.4-0.6 2.8-0.9 2.4 0.1 5.2 0.9 2.9 0.9 5.7 2.3 2.8 1.4 5.1 3.2 2.5 1.8 3.8 3.8 1.4 2 1.5 4.2 0.1 2.2-1.7 4.2 0 0.1-1.4 0.2-1.3 0.1-3.5 0.3-2.1 0.2-4.8 0.4-2.6 0.2-5.4 0.4-2.7 0.3-5.2 0.4-2.4 0.2-4.3 0.3-2.9 0.2-6.2-0.2-3.3-0.5-6.5-1.4-3.1-0.9-5.9-2.4-2.7-1.4-4.5-3.2-1.7-1.8-2.2-4.1-0.5-2.3 0.8-4.8 0-0.1 0-0.5 0-0.3 0.2-0.5 0.2-0.1 0.4 0 0.3 0.1 0.8 0.6zm28.4-1.4q-1.6 0.5-1.6 1.3 0 0.9 1.1 1.9 1.1 1 3.1 2.1 2 1.2 4.4 2.4 2.4 1.1 4.9 2.2 2.5 1.1 4.7 2.1 0.6 0 1.1-0.2 0.5-0.3 0.3-1.2-0.3-1.4-1.4-2.8-1.1-1.4-2.7-2.6-1.6-1.1-3.5-2.1-1.9-0.9-3.8-1.7-1.9-0.6-3.6-1-1.7-0.4-3-0.4z"/>
						<path id="&lt;Path&gt;" class="s2" d="m773.4 864.6h-12.3l8.7 8.7-2.4 2.5-8.7-8.7v12.3h-3.5v-12.3l-8.7 8.7-2.5-2.5 8.7-8.7h-12.3v-3.5h12.3l-8.7-8.7 2.5-2.5 8.7 8.7v-12.3h3.5v12.3l8.7-8.7 2.4 2.5-8.7 8.7h12.3z"/>
						<path id="&lt;Path&gt;" class="s2" d="m773.4 580.8h-12.3l8.7 8.7-2.4 2.5-8.7-8.7v12.3h-3.5v-12.3l-8.7 8.7-2.5-2.5 8.7-8.7h-12.3v-3.5h12.3l-8.7-8.7 2.5-2.4 8.7 8.7v-12.3h3.5v12.3l8.7-8.7 2.4 2.4-8.7 8.7h12.3z"/>
					</g>
					<g id="&lt;Group&gt;">
						<path id="&lt;Path&gt;" class="s1" d="m703.1 509.9v392.6l-282.7-68.1c-7.5-1.8-12.7-8.5-12.7-16.2v-358.4c0-10.8 10-18.7 20.5-16.2z"/>
						<g id="&lt;Clip Group&gt;" clip-path="url(#cp1)">
							<g id="&lt;Group&gt;">
								<g id="&lt;Group&gt;">
									<g id="&lt;Group&gt;">
										<path id="&lt;Path&gt;" class="s2" d="m987 582.5v23.3l-224 71.3 44.8 10.3 179.2-57.1v23.3l-136.6 43.5 136.6 31.3v20.4l-216.6-49.5-44.8-10.3-5.1-1.2-53.4-12.2-5.1-1.1-44.8-10.3-216.6-49.6v-20.4l136.6 31.2-136.6-105.9v-23.4l179.2 139.1 44.8 10.2-178.4-138.4-45.6-35.4v-23.3l246 190.9v-148.9l20.5 4.7v160.2l53.4 12.2v-160.2l20.5 4.7v148.9z"/>
										<path id="&lt;Path&gt;" class="s2" d="m770.4 758.6l216.6 49.5v20.5l-136.6-31.3 136.6 106v23.3l-41.9-32.5-137.3-106.5-44.8-10.3 128.6 99.8 95.4 74.1v23.3l-246-190.9v148.9l-20.5-4.7v-160.2l-53.4-12.2v160.2l-20.5-4.7v-148.9l-246 78.3v-23.3l224-71.3-44.8-10.3-179.2 57.1v-23.4l136.6-43.4-136.6-31.3v-20.4l216.6 49.5 44.8 10.3 5.1 1.1 53.4 12.3 5.1 1.1 44.8 10.3z"/>
									</g>
									<path id="&lt;Path&gt;" class="s3" d="m763 677.1l224-71.3v24.5l-179.2 57.1z"/>
									<path id="&lt;Path&gt;" class="s5" d="m624.6 645.4l-44.8-10.2-179.2-139.1v-24.5z"/>
									<path id="&lt;Path&gt;" class="s5" d="m625.6 744.7l-224 71.3v-24.5l179.2-57.1z"/>
									<path id="&lt;Path&gt;" class="s3" d="m945.1 894.1l41.9 32.5v24.6l-95.4-74.1-128.6-99.8 44.8 10.3z"/>
									<path id="&lt;Path&gt;" class="s5" d="m987 748.8v59.3l-266.5-60.9v180.6l-53.4-12.2v-180.7l-266.5-60.9v-59.4l266.5 61v-180.6l53.4 12.2v180.6z"/>
								</g>
							</g>
						</g>
						<path id="&lt;Path&gt;" class="s6" d="m703.1 509.9v392.6l-13.6-3.2v-392.7z"/>
					</g>
					<g id="&lt;Group&gt;">
						<g id="&lt;Group&gt;">
							<path id="&lt;Path&gt;" class="s1" d="m1074.2 443.6c10.5-2.5 20.6 5.4 20.6 16.2v358.4c0 7.7-5.2 14.4-12.7 16.2l-282.7 68.1v-392.6z"/>
							<path id="&lt;Compound Path&gt;" fill-rule="evenodd" class="s7" d="m830.8 863.6q-0.3 0-0.6-0.2c-0.3-0.2-0.4-0.5-0.4-0.8v-328c0-0.5 0.3-0.9 0.8-1l232.5-56.1c0.4 0 0.7 0 0.9 0.2 0.3 0.2 0.4 0.5 0.4 0.9v327.9c0 0.5-0.3 0.9-0.8 1.1l-232.5 56q-0.2 0-0.3 0zm1.1-328.1v325.8l230.4-55.6v-325.8z"/>
							<path id="&lt;Path&gt;" class="s4" d="m811.9 899.5l-12.5 3v-392.6l12.5-3.1z"/>
						</g>
						<g id="&lt;Group&gt;">
							<path id="&lt;Path&gt;" class="s5" d="m1028.6 600.8l-3.7 5-33.6 45.2-45.2-33.6-5-3.8c-12.4-9.2-15-26.9-5.8-39.4 4.7-6.2 11.4-9.9 18.5-11 7.2-1 14.7 0.6 20.9 5.3l5 3.7 3.8-5c4.6-6.3 11.3-10 18.4-11.1 7.2-1 14.7 0.6 20.9 5.3 12.5 9.3 15.1 26.9 5.8 39.4z"/>
							<path id="English" class="s2" aria-label="English"  d="m865.8 778.5q0-6 0.1-11.7 0-5.8-0.1-11.4-0.2-5.7-0.6-11.2-0.5-5.7-1.3-11.3 0-0.2-0.3-0.6-0.1-0.4-0.3-0.8-0.1-0.4-0.2-0.8-0.2-0.3-0.2-0.5 0-0.3 0.2-0.9 0.3-0.6 0.7-1.1 0.4-0.6 0.9-1.1 0.6-0.4 1.1-0.4 0.9 0 1.4 0.7 0.6 0.7 0.9 1.8 0.3 0.9 0.3 1.9 0.2 1 0.2 1.5 2.2-1.7 4.9-3.8 2.8-2 5.7-3.9 2.9-1.9 5.8-3.3 2.9-1.6 5.5-2.2 0 0.6-0.3 1.2-0.2 0.6-0.9 1.1l-20.7 15.6v2.9q0 0.8 0.1 2.7 0.2 2 0.3 4.2 0.2 2.2 0.2 4.2 0.2 2 0.3 2.7l15.1-12.2 0.4-0.6q0.4-0.5 1-1 0.5-0.5 1.1-0.7 0.7-0.2 1.3 0.4 0 1.4-1.3 2.9-1.4 1.6-3.4 3.4-1.9 1.7-4.3 3.5-2.3 1.7-4.3 3.3-2 1.6-3.3 3.1-1.3 1.4-1.3 2.4v14.2q0.9 0.1 2.6-1 1.8-1.1 3.9-2.9 2.2-1.8 4.5-4 2.2-2.3 4.4-4.3 2.2-2 4-3.6 2-1.7 3.2-2.2 0.7-0.2 1.3-0.1 0.6 0.2 0.6 1.1 0 0.9-1 1.6-2.6 2.2-6 5.4-3.3 3.1-6.8 6.3-3.4 3.2-6.8 6-3.3 2.6-5.8 3.8-0.9 0.3-1.5 0.3-0.6 0-1.3-0.6zm35.5-7.9q-0.8-9.7-1.5-19.5-0.6-9.9-1.3-20.5 0-1.7 1.9-2.2l0.6-0.1q0.2-0.1 0.5 0.4 0.3 0.5 0.6 2.1 0.4 1.4 0.7 4.6 0.5 3 1.1 8 0.5 5.1 1.3 12.6 1.5-5.4 2.4-10.3 0.9-5 2.3-9.1 1.4-4.3 3.9-7.9 2.6-3.6 7.4-6.1 2.6-0.3 4.2 2.1 1.7 2.3 2.6 6.2 1 3.8 1.3 8.5 0.4 4.6 0.5 8.9 0.1 4.3 0.1 7.8 0 3.4 0.1 4.8-0.2 0.7-0.7 1.2-0.4 0.6-1 0.9-0.5 0.3-1 0.4-0.5 0-1-0.6 0-0.8-0.1-3.3-0.2-2.4-0.4-5.7-0.2-3.3-0.5-7-0.2-3.8-0.5-7.1-0.1-3.3-0.2-5.8-0.2-2.4-0.3-3.2-1.5-2.4-3.1-2.3-1.4 0-3 1.7-1.5 1.7-2.9 4.7-1.4 3.1-2.6 6.9-1.3 3.7-2.4 7.7-1.1 4-1.9 7.8-0.8 3.6-1.4 6.7-0.5 2.9-0.6 4.5-0.3 0.5-1 1.2-0.7 0.7-1.5 1.1-0.7 0.4-1.5 0.5-0.8 0-1.1-0.6zm38.4 20.2q6.5-2 10.2-6 3.7-3.9 5.6-9.2 1.8-5.2 2.2-11.4 0.4-6.3 0.1-12.8-0.3-6.5-0.9-12.9-0.5-6.5-0.5-12.2-3.1 10.1-5.9 16.6-2.8 6.3-5.3 9.9-2.3 3.4-4.3 4.6-1.9 1.1-3.4 0.6-1.5-0.5-2.4-2.1-0.9-1.7-1.3-3.6 0.2-3.4 1.4-7.8 1.2-4.4 3.1-8.8 2-4.5 4.6-8.5 2.6-4.1 5.4-6.7 2.9-2.7 6-3.6 3.1-0.9 6 0.9 0 0.1 0.2 1.9 0.2 1.8 0.4 4.9 0.3 2.9 0.6 6.7 0.4 3.6 0.7 7.5 0.3 3.7 0.5 7.2 0.2 3.5 0.4 6 0.3 4.1-0.3 9-0.6 4.9-1.9 9.7-1.4 4.7-3.4 9.1-2 4.4-4.7 7.6-2.5 3.2-5.8 4.7-3.2 1.5-6.8 0.5-0.2 0.1-0.6 0.2-0.5 0-0.8-0.1-0.2-0.2 0-0.6 0.1-0.4 0.9-1.3zm-2-40q0.7 2.1 1.9 1.9 1.2-0.3 2.6-2.2 1.4-2 3-5.2 1.7-3.3 3.4-7.1 1.6-3.8 3.1-7.7 1.7-4.1 3.1-7.5 0-0.8-0.4-1.4-0.4-0.6-1.6 0-2.1 0.9-4.1 3-1.9 2-3.6 4.7-1.6 2.6-3 5.7-1.3 3-2.4 6-0.9 2.9-1.5 5.4-0.5 2.6-0.5 4.4zm31.5 0.1q0.5-3.6 0.6-8.7 0.3-5.1 0.2-10.8 0-5.8-0.2-11.9-0.2-6-0.6-11.4-0.4-5.4-0.9-9.6-0.4-4.3-1-6.6 0.7-0.6 1.2-1 0.5-0.4 1.1-0.6 0.5-0.1 0.9 0 0.4 0.1 0.6 0.6 1.5 14.1 2 28.6 0.6 14.5 0.9 29 0 0.6 0 1.8 0 1.1-0.1 1.2-1 0.8-1.8 1-0.9 0.1-1.5-0.1-0.7-0.3-1-0.7-0.4-0.4-0.4-0.8zm10-0.3q0-4.8-0.2-10-0.2-5.3-0.4-10.6-0.1-5.4-0.1-10.7 0.1-5.2 0.7-9.9 0.2-0.1 0.7-0.3 0.6-0.2 0.8-0.2 1-0.3 1.6-0.1 0.7 0.2 0.7 1.3 0 4.3-0.1 9.5 0 5.1-0.1 10.4 0 5.2 0 10.4 0 5.1 0.2 9.3 0 1.2-0.6 1.8-0.5 0.5-1.3 0.7-0.9 0.2-1.5 0-0.5-0.3-0.4-1.6zm-1.6-52.3q0-0.9 0.6-1.3 0.6-0.5 1.3-0.6 1.5-0.4 1.8 0.4 0.4 0.9 0.4 2.2-0.4 0.9-1.1 1.4-0.7 0.5-1.4 0.5-0.7 0-1.2-0.6-0.4-0.7-0.4-2zm16.3 49q0 0.1 1.5-1.2 1.6-1.4 3.8-3.5 2.2-2.1 4.5-4.6 2.2-2.4 3.7-4.5 1.5-2.1 1.6-3.3 0.1-1.2-2-1.1-2.7 0.3-4.5 1.2-1.8 0.9-3.3 1.9-1.4 0.9-2.8 1.8-1.2 0.8-2.8 1-3.2 0.8-4.5-0.8-1.1-1.8-1.1-5.3 0-3.4 1.5-6.9 1.6-3.6 4-6.5 2.4-2.8 5.6-5 3.2-2.2 6.5-3 1.3-0.3 2.3-0.3 0.9 0 0.9 1.4 0 1.1-0.9 2.2-0.9 1.1-2 1.4 0 0-0.3 0-0.3 0-0.6-0.2-0.3-0.1-0.6-0.1-0.3-0.1-0.4-0.1-2.3-0.1-4.5 1.8-2.3 1.9-4 4.6-1.7 2.6-2.7 5.6-1.1 2.8-1.1 4.9 0 0.8 0.3 1.2 0.4 0.4 0.9 0.4 0.6 0.1 1.3 0 0.7-0.2 1.4-0.3 1.5-0.4 3-1.2 1.5-0.8 2.9-1.8 1.5-0.9 3-1.7 1.5-0.9 3.1-1.3 0.8-0.2 1.7 0.1 0.8 0.1 1.6 0.7 0.7 0.6 1.2 1.5 0.5 0.8 0.6 2 0.5 0.9-0.3 2.8-0.6 1.8-2 4.1-1.4 2.3-3.4 4.7-2 2.5-4 4.6-2 2-3.9 3.5-1.9 1.5-3.3 1.7-1.4 0.4-1.7-0.4-0.2-0.9-0.2-2zm49.1-10.9l-0.9-32.2q-2.7-0.3-5.2 2.1-2.5 2.5-4.8 6.5-2.3 3.8-4.4 8.6-2 4.8-3.8 9.1-1.8 4.3-3.2 7.4-1.4 3-2.6 3.6-0.9 0.2-1.4 0.1-0.4-0.3-0.4-1.6v-51.8q0-0.7 0.5-0.9 0.6-0.3 1.2-0.4 0.7-0.1 1.3 0 0.6 0.1 0.7 0.4l1 41.2q0.8-1.5 1.4-4.1 0.8-2.6 1.7-5.5 1-3.1 2.2-6.1 1.4-3.1 3.3-5.8 1.9-2.7 4.6-4.6 2.8-1.9 6.6-2.5 2.5-0.6 4 0.6 1.6 1.2 1.7 3.7l0.7 29.2q0 0.3-0.2 1 0 0.5-0.5 1.1-0.5 0.4-1.4 0.8-0.8 0.3-2.1 0.1z"/>
							<path id="I
" class="s2" aria-label="I"  d="m876.2 579.9q0-0.9 0.5-1.3 0.6-0.6 1.3-0.8 0.9-0.3 1.7-0.4 0.9-0.1 1.6-0.3 0.5 1.2 0.8 4.8 0.4 3.6 0.7 8.8 0.4 5.1 0.5 11.4 0.2 6.3 0.3 12.8 0.3 6.4 0.3 12.6 0.1 6.2 0.1 11.4 0.1 5.1 0.1 8.8v4.6q-0.1 2.1-1 2.8-0.7 0.5-3.5 0.3-0.3 0-0.5-3-0.2-2.9-0.3-7.8-0.1-5-0.2-11.3-0.2-6.4-0.3-13.1-0.1-6.8-0.3-13.5-0.1-6.7-0.3-12.2-0.2-5.5-0.6-9.4-0.3-3.9-0.9-5.2z"/>
						</g>
						<path id="&lt;Path&gt;" class="s8" d="m1094.8 818.2c0 7.7-5.2 14.4-12.7 16.2l-102.8 24.7 115.5-134.7z"/>
					</g>
				</g>
				<g id="&lt;Group&gt;">
					<g id="&lt;Group&gt;">
						<g id="&lt;Group&gt;">
							<path id="&lt;Path&gt;" class="s4" d="m598.2 310.4l-141.9 163.6-216.3 11.1 141.9-163.6z"/>
						</g>
						<g id="&lt;Group&gt;">
							<path id="&lt;Path&gt;" class="s1" d="m515.6 358.7l48.7 99.8c0 0-116.2-22-186.7 91.1l-48.7-99.8c70.5-113 186.7-91.1 186.7-91.1z"/>
							<g id="&lt;Group&gt;">
								<path id="&lt;Path&gt;" class="s9" d="m560.9 451.5l3.4 7c0 0-5.3-1.1-14.4-1.5q5.5-2.9 11-5.5z"/>
								<path id="&lt;Path&gt;" class="s10" d="m391.8 529.3c-4.9 6.3-9.7 13-14.2 20.3l-48.7-99.8c4.5-7.3 9.3-14 14.2-20.3z"/>
							</g>
							<g id="&lt;Group&gt;">
								<path id="&lt;Path&gt;" class="s4" d="m463.1 359.1c30.6-4.6 52.5-0.4 52.5-0.4l48.7 99.8c0 0-21.9-4.2-52.5 0.4z"/>
							</g>
						</g>
					</g>
					<g id="&lt;Group&gt;">
						<path id="&lt;Path&gt;" class="s11" d="m556.6 312.5l-9.8 0.5 8.2-4.1c2.6-1.3 5.8-0.3 7.1 2.4l-1.7 70.1-5.2 2.5z"/>
						<path id="&lt;Path&gt;" class="s12" d="m560.7 381.2l0.4 16.6-5.6 0.1-0.3-16.6z"/>
						<path id="&lt;Path&gt;" class="s11" d="m561.1 397.8l10.1 49.4-24 0.4 8.3-49.7z"/>
						<path id="&lt;Path&gt;" class="s13" d="m562.7 405.8l5.8 28.4"/>
					</g>
				</g>
			</g>
			<g id="&lt;Group&gt;">
				<g id="&lt;Group&gt;">
					<path id="&lt;Path&gt;" class="s5" d="m700.7 472.8h-28.4c-37.7 0-68.6-30.9-68.6-68.6 0-37.7 30.9-68.6 68.6-68.6h184.5c37.8 0 68.6 30.9 68.6 68.6 0 37.7-30.8 68.6-68.6 68.6h-29.9"/>
					<path id="&lt;Path&gt;" class="s11" d="m700.7 472.8h126.2"/>
					<path id="&lt;Path&gt;" class="s14" d="m698 472.8h143.7"/>
				</g>
				<path id="Listening" class="s2" aria-label="Listening"  d="m653.7 424.3q-0.2-9-0.4-15.3-0.1-6.4-0.3-10.7-0.1-4.4-0.3-6.9-0.2-2.6-0.2-4.1-0.1-1.6-0.2-2.2 0-0.7 0-1.4 0-1.1 0.7-1.4 0.7-0.4 1.7-0.4 1.2 0 1.8 0.5 0.7 0.4 0.7 2.3l1.4 37.8q0 0 0.7-0.1 0.6-0.2 1.5-0.5 0.8-0.2 1.7-0.5 0.9-0.4 1.5-0.6 0.8-0.4 2.5-1.2 1.7-0.7 3.8-1.7 2.1-1 4.4-2.1 2.4-1.1 4.5-2 2.2-1 3.8-1.8 1.7-0.8 2.5-1.2h0.9q0.4 0 0.8 0.1 0.5 0.1 0.7 0.4 0.3 0.3 0.4 0.8 0 0.7-0.3 1.2-0.2 0.5-0.6 1.1-4.2 0.8-8.2 2.8-3.9 2.1-7.8 4.3-3.9 2.1-7.9 3.8-3.9 1.7-8.1 1.7-1.7 0-1.7-2.7zm38.1 1.3q0-4.6-0.2-9.6-0.2-5.1-0.4-10.2-0.1-5.2 0-10.2 0-5 0.6-9.3 0.1-0.1 0.6-0.1 0.6-0.1 0.8-0.1 1 0 1.5 0.4 0.7 0.3 0.7 1.3 0 4.2-0.1 9.1 0 4.8-0.1 9.9 0 5 0 9.9 0 4.9 0.2 8.9 0 1.2-0.5 1.6-0.5 0.4-1.3 0.4-0.8 0-1.4-0.4-0.5-0.4-0.4-1.6zm-1.6-50.3q0-0.8 0.6-1.1 0.6-0.3 1.3-0.3 1.4 0 1.7 0.9 0.4 0.9 0.4 2.1-0.4 0.8-1.1 1.2-0.6 0.2-1.3 0.1-0.6-0.2-1.1-0.9-0.5-0.7-0.5-2zm15.6 50.6q0 0.1 1.4-0.8 1.6-0.9 3.6-2.4 2.1-1.5 4.3-3.3 2.2-1.8 3.6-3.4 1.4-1.6 1.5-2.8 0.1-1.2-1.9-1.5-2.6-0.4-4.3 0.1-1.7 0.4-3.1 0.9-1.4 0.6-2.7 1.1-1.2 0.5-2.6 0.3-3.1 0-4.3-1.8-1.2-2-1.2-5.3 0-3.3 1.5-6.3 1.5-3 3.8-5.2 2.3-2.1 5.4-3.4 3-1.3 6.1-1.3 1.3 0 2.2 0.2 0.9 0.2 0.9 1.6 0 1-0.8 1.9-0.9 0.8-1.9 0.8-0.1 0-0.4 0-0.2-0.2-0.5-0.4-0.3-0.2-0.6-0.3-0.3-0.1-0.3-0.1-2.3-0.6-4.4 0.6-2.1 1.3-3.8 3.5-1.6 2.1-2.6 4.6-1 2.5-1 4.4 0 0.8 0.3 1.3 0.4 0.4 0.9 0.6 0.5 0.2 1.1 0.3 0.8 0 1.5 0 1.4 0 2.8-0.4 1.4-0.4 2.8-1 1.4-0.6 2.8-1 1.5-0.4 3-0.4 0.7 0 1.5 0.4 0.9 0.4 1.6 1.1 0.7 0.7 1.2 1.7 0.5 0.9 0.5 2.1 0.5 0.9-0.2 2.6-0.7 1.6-2 3.4-1.3 1.8-3.2 3.7-1.9 1.8-3.8 3.4-1.9 1.5-3.7 2.4-1.9 1-3.1 0.9-1.4 0-1.7-0.9-0.2-0.8-0.2-1.9zm24.4 1.7l-1.8-30.6q-0.7 0.4-1.3 0.8-0.5 0.3-1.1 0.7-0.6 0.3-1.1 0.4-0.6 0.2-1.2 0-0.4 0-0.7-0.5-0.3-0.5-0.5-1.2-0.2-0.7-0.2-1.3-0.1-0.7 0-1.1l6.7-3.8 0.4-18q0.2-0.9 1.2-0.7 0.9 0.1 2 0.4 0.1 0 0.4 0.2 0.4 0 0.5 0.1-0.1 1.9-0.3 4.1-0.2 2.2-0.3 4.5-0.2 2.1-0.2 4.3 0 2.1 0.2 3.7l10.5-2.9q0.3-0.1 0.4 0.4 0.2 0.4 0.4 1.1 0.2 0.6 0.3 1.2 0 0.7 0 0.7l-11.9 5q0 0.7 0.1 3 0.1 2.4 0.2 5.7 0.2 3.3 0.3 7 0.2 3.8 0.3 7 0.1 3.2 0.2 5.7 0.1 2.4 0.1 3-0.2 2.1-1.3 2.1-1 0-2.3-1zm17.7-15.8q-0.4 0.1-1.1 0.2-0.7 0.2-1.4 0.1-0.8-0.1-1.4-0.4-0.6-0.4-0.6-1.2 0-0.5 0.2-0.7 0.2-0.2 0.7-0.6 1.6-1.3 2.6-3.3 1.1-2 2.1-4.2 0.9-2.4 1.8-4.6 1.1-2.3 2.4-4.2 1.4-1.8 3.3-2.9 2-1.1 4.9-1.1 1.2 0 2.6 0.6 1.5 0.6 2.8 1.5 1.3 1 2.1 2.3 0.8 1.3 0.8 2.9 0.4 0.6-0.7 1.7-0.9 1-2.7 2.3-1.8 1.2-4 2.5-2.2 1.3-4.2 2.4-2.1 1.1-3.6 2-1.5 0.8-2 1.2-0.4 0.7-0.6 1.6-0.2 0.9-0.4 1.8 0 0.8-0.1 1.5 0 0.6 0 0.9 0 1.4-0.1 3-0.1 1.6 0.1 3.1 0.3 1.4 1.2 2.4 0.9 0.9 3.1 0.9 2.3 0 4.3-1.1 2.1-1.2 3.8-2.9 1.8-1.7 3.2-3.7 1.5-1.9 2.6-3.6 1.2-1.8 2.1-2.9 0.9-1.1 1.5-1.1 0.7 0 1.5 0.3 0.9 0.2 0.9 1.1 0 1.2-1.1 3-1 1.8-2.7 3.7-1.6 2-3.7 4-2.2 1.9-4.3 3.4-2.2 1.5-4.3 2.5-2.1 0.9-3.7 0.9-3.2 0-4.8-1.6-1.6-1.5-2.3-3.8-0.7-2.4-0.7-5 0-2.6-0.1-4.9zm12.9-18.9q-1.2 0-2.5 1.2-1.3 1.1-2.5 2.8-1.2 1.6-1.9 3.3-0.7 1.7-0.7 2.9 1 0 3-0.8 2-0.9 4-2.1 2-1.1 3.4-2.5 1.5-1.3 1.5-2.5 0-0.6-0.5-1.1-0.5-0.4-1.2-0.7-0.6-0.2-1.3-0.4-0.7-0.1-1.3-0.1zm21.2 33.2q-0.7-9.5-1.4-19-0.5-9.5-1.2-19.8 0-1.7 1.8-1.7h0.5q0.3 0 0.5 0.6 0.3 0.6 0.6 2.1 0.3 1.5 0.7 4.6 0.4 3 1 7.9 0.5 4.9 1.2 12.3 1.5-4.8 2.4-9.3 0.8-4.5 2.1-8.1 1.4-3.7 3.8-6.5 2.4-2.9 7-4.2 2.5 0.4 4.1 3.1 1.5 2.6 2.4 6.5 0.9 3.8 1.3 8.4 0.3 4.5 0.4 8.6 0.1 4.2 0.1 7.5 0 3.2 0.1 4.6-0.2 0.6-0.6 1-0.4 0.4-1 0.6-0.5 0.2-1 0.1-0.5-0.2-0.9-0.8 0-0.8-0.1-3.1-0.2-2.4-0.4-5.6-0.2-3.2-0.5-6.8-0.2-3.7-0.4-6.8-0.1-3.2-0.3-5.6-0.1-2.4-0.2-3.2-1.5-2.6-2.9-2.9-1.4-0.4-2.9 0.9-1.4 1.2-2.8 3.8-1.3 2.6-2.5 5.9-1.2 3.3-2.2 6.8-1.1 3.6-1.9 7-0.7 3.3-1.3 6-0.5 2.7-0.6 4.2-0.2 0.5-0.9 1-0.7 0.4-1.4 0.6-0.7 0.2-1.5 0.1-0.7-0.1-1.1-0.8zm33-0.5q0-4.6-0.3-9.6-0.1-5.1-0.3-10.2-0.1-5.2-0.1-10.2 0.1-5 0.7-9.3 0.1-0.1 0.6-0.1 0.6-0.1 0.8-0.1 0.9 0 1.5 0.4 0.6 0.3 0.6 1.3 0 4.2 0 9.1 0 4.8-0.1 9.9 0 5 0 9.9 0 4.9 0.1 8.9 0.1 1.2-0.5 1.6-0.4 0.4-1.2 0.4-0.9 0-1.4-0.4-0.6-0.4-0.4-1.6zm-1.6-50.3q0-0.8 0.6-1.1 0.5-0.3 1.2-0.3 1.4 0 1.8 0.9 0.3 0.9 0.3 2.1-0.4 0.8-1 1.2-0.6 0.2-1.3 0.1-0.7-0.2-1.2-0.9-0.4-0.7-0.4-2zm12.9 50.8q-0.7-9.5-1.4-19-0.5-9.5-1.2-19.8 0-1.7 1.8-1.7h0.6q0.2 0 0.4 0.6 0.3 0.6 0.6 2.1 0.4 1.5 0.7 4.6 0.4 3 1 7.9 0.6 4.9 1.3 12.3 1.4-4.8 2.3-9.3 0.8-4.5 2.1-8.1 1.4-3.7 3.8-6.5 2.4-2.9 7-4.2 2.5 0.4 4.1 3.1 1.5 2.6 2.4 6.5 0.9 3.8 1.3 8.4 0.3 4.5 0.4 8.6 0.1 4.2 0.1 7.5 0 3.2 0.1 4.6-0.2 0.6-0.6 1-0.4 0.4-1 0.6-0.5 0.2-1 0.1-0.5-0.2-0.9-0.8 0-0.8-0.1-3.1-0.2-2.4-0.4-5.6-0.2-3.2-0.5-6.8-0.2-3.7-0.4-6.8-0.1-3.2-0.3-5.6-0.1-2.4-0.2-3.2-1.5-2.6-2.9-2.9-1.4-0.4-2.9 0.9-1.4 1.2-2.8 3.8-1.3 2.6-2.5 5.9-1.2 3.3-2.2 6.8-1.1 3.6-1.9 7-0.7 3.3-1.3 6-0.5 2.7-0.6 4.2-0.2 0.5-0.9 1-0.7 0.4-1.4 0.6-0.7 0.2-1.5 0.1-0.7-0.1-1.1-0.8zm36.7 28.4q6.2-0.4 9.7-3.3 3.6-2.9 5.3-7.4 1.8-4.6 2.1-10.4 0.4-5.9 0.1-12.2-0.3-6.2-0.9-12.5-0.4-6.3-0.4-11.7-3 8.9-5.7 14.3-2.6 5.4-4.9 8.3-2.3 2.7-4.2 3.3-1.8 0.6-3.2-0.2-1.4-0.8-2.3-2.6-0.9-1.8-1.2-3.7 0.1-3.2 1.2-7.1 1.2-3.9 3.1-7.6 1.8-3.8 4.3-7.1 2.5-3.3 5.2-5.1 2.7-1.9 5.7-2 2.9-0.1 5.7 2.3 0 0.1 0.2 1.9 0.2 1.7 0.4 4.7 0.3 2.9 0.6 6.5 0.3 3.6 0.6 7.3 0.3 3.7 0.5 7 0.2 3.4 0.4 5.9 0.3 4-0.3 8.5-0.6 4.5-1.9 8.7-1.2 4.3-3.2 8-1.9 3.7-4.4 6.1-2.5 2.4-5.6 3.1-3 0.6-6.4-1.1-0.2 0-0.7 0-0.4-0.1-0.7-0.3-0.2-0.2 0-0.6 0.1-0.3 0.9-1zm-2-38.6q0.7 2.2 1.8 2.3 1.2 0 2.6-1.5 1.3-1.6 2.9-4.3 1.6-2.7 3.1-6 1.6-3.2 3-6.6 1.6-3.4 2.9-6.4 0-0.7-0.3-1.4-0.4-0.7-1.6-0.4-1.9 0.4-3.8 1.9-1.9 1.5-3.5 3.7-1.5 2.1-2.9 4.7-1.2 2.5-2.2 5.1-0.9 2.5-1.5 4.8-0.5 2.3-0.5 4.1z"/>
			</g>
			<g id="&lt;Group&gt;">
				<path id="&lt;Path&gt;" class="s3" d="m345.8 641.4c0 6.1-7.5 9.2-11.8 4.9l-20.7-20.7c-16 13.6-36.8 21.8-59.4 21.8-52 0-93.9-43.1-91.9-95.5 1.8-47.6 40.6-86.5 88.3-88.3 52.4-2 95.5 39.9 95.5 91.9z"/>
				<path id="&lt;Path&gt;" class="s14" d="m345.8 616.3v-60.8"/>
				<g id="&lt;Group&gt;">
					<path id="&lt;Path&gt;" class="s2" d="m266 555.9c0 5.7-4.6 10.3-10.3 10.3-5.7 0-10.3-4.6-10.3-10.3 0-5.7 4.6-10.3 10.3-10.3 5.7 0 10.3 4.6 10.3 10.3z"/>
					<g id="&lt;Group&gt;">
						<path id="&lt;Path&gt;" class="s2" d="m225.3 555.9c0 5.7-4.6 10.3-10.3 10.3-5.7 0-10.3-4.6-10.3-10.3 0-5.7 4.6-10.3 10.3-10.3 5.7 0 10.3 4.6 10.3 10.3z"/>
						<path id="&lt;Path&gt;" class="s2" d="m306.7 555.9c0 5.7-4.6 10.3-10.3 10.3-5.7 0-10.3-4.6-10.3-10.3 0-5.7 4.6-10.3 10.3-10.3 5.7 0 10.3 4.6 10.3 10.3z"/>
					</g>
				</g>
			</g>
			<g id="&lt;Group&gt;">
				<g id="&lt;Group&gt;">
					<path id="&lt;Path&gt;" class="s1" d="m279.7 206c0 30.4-24.7 55-55.1 55-30.4 0-55.1-24.6-55.1-55 0-30.5 24.7-55.1 55.1-55.1 30.4 0 55.1 24.6 55.1 55.1z"/>
					<path id="Am
" class="s2" aria-label="Am"  d="m202 218.6h-2.8q0.2-0.8 0.3-1.9 0.1-1.2 0.3-3.2 0.2-1.9 0.4-4.8 0.3-2.8 0.7-6.9 0.4-4.1 1-9.6 0.6-5.6 1.5-12.9 0-0.5 0.5-0.6 0.4-0.1 0.8-0.1 0.6 0 1 0.4 0.4 0.4 0.6 1 0.4 0.5 0.6 1.1 0.3 0.6 0.6 1 0.6 1.2 1.1 2.8 0.6 1.6 1.2 3.5 0.7 1.8 1.3 3.7 0.7 1.8 1.3 3.6 0.7 1.7 1.2 3.2 0.6 1.5 1.1 2.5 0.6-0.1 1.7-0.5 1-0.4 2.3-0.8 1.2-0.4 2.4-0.6 1.2-0.2 2 0 0.8 0.2 1 0.9 0.3 0.8-0.3 2.4-0.4 0-0.7-0.1-0.4-0.2-0.7-0.3-0.3-0.1-0.7-0.2-0.3-0.2-0.8-0.2-0.2 0-1.2 0.3-0.9 0.3-2 0.7-1.1 0.3-1.9 0.7-0.8 0.3-0.8 0.5l3.7 14.6-1.4 2q-0.9-1.6-1.5-3.5-0.6-2.1-1.2-4.1-0.5-2-1.1-3.8-0.5-1.7-1.4-2.9-1.1 0.5-2.7 0.9-1.5 0.4-3 1-1.5 0.5-2.5 1.5-1.1 0.9-1.3 2.5-0.1 0.6-0.2 1.7 0 1.1-0.2 2.1-0.1 1.2-0.2 2.4zm3.4-31.7l-0.1 0.9q0 0.9-0.1 2.1-0.1 1.2-0.3 2.5-0.1 1.2-0.2 2.1-0.2 3-0.6 6-0.2 2.9-0.2 6 1 0 2.1-0.3 1.2-0.3 2.3-0.7 1.1-0.5 1.9-1.1 0.9-0.7 1.4-1.6-0.4-1.9-0.9-3.9-0.5-2-1.1-4.1-0.6-2.1-1.3-4.1-0.7-2-1.5-3.8-0.1-0.1-0.4-0.3-0.3-0.2-1 0.3zm20.2 32.3l-2.7 0.6q-0.1-1.5-0.2-4.1-0.1-2.5-0.2-5.6-0.1-3-0.3-6.3-0.1-3.3-0.3-6.3-0.1-2.9-0.4-5.4-0.2-2.4-0.5-3.8 0-1.1 0.5-1.3 0.5-0.2 1.2-0.2 0.1 0 0.5 0 0.4 0 0.6 0.1 0.4 1.6 0.5 4.2 0.2 2.5 0.3 5.5 0.1 3 0.1 6.3 0.1 3.2 0.4 6.1 0.8-4.3 1.2-7.1 0.6-2.8 1-4.4 0.5-1.8 0.9-2.6 0.4-0.8 0.9-1.1 0.5-0.3 1.1-0.2 0.7 0 1.5 0 1 0 1.6 0.7 0.6 0.8 1 2 0.3 1.2 0.5 2.6 0.2 1.4 0.4 2.7 0.1 1.3 0.3 2.4 0.2 1.1 0.6 1.5 1.4-4 2.4-6.5 0.9-2.6 1.6-4 0.7-1.5 1.3-2.2 0.5-0.6 0.9-0.7 0.5-0.2 0.8-0.1 0.4 0.1 0.8 0.1 1.4 0 2.2 1.5 0.8 2.5 1.1 4.7 0.4 2.1 0.4 4.2 0.1 2 0 3.8 0 1.8 0.1 3.6 0.2 1.7 0.6 3.4 0.5 1.6 1.6 3.3-0.4 0.8-0.8 1.1-0.4 0.3-1.2 0.3-0.7 0-1.1-0.4-0.5-0.5-0.8-1.2-0.4-0.7-0.6-1.4-0.1-0.7-0.3-1.2-0.2-7.7-0.7-11.8-0.4-4.2-1.4-4.4-0.9-0.2-2.3 3.6-1.4 3.8-3.5 11.9-0.2 0.3-0.5 0.3-0.3 0.1-0.7 0.1-0.3 0-0.7 0-0.3-0.1-0.7 0-1.3-7.9-2.2-11.4-0.9-3.5-1.8-2.7-0.9 0.8-2.1 5.8-1.1 5-2.9 14z"/>
				</g>
				<g id="&lt;Group&gt;">
					<path id="&lt;Path&gt;" class="s14" d="m417.5 206c0 30.4-24.6 55-55 55-30.5 0-55.1-24.6-55.1-55 0-30.5 24.6-55.1 55.1-55.1 30.4 0 55 24.6 55 55.1z"/>
					<path id="Is
" class="s1" aria-label="Is"  d="m350.9 180.7q0-0.4 0.3-0.6 0.3-0.2 0.7-0.2 0.4 0 0.9 0 0.4 0.1 0.8 0.1 0.2 0.6 0.4 2.6 0.2 1.9 0.4 4.6 0.2 2.7 0.2 6 0.2 3.3 0.2 6.7 0.1 3.3 0.1 6.5 0.1 3.3 0.1 6 0 2.6 0 4.5v2.4q0 1.1-0.5 1.3-0.3 0.2-1.8-0.2-0.2-0.1-0.3-1.7-0.1-1.5-0.1-4.1-0.1-2.5-0.1-5.8-0.1-3.4-0.1-6.9-0.1-3.5-0.2-7-0.1-3.5-0.2-6.3-0.1-3-0.3-5-0.2-2.1-0.5-2.9zm11.3 39.5q0 0 1.2-0.7 1.2-0.7 2.7-1.8 1.6-1.2 3.3-2.5 1.7-1.4 2.8-2.7 1-1.2 1.1-2.1 0.1-0.9-1.5-1.1-1.9-0.3-3.3 0-1.2 0.3-2.3 0.8-1.1 0.4-2.1 0.8-0.9 0.3-2 0.2-2.4 0-3.3-1.4-0.9-1.5-0.9-4.1 0-2.5 1.2-4.8 1.1-2.3 2.9-3.9 1.8-1.7 4.1-2.7 2.3-1 4.7-1 1 0 1.7 0.2 0.7 0.1 0.7 1.2 0 0.7-0.7 1.4-0.6 0.7-1.4 0.7-0.1 0-0.3-0.1-0.2-0.1-0.4-0.2-0.2-0.2-0.5-0.2-0.2-0.2-0.2-0.2-1.7-0.4-3.4 0.5-1.6 1-2.9 2.7-1.2 1.6-2 3.5-0.7 1.9-0.7 3.4 0 0.6 0.2 1 0.3 0.3 0.6 0.5 0.5 0.1 1 0.2 0.5 0 1 0 1.1 0 2.2-0.3 1.1-0.4 2.1-0.8 1.1-0.4 2.2-0.7 1.1-0.4 2.3-0.4 0.6 0 1.2 0.4 0.7 0.2 1.2 0.8 0.5 0.6 0.9 1.3 0.4 0.7 0.4 1.6 0.4 0.7-0.2 2-0.5 1.2-1.5 2.6-1 1.4-2.5 2.9-1.4 1.4-2.9 2.6-1.4 1.1-2.8 1.8-1.4 0.7-2.4 0.7-1.1 0-1.3-0.7-0.2-0.6-0.2-1.4z"/>
				</g>
				<g id="&lt;Group&gt;">
					<path id="&lt;Path&gt;" class="s3" d="m567.8 206c0 30.4-24.7 55-55.1 55-30.4 0-55.1-24.6-55.1-55 0-30.5 24.7-55.1 55.1-55.1 30.4 0 55.1 24.6 55.1 55.1z"/>
					<path id="Are
" class="s2" aria-label="Are"  d="m482.4 218.6h-2.7q0.1-0.8 0.2-1.9 0.1-1.2 0.3-3.2 0.2-1.9 0.4-4.8 0.3-2.8 0.7-6.9 0.5-4.1 1-9.6 0.6-5.6 1.5-12.9 0.1-0.5 0.5-0.6 0.5-0.1 0.9-0.1 0.6 0 0.9 0.4 0.4 0.4 0.7 1 0.3 0.5 0.6 1.1 0.2 0.6 0.6 1 0.5 1.2 1 2.8 0.6 1.6 1.3 3.5 0.6 1.8 1.3 3.7 0.6 1.8 1.3 3.6 0.6 1.7 1.2 3.2 0.5 1.5 1 2.5 0.6-0.1 1.7-0.5 1.1-0.4 2.3-0.8 1.3-0.4 2.4-0.6 1.2-0.2 2 0 0.8 0.2 1.1 0.9 0.2 0.8-0.4 2.4-0.4 0-0.7-0.1-0.3-0.2-0.7-0.3-0.3-0.1-0.7-0.2-0.3-0.2-0.7-0.2-0.3 0-1.3 0.3-0.9 0.3-2 0.7-1 0.3-1.8 0.7-0.8 0.3-0.8 0.5l3.7 14.6-1.4 2q-0.9-1.6-1.6-3.5-0.6-2.1-1.1-4.1-0.6-2-1.2-3.8-0.5-1.7-1.4-2.9-1.1 0.5-2.7 0.9-1.5 0.4-3 1-1.4 0.5-2.5 1.5-1 0.9-1.2 2.5-0.1 0.6-0.3 1.7 0 1.1-0.1 2.1-0.2 1.2-0.3 2.4zm3.5-31.7l-0.1 0.9q-0.1 0.9-0.2 2.1-0.1 1.2-0.3 2.5-0.1 1.2-0.1 2.1-0.3 3-0.6 6-0.3 2.9-0.3 6 1 0 2.2-0.3 1.1-0.3 2.2-0.7 1.1-0.5 2-1.1 0.9-0.7 1.4-1.6-0.5-1.9-1-3.9-0.5-2-1.1-4.1-0.6-2.1-1.3-4.1-0.7-2-1.5-3.8 0-0.1-0.4-0.3-0.3-0.2-0.9 0.3zm19.1 31.9l-3.8-24.8v-0.4q0-0.5 0.4-0.8 0.4-0.2 1-0.2 0.4 0 0.8 0.1 0.4 0.1 0.6 0.6 0.1 0.8 0.3 2.3 0.2 1.4 0.4 3.1 0.2 1.7 0.4 3.7 0.3 1.9 0.5 3.6 0.3 1.7 0.5 3 0.3 1.4 0.6 2.1-0.1-5.2 0.3-9 0.5-3.8 1.9-6.2 1.4-2.4 3.7-3.3 2.5-1 6.1-0.5 1.7 0 1.7 1.8 0 0.7-1 1-0.9 0.2-2 0.3-1.1 0.1-2.2 0.2-1.1 0.1-1.6 0.5-1.9 1.1-2.7 3.4-0.8 2.2-1.1 5.3-0.3 3.1-0.5 6.7-0.1 3.6-0.7 7.5 0 0.5-0.4 0.8-0.5 0.2-1.1 0.2-0.6 0-1.2-0.2-0.5-0.3-0.9-0.8zm19.7-10.4q-0.3 0-0.8 0.1-0.6 0.1-1.2 0.1-0.6-0.1-1.1-0.3-0.4-0.3-0.4-1 0-0.3 0.2-0.5 0.1-0.2 0.5-0.5 1.2-1 2-2.5 0.9-1.5 1.6-3.3 0.7-1.7 1.4-3.5 0.8-1.7 1.9-3.1 1-1.4 2.5-2.3 1.5-0.9 3.7-0.8 0.9 0 2.1 0.4 1.1 0.5 2.1 1.2 0.9 0.7 1.6 1.7 0.6 1.1 0.6 2.3 0.3 0.4-0.5 1.2-0.8 0.8-2.1 1.8-1.4 0.9-3.1 2-1.7 0.9-3.2 1.8-1.6 0.8-2.8 1.5-1.2 0.6-1.5 1-0.3 0.5-0.5 1.2-0.1 0.7-0.2 1.4-0.1 0.5-0.1 1.1 0 0.5 0 0.7 0 1.1-0.1 2.3-0.1 1.2 0.1 2.4 0.2 1.1 0.9 1.8 0.7 0.7 2.3 0.7 1.8 0 3.4-0.9 1.6-0.9 2.9-2.2 1.3-1.3 2.4-2.8 1.2-1.5 2-2.8 0.9-1.3 1.6-2.2 0.7-0.8 1.2-0.8 0.6 0 1.2 0.2 0.6 0.1 0.6 0.8 0 1-0.8 2.4-0.8 1.3-2.1 2.8-1.2 1.5-2.9 3-1.6 1.5-3.3 2.7-1.6 1.1-3.2 1.9-1.7 0.7-2.9 0.7-2.4 0-3.7-1.2-1.2-1.2-1.7-3-0.5-1.8-0.6-3.8 0-2 0-3.7zm9.9-14.6q-0.9 0-2 0.9-1 0.9-1.9 2.2-0.9 1.2-1.5 2.6-0.5 1.3-0.5 2.1 0.8 0 2.3-0.6 1.6-0.6 3.1-1.5 1.5-1 2.6-2 1.2-1 1.2-1.9 0-0.5-0.4-0.8-0.4-0.3-0.9-0.6-0.5-0.2-1-0.3-0.6-0.1-1-0.1z"/>
				</g>
			</g>
			<g id="&lt;Group&gt;">
				<path id="&lt;Path&gt;" class="s5" d="m1367.2 688.2v116.1h-188.2v-116.1z"/>
				<path id="&lt;Path&gt;" class="s15" d="m1367.2 688.2v25.7l-91 49.7-97.2-50.6v-24.8z"/>
				<path id="&lt;Path&gt;" class="s5" d="m1367.2 688.2l-91 70-97.2-70z"/>
				<g id="&lt;Group&gt;">
					<path id="&lt;Path&gt;" class="s14" d="m1347.9 704.3l-70 53.9-79.9-57.5"/>
					<g id="&lt;Group&gt;">
						<path id="&lt;Path&gt;" class="s14" d="m1210.4 779.3l39.2-39.2"/>
						<path id="&lt;Path&gt;" class="s14" d="m1344.9 779.3l-39.2-39.2"/>
					</g>
				</g>
			</g>
			<g id="&lt;Group&gt;">
				<path id="&lt;Path&gt;" class="s14" d="m242.3 299.9l6.5 17.6c0.2 0.7 0.8 1.3 1.4 1.5l17.7 6.5c2.2 0.8 2.2 3.9 0 4.7l-17.7 6.5c-0.6 0.2-1.2 0.8-1.4 1.5l-6.5 17.6c-0.8 2.2-3.9 2.2-4.7 0l-6.5-17.6c-0.3-0.7-0.8-1.3-1.5-1.5l-17.7-6.5c-2.1-0.8-2.1-3.9 0-4.7l17.7-6.5c0.7-0.2 1.2-0.8 1.5-1.5l6.5-17.6c0.8-2.2 3.9-2.2 4.7 0z"/>
				<path id="&lt;Path&gt;" class="s3" d="m292.2 358.6l3.5 9.6c0.1 0.3 0.4 0.6 0.8 0.8l9.5 3.5c1.2 0.4 1.2 2.1 0 2.5l-9.5 3.5c-0.4 0.2-0.7 0.4-0.8 0.8l-3.5 9.6c-0.5 1.1-2.1 1.1-2.5 0l-3.6-9.6c-0.1-0.4-0.4-0.6-0.8-0.8l-9.5-3.5c-1.2-0.4-1.2-2.1 0-2.5l9.5-3.5c0.4-0.2 0.7-0.5 0.8-0.8l3.6-9.6c0.4-1.1 2-1.1 2.5 0z"/>
				<path id="&lt;Path&gt;" class="s11" d="m213.5 378.1l7.5 20.3c0.3 0.8 0.9 1.4 1.6 1.7l20.4 7.5c2.5 0.9 2.5 4.4 0 5.3l-20.4 7.5c-0.7 0.3-1.3 0.9-1.6 1.7l-7.5 20.4c-1 2.4-4.5 2.4-5.4 0l-7.5-20.4c-0.3-0.8-0.9-1.4-1.7-1.7l-20.3-7.5c-2.5-0.9-2.5-4.4 0-5.3l20.3-7.5c0.8-0.3 1.4-0.9 1.7-1.7l7.5-20.3c0.9-2.5 4.4-2.5 5.4 0z"/>
			</g>
			<g id="&lt;Group&gt;">
				<path id="&lt;Path&gt;" class="s5" d="m1291 624.7l5.9 16.1c0.3 0.6 0.8 1.1 1.4 1.3l16.1 6c2 0.7 2 3.5 0 4.2l-16.1 6c-0.6 0.2-1.1 0.7-1.4 1.3l-5.9 16.2c-0.7 1.9-3.5 1.9-4.2 0l-6-16.2c-0.2-0.6-0.7-1.1-1.3-1.3l-16.2-6c-1.9-0.7-1.9-3.5 0-4.2l16.2-6c0.6-0.2 1.1-0.7 1.3-1.3l6-16.1c0.7-2 3.5-2 4.2 0z"/>
				<path id="&lt;Path&gt;" class="s11" d="m1124.9 646.1l4.7 12.6c0.2 0.5 0.5 0.9 1 1.1l12.7 4.7c1.5 0.5 1.5 2.7 0 3.3l-12.7 4.7c-0.5 0.1-0.8 0.5-1 1l-4.7 12.7c-0.6 1.5-2.7 1.5-3.3 0l-4.7-12.7c-0.2-0.5-0.6-0.9-1-1l-12.7-4.7c-1.6-0.6-1.6-2.8 0-3.3l12.7-4.7c0.4-0.2 0.8-0.6 1-1.1l4.7-12.6c0.6-1.6 2.7-1.6 3.3 0z"/>
				<path id="&lt;Path&gt;" class="s14" d="m1155.3 580l5.5 14.9c0.2 0.6 0.6 1 1.2 1.2l14.9 5.5c1.8 0.7 1.8 3.3 0 3.9l-14.9 5.5c-0.6 0.2-1 0.7-1.2 1.2l-5.5 14.9c-0.7 1.8-3.3 1.8-3.9 0l-5.5-14.9c-0.2-0.5-0.7-1-1.3-1.2l-14.9-5.5c-1.8-0.6-1.8-3.2 0-3.9l14.9-5.5c0.6-0.2 1.1-0.6 1.3-1.2l5.5-14.9c0.6-1.8 3.2-1.8 3.9 0z"/>
			</g>
			<g id="&lt;Group&gt;">
				<path id="&lt;Path&gt;" class="s14" d="m289.5 882.9v-35.6c0-6.8 7.6-10.8 13.3-7l26.2 17.8c5 3.4 5 10.7 0 14l-26.2 17.8c-5.7 3.8-13.3-0.2-13.3-7z"/>
				<g id="&lt;Group&gt;">
					<path id="&lt;Path&gt;" class="s11" d="m204.3 887v-43.7c0-8.4 9.4-13.4 16.3-8.7l32.3 21.9c6.1 4.1 6.1 13.1 0 17.2l-32.3 21.9c-6.9 4.7-16.3-0.3-16.3-8.6z"/>
					<path id="&lt;Path&gt;" class="s3" d="m374.2 878.4v-26.5c0-5.1 5.7-8.1 9.9-5.3l19.5 13.3c3.7 2.5 3.7 7.9 0 10.4l-19.5 13.3c-4.2 2.8-9.9-0.2-9.9-5.2z"/>
				</g>
			</g>
			<g id="&lt;Group&gt;">
				<path id="&lt;Path&gt;" class="s14" d="m1179.1 185.3l-26.2-17.7c-5-3.4-5-10.7 0-14.1l26.2-17.7c5.7-3.8 13.3 0.2 13.3 7v35.5c0 6.8-7.6 10.9-13.3 7z"/>
				<g id="&lt;Group&gt;">
					<path id="&lt;Path&gt;" class="s11" d="m1261.3 191.1l-32.3-21.9c-6.1-4.1-6.1-13.1 0-17.3l32.3-21.8c6.9-4.7 16.3 0.3 16.3 8.6v43.7c0 8.4-9.4 13.3-16.3 8.7z"/>
					<path id="&lt;Path&gt;" class="s5" d="m1097.9 179l-19.6-13.2c-3.7-2.5-3.7-8 0-10.5l19.6-13.2c4.2-2.9 9.8 0.2 9.8 5.2v26.5c0 5.1-5.6 8.1-9.8 5.2z"/>
				</g>
			</g>
			<g id="&lt;Group&gt;">
				<g id="&lt;Group&gt;">
					<path id="&lt;Path&gt;" class="s1" d="m891.1 253.8l-10.1-9.4c23.9-25.8 25.7-64.5 4.3-92.2-29.5-38-67.5-58.1-112.9-59.9-45.4 1.8-83.4 21.9-112.8 59.9-21.5 27.7-19.7 66.4 4.2 92.2l-10.1 9.4c-28.5-30.8-30.6-77-5-110 21.5-27.8 58.9-60.5 117.1-64.9v-0.5h13.2v0.5c58.2 4.4 95.6 37.1 117.1 64.9 25.6 33 23.5 79.2-5 110z"/>
					<g id="&lt;Group&gt;">
						<path id="&lt;Path&gt;" class="s5" d="m658.7 224.9v19 67.6 19c-19-5.7-23.9-15.6-23.9-15.6v-3.4-67.6-3.4c0 0 4.9-10 23.9-15.6z"/>
						<g id="&lt;Group&gt;">
							<path id="&lt;Path&gt;" class="s5" d="m627.7 310.8c-5.9-0.7-10.8-5-12.1-10.8l-4.9-21.4c-0.5-2.5-0.4-5.1 0.4-7.6l6.8-20c1.6-4.7 5.6-8.2 10.4-9.2l6.5-1.3v71z"/>
							<path id="&lt;Path&gt;" class="s6" d="m634.8 240.5v71l-3.2-0.3v-70.1z"/>
						</g>
						<g id="&lt;Group&gt;">
							<path id="&lt;Path&gt;" class="s1" d="m658.7 330.5v-104.9c0-4.2 2-8.1 5.3-10.7l8.6-6.8c5.6-4.4 13.7-0.5 13.7 6.6v125c0 6.5-7 10.5-12.6 7.3l-8.1-4.6c-4.2-2.5-6.9-7-6.9-11.9z"/>
							<path id="&lt;Path&gt;" class="s8" d="m668.1 211.6c2.2 17.4 10.1 87.9 0.8 132.7l-3.3-1.9c-4.2-2.5-6.9-7-6.9-11.9v-104.9c0-4.2 2-8.1 5.3-10.7z"/>
						</g>
					</g>
					<g id="&lt;Group&gt;">
						<path id="&lt;Path&gt;" class="s5" d="m910.1 240.5v3.4 67.6 3.4c0 0-5 9.9-24 15.6v-19-67.6-19c19 5.6 24 15.6 24 15.6z"/>
						<g id="&lt;Group&gt;">
							<path id="&lt;Path&gt;" class="s5" d="m910.1 311.5v-71l6.4 1.3c4.9 1 8.8 4.5 10.4 9.2l6.8 20c0.8 2.5 1 5.1 0.4 7.6l-4.8 21.4c-1.4 5.8-6.3 10.1-12.2 10.8z"/>
							<path id="&lt;Path&gt;" class="s6" d="m913.2 241.1v70.1l-3.1 0.3v-71z"/>
						</g>
						<g id="&lt;Group&gt;">
							<path id="&lt;Path&gt;" class="s1" d="m879.2 342.4l-8 4.6c-5.7 3.2-12.7-0.8-12.7-7.3v-125c0-7.1 8.1-11 13.7-6.6l8.7 6.8c3.3 2.6 5.2 6.5 5.2 10.7v104.9c0 4.9-2.6 9.4-6.9 11.9z"/>
							<path id="&lt;Path&gt;" class="s8" d="m880.9 214.9c3.3 2.6 5.2 6.5 5.2 10.7v104.9c0 4.9-2.6 9.4-6.9 11.9l-3.2 1.9c-9.3-44.8-1.4-115.3 0.8-132.7z"/>
						</g>
					</g>
					<g id="&lt;Group&gt;">
						<path id="&lt;Path&gt;" class="s16" d="m840.2 127.5q-0.3-0.3-0.6-0.5c-16.9-13.8-34.6-6.1-55.8-13.3-8.6-3-17.9-3-26.4 0-21.2 7.2-39-0.5-55.8 13.3q-0.1 0.1-0.2 0.2c-18.2 14.6-43.6-12.6-25.9-27.7 55.4-47.5 154.6-35.7 189.9-0.3 16.7 16.7-6.7 43-25.2 28.3z"/>
						<path id="&lt;Path&gt;" class="s14" d="m846.7 85.6c-36.2-19.7-96.6-25.1-143.3-3.8"/>
						<path id="&lt;Path&gt;" class="s6" d="m840.2 127.5q-0.3-0.3-0.6-0.5c-16.9-13.8-34.6-6.1-55.8-13.3-8.6-3-17.9-3-26.4 0-21.2 7.2-39-0.5-55.8 13.3q-0.1 0.1-0.2 0.2c-15.2 12.2-35.3-4.7-31.3-19.4 3 11.9 18.8 21.5 31.3 11.5q0.1-0.1 0.2-0.2c16.8-13.8 34.6-6.1 55.8-13.3 8.5-3 17.8-3 26.4 0 21.2 7.2 38.9-0.5 55.8 13.3q0.3 0.2 0.6 0.5c12.7 10 27.6 0.9 30.4-11.3 3.6 15.4-15.1 31.3-30.4 19.2z"/>
					</g>
				</g>
				<g id="&lt;Group&gt;">
					<g id="&lt;Group&gt;">
						<path id="&lt;Path&gt;" class="s1" d="m742.1 263.9h-22.1c-4.8 0-8.7-3.9-8.7-8.7v-35.6c0-4.8 3.9-8.7 8.7-8.7h22.1z"/>
						<path id="&lt;Path&gt;" class="s8" d="m720 255.6h22.1v8.3h-22.1c-4.8 0-8.7-3.9-8.7-8.7v-8.3c0 4.8 3.9 8.7 8.7 8.7z"/>
						<path id="&lt;Path&gt;" class="s11" d="m742.1 210.9l28.5-24.7c5.5-4.8 14.2-0.8 14.2 6.5v89.4c0 7.3-8.7 11.3-14.2 6.5l-28.5-24.7z"/>
						<path id="&lt;Path&gt;" class="s14" d="m784.8 196.4v71.2"/>
						<path id="&lt;Path&gt;" class="s17" d="m784.8 272.7v9.4c0 7.3-8.7 11.3-14.2 6.5l-28.5-24.7v-9.3l28.5 24.6c5.5 4.9 14.2 0.9 14.2-6.5z"/>
					</g>
					<g id="&lt;Group&gt;">
						<g id="&lt;Group&gt;">
							<path id="&lt;Path&gt;" class="s1" d="m821.4 198.2c1.8 1.8 1.8 4.8 0 6.7l-16.4 16.4c-1.9 1.8-4.9 1.8-6.7 0-1.9-1.9-1.9-4.9 0-6.7l16.4-16.4c1.8-1.9 4.8-1.9 6.7 0z"/>
							<path id="&lt;Path&gt;" class="s1" d="m821.4 276.6c-1.9 1.9-4.9 1.9-6.7 0l-16.4-16.4c-1.9-1.8-1.9-4.8 0-6.7 1.8-1.8 4.8-1.8 6.7 0l16.4 16.4c1.8 1.9 1.8 4.9 0 6.7z"/>
						</g>
						<path id="&lt;Path&gt;" class="s5" d="m829.6 237.4c0 2.6-2.1 4.7-4.8 4.7h-23.2c-2.6 0-4.7-2.1-4.7-4.7 0-2.6 2.1-4.7 4.7-4.7h23.2c2.7 0 4.8 2.1 4.8 4.7z"/>
					</g>
				</g>
			</g>
			<g id="&lt;Group&gt;">
				<g id="&lt;Group&gt;">
					<path id="&lt;Path&gt;" class="s5" d="m446.9 729c0 37.8-30.9 68.6-68.6 68.6h-184.6c-37.7 0-68.6-30.8-68.6-68.6 0-37.7 30.9-68.6 68.6-68.6h184.6c37.7 0 68.6 30.9 68.6 68.6z"/>
					<path id="&lt;Path&gt;" class="s14" d="m193.7 660.4c-37.7 0-68.6 30.9-68.6 68.6"/>
				</g>
				<path id="Speaking" class="s2" aria-label="Speaking"  d="m173.5 748.7q0.1-0.7 1.7-1.4 1.7-0.6 4.1-1.3 2.4-0.7 5.3-1.6 2.9-0.8 5.6-1.9 2.7-1.1 4.9-2.4 2.3-1.4 3.3-3.1 0-1.1-1.4-1.7-1.3-0.5-3.7-0.9-2.2-0.4-5.2-0.6-2.9-0.3-6-0.7-3.1-0.5-6.1-1.2-2.9-0.7-5.2-1.9-2.3-1.3-3.7-3.2-1.4-1.9-1.4-4.7 0-2.7 1.2-5.4 1.2-2.8 3.2-5.4 2.1-2.5 4.6-4.7 2.7-2.2 5.5-3.8 2.8-1.7 5.6-2.6 2.9-0.9 5.3-0.9 0.6 0 1.3 0 0.7-0.1 1.2 0.1 0.6 0 0.9 0.5 0.4 0.4 0.4 1.2 0 2.1-1.4 3-1.3 0.9-3.2 0.9l-2.8-2q-1.6 0-3.6 0.9-1.9 0.9-4 2.5-2 1.5-3.9 3.5-1.9 1.9-3.4 4.1-1.4 2.1-2.3 4.2-0.9 2.2-0.9 3.9 0 2.4 1.4 4 1.4 1.5 3.7 2.4 2.3 0.9 5.3 1.3 3 0.4 6 0.7 3.1 0.3 6 0.6 3 0.2 5.3 0.8 2.3 0.7 3.7 1.7 1.4 1.1 1.4 2.9 0.8 1.2-0.4 2.7-1 1.4-3.4 2.9-2.2 1.4-5.4 2.9-3.1 1.4-6.5 2.6-3.3 1.1-6.4 2-3.2 0.8-5.4 1-0.6 0-1.1-0.4-0.4-0.5-0.1-1.5zm32.7 22q0.8-7.5 0.9-14.2 0.1-6.7-0.1-13.2-0.1-6.6-0.5-13.2-0.3-6.7-0.4-14.1 0.2-1 0.5-1.5 0.4-0.6 1.8-0.3 1.5 0.3 1.8 1.7 0.2 1.3 0.1 2.9-0.1 1.6-0.4 3.3-0.3 1.6 0 2.6 2.2-1.6 4.8-3.4 2.5-1.8 5.3-3.1 2.8-1.5 5.8-2.1 2.9-0.7 5.9-0.1 3.7 0.9 5.1 2.6 1.5 1.6 1.2 3.8-0.3 2.1-2 4.8-1.7 2.5-4.2 5.1-2.5 2.7-5.5 5.2-3.1 2.6-6 4.8-2.9 2.1-5.5 3.7-2.5 1.7-3.9 2.5-0.1 0.8-0.3 2.6 0 1.8-0.2 4.1 0 2.3-0.2 4.7 0 2.5-0.2 4.8-0.1 2.3-0.2 4-0.1 1.8-0.1 2.7-0.1 0-0.5 0.1-0.3 0.1-0.8 0.2-0.5 0-0.9 0-0.5 0-0.6 0-0.2 0-0.4-0.4-0.3-0.4-0.3-0.6zm4-38.9q-0.2 1-0.1 2.5 0.1 1.4 0.3 3 0.2 1.6 0.4 3.1 0.2 1.5 0.3 2.5 2.7-2 6.2-4.2 3.6-2.1 7-4.6 3.4-2.5 6-5.5 2.6-3.1 3.5-6.9 0.3-1.5-0.3-2-0.5-0.6-1.8-0.8-2.7-0.5-6.2 0.5-3.4 0.9-6.7 2.7-3.2 1.9-5.6 4.4-2.4 2.6-3 5.3zm32.9 4.9q-0.3 0-1 0.2-0.7 0.1-1.5 0.1-0.8-0.1-1.4-0.5-0.6-0.3-0.6-1.2 0-0.5 0.2-0.7 0.2-0.2 0.7-0.6 1.6-1.3 2.6-3.3 1.2-2 2.1-4.3 0.9-2.4 1.9-4.6 1.1-2.4 2.4-4.2 1.4-1.9 3.4-3 2-1.1 4.9-1.1 1.2 0 2.7 0.6 1.5 0.6 2.7 1.6 1.3 0.9 2.2 2.2 0.8 1.4 0.8 3 0.4 0.6-0.7 1.7-1 1-2.8 2.3-1.7 1.2-4 2.6-2.2 1.2-4.3 2.4-2 1.1-3.6 1.9-1.5 0.9-2 1.3-0.4 0.7-0.6 1.7-0.2 0.9-0.4 1.7 0 0.8-0.1 1.5 0 0.7 0 1 0 1.4-0.2 3 0 1.6 0.2 3.1 0.3 1.4 1.2 2.4 0.9 1 3.1 1 2.4 0 4.4-1.2 2.1-1.2 3.8-2.9 1.8-1.7 3.2-3.7 1.5-2 2.7-3.7 1.2-1.7 2.1-2.9 0.9-1.1 1.6-1.1 0.7 0 1.4 0.3 0.9 0.2 0.9 1.1 0 1.3-1.1 3.1-1 1.7-2.7 3.7-1.6 2-3.8 4-2.1 1.9-4.3 3.5-2.2 1.5-4.4 2.4-2.1 1-3.7 1-3.2 0-4.8-1.6-1.7-1.6-2.4-3.9-0.6-2.3-0.7-5 0-2.7-0.1-4.9zm13.1-19.2q-1.2 0-2.6 1.2-1.3 1.2-2.5 2.9-1.1 1.6-1.9 3.4-0.7 1.7-0.7 2.8 1 0 3-0.8 2.1-0.8 4.1-2 1.9-1.2 3.4-2.6 1.5-1.3 1.5-2.5 0-0.7-0.5-1.1-0.5-0.4-1.2-0.7-0.6-0.3-1.3-0.4-0.7-0.2-1.3-0.2zm38.6 32.7q-0.4-1.9-0.6-4.4-0.3-2.7-0.5-5.3-0.3-2.7-0.7-5-0.4-2.4-1.2-3.9-3.6 7.4-6.4 11.7-2.7 4.2-4.9 6-2 1.8-3.4 1.7-1.5-0.1-2.4-1.3-0.9-1.2-1.3-3-0.4-1.9-0.5-3.6 0-1.5 0.7-4.4 0.7-2.8 1.9-6.1 1.2-3.4 2.8-6.9 1.7-3.5 3.7-6.3 1.9-2.9 3.9-4.7 2.1-1.9 4.1-1.9 3.1-0.5 4.5 1.4 1.5 1.8 0.6 6 0 4.7 0.3 8 0.5 3.4 0.9 6.4 0.5 3.1 0.8 6.4 0.5 3.3 0.5 8 0 0.9-0.3 1.5-0.1 0.6-1.7 0.6-0.2 0-0.5-0.4-0.3-0.3-0.3-0.5zm-3.8-31.8q-0.8-1.1-2.2-0.2-1.3 0.9-2.8 3.1-1.5 2.1-3.1 5.1-1.5 3-2.9 6-1.3 3.1-2.3 5.8-1 2.7-1.4 4.5 0 2.6 0.8 2.9 0.8 0.3 1.9-0.8 1.2-1.2 2.6-3.3 1.5-2.1 2.8-4.5 1.5-2.5 2.7-4.7 1.2-2.3 1.9-3.7 0.7-1.5 1-2.8 0.4-1.3 0.6-2.4 0.3-1.2 0.3-2.4 0.1-1.2 0.1-2.6zm10.3 35.2l2-56.1q1.5-1.4 2.4-1.1 0.9 0.3 1.3 1.9 0.4 1.6 0.5 4.2 0.1 2.7-0.1 6 0 3.3-0.3 7-0.3 3.6-0.5 7.1-0.2 3.5-0.3 6.7-0.1 3.2 0.2 5.5h0.2q0.2 0 0.2 0 3.7-3.7 6.6-7.8 2.9-4.2 5.3-7.8 2.3-3.7 4.1-6.4 1.8-2.7 3.4-3.7 1.1 0 1.8 0.4 0.8 0.4 0.8 1.6 0 0.2-0.1 0.5 0 0.3 0 0.5-1.8 3.6-3.9 7.3-2.1 3.6-4.6 7-2.5 3.4-5.4 6.4-2.9 3.1-6.2 5.6 0 0-0.1 0.3 0 0.1 0 0.2 0 0.7 1.2 1.5 1.2 0.9 2.9 1.7 1.9 0.7 4.1 1.5 2.3 0.8 4.4 1.4 2.2 0.5 4 0.9 1.9 0.4 3 0.4 0 0.2 0 1 0.1 0.8-0.1 1.6-0.1 0.9-0.5 1.6-0.3 0.6-1.1 0.6h-0.3q-0.1 0-0.2 0l-20.3-8.2q0 4.2-0.5 6.8-0.5 2.6-1.3 3.9-0.6 1.2-1.4 1.1-0.7-0.1-1.2-1.1zm32.2-3q0-4.6-0.2-9.7-0.1-5.1-0.3-10.3-0.2-5.3-0.1-10.3 0.1-5.1 0.6-9.5 0.2 0 0.7 0 0.5-0.1 0.8-0.1 0.9 0 1.5 0.4 0.7 0.2 0.7 1.3 0 4.2-0.1 9.2 0 4.9-0.1 10 0 5 0 10 0 4.9 0.2 9 0 1.2-0.5 1.6-0.5 0.4-1.3 0.4-0.9 0-1.4-0.4-0.6-0.4-0.5-1.6zm-1.5-50.8q0-0.9 0.5-1.2 0.6-0.2 1.3-0.2 1.4 0 1.8 0.9 0.3 0.9 0.3 2.1-0.4 0.8-1 1.1-0.7 0.3-1.4 0.2-0.6-0.2-1.1-0.9-0.4-0.7-0.4-2zm13 51.3q-0.8-9.6-1.4-19.2-0.6-9.6-1.3-20 0-1.7 1.9-1.7h0.5q0.3 0 0.5 0.6 0.3 0.5 0.6 2.1 0.4 1.5 0.7 4.6 0.4 3.1 1 8 0.6 5 1.3 12.5 1.5-4.9 2.3-9.4 0.9-4.6 2.2-8.2 1.4-3.8 3.8-6.6 2.5-2.9 7.1-4.2 2.5 0.4 4.1 3.1 1.6 2.6 2.5 6.5 0.9 3.9 1.3 8.5 0.3 4.6 0.4 8.8 0.1 4.1 0.1 7.5 0 3.2 0.1 4.7-0.2 0.5-0.6 1-0.5 0.4-1 0.6-0.5 0.1-1 0.1-0.5-0.2-0.9-0.8 0-0.8-0.2-3.2-0.1-2.4-0.3-5.6-0.3-3.3-0.5-6.9-0.3-3.7-0.5-6.9-0.1-3.2-0.2-5.7-0.2-2.4-0.3-3.1-1.5-2.7-2.9-3-1.5-0.4-3 0.9-1.4 1.3-2.7 3.9-1.4 2.6-2.6 6-1.2 3.2-2.2 6.8-1.1 3.7-1.9 7.1-0.8 3.3-1.3 6.1-0.5 2.7-0.7 4.2-0.2 0.5-0.9 0.9-0.6 0.5-1.4 0.7-0.7 0.2-1.5 0.1-0.7-0.1-1.1-0.8zm37.1 28.6q6.2-0.3 9.8-3.2 3.6-2.9 5.4-7.5 1.7-4.7 2.1-10.5 0.3-6 0-12.3-0.2-6.3-0.8-12.6-0.5-6.4-0.4-11.9-3.1 8.9-5.8 14.5-2.7 5.4-5 8.3-2.3 2.7-4.2 3.4-1.8 0.6-3.3-0.2-1.4-0.9-2.3-2.7-0.9-1.8-1.2-3.7 0.1-3.3 1.3-7.2 1.2-4 3-7.7 1.9-3.8 4.4-7.1 2.5-3.3 5.3-5.2 2.7-1.9 5.7-2 3-0.1 5.8 2.3 0 0.1 0.2 1.9 0.2 1.8 0.4 4.8 0.3 2.9 0.6 6.6 0.3 3.6 0.6 7.3 0.3 3.7 0.5 7.1 0.2 3.4 0.4 5.9 0.3 4.1-0.3 8.6-0.6 4.6-1.9 8.9-1.2 4.2-3.2 8-1.9 3.8-4.5 6.2-2.5 2.4-5.6 3.1-3.1 0.6-6.5-1.1-0.2 0-0.7 0-0.4-0.1-0.7-0.3-0.2-0.2-0.1-0.6 0.2-0.3 1-1.1zm-2-38.9q0.7 2.2 1.8 2.3 1.2 0 2.6-1.5 1.3-1.6 2.9-4.4 1.6-2.7 3.2-6 1.5-3.3 3-6.7 1.6-3.4 2.9-6.4 0-0.8-0.3-1.4-0.4-0.7-1.6-0.5-2 0.5-3.9 2-1.8 1.4-3.5 3.6-1.5 2.2-2.9 4.8-1.2 2.6-2.2 5.2-1 2.5-1.5 4.9-0.5 2.3-0.5 4.1z"/>
			</g>
			<g id="&lt;Group&gt;">
				<g id="&lt;Group&gt;">
					<path id="&lt;Path&gt;" class="s5" d="m1374.9 496.7c0 37.7-30.9 68.6-68.6 68.6h-184.6c-37.7 0-68.6-30.9-68.6-68.6 0-37.7 30.9-68.6 68.6-68.6h184.6c37.7 0 68.6 30.9 68.6 68.6z"/>
					<path id="&lt;Path&gt;" class="s14" d="m1306.3 428.1c37.7 0 68.6 30.9 68.6 68.6"/>
				</g>
				<path id="Writing" class="s2" aria-label="Writing"  d="m1117.4 479.6q0.1-0.3 0.6-0.7 0.4-0.5 0.9-1 0.5-0.5 1-0.9 0.6-0.5 1-0.7 0.6 0.4 0.9 1 0.4 0.7 1 2.2 0.6 1.5 1.3 4.1 0.9 2.6 2.2 6.9 1.3 4.4 3.3 10.8 2 6.3 4.9 15.2 0.3-0.2 1-2.2 0.8-2.1 1.8-5.1 1.1-3.1 2.3-6.8 1.2-3.8 2.4-7.6 1.2-3.9 2.3-7.3 1.1-3.5 1.9-6 0.2-1 0.3-1.9 0.1-1 0.3-1.8 0.2-0.8 0.7-1.2 0.6-0.6 1.8-0.6 1-0.4 1.9 1 0.8 1.4 1.7 4 0.9 2.7 1.9 6.3 0.9 3.5 2.1 7.4 1.3 3.8 2.8 7.7 1.5 3.8 3.5 6.9l9.9-40.4q0.2-0.6 0.5-0.9 0.5-0.4 1-0.4 0.5 0 1.1 0.5 0.5 0.5 1 1.6l-9.8 39.6q0 1-0.2 2.2-0.2 1.2-0.6 2.4-0.3 1.1-0.8 2-0.4 0.8-1.1 1-0.5 0.2-1.2-0.5-0.7-0.7-1.5-2.6-3.9-7-7-14.5-3.1-7.6-5.6-16l-9 29.6q-0.5 3.1-1.3 5-0.8 1.8-1.8 2.7-0.9 1-1.9 1.2-0.9 0.2-1.7 0.1-0.8-0.1-1.2-0.4-0.4-0.4-0.2-0.5-1.6-2.2-2.8-5.2-1.1-3.1-2.1-6.7-0.9-3.6-1.9-7.6-0.9-4-1.9-7.8-1-3.9-2.4-7.5-1.4-3.6-3.3-6.6zm68.8 39.8l-5-32.2v-0.6q0-0.7 0.5-1 0.6-0.3 1.3-0.3 0.5 0 1 0.2 0.5 0 0.8 0.7 0.2 1.1 0.4 3 0.2 1.8 0.5 4.1 0.3 2.2 0.6 4.7 0.3 2.5 0.6 4.7 0.4 2.2 0.7 4 0.4 1.7 0.8 2.6-0.2-6.7 0.4-11.6 0.6-5 2.4-8.1 1.8-3.1 4.9-4.3 3.2-1.3 7.9-0.6 2.2 0 2.2 2.3 0 0.9-1.2 1.3-1.2 0.3-2.7 0.4-1.5 0.1-2.9 0.2-1.4 0.2-2 0.7-2.6 1.4-3.6 4.4-1 2.9-1.4 6.9-0.4 4-0.6 8.8-0.2 4.7-1 9.7 0 0.7-0.5 1-0.6 0.4-1.4 0.4-0.8 0-1.6-0.4-0.7-0.3-1.1-1zm24.7 0.2q0-4.6-0.3-9.6-0.1-5.1-0.3-10.2-0.1-5.2-0.1-10.2 0.1-5 0.7-9.3 0.1-0.1 0.6-0.1 0.6-0.1 0.8-0.1 0.9 0 1.5 0.4 0.6 0.3 0.6 1.3 0 4.2 0 9.1 0 4.8-0.1 9.9 0 5 0 9.9 0 4.9 0.1 8.9 0.1 1.2-0.5 1.6-0.4 0.4-1.2 0.4-0.9 0-1.4-0.4-0.6-0.4-0.4-1.6zm-1.6-50.3q0-0.8 0.6-1.1 0.5-0.3 1.2-0.3 1.4 0 1.8 0.9 0.3 0.9 0.3 2.1-0.4 0.8-1 1.2-0.6 0.2-1.3 0.1-0.7-0.2-1.2-0.9-0.4-0.7-0.4-2zm13.6 52.3l-1.7-30.6q-0.7 0.4-1.4 0.8-0.5 0.3-1.1 0.7-0.5 0.3-1.1 0.4-0.6 0.2-1.2 0-0.4 0-0.7-0.5-0.3-0.5-0.5-1.2-0.1-0.7-0.2-1.3-0.1-0.7 0-1.1l6.7-3.8 0.5-18q0.1-0.9 1.1-0.7 1 0.1 2 0.4 0.2 0 0.4 0.2 0.4 0 0.5 0.1-0.1 1.9-0.3 4.1-0.2 2.2-0.3 4.5-0.1 2.1-0.2 4.3 0 2.1 0.2 3.7l10.5-2.9q0.3-0.1 0.5 0.4 0.2 0.4 0.3 1.1 0.2 0.6 0.3 1.2 0.1 0.7 0.1 0.7l-12 5q0 0.7 0.1 3 0.1 2.4 0.3 5.7 0.1 3.3 0.3 7 0.1 3.8 0.2 7 0.2 3.2 0.2 5.7 0.1 2.4 0.1 3-0.1 2.1-1.2 2.1-1.1 0-2.4-1zm16.8-2q0-4.6-0.2-9.6-0.1-5.1-0.3-10.2-0.2-5.2-0.1-10.2 0.1-5 0.6-9.3 0.2-0.1 0.6-0.1 0.6-0.1 0.8-0.1 1 0 1.6 0.4 0.6 0.3 0.6 1.3 0 4.2-0.1 9.1 0 4.8 0 9.9 0 5 0 9.9 0 4.9 0.1 8.9 0.1 1.2-0.5 1.6-0.5 0.4-1.3 0.4-0.8 0-1.4-0.4-0.5-0.4-0.4-1.6zm-1.5-50.3q0-0.8 0.5-1.1 0.6-0.3 1.3-0.3 1.4 0 1.8 0.9 0.3 0.9 0.3 2.1-0.4 0.8-1 1.2-0.7 0.2-1.4 0.1-0.6-0.2-1.1-0.9-0.4-0.7-0.4-2zm12.9 50.8q-0.8-9.5-1.4-19-0.6-9.5-1.3-19.8 0-1.7 1.8-1.7h0.6q0.2 0 0.5 0.6 0.3 0.6 0.6 2.1 0.3 1.5 0.7 4.6 0.4 3 0.9 7.9 0.6 4.9 1.3 12.3 1.5-4.8 2.3-9.3 0.9-4.5 2.2-8.1 1.3-3.7 3.7-6.5 2.5-2.9 7.1-4.2 2.5 0.4 4 3.1 1.6 2.6 2.5 6.5 0.9 3.8 1.2 8.4 0.4 4.5 0.5 8.6 0 4.2 0 7.5 0 3.2 0.2 4.6-0.2 0.6-0.7 1-0.4 0.4-0.9 0.6-0.5 0.2-1 0.1-0.5-0.2-0.9-0.8 0-0.8-0.2-3.1-0.1-2.4-0.3-5.6-0.2-3.2-0.5-6.8-0.2-3.7-0.4-6.8-0.2-3.2-0.3-5.6-0.2-2.4-0.2-3.2-1.5-2.6-3-2.9-1.4-0.4-2.9 0.9-1.4 1.2-2.7 3.8-1.3 2.6-2.5 5.9-1.2 3.3-2.3 6.8-1 3.6-1.8 7-0.8 3.3-1.3 6-0.5 2.7-0.7 4.2-0.2 0.5-0.9 1-0.6 0.4-1.4 0.6-0.7 0.2-1.5 0.1-0.7-0.1-1-0.8zm36.6 28.4q6.2-0.4 9.7-3.3 3.6-2.9 5.4-7.4 1.7-4.6 2.1-10.4 0.3-5.9 0.1-12.2-0.3-6.2-0.9-12.5-0.5-6.3-0.4-11.7-3 8.9-5.7 14.3-2.7 5.4-5 8.3-2.2 2.7-4.1 3.3-1.9 0.6-3.3-0.2-1.4-0.8-2.3-2.6-0.8-1.8-1.2-3.7 0.2-3.2 1.3-7.1 1.2-3.9 3-7.6 1.9-3.8 4.4-7.1 2.4-3.3 5.2-5.1 2.7-1.9 5.6-2 3-0.1 5.7 2.3 0.1 0.1 0.2 1.9 0.3 1.7 0.5 4.7 0.3 2.9 0.5 6.5 0.4 3.6 0.7 7.3 0.2 3.7 0.5 7 0.2 3.4 0.4 5.9 0.3 4-0.4 8.5-0.5 4.5-1.8 8.7-1.3 4.3-3.2 8-1.9 3.7-4.5 6.1-2.4 2.4-5.5 3.1-3 0.6-6.5-1.1-0.2 0-0.6 0-0.4-0.1-0.7-0.3-0.2-0.2-0.1-0.6 0.2-0.3 0.9-1zm-1.9-38.6q0.7 2.2 1.8 2.3 1.2 0 2.5-1.5 1.4-1.6 2.9-4.3 1.6-2.7 3.2-6 1.5-3.2 3-6.6 1.5-3.4 2.9-6.4 0-0.7-0.4-1.4-0.3-0.7-1.5-0.4-2 0.4-3.9 1.9-1.8 1.5-3.4 3.7-1.6 2.1-2.9 4.7-1.3 2.5-2.3 5.1-0.9 2.5-1.4 4.8-0.5 2.3-0.5 4.1z"/>
			</g>
			<g id="&lt;Group&gt;">
				<path id="&lt;Path&gt;" class="s3" d="m1113.7 863.2c-5 7.9-15.5 10.2-23.4 5.2l-33.4-21c-7.9-5-10.2-15.5-5.2-23.4l14.9-23.6 62 39.1z"/>
				<path id="&lt;Path&gt;" class="s6" d="m1090.3 868.4l-18.2-11.5c7.9 5 18.3 2.6 23.3-5.3l14.9-23.6 18.3 11.5-14.9 23.7c-5 7.9-15.5 10.2-23.4 5.2z"/>
				<path id="&lt;Path&gt;" class="s5" d="m1263.9 625.1l-135.3 214.4-62-39.1 135.3-214.4z"/>
				<path id="&lt;Path&gt;" class="s18" d="m1109.9 827.7l135.3-214.4 18.7 11.8-135.3 214.4z"/>
				<path id="&lt;Path&gt;" class="s2" d="m1140.1 821.2l-11.5 18.3-62-39.1 11.5-18.3z"/>
				<path id="&lt;Path&gt;" class="s19" d="m1201.9 586l76.5-55.8c0.6-0.5 1.5-0.5 2.1-0.1 0.7 0.4 1 1.2 0.9 1.9l-17.5 93.1z"/>
				<path id="&lt;Path&gt;" class="s20" d="m1273.3 575l-9.4 50.1-62-39.1 41.2-30.1z"/>
				<path id="&lt;Path&gt;" class="s21" d="m1245.2 613.3l18.7-44.3 9.4 6-9.4 50.1z"/>
				<path id="&lt;Path&gt;" class="s22" d="m1263.9 569l16.6-38.9c0.7 0.4 1 1.2 0.9 1.9l-8.1 42.9z"/>
			</g>
			<g id="&lt;Group&gt;">
				<g id="&lt;Group&gt;">
					<path id="&lt;Path&gt;" class="s5" d="m1086.5 876.8c0 30.4-24.7 55.1-55.1 55.1-30.4 0-55.1-24.7-55.1-55.1 0-30.4 24.7-55.1 55.1-55.1 30.4 0 55.1 24.7 55.1 55.1z"/>
					<path id="Do" class="s2" aria-label="Do"  d="m1012.8 892.1q0-0.9 1.1-2.3 1.1-1.4 2.8-3.2 1.7-1.8 3.6-4 2-2.1 3.7-4.3 1.7-2.3 2.8-4.7 1.1-2.4 1.1-4.7 0-1.2-0.7-2-0.6-0.9-1.7-1.6-1.1-0.6-2.4-0.9-1.3-0.4-2.7-0.6-1.3-0.2-2.5-0.3-1.2 0-2.1 0-0.2 0-0.6 0-0.3 0-0.8 0-0.3 0-0.6 0.1-0.3 0-0.4 0l-0.6 0.6q0 0.1 0 0.7 0 0.7-0.1 1.6 0 0.8 0 1.7v1.4q0 4.6 0.4 9.1 0.3 4.4 0.3 9 0 0.3 0 0.6 0.1 0.3 0 0.6 0 0.3-0.3 0.5-0.1 0.2-0.5 0.2-0.3 0-0.6-0.2-0.3-0.1-0.3-0.4l-1.8-23.7q-0.1 0.1-0.5 0.3-0.3 0.1-0.6 0.3-0.4 0.2-0.7 0.4-0.4 0.2-0.5 0.2 0 0-0.1 0-0.1 0-0.2 0-0.2 0-0.5-0.1-0.3-0.1-0.3-0.5 0-0.7 0.3-1.1 0.3-0.4 0.8-0.8 0.5-0.4 1-0.7 0.5-0.4 1-0.9 0.5-0.6 0.7-1.5 0.4-0.8 0.4-2.1 0.9 0 1.1 0.3 0.2 0.3 0.3 0.7 0 0.5 0.1 0.9 0 0.4 0.6 0.6 1.3-0.1 3 0 1.8 0 3.8 0.3 2 0.2 3.9 0.7 1.9 0.5 3.4 1.4 1.5 0.9 2.4 2.3 0.9 1.4 0.8 3.4-0.6 3.4-2.3 6.6-1.6 3.2-3.8 6.2-2.3 2.9-4.9 5.6-2.5 2.7-5.1 5.2 0 0-0.1 0-0.1 0-0.2 0-0.4 0-0.6-0.2-0.3-0.3-0.3-0.7zm19.4-5.3q-0.3-2-0.3-4 0-2 0.3-4 0.2-2 0.7-4.2 0.5-2.2 1.1-4.7 0-0.5 0.3-0.9 0.2-0.5 0.7-0.7 0.4-0.3 0.9-0.5 0.5-0.2 1-0.2 1 0 1.8 0.6 0.8 0.7 1.4 1.6 0.7 0.9 1.2 1.9 0.4 1 0.8 1.7 0.3 1.6 0.5 3.6 0.1 2 0 4.1-0.1 2-0.6 4.1-0.5 1.9-1.4 3.6-0.9 1.7-2.4 2.8-1.4 1.1-3.3 1.4-1 0-1.6-0.7-0.5-0.7-0.8-1.7-0.2-1-0.3-2.1 0-1 0-1.7zm2.3-0.1q0 0.4 0 0.8 0.1 0.5 0.1 0.9 0.1 0.3 0.2 0.8 0.1 0.4 0.3 0.9h0.3q1.1 0 1.8-0.7 0.8-0.7 1.3-1.9 0.6-1.1 0.9-2.5 0.4-1.5 0.6-2.8 0.2-1.4 0.3-2.6 0-1.2 0-1.9v-0.9q0-0.6 0-1.3 0-0.8-0.2-1.6-0.1-0.8-0.3-1.4-0.2-0.7-0.6-1.1-0.3-0.4-0.9-0.4-1-0.3-1.7 0.2-0.7 0.4-1.2 1.5-0.4 1-0.6 2.6-0.2 1.5-0.3 3.3 0 1.9 0 3.9 0 2.1 0 4.2z"/>
				</g>
				<g id="&lt;Group&gt;">
					<path id="&lt;Path&gt;" class="s14" d="m1236.2 876.2c0 30.4-24.6 55.1-55 55.1-30.5 0-55.1-24.7-55.1-55.1 0-30.4 24.6-55 55.1-55 30.4 0 55 24.6 55 55z"/>
					<path id="Does" class="s2" aria-label="Does"  d="m1150.8 890.1q0-0.9 1.1-2.3 1.1-1.4 2.8-3.2 1.7-1.8 3.7-4 1.9-2.1 3.6-4.3 1.7-2.3 2.8-4.7 1.1-2.4 1.1-4.7 0-1.2-0.7-2-0.6-0.9-1.7-1.6-1-0.6-2.4-0.9-1.3-0.4-2.7-0.6-1.3-0.2-2.5-0.3-1.2 0-2.1 0-0.2 0-0.6 0-0.3 0-0.7 0-0.4 0-0.7 0.1-0.3 0-0.4 0l-0.6 0.6q0 0.1 0 0.7 0 0.7-0.1 1.6 0 0.8 0 1.7v1.4q0 4.6 0.4 9.1 0.3 4.4 0.3 9 0 0.3 0 0.6 0.1 0.3 0 0.6 0 0.3-0.3 0.5-0.1 0.2-0.5 0.2-0.3 0-0.6-0.2-0.3-0.1-0.3-0.4l-1.8-23.7q-0.1 0.1-0.4 0.3-0.4 0.1-0.7 0.3-0.4 0.2-0.7 0.4-0.4 0.2-0.4 0.2-0.1 0-0.2 0-0.1 0-0.2 0-0.2 0-0.5-0.1-0.3-0.1-0.3-0.5 0-0.7 0.3-1.1 0.3-0.4 0.8-0.8 0.5-0.4 1-0.7 0.5-0.4 1-0.9 0.5-0.6 0.8-1.5 0.3-0.8 0.3-2.1 0.9 0 1.1 0.3 0.2 0.3 0.3 0.7 0 0.5 0.1 0.9 0 0.4 0.6 0.6 1.3-0.1 3 0 1.9 0 3.8 0.3 2 0.2 3.9 0.7 1.9 0.5 3.4 1.4 1.5 0.9 2.4 2.3 0.9 1.4 0.8 3.4-0.6 3.4-2.3 6.6-1.6 3.2-3.8 6.2-2.3 2.9-4.9 5.6-2.5 2.7-5.1 5.2 0 0-0.1 0-0.1 0-0.2 0-0.4 0-0.6-0.2-0.3-0.3-0.3-0.7zm19.4-5.3q-0.3-2-0.3-4 0-2 0.3-4 0.2-2 0.7-4.2 0.5-2.2 1.1-4.7 0-0.5 0.3-0.9 0.2-0.5 0.7-0.7 0.4-0.3 0.9-0.5 0.5-0.2 1-0.2 1 0 1.8 0.6 0.8 0.7 1.4 1.6 0.7 0.9 1.2 1.9 0.4 1 0.8 1.7 0.3 1.6 0.5 3.6 0.1 2 0 4.1-0.1 2-0.6 4.1-0.5 1.9-1.4 3.6-0.9 1.7-2.4 2.8-1.4 1.1-3.3 1.4-1 0-1.6-0.7-0.5-0.7-0.8-1.7-0.2-1-0.3-2.1 0-1 0-1.7zm2.3-0.1q0 0.4 0 0.8 0.1 0.5 0.1 0.9 0.1 0.3 0.2 0.8 0.1 0.4 0.3 0.9h0.3q1.1 0 1.8-0.7 0.8-0.7 1.4-1.9 0.5-1.1 0.9-2.5 0.3-1.5 0.5-2.8 0.2-1.4 0.3-2.6 0.1-1.2 0.1-1.9v-0.9q0-0.6-0.1-1.3 0-0.8-0.2-1.6-0.1-0.8-0.3-1.4-0.2-0.7-0.6-1.1-0.3-0.4-0.9-0.4-1-0.3-1.7 0.2-0.7 0.4-1.2 1.5-0.4 1-0.6 2.6-0.2 1.5-0.3 3.3 0 1.9 0 3.9 0 2.1 0 4.2zm11.4-3.4q-0.2 0-0.7 0.1-0.4 0.1-0.9 0.1-0.5-0.1-0.9-0.3-0.4-0.2-0.4-0.8 0-0.3 0.1-0.4 0.2-0.2 0.5-0.4 1-0.9 1.7-2.1 0.7-1.3 1.3-2.8 0.6-1.4 1.2-2.9 0.7-1.5 1.5-2.6 0.9-1.2 2.1-1.9 1.3-0.8 3.1-0.7 0.8 0 1.8 0.3 0.9 0.4 1.7 1 0.8 0.6 1.4 1.5 0.5 0.8 0.5 1.9 0.2 0.3-0.4 1-0.7 0.7-1.8 1.5-1.1 0.8-2.6 1.6-1.4 0.8-2.7 1.5-1.3 0.8-2.3 1.3-1 0.5-1.3 0.8-0.2 0.5-0.3 1.1-0.2 0.5-0.3 1.1 0 0.5-0.1 0.9 0 0.4 0 0.7 0 0.8 0 1.8-0.1 1.1 0 2 0.2 0.9 0.8 1.6 0.6 0.5 2 0.5 1.5 0 2.8-0.7 1.3-0.7 2.4-1.8 1.1-1.1 2-2.4 1-1.2 1.7-2.3 0.8-1.1 1.4-1.9 0.5-0.7 1-0.7 0.4 0 0.9 0.2 0.5 0.1 0.5 0.7 0 0.8-0.6 2-0.7 1.1-1.7 2.4-1.1 1.2-2.5 2.5-1.3 1.2-2.7 2.2-1.4 0.9-2.8 1.6-1.3 0.5-2.4 0.5-2 0-3-0.9-1.1-1-1.5-2.5-0.4-1.5-0.5-3.2 0-1.7 0-3.1zm8.3-12.2q-0.8 0-1.6 0.8-0.9 0.7-1.7 1.8-0.7 1-1.2 2.1-0.4 1.1-0.4 1.8 0.6 0 1.9-0.5 1.3-0.5 2.6-1.3 1.2-0.7 2.2-1.6 0.9-0.8 0.9-1.6 0-0.4-0.3-0.7-0.3-0.3-0.8-0.4-0.4-0.2-0.8-0.3-0.5-0.1-0.8-0.1zm15.3 21.2q0 0.1 0.9-0.5 1-0.6 2.3-1.5 1.3-1 2.7-2.2 1.4-1.1 2.3-2.2 0.9-1 1-1.7 0.1-0.8-1.2-1-1.7-0.2-2.8 0-1.1 0.3-2 0.7-0.9 0.3-1.7 0.6-0.7 0.3-1.7 0.3-2 0-2.7-1.3-0.8-1.2-0.8-3.3 0-2.2 1-4 0.9-2 2.4-3.4 1.5-1.4 3.5-2.2 1.9-0.8 3.9-0.8 0.8 0 1.4 0.1 0.6 0.1 0.6 1 0 0.7-0.5 1.2-0.6 0.6-1.3 0.6 0 0-0.2-0.1-0.2-0.1-0.3-0.2-0.2-0.1-0.4-0.2-0.2-0.1-0.2-0.1-1.5-0.4-2.8 0.4-1.4 0.9-2.5 2.3-1 1.3-1.6 2.9-0.7 1.6-0.7 2.9 0 0.5 0.2 0.8 0.3 0.2 0.6 0.4 0.3 0.1 0.7 0.2 0.5 0 0.9 0 0.9 0 1.8-0.3 1-0.3 1.8-0.6 0.9-0.4 1.8-0.7 1-0.2 2-0.2 0.4 0 1 0.2 0.5 0.3 1 0.8 0.4 0.4 0.7 1 0.3 0.6 0.4 1.3 0.3 0.7-0.2 1.7-0.4 1-1.3 2.2-0.8 1.2-2 2.4-1.2 1.2-2.5 2.2-1.2 0.9-2.3 1.5-1.2 0.6-2 0.6-0.9 0-1.1-0.6-0.1-0.5-0.1-1.2z"/>
				</g>
				<g id="&lt;Group&gt;">
					<path id="&lt;Path&gt;" class="s5" d="m1373.6 874.4c0 30.4-24.6 55.1-55 55.1-30.5 0-55.1-24.7-55.1-55.1 0-30.4 24.6-55.1 55.1-55.1 30.4 0 55 24.7 55 55.1z"/>
					<path id="Did
" class="s2" aria-label="Did"  d="m1298.3 888.1q0-0.9 1.1-2.3 1.1-1.4 2.8-3.2 1.7-1.8 3.7-4 1.9-2.1 3.6-4.3 1.7-2.3 2.8-4.7 1.1-2.4 1.1-4.7 0-1.2-0.6-2-0.7-0.9-1.8-1.6-1-0.6-2.4-0.9-1.3-0.4-2.6-0.6-1.4-0.2-2.6-0.3-1.2 0-2.1 0-0.2 0-0.6 0-0.3 0-0.7 0-0.4 0-0.7 0.1-0.3 0-0.4 0l-0.6 0.6q0 0.1 0 0.7 0 0.7 0 1.6 0 0.8 0 1.7v1.4q0 4.6 0.3 9.1 0.3 4.4 0.3 9 0 0.3 0 0.6 0.1 0.3 0 0.6 0 0.3-0.2 0.5-0.2 0.2-0.6 0.2-0.3 0-0.6-0.2-0.2-0.1-0.3-0.4l-1.7-23.7q-0.2 0.1-0.5 0.3-0.4 0.1-0.7 0.3-0.4 0.2-0.7 0.4-0.3 0.2-0.4 0.2-0.1 0-0.2 0-0.1 0-0.2 0-0.2 0-0.5-0.1-0.3-0.1-0.3-0.5 0-0.7 0.3-1.1 0.3-0.4 0.8-0.8 0.5-0.4 1-0.7 0.5-0.4 1-0.9 0.5-0.6 0.8-1.5 0.3-0.8 0.3-2.1 0.9 0 1.1 0.3 0.2 0.3 0.3 0.7 0 0.5 0.1 0.9 0.1 0.4 0.6 0.6 1.3-0.1 3.1 0 1.8 0 3.7 0.3 2 0.2 3.9 0.7 1.9 0.5 3.4 1.4 1.5 0.9 2.4 2.3 0.9 1.4 0.8 3.4-0.6 3.4-2.3 6.6-1.6 3.2-3.8 6.2-2.2 2.9-4.9 5.6-2.5 2.7-5.1 5.2 0 0-0.1 0-0.1 0-0.2 0-0.4 0-0.6-0.2-0.3-0.3-0.3-0.7zm20.2 0q0-2.9-0.1-6.2-0.1-3.2-0.2-6.5-0.1-3.3-0.1-6.5 0.1-3.2 0.4-6 0.1-0.1 0.4-0.1 0.4 0 0.5 0 0.7 0 1 0.2 0.4 0.2 0.4 0.9 0 2.6 0 5.8 0 3.1-0.1 6.3 0 3.2 0 6.4 0 3.1 0.1 5.7 0.1 0.8-0.3 1-0.3 0.3-0.8 0.3-0.5 0-0.9-0.3-0.4-0.2-0.3-1zm-1-32.3q0-0.5 0.4-0.7 0.4-0.2 0.8-0.2 0.9 0 1.1 0.6 0.3 0.6 0.3 1.4-0.3 0.5-0.7 0.7-0.4 0.2-0.9 0.1-0.4-0.1-0.7-0.6-0.3-0.4-0.3-1.3zm16.4 36.4l-0.1-11.4q-0.5 1-1.2 2.3-0.7 1.4-1.6 2.6-0.9 1.2-2.1 2.1-1.2 0.8-2.7 0.8-0.7 0-1.1-0.1-0.4-0.2-0.7-0.5-0.2-0.3-0.5-0.8-0.2-0.4-0.6-0.9-0.1-2.3-0.2-4.8 0-2.5 0.3-5.1 0.3-2.5 0.9-4.8 0.7-2.2 1.8-3.8 1.3-1.6 3.1-2.3 1.8-0.6 4.3-0.1 0.2-1.2 0.1-3.3-0.1-2.2-0.3-4.5-0.2-2.3-0.4-4.5-0.1-2.2-0.2-3.6 0-0.4 0.4-0.6 0.4-0.2 0.8-0.3 0.5 0 0.9 0 0.4 0.1 0.6 0.2-0.1 5.5-0.1 10.9 0.1 5.3 0.1 10.6 0.1 5.3 0.2 10.5 0.1 5.2 0.1 10.5 0 0.4-0.1 1-0.1 0.6-0.8 0.6-0.2 0-0.5-0.2-0.3-0.1-0.4-0.5zm-2-24.5q-1.4-0.1-2.7 1.1-1.1 1.2-2 3.1-0.9 1.9-1.4 4.2-0.6 2.2-0.7 4.3-0.1 2.1 0.3 3.7 0.4 1.7 1.4 2.2 1 0 1.8-0.7 0.9-0.8 1.6-2.1 0.7-1.2 1.3-2.7 0.5-1.5 0.9-2.9 0.4-1.4 0.5-2.5 0.3-1.2 0.3-1.8 0-0.4 0-1.4 0.1-1 0-2-0.1-1-0.4-1.7-0.3-0.8-0.9-0.8z"/>
				</g>
			</g>
		</g>
	</g>
</svg>