<svg version="1.2" xmlns="http://www.w3.org/2000/svg" viewBox="0 0 558 769" width="558" height="769">
	<title>7921924-ai</title>
	<style>
		.s0 { fill: #e9b376 } 
		.s1 { opacity: .3;fill: #000000 } 
		.s2 { opacity: .3;fill: none;stroke: #000000;stroke-linecap: round;stroke-linejoin: round;stroke-width: .5 } 
		.s3 { fill: #664426 } 
		.s4 { fill: #000000 } 
		.s5 { fill: #407bff } 
		.s6 { fill: #263238 } 
		.s7 { fill: none;stroke: #263238;stroke-linecap: round;stroke-linejoin: round } 
		.s8 { opacity: .2;fill: #000000 } 
		.s9 { fill: #d58745 } 
		.s10 { opacity: .2;fill: none;stroke: #000000;stroke-linecap: round;stroke-linejoin: round } 
		.s11 { fill: #fa4747 } 
		.s12 { fill: #7b7c7d } 
		.s13 { fill: #ffffff } 
		.s14 { fill: #c15854 } 
		.s15 { fill: #1d2b50 } 
		.s16 { fill: #662626 } 
	</style>
	<g id="Characters">
		<g id="&lt;Group&gt;">
			<g id="&lt;Group&gt;">
				<path id="&lt;Path&gt;" class="s0" d="m251.2 212.4c0 0-23.7 54.3-31 62.1-7.3 7.7-104.1 21.1-104.1 21.1l-4.1-16.8 88.6-39.1 14.7-39.1z"/>
				<path id="&lt;Path&gt;" class="s1" d="m241.9 217.3l1.1 13.3-2.3 5.1-3.4-8.1-28-11.2 2.4-6.2z"/>
				<g id="&lt;Group&gt;">
					<g id="&lt;Group&gt;">
						<g id="&lt;Group&gt;">
							<g id="&lt;Group&gt;">
								<g id="&lt;Group&gt;">
									<g id="&lt;Group&gt;">
										<g id="&lt;Group&gt;">
											<path id="&lt;Path&gt;" class="s0" d="m133 286.2c-1.1 6.7-5.3 9.6-12.4 11.5-5.7 1.5-17.1 1.9-22.8 2.9-6.2 1-13.2 0.9-11.7-2.1 1.5-2.9 12.6-3.3 12.6-3.3-0.9-0.5-20.1 0.8-20.8-1.6-0.5-1.8 0.6-3.6 3.6-4.3 2.3-0.6 17.8-2.1 18.5-2.1 0 0-12.6 0.3-18.6 0.2-2.6-0.1-3.4-1.6-3.4-2.2 0.3-2.4 6.1-3.1 6.1-3.1 0 0-4-0.8-1.1-3.4 2.8-2.6 26.4-5.1 28.7-6.8 2.2-1.6-0.7-4.5-3.3-7.1-2.5-2.5-6.2-8.1-1.5-6.8 4.8 1.3 9.2 4.8 15.5 7 6.3 2.2 9.6 9.5 9.6 9.5 0 0 2.1 5 1 11.7z"/>
										</g>
									</g>
								</g>
							</g>
						</g>
					</g>
					<path id="&lt;Path&gt;" class="s2" d="m84.8 281.8q6.9-0.7 13.8-0.9"/>
					<path id="&lt;Path&gt;" class="s2" d="m103 295.2c-2.2-5.5-2.7-11.7-1.4-17.6"/>
					<path id="&lt;Path&gt;" class="s2" d="m124.6 282c-2.4 0.1-4.9-0.6-6.9-2-1.9-1.4-3.4-3.5-4-5.9"/>
				</g>
			</g>
			<g id="&lt;Group&gt;">
				<g id="&lt;Group&gt;">
					<g id="&lt;Group&gt;">
						<path id="&lt;Path&gt;" class="s3" d="m151.3 167.7c0 0 16.9 0 22.1 20.3 5.3 20.4 4.2 97.6 6.9 109 2.7 11.4 25.1 96.5 30.2 137.6 0 0-23.8 2-25.9 1.6-2.2-0.4-37.8-167.7-37.8-167.7z"/>
					</g>
					<g id="&lt;Group&gt;" style="opacity: .3">
						<path id="&lt;Path&gt;" class="s4" d="m151.3 167.7c0 0 16.9 0 22.1 20.3 5.3 20.4 4.2 97.6 6.9 109 2.7 11.4 25.1 96.5 30.2 137.6 0 0-23.8 2-25.9 1.6-2.2-0.4-37.8-167.7-37.8-167.7z"/>
					</g>
					<g id="&lt;Group&gt;">
						<path id="&lt;Path&gt;" class="s3" d="m184.8 204.7c11.9 23.9 30.7 49.4 30.7 49.4 6.1-1 46.2-17.4 46.2-17.4l4.5 17.2c0 0-13 12.9-26.7 22-24.2 15.9-33.2 14.9-45.5 2-12.4-12.8-37.6-60.4-37.6-60.4l8.8-43.1-2.2-2.6c13.3 5.8 16.1 21.3 21.8 32.9z"/>
					</g>
					<g id="&lt;Group&gt;" style="opacity: .3">
						<path id="&lt;Path&gt;" class="s3" d="m184.8 204.7c11.9 23.9 30.7 49.4 30.7 49.4 6.1-1 46.2-17.4 46.2-17.4l4.5 17.2c0 0-13 12.9-26.7 22-24.2 15.9-33.2 14.9-45.5 2-12.4-12.8-37.6-60.4-37.6-60.4l8.8-43.1-2.2-2.6c13.3 5.8 16.1 21.3 21.8 32.9z"/>
					</g>
					<path id="&lt;Path&gt;" class="s1" d="m178.1 255.4c0 0 2-20.8 0-32.3-2-11.6-4.2-22.5-4.2-22.5 0 0 7.7 17.5 8.5 30.2 0.9 12.8 0.4 32.1 0.4 32.1z"/>
					<path id="&lt;Path&gt;" class="s1" d="m244.4 243.7l3.7 26-5.7 4.2c0 0-3.5-28.1-3.3-28.1z"/>
				</g>
				<g id="&lt;Group&gt;">
					<g id="&lt;Group&gt;">
						<path id="&lt;Path&gt;" class="s0" d="m44.8 685.7l33.3 3.2-11.8 55-21.5-2.1z"/>
						<g id="&lt;Group&gt;">
							<path id="&lt;Path&gt;" class="s5" d="m70.5 739.6c5.6 5.2 18.3 10.5 36.3 14.5 4 0.9 2 10.7-7.7 10.7h-35.6c-11.7 0-16.1 0-25.4 0q-0.5 0-1-0.2c-1.7-0.5-2.7-2.3-2.2-4l5.7-21c0.3-0.9 1.1-4.5 4.2-4.1 4.8 5.7 8.1 8 12.6 1.9 1-1.4 2.6-2.3 4.4-2.3h7.7c1.1 2.9 0 3.6 1 4.5z"/>
							<path id="&lt;Path&gt;" class="s1" d="m70.5 739.6c5.6 5.2 18.3 10.5 36.3 14.5 4 0.9 2 10.7-7.7 10.7h-35.6c-11.7 0-16.1 0-25.4 0q-0.5 0-1-0.2c-1.7-0.5-2.7-2.3-2.2-4l5.7-21c0.3-0.9 1.1-4.5 4.2-4.1 4.8 5.7 8.1 8 12.6 1.9 1-1.4 2.6-2.3 4.4-2.3h7.7c1.1 2.9 0 3.6 1 4.5z"/>
							<path id="&lt;Compound Path&gt;" fill-rule="evenodd" class="s6" d="m80.9 742.3q-3.6-0.1-7.2-0.9c-0.2-0.1-0.3-0.4-0.2-0.6q0-0.2 0.2-0.3c1.1-0.5 10.7-5 13.1-3.3 0.5 0.3 0.7 0.9 0.7 1.4 0 1-0.5 1.9-1.3 2.5-1.6 0.9-3.4 1.4-5.3 1.2zm-5.7-1.5c2.9 0.5 8.1 1.2 10.3-0.4 0.6-0.5 0.9-1.1 1-1.9 0-0.2-0.1-0.4-0.3-0.5-1.3-1-7 1-11 2.8z"/>
							<path id="&lt;Compound Path&gt;" fill-rule="evenodd" class="s6" d="m73.8 741.4q-0.1 0-0.3 0c-0.1-0.1-0.2-0.3-0.1-0.5 0-0.4 2.3-9.9 7.5-9.2 1.3 0.1 1.7 0.8 1.8 1.3 0.3 2.5-5.8 7.2-8.7 8.5zm6.6-9c-3.3 0-5.2 5.5-5.9 7.7 3.1-1.6 7.5-5.6 7.3-7.1 0-0.1 0-0.5-1-0.6z"/>
							<path id="&lt;Path&gt;" class="s7" d="m73.2 741.1c-2.7 0.4-5.1 1.9-6.6 4.2"/>
							<path id="&lt;Path&gt;" class="s7" d="m77.7 744.3c-2.6 0.4-5.1 1.9-6.5 4.2"/>
							<path id="&lt;Path&gt;" class="s7" d="m84.3 747.5c-2.7 0.4-5.1 2-6.6 4.2"/>
						</g>
					</g>
					<g id="&lt;Group&gt;">
						<path id="&lt;Path&gt;" class="s0" d="m150.2 683.7l30.6 3.3-10 55.3-21.5-2.2z"/>
						<g id="&lt;Group&gt;">
							<path id="&lt;Path&gt;" class="s5" d="m175.1 737.9c5.5 5.2 18.2 10.5 36.2 14.5 4 0.9 2 10.7-7.7 10.7h-35.6c-11.6 0-16.1 0-25.4 0q-0.5 0-1-0.1c-1.7-0.5-2.7-2.4-2.2-4.1l5.7-21c0.3-0.9 1.1-4.4 4.2-4.1 4.8 5.7 8.1 8 12.6 2 1-1.4 2.6-2.3 4.4-2.3h7.7c1.1 2.8 0 3.5 1.1 4.4z"/>
							<path id="&lt;Compound Path&gt;" fill-rule="evenodd" class="s6" d="m185.5 740.6q-3.7-0.1-7.3-0.9c-0.2-0.1-0.3-0.3-0.2-0.6q0.1-0.1 0.2-0.2c1.1-0.5 10.7-5 13.2-3.3 0.4 0.3 0.7 0.8 0.6 1.3 0 1-0.5 1.9-1.3 2.5-1.6 1-3.4 1.4-5.2 1.2zm-5.8-1.5c2.9 0.5 8.2 1.2 10.4-0.4 0.5-0.4 0.9-1.1 0.9-1.8 0.1-0.3 0-0.5-0.2-0.6-1.4-0.9-7.1 1-11.1 2.8z"/>
							<path id="&lt;Compound Path&gt;" fill-rule="evenodd" class="s6" d="m178.3 739.7q-0.1 0.1-0.3 0c-0.1-0.1-0.1-0.3-0.1-0.4 0-0.4 2.3-9.9 7.6-9.3 1.3 0.2 1.6 0.8 1.7 1.3 0.3 2.5-5.7 7.3-8.6 8.5zm6.5-9c-3.3 0-5.2 5.5-5.9 7.8 3.2-1.7 7.6-5.7 7.3-7.2 0-0.1 0-0.5-1-0.6z"/>
							<path id="&lt;Path&gt;" class="s7" d="m179.3 739.4c-2.6 0.4-5.1 2-6.5 4.2"/>
							<path id="&lt;Path&gt;" class="s7" d="m184.1 743c-2.7 0.4-5.1 2-6.5 4.2"/>
							<path id="&lt;Path&gt;" class="s7" d="m190.1 746.1c-2.7 0.3-5.2 1.9-6.6 4.2"/>
						</g>
					</g>
					<path id="&lt;Path&gt;" class="s6" d="m184 332.2c1.5 4.6 18.9 152.1 18.7 183.9-0.1 25.8-19.2 204-19.2 204h-41.9c0 0 5.4-91.5 4.3-121.3-1.1-29.8 6.1-85.7 6.1-85.7l-44.9-134.4 1.7-45z"/>
					<path id="&lt;Path&gt;" class="s6" d="m49.8 530.3c1-4.3 2.6-13 4.5-24.5q-0.1 0-0.2 0c1.5-15.3-3.4-94.2 1.4-139.2 3.7-28.7 10.5-44 17.9-53.5q0.6-0.7 1.1-1.3c1.2-1.5 1.9-2.4 1.9-2.4q2.1 0.6 4.2 1 0.8 0.2 1.6 0.3c52.1 11 93.8-3.3 93.8-3.3 4.8 11.8 9.9 39.9 13.4 66.1-5.5 6-26.7 11.5-54.2 16.7l-7.8 35.4c-4.1 22-9.4 43.5-13.9 62.9l-4.7 21.2q-0.4 2.1-0.8 4.1c-2.4 12.3-29 207.2-29 207.2l-38.3-0.9c0 0-4.2-131.6 9.1-189.8z"/>
					<g id="&lt;Group&gt;">
						<path id="&lt;Path&gt;" class="s8" d="m125.7 434.4c-0.1 0.7 17.6-68.4 17.6-68.4 0 0 13.7 62.6-8 97z"/>
					</g>
					<path id="&lt;Path&gt;" class="s1" d="m175.1 737.9c5.5 5.2 18.2 10.5 36.2 14.5 4 0.9 2 10.7-7.7 10.7h-35.6c-11.6 0-16.1 0-25.4 0q-0.5 0-1-0.1c-1.7-0.5-2.7-2.4-2.2-4.1l5.7-21c0.3-0.9 1.1-4.4 4.2-4.1 4.8 5.7 8.1 8 12.6 2 1-1.4 2.6-2.3 4.4-2.3h7.7c1.1 2.8 0 3.5 1.1 4.4z"/>
				</g>
				<path id="&lt;Path&gt;" class="s3" d="m60.7 229.5l-5.7-50c8.7-12.9 43.7-19.8 43.7-19.8l28.3 1.5c0 0 15 3.6 24.4 6.6 0 0 6.2 8.2 10.9 19.7 0 0 13.7 29.3 11.6 49.9-0.9 8.7-2.9 41.8-0.5 56.7l12.9 39.5c-51.8 40.3-115.7-1.9-115.7-1.9 2.3-7.1 7.4-22.9 8.5-29.8-0.8-8.9-3.3-14.8-7.1-30.3-0.7-3-10.1-39.1-11.3-42.1z"/>
				<g id="&lt;Group&gt;">
					<path id="&lt;Path&gt;" class="s0" d="m122.2 273.4l10.5-0.9 4.1 14.7-10.5 3.6z"/>
					<g id="&lt;Group&gt;">
						<g id="&lt;Group&gt;">
							<g id="&lt;Group&gt;">
								<g id="&lt;Group&gt;">
									<g id="&lt;Group&gt;">
										<path id="&lt;Path&gt;" class="s0" d="m129.6 271.7c0 0 1.5-7.2 6.7-10.5 5.2-3.2 8.4-7.2 12.4-9.4 4.1-2.1 4.7 2.4 2.9 5.2-1.8 2.8-6.6 7.3-4.3 8.3 2.4 1 24.1-1.6 27.2 0.2 3 1.7-0.3 3.2-0.3 3.2 0 0 4.8-0.5 6 1.6 1.2 2.1-1.8 3.3-1.8 3.3 0 0 3.3-0.2 3.2 2.1-0.1 2.4-19.4 6.4-20.1 7.1 0 0 11.3-4 13.2-1.7 1.9 2.3-4.3 4.9-9.1 7-4.9 2.1-11.3 2.8-16.7 2.3-6.8-0.6-16.2 0.2-18.5-5.6-2.4-5.8-0.8-13.1-0.8-13.1z"/>
									</g>
								</g>
							</g>
						</g>
					</g>
				</g>
				<g id="&lt;Group&gt;">
					<path id="&lt;Path&gt;" class="s8" d="m53.6 450.1c0 0 23.7-145 24.9-145.3 1.2-0.3 14.8-2.6 16.1-2.8 1.2-0.3-1 41-1 41l-7.3 120-32.5-4.2z"/>
					<path id="&lt;Path&gt;" class="s3" d="m80.9 453.6l-51.1-6.7 25.2-142.1c0 0-7.8-102.2-3.4-116.5 1.6-5.2 2-10.1 4.4-12.1 3.6-3.1 8-5.2 15-8.4 11-4.9 16.2 36.6 18.5 63 2.3 26.5-8.6 222.8-8.6 222.8z"/>
					<path id="&lt;Path&gt;" class="s1" d="m80.9 453.6l-51.1-6.5 25.6-144.3c0 0-8.2-100.2-3.8-114.5 1.6-5.2 2-10.1 4.4-12.1 3.6-3.1 8-5.2 15-8.4 11-4.9 16.2 36.6 18.5 63 2.3 26.5-8.6 222.8-8.6 222.8z"/>
					<path id="&lt;Path&gt;" class="s1" d="m57.4 274.4l16.2-62c0.5 23-8 72.6-8 72.6z"/>
					<g id="&lt;Group&gt;">
						<path id="&lt;Path&gt;" class="s1" d="m88.4 298.3l-0.3 8.8c0 0-20.6 6.3-27.6 3.4-4.9-2.1-8.5-6.7-8.5-6.7z"/>
						<path id="&lt;Path&gt;" class="s3" d="m73.6 212.4c-1.3-0.1-10.3 57.7-10.3 57.7l63.5-1.4 3.6 25.6c0 0-27.8 6.7-58.6 11.7-31.7 5.2-43.6-8.8-43.7-30.4-0.1-19.7 8-67.6 8-67.6 4.1-18.9 12.2-25.9 22.2-33.6z"/>
					</g>
					<path id="&lt;Path&gt;" class="s1" d="m73.6 213.4c-1.3-0.1-10.3 57.7-10.3 57.7l63.5-1.4 3.6 25.6c0 0-27.8 6.7-58.6 11.7-31.7 5.2-43.6-8.8-43.7-30.4-0.1-19.7 8-67.6 8-67.6 4.1-18.9 12.2-25.9 22.2-33.6z"/>
				</g>
				<g id="&lt;Group&gt;">
					<path id="&lt;Path&gt;" class="s6" d="m90.9 62.7c0 0 7.5-11.3 27.6-12.8 20.1-1.4 42.6 4.4 53.5 31.9l-8.8 2.2c5.8 20.8 8.4 42.3 7.6 63.8 0 0-61.6 8.2-101.4 1.4 0 0-0.8-23.4 4.2-55.9 4.9-32.4 17.3-30.6 17.3-30.6z"/>
					<g id="&lt;Group&gt;">
						<g id="&lt;Group&gt;">
							<g id="&lt;Group&gt;">
								<g id="&lt;Group&gt;">
									<path id="&lt;Path&gt;" class="s0" d="m98.6 115.2l23.4 21.8 6.4 3.6c-1.3 3.3-2.3 6.8-2.7 10.2-0.8 5.9 2 9.5 7.6 13.6 5 3.7 6 12.1 4.7 18.1q-0.3 1.4-0.9 2.6c-1.7 3.6-8.5 1.7-16.1-2-2.8-1.3-5.5-3-7.9-4.9-11.7-9.3-20.7-15.7-20.7-15.7 11.5-8.7 9.3-33.5 6.2-47.3z"/>
								</g>
								<path id="&lt;Path&gt;" class="s8" d="m125.5 152.1c-6.3-3.4-13.3-9.5-12.8-16.8 0.3-3.1 0.8-6 1.5-7.9l13.2 16.1c-1 2.7-1.3 4.5-1.9 8.6z"/>
								<path id="&lt;Path&gt;" class="s0" d="m134.1 57.8c23.1 8.8 28.6 42.9 25.1 63.7-3.8 23-31.1 30.2-49.7 12.7-12.4-11.6-13.2-21.3-16.2-44.3-3.1-23 18.2-40.7 40.8-32.1z"/>
								<path id="&lt;Path&gt;" class="s6" d="m127 91.8c1.5-0.1 2.9 1.9 3.1 4.3 0.3 2.4-0.8 4.4-2.3 4.5-1.5 0-2.9-2-3.2-4.4-0.2-2.4 0.9-4.4 2.4-4.4z"/>
								<path id="&lt;Path&gt;" class="s6" d="m150.4 90.8c1.6 0 2.9 1.9 3.2 4.3 0.2 2.3-0.9 4.3-2.4 4.3-1.5 0-2.9-1.9-3.1-4.2-0.2-2.4 0.8-4.3 2.3-4.4z"/>
								<path id="&lt;Path&gt;" class="s6" d="m117.5 87.5c-0.4-0.4-0.4-1.2 0-1.6 4.2-4.2 9.3-3 9.5-2.9 0.6 0.1 1 0.8 0.9 1.4-0.1 0.6-0.7 0.9-1.3 0.8 0 0-4.1-1-7.5 2.4-0.2 0.2-0.5 0.3-0.8 0.3q-0.4 0-0.8-0.4z"/>
								<path id="&lt;Path&gt;" class="s6" d="m152.6 83.3c-4.3-2.2-7.3-0.4-7.5-0.3-0.4 0.3-1.1 0.1-1.4-0.4-0.4-0.5-0.3-1.2 0.2-1.5 0.1-0.1 4-2.5 9.4 0.3 0.5 0.3 0.8 0.9 0.6 1.4q-0.2 0.4-0.5 0.6c-0.3 0.1-0.6 0-0.8-0.1z"/>
								<path id="&lt;Path&gt;" class="s9" d="m139.9 94.4c0 0 4 8.5 8.3 13.7 0.7 0.9 0.3 2.3-0.8 2.7-2.8 1.2-6.1 0.4-6.1 0.4z"/>
							</g>
							<path id="&lt;Path&gt;" class="s6" d="m126.2 91.9l5.2-1.5c0 0-2.7 4.1-5.2 1.5z"/>
							<path id="&lt;Path&gt;" class="s6" d="m149.6 91l5.3-1.5c0 0-2.7 4.1-5.3 1.5z"/>
							<path id="&lt;Path&gt;" class="s6" d="m98.6 125.3c-20.8-13.6-18.2-69.4 18.5-73.1 36.6-3.6 42.3 43.7 42.3 43.7-7.3-42.5-49.8-23.2-49.8-23.2 3.1 13.3-2.4 30-2.4 30-4.8 11.7-8.6 22.7-8.6 22.6z"/>
							<path id="&lt;Path&gt;" class="s0" d="m91.1 95.1c5.9-1.4 12 2 14.1 7.4 2.3 6.1-0.5 16-6.6 14.7-4.1-0.8-8.7-3.6-11.6-8.3-3.3-5.2-1.7-12.4 4.1-13.8z"/>
						</g>
						<path id="&lt;Path&gt;" class="s10" d="m90.7 99.8c2.2-0.3 4.4 0.4 6.1 1.8 1.7 1.4 2.8 3.4 3.1 5.6"/>
						<path id="&lt;Path&gt;" class="s7" d="m126.9 113.8c0 0 2.5 6 9.3 4.3"/>
					</g>
				</g>
				<g id="&lt;Group&gt;">
					<g id="&lt;Group&gt;">
						<g id="&lt;Group&gt;">
							<g id="&lt;Group&gt;">
								<g id="&lt;Group&gt;">
									<g id="&lt;Group&gt;">
										<g id="&lt;Group&gt;">
											<path id="&lt;Path&gt;" class="s0" d="m252.1 242.8c0 0-0.9-8 3.3-13.2 4.2-5.1 6.2-10.4 9.5-14 3.4-3.6 3.2 3.1 2.3 6.6-0.9 3.5-1.8 7.5 1 7.8 2.7 0.2 24.2-10 28-9.3 3.8 0.7 0.8 3.5 0.8 3.5 0 0 5.3-2.4 6.8-0.5 0.4 0.5 0.5 2.2-1.8 3.6-5 3.3-15.9 9.5-15.9 9.5 0.6-0.3 14.6-7.1 16.9-7.8 2.9-1 4.8 0 5.3 1.7 0.7 2.5-16.4 11.5-16.9 12.3 0 0 9.7-5.5 12.5-3.7 2.8 1.7-3.1 5.5-9 7.8-5.3 2.2-15.3 7.8-20.9 9.5-7 2-12.1 1.9-16.6-3.3-4.4-5.1-5.3-10.5-5.3-10.5z"/>
										</g>
									</g>
								</g>
							</g>
						</g>
					</g>
					<path id="&lt;Path&gt;" class="s2" d="m296.2 224.3q-6.2 3-12.2 6.5"/>
					<path id="&lt;Path&gt;" class="s2" d="m287.7 245.3c-1-5.9-3.8-11.4-8-15.8"/>
					<path id="&lt;Path&gt;" class="s2" d="m267.6 232.9c0.7 2.3 0.6 4.9-0.4 7.1-0.9 2.3-2.7 4.2-4.8 5.3"/>
				</g>
			</g>
			<g id="&lt;Group&gt;">
				<g id="freepik--character-3--inject-124">
					<path id="&lt;Path&gt;" class="s6" d="m344.4 91.1l-35.2 9.3c0 0-3.6-36.7-5.5-52.1-1.9-15.4 15.5-31 10.5-28.3z"/>
					<g id="freepik--group--inject-124">
						<path id="&lt;Path&gt;" class="s0" d="m530.6 235.9c0 0-55.6 60.2-69.5 57.9-5.3-0.9-37.1-22.5-44.9-30.6l26.6-40.1c3.3 5.5 13.6 22 20.7 31.2q2 2.7 4.4 5.1l52.9-34.9z"/>
						<path id="&lt;Path&gt;" class="s8" d="m421.6 268.1l37.4-20 3.8 5.2c0 0-5.5 5.4-14.1 10.1-13 7-22.8 8.3-22.8 8.3z"/>
						<path id="&lt;Path&gt;" class="s5" d="m330.7 123.4c-9.5 4.2-23.9 27.6-23.9 27.6l-8.9-4.1-4.9-7.9c0 0 19-33.5 30.9-38.7 0 0 16.3 18.9 6.8 23.1z"/>
						<path id="&lt;Path&gt;" class="s11" d="m330.7 123.4c-9.5 4.2-23.9 27.6-23.9 27.6l-8.9-4.1-4.9-7.9c0 0 19-33.5 30.9-38.7 0 0 16.3 18.9 6.8 23.1z"/>
						<path id="&lt;Path&gt;" class="s5" d="m323.9 100.3c0 0 27.4-16.8 62.8-8.9 6.3 3.1 11 8.3 18.1 46.1 2.3 12.5 15 12.7 20.4 24.8 3.2 4.4 2.3 10.5-2.1 13.8q-1 0.7-2.2 1.2c-18.9 7.5-54.3 19.7-74.6 14.3 0 0-21.1-50.4-22.4-91.3z"/>
						<path id="&lt;Path&gt;" class="s11" d="m323.9 100.3c0 0 27.4-16.8 62.8-8.9 6.3 3.1 11 8.3 18.1 46.1 2.3 12.5 15 12.7 20.4 24.8 3.2 4.4 2.3 10.5-2.1 13.8q-1 0.7-2.2 1.2c-18.9 7.5-54.3 19.7-74.6 14.3 0 0-21.1-50.4-22.4-91.3z"/>
						<path id="&lt;Path&gt;" class="s0" d="m422.7 286c19.8 51.7 34.6 85.4 34.6 85.4l-12.8 6.7c0 0-29.2-31.2-55.8-85.4q-9.6-19.6-17.1-40l33.2-28.1c3.2 16.1 12 46 17.9 61.4z"/>
						<path id="&lt;Path&gt;" class="s8" d="m371.6 252.7l23.8-12.6c3.3 16.1 17.9 13.1 23.6 35.5-7.5 2.3-27.2 7.7-35.2 6.8-6.4-13.1-7.2-16.1-12.2-29.7z"/>
						<path id="&lt;Path&gt;" class="s12" d="m437.2 369.9l16.8-5.5c0.6-0.2 1.2 0.1 1.4 0.6q0 0 0 0.1l5.2 13c0.5 1.5-0.3 3-1.8 3.5-5.9 1.8-8.8 2.3-16.2 4.7-4.5 1.5-13.4 4.8-19.9 5.9-6.6 1-7.4-5.5-4.7-6.6 6.3-2.4 13.7-9.4 16.9-14.1 0.5-0.8 1.4-1.3 2.3-1.6z"/>
						<path id="&lt;Compound Path&gt;" fill-rule="evenodd" class="s5" d="m429.5 374.4c-0.6-0.4-1-1.1-1-1.9-0.1-0.4 0.1-0.9 0.5-1.2 1.6-1.3 6.8 0.2 7.4 0.4q0.2 0.1 0.2 0.3c0 0.1 0 0.3-0.2 0.3q-1.8 1.2-3.8 1.9c-1 0.4-2 0.5-3.1 0.2zm0-2.5c-0.2 0.2-0.3 0.4-0.3 0.6 0 0.5 0.3 0.9 0.7 1.2 0.9 0.5 2.9-0.1 5.4-1.4-2.1-0.6-5-1-5.9-0.3z"/>
						<path id="&lt;Compound Path&gt;" fill-rule="evenodd" class="s5" d="m436.2 372.4c-1.8-0.4-5.1-2.8-5.3-4.5 0-0.7 0.3-1.3 1-1.5 0.5-0.2 1.1-0.2 1.6 0 2 1 3.1 5.5 3.1 5.6q0 0.2-0.1 0.3-0.1 0.1-0.2 0.1 0 0.1-0.1 0zm-4-5.3c-0.5 0.1-0.6 0.5-0.5 0.7 0.8 1.7 2.2 3.1 4 3.8-0.4-1.4-1.3-3.9-2.5-4.4-0.3-0.2-0.6-0.2-0.9-0.1z"/>
						<path id="&lt;Path&gt;" class="s12" d="m526.2 240.5l-11.5-13.5c-0.4-0.4-0.4-1.1 0-1.6l10.1-9.7c1.2-1 2.9-0.9 3.9 0.3 4 4.7 5.7 7.2 10.6 13.1 3.1 3.7 9.5 10.6 13 16.2 3.4 5.7-2.3 8.9-4.3 6.8-4.6-4.9-13.9-9.1-19.5-10.2-0.9-0.2-1.7-0.7-2.3-1.4z"/>
						<path id="&lt;Compound Path&gt;" fill-rule="evenodd" class="s5" d="m533.2 245.8c-0.1 0.7-0.6 1.4-1.3 1.6-0.4 0.3-0.9 0.3-1.3 0-1.9-1-2.4-6.3-2.5-7q0-0.2 0.2-0.3c0.1-0.1 0.3-0.1 0.4 0q1.7 1.2 3.1 2.8c0.8 0.8 1.3 1.8 1.4 2.9zm-2.2 1c0.2 0.1 0.4 0.1 0.6 0 0.5-0.2 0.8-0.6 0.8-1.1 0-1-1.2-2.7-3.4-4.4 0.3 2.1 1 4.9 2 5.5z"/>
						<path id="&lt;Compound Path&gt;" fill-rule="evenodd" class="s5" d="m528.9 240.4c0.3 1.8-0.7 5.7-2.2 6.5-0.6 0.3-1.3 0.2-1.8-0.3-0.4-0.4-0.6-0.9-0.6-1.5 0.2-2.2 3.9-4.9 4-5q0.2-0.1 0.4 0 0 0.1 0 0.1 0.1 0.1 0.2 0.2zm-3.4 5.6c0.4 0.4 0.7 0.3 0.9 0.2 1.2-1.5 1.9-3.3 1.8-5.2-1.1 1-3 2.7-3.1 4 0 0.3 0 0.6 0.2 0.9z"/>
						<path id="&lt;Path&gt;" class="s0" d="m367.5 92.3c0 0-10.6 12.1-21.3 13.5-8.3 1.1-7.9-6.1-7.9-6.1q1.2-1.9 1.8-4c3-9.4-6.6-16.2-6.6-16.2l8.6-4.5 18.7-9.8c-5.2 18.1 6.7 27.1 6.7 27.1z"/>
						<path id="&lt;Path&gt;" class="s8" d="m359.1 72.9c0 0-5.6 19.6-18.9 22.8 2.9-9.4-6.6-16.2-6.6-16.2l8.5-4.5z"/>
						<path id="&lt;Path&gt;" class="s0" d="m371.9 41.4c2.2 17.2-3.5 37.9-17 43.3-24.9 9.9-35.9 7-42.7-11.5-6.2-16.7-5.6-45 14.7-54.4 20.3-9.4 41.8-1.2 45 22.6z"/>
						<path id="&lt;Path&gt;" class="s6" d="m334.2 54.2c0.3 2.2-0.5 4.1-1.9 4.4-1.4 0.2-2.9-1.4-3.2-3.6-0.4-2.2 0.5-4.1 1.9-4.3 1.3-0.3 2.8 1.3 3.2 3.5z"/>
						<path id="&lt;Path&gt;" class="s6" d="m316.7 56.2c0.3 2.1-0.5 3.9-1.9 4.2-1.4 0.2-2.7-1.4-3.1-3.4-0.3-2.1 0.5-3.9 1.9-4.2 1.4-0.2 2.8 1.3 3.1 3.4z"/>
						<path id="&lt;Path&gt;" class="s6" d="m326.1 44.3q-0.2-0.1-0.4-0.4c-0.2-0.5 0.1-1.1 0.6-1.3q0 0 0 0c3-1.2 6.4-0.8 9 1 0.5 0.3 0.5 0.9 0.2 1.4-0.3 0.4-0.9 0.5-1.4 0.2-2.1-1.4-4.8-1.6-7.1-0.7q-0.5 0.1-0.9-0.2z"/>
						<path id="&lt;Path&gt;" class="s6" d="m309.5 48q-0.4 0-0.6-0.2c-0.4-0.4-0.4-1 0-1.4 2-2.5 5.1-3.8 8.3-3.5 0.6 0.1 0.9 0.6 0.9 1.1q0 0 0 0c-0.1 0.6-0.6 0.9-1.2 0.9-2.5-0.2-5 0.9-6.6 2.9-0.2 0.2-0.5 0.2-0.8 0.2z"/>
						<path id="&lt;Path&gt;" class="s9" d="m320.5 58.2l3.7 8.8c-2.2 0.9-4.6 1.2-6.9 0.7 1.6-2.9 2.7-6.2 3.2-9.5z"/>
						<path id="&lt;Path&gt;" class="s0" d="m354.9 55.6c0 0 2.5-11.3 8.5-9 6 2.3 8.2 19.9 0.2 21.4-8 1.5-11.3-6.1-8.7-12.4z"/>
						<path id="&lt;Path&gt;" class="s6" d="m327.1 73.2c2.6-1.7 7.5-5.1 9.4-8.6q0.8 0.9 1.3 1.9c0.6 1.1 1 2.4 1 3.7 0.1 2.7-1.4 6-6.8 9.3l-1.3 0.7q-2.5-3.1-5.5-5.7c0 0 0.8-0.4 1.9-1.3z"/>
						<path id="&lt;Path&gt;" class="s13" d="m336.5 64.6q0.8 0.9 1.3 1.9c-0.7 2.5-3.9 5.4-9 8.5l-1.7-1.7c2.6-1.7 7.5-5.1 9.4-8.7z"/>
						<path id="&lt;Path&gt;" class="s14" d="m333.5 75.1c1.5-1.9 3.3-3.6 5.3-4.9 0.1 2.7-1.4 6-6.8 9.3 0-1.6 0.5-3.1 1.5-4.4z"/>
						<path id="&lt;Path&gt;" class="s13" d="m353 132.4c0 0 10.4-12.8 16.6-3.5 7.7 11.6-16.8 29.6-16.8 29.6 0 0-17.6-14.5-13-25.4 6-13.8 13.2-0.7 13.2-0.7z"/>
						<path id="&lt;Path&gt;" class="s5" d="m425.2 161.5c5 1.9 26.2 62.4 38.5 88 0 0-20.9 13.7-55.9 23.6-42.4 12-57.6 7.3-57.6 7.3-11.4-32.7-14.3-82-8.5-96.5z"/>
						<path id="&lt;Path&gt;" class="s15" d="m463.7 249.5c0 0-3.1 2-8.8 5.1-2.8 1.4-6.1 3.1-10 4.9-3.5 1.6-7.4 3.3-11.8 5q-4.5 1.8-9.6 3.6c-4.8 1.7-10.1 3.4-15.6 5q-2.3 0.6-4.5 1.2c-2.6 0.7-5.2 1.4-7.7 1.9q-8.9 2.1-15.9 3.2c-3.8 0.6-7 1-9.9 1.3q-5.3 0.6-10.7 0.5c-1.5 0-2.8 0-3.9-0.1q-2.6-0.2-5.1-0.8c-11.4-32.7-14.3-81.9-8.5-96.4l83.5-22.5c5 2 26.2 62.5 38.5 88.1z"/>
						<path id="&lt;Path&gt;" class="s8" d="m348.8 230.6l10.4 50.7c-1.5 0-2.8 0-3.9-0.2z"/>
						<path id="&lt;Path&gt;" class="s8" d="m369.9 280.8l-7.5-76.4 17.3 75c-3.6 0.7-6.9 1.1-9.8 1.4z"/>
						<path id="&lt;Path&gt;" class="s8" d="m395.7 276.3l-14.3-77.1 22 75.2q-4 0.9-7.7 1.9z"/>
						<path id="&lt;Path&gt;" class="s8" d="m423.5 268.1l-18.7-76.5 28.4 72.9q-4.6 1.8-9.7 3.6z"/>
						<path id="&lt;Path&gt;" class="s8" d="m454.9 254.6c-2.8 1.4-6.1 3.1-10 4.9l-22.2-72.7z"/>
						<path id="&lt;Path&gt;" class="s8" d="m471.4 257.1c0.6 7.7-3.5 12.6-3.5 12.6 0.6-2.8 0-10.3 0-10.3z"/>
					</g>
					<path id="&lt;Path&gt;" class="s8" d="m323.5 129l1-15.5 2.2 12.4z"/>
					<path id="&lt;Path&gt;" class="s6" d="m393.2 78.8l-34.1 9.3c0 0-2-1.5-6.7-10.8-4.8-9.3 2-15.1-6.1-27.8-7.5-11.9-28.1-16.1-28.3-17-10.8-5.6-6.3-19.8 12-23.9 12.6-2.8 25.7-2.3 35.1 3.5 17.4 9.1 32.6 60 33.9 62.8 1.4 3-5.8 3.9-5.8 3.9z"/>
				</g>
				<g id="&lt;Group&gt;">
					<g id="&lt;Group&gt;">
						<g id="&lt;Group&gt;">
							<g id="&lt;Group&gt;">
								<g id="&lt;Group&gt;">
									<path id="&lt;Path&gt;" class="s0" d="m244.4 691.1l-18.5 51.3-17.1-5.4 5.3-54z"/>
								</g>
							</g>
						</g>
					</g>
					<g id="&lt;Group&gt;">
						<g id="&lt;Group&gt;">
							<g id="&lt;Group&gt;">
								<g id="&lt;Group&gt;">
									<g id="&lt;Group&gt;">
										<g id="&lt;Group&gt;">
											<g id="&lt;Group&gt;">
												<g id="&lt;Group&gt;">
													<g id="&lt;Group&gt;">
														<g id="&lt;Group&gt;">
															<g id="&lt;Group&gt;">
																<g id="&lt;Group&gt;">
																	<path id="&lt;Path&gt;" class="s6" d="m228.7 757.5c-0.4 3.7-0.7 6.3-0.7 6.3h-15.5c0 0-3.2-1.6-5-1.4-1.9 0.2-8.3 1.5-8.3 1.5l-41.2 0.1q0.5-2.6 1.2-4.7 0.8-2.5 1.9-4.2c2.5-4.2 6-5.7 9.8-6 5.8-0.3 24-12.5 24-12.5 0 0 6.6-2.3 6.9-9.4 0.1-2.6 4-5.8 5.9-6.1 3.7-0.6 5.8 1.8 6.4 5.6l0.6 4.4 8.7-1.4c0 0 8.9-4.5 8.5-0.1"/>
																</g>
															</g>
														</g>
													</g>
												</g>
											</g>
											<g id="&lt;Group&gt;" style="opacity: .2">
												<path id="&lt;Path&gt;" class="s13" d="m159.2 759.3l69.5-1.8c-0.4 3.7-0.7 6.3-0.7 6.3h-15.5c0 0-3.2-1.6-5-1.4-1.9 0.2-8.3 1.5-8.3 1.5l-41.2 0.1q0.5-2.6 1.2-4.7z"/>
											</g>
											<g id="&lt;Group&gt;">
												<g id="&lt;Group&gt;">
													<g id="&lt;Group&gt;">
														<g id="&lt;Group&gt;">
															<path id="&lt;Path&gt;" class="s5" d="m185.8 741.1c0.2-0.2 0.5-0.2 0.7-0.1 1 0.7 1.9 1.7 2.5 2.9 0.3 0.6-0.6 1.2-0.9 0.6-0.6-1.1-1.3-1.9-2.2-2.5-0.3-0.2-0.4-0.6-0.1-0.9q0 0 0 0z"/>
														</g>
													</g>
												</g>
											</g>
											<g id="&lt;Group&gt;">
												<g id="&lt;Group&gt;">
													<g id="&lt;Group&gt;">
														<g id="&lt;Group&gt;">
															<path id="&lt;Path&gt;" class="s5" d="m189.1 739.2c0.2-0.2 0.5-0.2 0.7-0.1 1 0.7 1.9 1.6 2.5 2.8 0.3 0.7-0.6 1.3-1 0.6-0.5-1-1.2-1.9-2.1-2.5-0.3-0.2-0.4-0.6-0.1-0.8q0 0 0 0z"/>
														</g>
													</g>
												</g>
											</g>
											<g id="&lt;Group&gt;">
												<g id="&lt;Group&gt;">
													<g id="&lt;Group&gt;">
														<g id="&lt;Group&gt;">
															<path id="&lt;Path&gt;" class="s5" d="m192.5 737.3c0.2-0.1 0.5-0.2 0.7 0 1 0.7 1.9 1.6 2.5 2.8 0.3 0.7-0.7 1.3-1 0.6-0.5-1-1.2-1.9-2.1-2.5-0.3-0.2-0.4-0.6-0.1-0.8q0 0 0-0.1z"/>
														</g>
													</g>
												</g>
											</g>
										</g>
									</g>
								</g>
							</g>
						</g>
					</g>
				</g>
				<g id="&lt;Group&gt;">
					<g id="&lt;Group&gt;">
						<g id="&lt;Group&gt;">
							<g id="&lt;Group&gt;">
								<g id="&lt;Group&gt;">
									<path id="&lt;Path&gt;" class="s0" d="m394.7 688l-5.3 53.6-18.1-0.7-8.2-55.5z"/>
								</g>
							</g>
						</g>
					</g>
					<g id="&lt;Group&gt;">
						<g id="&lt;Group&gt;">
							<g id="&lt;Group&gt;">
								<path id="&lt;Path&gt;" class="s6" d="m405 766.4l-40.5 0.4c0 0-0.9-1.7 0.1-6.3q0.2-1 0.6-2.3 0-0.1 0-0.1c0.4-1.3 0.8-2.8 1.3-4.5 1.7-6.8 3.8-15.7 3.8-15.7 0 0 6.6-14.5 14.6-10.9 6.9 3.1 5.4 12.1 5.4 12.1 0 0 0.7 5.3 6 9.9 3.2 2.9 6.5 5.1 8.1 8.7q0.4 1 0.7 2.2 0 0.1 0 0.2c0.4 1.8 0.4 3.8-0.1 6.3z"/>
							</g>
						</g>
					</g>
					<g id="&lt;Group&gt;" style="opacity: .2">
						<path id="&lt;Path&gt;" class="s13" d="m405.1 760.1c0.4 1.8 0.4 3.8-0.1 6.3l-40.5 0.4c0 0-0.9-1.7 0.1-6.3z"/>
					</g>
					<g id="&lt;Group&gt;">
						<g id="&lt;Group&gt;">
							<g id="&lt;Group&gt;">
								<g id="&lt;Group&gt;">
									<path id="&lt;Path&gt;" class="s5" d="m388.6 741.4c-2.3-1.7-5.2-1.5-7.3 0.5-0.5 0.6-1.4-0.3-0.8-0.8 2.5-2.5 6.2-2.7 9-0.6 0.6 0.5-0.3 1.4-0.9 0.9z"/>
								</g>
							</g>
						</g>
					</g>
					<g id="&lt;Group&gt;">
						<g id="&lt;Group&gt;">
							<g id="&lt;Group&gt;">
								<g id="&lt;Group&gt;">
									<path id="&lt;Path&gt;" class="s5" d="m389.8 745.2c-2.3-1.8-5.3-1.5-7.3 0.5-0.5 0.5-1.4-0.3-0.8-0.8 2.5-2.6 6.1-2.7 9-0.6 0.6 0.5-0.3 1.3-0.9 0.9z"/>
								</g>
							</g>
						</g>
					</g>
					<g id="&lt;Group&gt;">
						<g id="&lt;Group&gt;">
							<g id="&lt;Group&gt;">
								<g id="&lt;Group&gt;">
									<path id="&lt;Path&gt;" class="s5" d="m391 748.6c-2.3-1.7-5.3-1.5-7.3 0.6-0.6 0.5-1.4-0.3-0.9-0.9 2.6-2.5 6.2-2.7 9-0.5 0.7 0.5-0.2 1.3-0.8 0.8z"/>
								</g>
							</g>
						</g>
					</g>
				</g>
				<g id="&lt;Group&gt;">
					<g id="&lt;Group&gt;">
						<g id="&lt;Group&gt;">
							<path id="&lt;Path&gt;" class="s6" d="m407.1 454.6c0 0-1.2 211.1-5.8 271.2l-38.9 0.3c-7.9-42.2-15.7-187.9-15.7-187.9-3.2-25.5-10.7-93.9-13-115.4q-1.4-7.2-2.7-14.3c-8.1 23.4-39.9 115.4-42.7 129.7-3.2 16.5-48.6 187.7-48.6 187.7l-41.5-8.7c0 0 25.7-160 28.6-190.3 2.9-30.4 38.6-191.8 38.6-191.8l53.3 1.1 84.7-1.6c0 0 6.1 74.2 3.7 120z"/>
						</g>
					</g>
					<g id="&lt;Group&gt;" style="opacity: .5">
						<path id="&lt;Path&gt;" class="s4" d="m288.9 359.3c-4.9 16.8-18.4 30.4-35.1 35.4-0.9 0.3-1.3-1.1-0.4-1.4 16.2-4.9 29.3-18.1 34.1-34.4 0.3-0.8 1.6-0.5 1.4 0.4z"/>
						<path id="&lt;Path&gt;" class="s4" d="m331.9 358.5c-0.8 14.2-1.6 28.5-2.4 42.7-0.1 0.9-1.5 0.9-1.5 0q0.7-10.9 1.3-21.9c-3.5 2.7-7.6-0.5-8.8-4.1-2-5.9-1.3-12.9 0.1-18.7 0.2-0.9 1.6-0.6 1.4 0.3-1 4.2-1.4 8.4-1.1 12.6 0.2 2.2 0.4 4.6 1.5 6.6 1.1 2.2 4 4 6.2 2 0.3-0.2 0.5-0.2 0.8-0.1q0.5-9.7 1.1-19.4c0-0.9 1.4-0.9 1.4 0z"/>
						<path id="&lt;Path&gt;" class="s4" d="m375.1 360.5c0 18 14 33.2 32 34.4 0.9 0.1 1 1.5 0.1 1.4-18.8-1.3-33.5-16.9-33.5-35.8 0-0.9 1.4-0.9 1.4 0z"/>
					</g>
				</g>
				<path id="&lt;Path&gt;" class="s0" d=""/>
				<g id="&lt;Group&gt;">
					<path id="&lt;Path&gt;" class="s16" d="m267.3 188.9l-16.3 34.2-46.9-15.4c0 0 12.5-59.6 29.3-69.4z"/>
					<path id="&lt;Path&gt;" class="s8" d="m244.5 187.1l-2.6 33.2-11.8-4.1c4.7-12.7 2.4-59.6 2.4-59.6 0 0 7.7 22.1 12 30.5z"/>
					<g id="&lt;Group&gt;">
						<path id="&lt;Path&gt;" class="s16" d="m242.7 134c11.9-3.4 51.8-17.3 103.6-18.4l23.9 50.8 25.7 125.3c0 0 5.1 14.3 9.3 41.7-47.4 31.6-112.3 30.9-149.9 17.6-1.4-16.1 1.1-13-2.4-44.1-6.2-54.9-18.1-117.8-20-168 0-1.2 8.6-4.5 9.8-4.9z"/>
					</g>
					<g id="&lt;Group&gt;">
						<g id="&lt;Group&gt;">
							<path id="&lt;Path&gt;" class="s0" d="m302.1 132.5c-22.9 7.7-36.5 0.4-36.5 0.4 0 0 5.3-6.5 5.1-9.5-0.5-3.6-1.9-7-4.1-9.9q-1.7-2.5-3.8-4.7l28.8-43.2c-0.2 23.2 14 35.5 23.3 51.1 0 0 0.8 11.2-12.8 15.8z"/>
							<path id="&lt;Path&gt;" class="s8" d="m286.3 86.1c7.7 17.3-7.5 31.6-15.7 37.3-0.4-3.6-1.8-7-4-9.9z"/>
							<g id="&lt;Group&gt;">
								<g id="&lt;Group&gt;">
									<g id="&lt;Group&gt;">
										<g id="&lt;Group&gt;">
											<g id="&lt;Group&gt;">
												<path id="&lt;Path&gt;" class="s0" d="m290.7 54.3c1.6 23 2.9 35.9-7.1 49-15.1 19.8-44 13.2-52.4-8.9-7.6-20-9-54.3 12.3-66.1 20.9-11.6 45.6 2.9 47.2 26z"/>
												<path id="&lt;Path&gt;" class="s6" d="m300.9 56.8c-1.4 8.6-0.1 22.5-7.5 27.5-5.3-4.2-9.9-9.1-13.3-13.3-4.1-4.9-6.7-10.8-7.7-17.1-1-6.9-2.3-14.9-3.1-14.6l-6.1-5.7c1.2 0.3-18.7-6.6-17.5-7.8 8-7.5 28.3-17.2 38.1-4.2 20.4-1.7 19.2 22.4 17.1 35.2z"/>
												<path id="&lt;Path&gt;" class="s0" d="m302.2 72.1c-1.1 6.1-4.9 11.2-9.1 14-6.4 4.3-9.9-2.8-10.2-10.1-0.2-6.6 0.6-14.7 8-16.1 7.3-1.3 12.5 5.2 11.3 12.2z"/>
												<path id="&lt;Path&gt;" class="s6" d="m264.9 64.3c0.3 2.4-0.7 4.4-2.3 4.6-1.5 0.2-3-1.5-3.3-3.9-0.3-2.3 0.7-4.4 2.2-4.5 1.6-0.2 3.1 1.5 3.4 3.8z"/>
												<path id="&lt;Path&gt;" class="s6" d="m238.5 68.3c0.3 2.3-0.7 4.4-2.3 4.6-1.5 0.2-3-1.6-3.3-3.9-0.3-2.4 0.7-4.4 2.2-4.6 1.6-0.2 3.1 1.6 3.4 3.9z"/>
												<path id="&lt;Path&gt;" class="s9" d="m244.7 84.4c0 0-5.4 2-9-0.5 1.7-5 7.6-17.6 7.6-17.6z"/>
												<path id="&lt;Path&gt;" class="s6" d="m263.1 53.4c-0.3 0.2-0.7 0.2-1.1 0-4.2-2.5-7.9-0.8-7.9-0.8-0.6 0.3-1.2 0.1-1.5-0.5-0.3-0.5-0.1-1.2 0.5-1.5 0.2-0.1 4.8-2.2 10 0.9 0.6 0.3 0.8 1 0.4 1.5q-0.1 0.2-0.4 0.4z"/>
											</g>
											<path id="&lt;Path&gt;" class="s10" d="m286.6 74.7c0-2 0.5-4 1.5-5.8 0.8-1.4 1.9-2.7 3.5-3.3 1.5-0.6 3.5-0.4 4.6 0.9"/>
										</g>
										<path id="&lt;Path&gt;" class="s6" d="m224.6 60.1q-0.3-0.1-0.6-0.3c-0.4-0.4-0.5-1.1-0.2-1.5 3.8-4.8 8.8-4.4 9.1-4.4 0.6 0.1 1 0.6 1 1.2-0.1 0.6-0.6 1.1-1.2 1-0.2 0-4.1-0.3-7.1 3.5-0.3 0.3-0.6 0.5-1 0.5z"/>
									</g>
								</g>
								<path id="&lt;Path&gt;" class="s6" d="m269.3 39.3l-8.2-5.5c-11.4-5.5-24.8 1.8-27.8 12.3-0.6 2.3-3.9 2.8-5.1 0.6q0 0-0.1-0.1-0.3 1.3-0.4 2.6c-0.2 2.8-4.1 3.5-5.4 1q-0.1-0.2-0.2-0.5-0.5 1-0.9 2.1c-0.9 2.4-4.2 2.6-5.3 0.2-1.3-3.2-2.4-7.7-1.8-13.5 1.2-13.7 12.2-27.4 32-30.8 24.7-4.3 37.7 13.9 37.7 13.9 0 0-4.5 12.6-14.5 17.7z"/>
							</g>
							<g id="&lt;Group&gt;">
								<path id="&lt;Path&gt;" class="s6" d="m256.7 89.2c2.4-2.8 6.7-8.2 7.7-12.7q1.1 0.6 2 1.6c1.1 1 1.9 2.4 2.4 3.8 1 3 0.4 7.2-4.6 12.7q-0.6 0.6-1.2 1.2-3.8-2.6-8-4.7c0 0 0.5-0.7 1.7-1.9z"/>
								<path id="&lt;Path&gt;" class="s13" d="m264.3 76.5q1.1 0.6 2 1.6c0.1 3.1-2.6 7.3-7.3 12.4l-2.4-1.3c2.4-2.8 6.7-8.2 7.7-12.7z"/>
								<path id="&lt;Path&gt;" class="s14" d="m264.3 89.1c1.1-2.6 2.6-5.1 4.4-7.2 1 3 0.4 7.2-4.6 12.7-0.5-1.8-0.4-3.7 0.2-5.5z"/>
							</g>
						</g>
						<path id="&lt;Path&gt;" class="s16" d="m262 130.8l7.5-12.1 17.3 12.5 19.6-27.6 15.3 13.9-19.9 30.7-22.5-1.9z"/>
					</g>
					<g id="freepik--group--inject-124 00000006693355082606306160000004963946775558344110 ">
						<path id="&lt;Path&gt;" class="s0" d="m455.5 189.7c-3.7 6.5-4.3 7.5-9 13.3l-13.4-18.6-58.9-15.2-15-3.5 17.3-35.8c12 4.3 68.9 20.7 77.4 30.7 4 4.7 6.2 20.8 1.6 29.1z"/>
						<path id="&lt;Path&gt;" class="s8" d="m406.7 138.5l-9.1 36.8-19.5-4.7 6.8-38.7c0 0 10.1 3.4 21.8 6.6z"/>
						<path id="&lt;Path&gt;" class="s16" d="m408.6 132.4l-20.9 46.6c0 0-28.9-9.2-41.3-15.8-17.5-9.2-19.1-29.8-15.7-41.2 5.8-19 77.9 10.4 77.9 10.4z"/>
					</g>
					<path id="&lt;Path&gt;" class="s1" d="m373.8 184.1l-20.4-19.2 18.3 8.7z"/>
					<g id="&lt;Group&gt;" style="opacity: .2">
						<path id="&lt;Path&gt;" class="s4" d="m279.4 329.5c11.4-1.2 22.7-3.2 33.7-5.9 8.6-2.1 17.3-4.8 24.3-10.2 5.1-3.8 9-8.9 12.9-14q9.5-12.2 19.1-24.5c0 0-5.4 17.5-10.2 27.8-4.6 10.1-13.6 21.5-24.4 23.9-29.6 6.7-55.4 2.9-55.4 2.9z"/>
					</g>
				</g>
				<g id="&lt;Group&gt;">
					<g id="&lt;Group&gt;">
						<g id="&lt;Group&gt;">
							<g id="&lt;Group&gt;">
								<g id="&lt;Group&gt;">
									<g id="&lt;Group&gt;">
										<path id="&lt;Path&gt;" class="s0" d="m311.9 152.3c0.4 5.3-5.7 7.2-9.6 9.4-3.2 1.9-7.4 3.1-11.1 2.7-3.7-0.5-8.3-0.9-7.9-3.2 0.5-2.4 8.7-2.2 8.7-2.2-0.6-0.4-13.9 1.5-14.7-0.3-0.8-1.9 1.3-2.5 1.3-2.5 0 0-2.2-0.3-2.1-2.3 0-2 3.2-2.9 3.2-2.9 0 0-2.5-0.3-1.2-2.5 1.4-2.2 15.6-6 16.7-7.4 1.2-1.5-3.2-3.8-5.2-5.6-2-1.8-3.1-5.6 0.1-4.9 3.2 0.7 6.4 3 10.7 4.3 4.2 1.2 7.5 6.6 7.5 6.6 0 0 3.2 5.5 3.6 10.8z"/>
									</g>
								</g>
							</g>
						</g>
					</g>
					<g id="&lt;Group&gt;">
						<g id="&lt;Group&gt;">
							<path id="&lt;Path&gt;" class="s11" d="m392.3 118.1c-4.5 8.4-26.9 26.6-35.8 31.6-9 5-46.2 8.1-46.2 8.1l-1.3-14.8c0 0 28.3-12.2 34.5-13.8 6.2-1.6 20-25.5 29.1-33.5 8-7.8 28.1 6.3 19.7 22.4z"/>
						</g>
						<g id="&lt;Group&gt;">
							<path id="&lt;Path&gt;" class="s11" d="m393.3 117.1c-4.5 8.4-26.9 26.6-35.8 31.6-9 5-46.2 8.1-46.2 8.1l-1.3-14.8c0 0 28.3-12.2 34.5-13.8 6.2-1.6 20-25.5 29.1-33.5 8-7.8 28.1 6.3 19.7 22.4z"/>
						</g>
					</g>
				</g>
			</g>
		</g>
	</g>
</svg>