<svg version="1.2" xmlns="http://www.w3.org/2000/svg" viewBox="0 0 1500 1000" width="1500" height="1000">
	<title>28541332_7454883-ai</title>
	<defs>
		<clipPath clipPathUnits="userSpaceOnUse" id="cp1">
			<path d="m436.37 450.61c-38.78 0-70.12-31.34-70.12-70.12 0-38.77 31.34-70.12 70.12-70.12 38.78 0 70.12 31.35 70.12 70.12 0 38.78-31.34 70.12-70.12 70.12z"/>
		</clipPath>
		<linearGradient id="g1" x1="423.4" y1="333.3" x2="433.9" y2="357.3" gradientUnits="userSpaceOnUse">
			<stop offset="0" stop-color="#e48c82"/>
			<stop offset="1" stop-color="#e89f90"/>
		</linearGradient>
		<clipPath clipPathUnits="userSpaceOnUse" id="cp2">
			<path d="m595.2 626.88c-29.17 0-52.75-23.58-52.75-52.75 0-29.17 23.58-52.75 52.75-52.75 29.17 0 52.75 23.58 52.75 52.75 0 29.17-23.58 52.75-52.75 52.75z"/>
		</clipPath>
		<linearGradient id="g2" x1="1281.3" y1="471.6" x2="1281.3" y2="471.6" gradientUnits="userSpaceOnUse">
			<stop offset="0" stop-color="#e48c82"/>
			<stop offset="1" stop-color="#e48c82"/>
		</linearGradient>
		<linearGradient id="g3" x1="221.5" y1="435.7" x2="221.5" y2="435.7" gradientUnits="userSpaceOnUse">
			<stop offset="0" stop-color="#e48c82"/>
			<stop offset="1" stop-color="#e48c82"/>
		</linearGradient>
	</defs>
	<style>
		.s0 { fill: #fa9347 } 
		.s1 { fill: #fa4747 } 
		.s2 { fill: #ad95a7 } 
		.s3 { fill: #fa9952 } 
		.s4 { fill: #ffffff } 
		.s5 { fill: #5769b3 } 
		.s6 { fill: #df665c } 
		.s7 { fill: #efc266 } 
		.s8 { fill: #dae382 } 
		.s9 { fill: #fcfcfc } 
		.s10 { fill: #f0f0f0 } 
		.s11 { fill: #dd5050 } 
		.s12 { fill: #242638 } 
		.s13 { fill: #a8daf5 } 
		.s14 { fill: #3b3348 } 
		.s15 { fill: #ccb8c6 } 
		.s16 { fill: #ffc79e } 
		.s17 { fill: #f2cf8e } 
		.s18 { fill: #d3db8a } 
		.s19 { fill: #e48c82 } 
		.s20 { fill: #ebf2f7 } 
		.s21 { fill: #664862 } 
		.s22 { fill: #e89f90 } 
		.s23 { fill: #e7e1e5 } 
		.s24 { fill: #4e2433 } 
		.s25 { fill: #7c3546 } 
		.s26 { fill: #bf635f } 
		.s27 { fill: #5a516b } 
		.s28 { fill: #cc6c67 } 
		.s29 { fill: url(#g1) } 
		.s30 { fill: #56322c } 
		.s31 { fill: #21202b } 
		.s32 { fill: #bb5151 } 
		.s33 { fill: #9097ce } 
		.s34 { fill: #ff8383 } 
		.s35 { fill: #fd6b6b } 
		.s36 { fill: #fbfcff } 
		.s37 { fill: url(#g2) } 
		.s38 { fill: #c25353 } 
		.s39 { fill: #e07070 } 
		.s40 { fill: #edb9bc } 
		.s41 { fill: #655e72 } 
		.s42 { fill: #f2f2f2 } 
		.s43 { fill: #333333 } 
		.s44 { fill: url(#g3) } 
		.s45 { fill: #752121 } 
		.s46 { fill: #ee9191 } 
		.s47 { fill: #dd9999 } 
		.s48 { fill: #e2807c } 
		.s49 { fill: #aa3737 } 
		.s50 { fill: #484156 } 
	</style>
	<g id="BACKGROUND">
		<path id="&lt;Path&gt;" class="s0" d="m1500 1000h-1500v-1000h1500z"/>
	</g>
	<g id="Layer 1">
		<g id="&lt;Group&gt;">
			<g id="&lt;Group&gt;">
				<path id="&lt;Path&gt;" class="s1" d="m385.3 773.3c-57.6 29.5-129.3 25.9-188-1.7-88.3-41.6-173.9-143.4-158.7-246.5 14.7-99.9 111-165.4 204.4-184.1 65.5-13 137.3-0.6 190.6 39.7 124.7 94.3 87.5 317.6-43.4 390q-2.4 1.3-4.9 2.6z"/>
			</g>
			<g id="&lt;Group&gt;">
				<g id="&lt;Group&gt;">
					<g id="&lt;Group&gt;">
						<path id="&lt;Path&gt;" class="s1" d="m895.4 291q1.7-13.3 4.8-26.1l312.2-175.7c8.5 2.7 16.7 5.9 24.8 9.5z"/>
					</g>
				</g>
				<g id="&lt;Group&gt;">
					<g id="&lt;Group&gt;">
						<path id="&lt;Path&gt;" class="s1" d="m910.1 411.6q-4.2-10.7-7.4-21.8l415-233.6q7.8 8.5 14.8 17.7z"/>
					</g>
				</g>
				<g id="&lt;Group&gt;">
					<g id="&lt;Group&gt;">
						<path id="&lt;Path&gt;" class="s1" d="m926.9 444.7q-5.4-9.3-9.9-19.1l425.4-239.4q5.9 9 11.1 18.4z"/>
					</g>
				</g>
				<g id="&lt;Group&gt;">
					<g id="&lt;Group&gt;">
						<path id="&lt;Path&gt;" class="s1" d="m1321.1 485l-139.1 78.3c-14.3 2.6-28.9 4-43.9 4q-0.4 0-0.8 0l210.5-118.5c-7.8 12.9-16.8 25-26.7 36.2z"/>
					</g>
				</g>
				<g id="&lt;Group&gt;">
					<g id="&lt;Group&gt;">
						<path id="&lt;Path&gt;" class="s1" d="m1275.9 120.2l-382.3 215.2q-0.3-6.4-0.3-12.9 0-6.6 0.3-13.2l360.1-202.6q11.5 6.2 22.2 13.5z"/>
					</g>
				</g>
				<g id="&lt;Group&gt;">
					<g id="&lt;Group&gt;">
						<path id="&lt;Path&gt;" class="s1" d="m920.7 210l234-131.7c12.5 0.9 24.8 2.7 36.8 5.3l-285.4 160.6c4-11.8 8.9-23.2 14.6-34.2z"/>
					</g>
				</g>
				<g id="&lt;Group&gt;">
					<g id="&lt;Group&gt;">
						<path id="&lt;Path&gt;" class="s1" d="m898.9 374.6q-2.4-11.2-3.8-22.7l394.1-221.9q9.1 7.2 17.5 15.1z"/>
					</g>
				</g>
				<g id="&lt;Group&gt;">
					<g id="&lt;Group&gt;">
						<path id="&lt;Path&gt;" class="s1" d="m1378 371.1l-322.9 181.7c-10.6-3.8-20.7-8.3-30.6-13.5l357.8-201.3c-0.7 11.2-2.1 22.3-4.3 33.1z"/>
					</g>
				</g>
				<g id="&lt;Group&gt;">
					<g id="&lt;Group&gt;">
						<path id="&lt;Path&gt;" class="s1" d="m1109.5 565.6c-11.8-1.4-23.3-3.6-34.6-6.6l298.1-167.7c-3.3 11.3-7.4 22.3-12.3 32.9z"/>
					</g>
				</g>
				<g id="&lt;Group&gt;">
					<g id="&lt;Group&gt;">
						<path id="&lt;Path&gt;" class="s1" d="m1124.3 78.1c-78 4.4-146.3 45.2-188 105.8z"/>
					</g>
				</g>
				<g id="&lt;Group&gt;">
					<g id="&lt;Group&gt;">
						<path id="&lt;Path&gt;" class="s1" d="m1379 279.2l-402.9 226.7c-6.6-5.7-12.8-11.8-18.6-18.2l415.5-233.9q3.6 12.5 6 25.4z"/>
					</g>
				</g>
				<g id="&lt;Group&gt;">
					<g id="&lt;Group&gt;">
						<path id="&lt;Path&gt;" class="s1" d="m946.5 476q-7.1-8.9-13.5-18.4l425.6-239.5q4.8 10.3 8.8 21.1z"/>
					</g>
				</g>
				<g id="&lt;Group&gt;">
					<g id="&lt;Group&gt;">
						<path id="&lt;Path&gt;" class="s1" d="m1009.2 530.6q-10.7-6.7-20.7-14.4l392.8-221q1.4 12.4 1.5 25.2z"/>
					</g>
				</g>
			</g>
			<g id="&lt;Group&gt;">
				<path id="&lt;Path&gt;" class="s2" d="m296 232.2c0-16.5 13.3-29.9 29.8-29.9h867.6c16.5 0 29.9 13.4 29.9 29.9v571.8c0 16.5-13.4 29.9-29.9 29.9h-867.6c-16.5 0-29.8-13.4-29.8-29.9z"/>
			</g>
			<g id="&lt;Group&gt;">
				<path id="&lt;Path&gt;" class="s3" d="m309.3 213h896.7v592.9h-896.7z"/>
				<path id="d" class="s4" aria-label="d"  d="m755.9 276.6l-0.2-16.4q-0.7 1.5-1.7 3.4-1 2-2.3 3.7-1.3 1.7-3 3-1.8 1.2-3.9 1.2-1 0-1.6-0.2-0.5-0.3-0.9-0.7-0.4-0.5-0.8-1.1-0.3-0.7-0.8-1.4-0.2-3.2-0.3-6.8 0-3.7 0.4-7.3 0.4-3.7 1.3-6.9 1-3.2 2.6-5.5 1.8-2.2 4.3-3.2 2.6-0.9 6.3-0.1 0.2-1.8 0.1-4.8-0.2-3.1-0.4-6.4-0.3-3.4-0.5-6.5-0.3-3.1-0.4-5.1 0-0.6 0.6-0.9 0.5-0.3 1.2-0.4 0.6 0 1.2 0 0.7 0.1 0.8 0.2-0.1 8 0 15.6 0 7.6 0.1 15.3 0.1 7.5 0.3 15 0.1 7.4 0.1 14.9 0 0.7-0.1 1.6-0.1 0.7-1.1 0.7-0.4 0-0.8-0.2-0.4-0.2-0.5-0.7zm-3-35.1q-2-0.1-3.7 1.6-1.7 1.7-3 4.4-1.2 2.7-2 6-0.8 3.2-1 6.3-0.1 2.9 0.4 5.2 0.6 2.4 2 3.2 1.5 0 2.7-1.1 1.2-1.2 2.2-2.9 1.1-1.7 1.8-3.9 0.8-2.2 1.3-4.2 0.6-2 0.9-3.6 0.3-1.6 0.3-2.5 0-0.6 0.1-2 0-1.5-0.1-2.9-0.1-1.4-0.6-2.5-0.4-1.1-1.3-1.1z"/>
			</g>
			<g id="&lt;Group&gt;">
				<path id="&lt;Path&gt;" class="s5" d="m309.3 212.8h896.7v30.1h-896.7z"/>
			</g>
			<g id="&lt;Group&gt;">
				<path id="&lt;Path&gt;" class="s6" d="m330.2 234.6c-4 0-7.2-3.2-7.2-7.2 0-4 3.2-7.2 7.2-7.2 4 0 7.2 3.2 7.2 7.2 0 4-3.2 7.2-7.2 7.2z"/>
			</g>
			<g id="&lt;Group&gt;">
				<path id="&lt;Path&gt;" class="s7" d="m356.1 234.6c-4 0-7.2-3.2-7.2-7.2 0-4 3.2-7.2 7.2-7.2 3.9 0 7.2 3.2 7.2 7.2 0 4-3.3 7.2-7.2 7.2z"/>
			</g>
			<g id="&lt;Group&gt;">
				<path id="&lt;Path&gt;" class="s8" d="m382.7 234.6c-4 0-7.2-3.2-7.2-7.2 0-4 3.2-7.2 7.2-7.2 4 0 7.2 3.2 7.2 7.2 0 4-3.2 7.2-7.2 7.2z"/>
			</g>
			<g id="&lt;Group&gt;">
				<g id="&lt;Group&gt;">
					<path id="&lt;Compound Path&gt;" fill-rule="evenodd" class="s4" d="m210.9 316.6c-20.9 0-37.8-16.9-37.8-37.7 0-20.9 16.9-37.8 37.8-37.8 20.8 0 37.7 16.9 37.7 37.8 0 20.8-16.9 37.7-37.7 37.7zm36.2-37.7c0-20.1-16.2-36.3-36.2-36.3-20.1 0-36.3 16.2-36.3 36.3 0 20 16.2 36.2 36.3 36.2 20 0 36.2-16.2 36.2-36.2z"/>
				</g>
				<g id="&lt;Group&gt;">
					<path id="&lt;Compound Path&gt;" fill-rule="evenodd" class="s4" d="m210.9 316.6c-13.4 0-24.3-16.9-24.3-37.7 0-20.9 10.9-37.8 24.3-37.8 13.4 0 24.2 16.9 24.2 37.8 0 20.8-10.8 37.7-24.2 37.7zm22.7-37.7c0-20.1-10.2-36.3-22.7-36.3-12.6 0-22.8 16.2-22.8 36.3 0 20 10.2 36.2 22.8 36.2 12.5 0 22.7-16.2 22.7-36.2z"/>
				</g>
				<g id="&lt;Group&gt;">
					<path id="&lt;Compound Path&gt;" fill-rule="evenodd" class="s4" d="m210.9 316.7c-6.9 0-11.1-19.3-11.1-37.8 0-18.6 4.2-37.8 11.1-37.8 6.9 0 11 19.2 11 37.8 0 18.5-4.1 37.8-11 37.8zm0-74c-4.5 0-9.5 14.8-9.5 36.2 0 21.3 5 36.2 9.5 36.2 4.4 0 9.4-14.9 9.4-36.2 0-21.4-5-36.2-9.4-36.2z"/>
				</g>
				<g id="&lt;Group&gt;">
					<path id="&lt;Path&gt;" class="s9" d="m210.1 241.9h1.5v74h-1.5z"/>
				</g>
				<g id="&lt;Group&gt;">
					<path id="&lt;Path&gt;" class="s4" d="m173.7 277.1h74.2v1.6h-74.2z"/>
				</g>
				<g id="&lt;Group&gt;">
					<path id="&lt;Path&gt;" class="s4" d="m211.9 252.2c-11.6 0-20.4-3.9-20.5-4l0.6-1.4c0.2 0.1 19.3 8.6 38.4 0l0.6 1.4c-6.6 3-13.2 4-19.1 4z"/>
				</g>
				<g id="&lt;Group&gt;">
					<path id="&lt;Path&gt;" class="s4" d="m211.9 269.7c-19.8 0-34.5-5.5-34.7-5.6l0.6-1.5c0.3 0.1 32.8 12.3 66.1 0l0.6 1.5c-11.4 4.2-22.6 5.6-32.6 5.6z"/>
				</g>
				<g id="&lt;Group&gt;">
					<path id="&lt;Path&gt;" class="s4" d="m191.6 310.7l-0.7-1.4c0.2-0.1 20.4-9.3 40.1-0.4l-0.6 1.5c-19.1-8.6-38.6 0.2-38.8 0.3z"/>
				</g>
				<g id="&lt;Group&gt;">
					<path id="&lt;Path&gt;" class="s10" d="m243.9 294.5c-33.3-12.2-65.8-0.1-66.1 0l-0.6-1.4c0.3-0.2 33.4-12.5 67.3-0.1z"/>
				</g>
			</g>
			<g id="&lt;Group&gt;">
				<g id="&lt;Group&gt;">
					<path id="&lt;Path&gt;" class="s11" d="m1392.5 850.9h-102c0 0-22.7-171.1-22.7-173.2 0-4.2 33-7.5 73.7-7.5 40.7 0 73.7 3.3 73.7 7.5 0 2.1-22.7 173.2-22.7 173.2z"/>
				</g>
				<g id="&lt;Group&gt;">
					<path id="&lt;Path&gt;" class="s12" d="m1341.1 685.4c-38.9 0-70.3-2.2-70.3-4.9 0-2.7 31.4-4.9 70.3-4.9 38.9 0 70.3 2.2 70.3 4.9 0 2.7-31.4 4.9-70.3 4.9z"/>
				</g>
				<g id="&lt;Group&gt;">
					<path id="&lt;Path&gt;" class="s11" d="m1395.5 824.7l-15.3-15.5c66.2-65.5 61.3-85.8 59.6-89.2-3.7-7.5-22.3-8.3-31.5-7.1l-2.8-21.5c4.2-0.6 42.1-4.9 53.8 19 11.5 23.5-8.7 59.8-63.8 114.3z"/>
				</g>
			</g>
			<g id="&lt;Group&gt;">
				<g id="&lt;Group&gt;">
					<path id="&lt;Compound Path&gt;" fill-rule="evenodd" class="s4" d="m1096.7 182.3c0 0-0.1 0-0.1 0l-6.2-1.5c-0.4-0.1-0.6-0.4-0.6-0.8l0.1-7.1q-2.7-1.6-4.7-4l-5.8 2c-0.4 0.2-0.8 0-1-0.3l-3.2-5.7c-0.1-0.3-0.1-0.7 0.2-0.9l4.7-4.6q-0.9-3.3-0.7-6.7l-5.1-2.4c-0.4-0.2-0.5-0.6-0.4-0.9l1.4-6.4c0.1-0.4 0.3-0.7 0.8-0.6l6.2 0.1q1.6-3 4-5.2l-1.6-5.8c-0.1-0.3 0-0.7 0.4-0.9l5.5-3.1c0.3-0.2 0.8-0.1 1 0.2l3.8 4.6c2.1-0.5 4.2-0.8 6.3-0.6l3.1-5.7c0.2-0.3 0.6-0.4 0.9-0.3l6.1 1.9c0.3 0.1 0.5 0.5 0.5 0.8l-0.6 6.4q2.8 1.8 5 4.2l6-1.9c0.3-0.1 0.7 0.1 0.9 0.4l3.1 5.7c0.2 0.3 0.1 0.7-0.2 1l-4.9 4.5q0.8 3 0.7 6l5.5 3.1c0.3 0.2 0.5 0.6 0.4 0.9l-1.8 6.3c-0.1 0.4-0.4 0.7-0.8 0.6l-6.1-0.5q-1.6 2.9-3.9 5.1l1.9 5.9c0.1 0.4 0 0.7-0.3 0.9l-5.4 3.4c-0.4 0.2-0.8 0.1-1-0.2l-4.4-4.8c-2.1 0.6-4.2 0.8-6.4 0.7l-2.5 5.7c-0.2 0.3-0.4 0.5-0.8 0.5zm-5.3-2.9l4.9 1.2 2.5-5.7c0.2-0.3 0.5-0.5 0.8-0.4 2.3 0.1 4.6-0.1 6.8-0.7 0.3-0.1 0.6 0 0.8 0.2l4.3 4.7 4.3-2.7-1.9-5.8c-0.1-0.3 0-0.6 0.2-0.8 1.8-1.6 3.1-3.4 4.2-5.5 0.2-0.3 0.4-0.5 0.8-0.4l5.9 0.5 1.5-5.1-5.4-3.1c-0.3-0.1-0.4-0.4-0.4-0.7q0.1-3.3-0.7-6.5c-0.1-0.3 0-0.6 0.2-0.8l4.8-4.4-2.5-4.6-5.9 1.9c-0.3 0.1-0.6 0-0.8-0.2l-0.3-0.4c-1.4-1.7-3.1-3.1-5-4.2-0.3-0.1-0.4-0.4-0.4-0.7l0.6-6.3-4.8-1.5-3.1 5.5c-0.1 0.2-0.4 0.4-0.7 0.4-2.3-0.2-4.6 0-6.7 0.6-0.3 0.1-0.7 0-0.9-0.2l-3.7-4.5-4.4 2.5 1.6 5.7c0 0.2 0 0.6-0.3 0.8l-0.3 0.3q-2.4 2.2-4 5.1c-0.1 0.3-0.4 0.5-0.7 0.5l-6-0.1-1.2 5.1 5 2.4c0.3 0.2 0.5 0.5 0.5 0.8-0.2 2.4 0.1 4.8 0.7 7.2 0.1 0.3 0 0.6-0.2 0.8l-4.6 4.4 2.6 4.5 5.7-1.9c0.3-0.1 0.6 0 0.8 0.2l-0.5 0.7 0.6-0.5q2.2 2.4 5 4.1c0.2 0.1 0.3 0.4 0.3 0.7zm9.8-10c-4.3 0-8.4-1.9-11.4-5.2-5.6-6.5-5.2-16.4 0.9-22.1 2.7-2.6 6.3-4 10-4 4.3 0 8.5 1.9 11.4 5.3 5.6 6.4 5.2 16.3-0.9 22.1-2.7 2.5-6.3 3.9-10 3.9zm-0.5-29.7c-3.3 0-6.5 1.3-8.9 3.5-5.5 5.2-5.9 14.1-0.8 19.9 2.6 3 6.4 4.7 10.2 4.7 3.3 0 6.5-1.2 8.9-3.5 5.5-5.2 5.9-14.1 0.8-19.9-2.6-3-6.3-4.7-10.2-4.7z"/>
				</g>
			</g>
			<g id="&lt;Group&gt;">
				<g id="&lt;Group&gt;">
					<path id="&lt;Compound Path&gt;" fill-rule="evenodd" class="s4" d="m923.7 185.9c0 0.2-0.2 0.3-0.3 0.5 0 0.2 0 0.4-0.2 0.6q0 0 0 0c-0.3 0.3-0.7 0.6-1.2 0.6h-89.6c-0.5 0-0.9-0.3-1.2-0.6q-0.1 0-0.1 0c-0.1-0.2-0.1-0.4-0.2-0.6-0.1-0.2-0.2-0.3-0.2-0.5v-57.2c0-0.9 0.8-1.7 1.7-1.7h89.6 0.1c0.2 0 0.4 0.2 0.6 0.3 0.2 0.1 0.4 0.1 0.5 0.3 0 0 0.1 0 0.1 0 0.1 0.2 0.1 0.4 0.2 0.6 0 0.2 0.2 0.3 0.2 0.5zm-89.6-3.9l28.3-25.6-28.3-22.7zm82.9-51.7h-81.5l40.4 32.4zm-80.2 53.8h80.6l-29.7-26.4-10.8 8.5c-0.3 0.3-0.7 0.4-1 0.4-0.4 0-0.8-0.1-1.1-0.4l-9.7-7.8v0.1zm83.4-2.1v-49.9l-29.8 23.5z"/>
				</g>
				<g id="&lt;Group&gt;">
					<path id="&lt;Path&gt;" class="s1" d="m921 147.2c-9.3 0-16.8-7.5-16.8-16.8 0-9.3 7.5-16.8 16.8-16.8 9.3 0 16.8 7.5 16.8 16.8 0 9.3-7.5 16.8-16.8 16.8z"/>
				</g>
			</g>
			<g id="&lt;Group&gt;">
				<g id="&lt;Group&gt;">
					<path id="&lt;Compound Path&gt;" fill-rule="evenodd" class="s4" d="m509.5 111c0-2.3 1.8-4.1 4-4.1h53.2c2.2 0 4 1.8 4 4.1v53.1c0 2.3-1.8 4.1-4 4.1h-53.2c-2.2 0-4-1.8-4-4.1zm4 53.2h53.2v-53.2h-53.2z"/>
				</g>
				<g id="&lt;Group&gt;">
					<path id="&lt;Path&gt;" class="s4" d="m535.9 159.1c-0.5 0-1-0.2-1.4-0.6l-15.7-16.6c-0.7-0.8-0.7-2.1 0.1-2.9 0.8-0.7 2.1-0.7 2.8 0.1l14.1 14.9 25.5-33.8c0.6-0.9 1.9-1 2.8-0.4 0.8 0.7 1 1.9 0.3 2.8l-26.9 35.7c-0.3 0.5-0.9 0.8-1.4 0.8 0 0-0.1 0-0.2 0z"/>
				</g>
			</g>
			<g id="&lt;Group&gt;">
				<g id="&lt;Group&gt;">
					<path id="&lt;Compound Path&gt;" fill-rule="evenodd" class="s4" d="m1360.7 590.9c0-1.2 1-2.3 2.3-2.3h30.4c1.2 0 2.3 1.1 2.3 2.3v30.4c0 1.3-1.1 2.3-2.3 2.3h-30.4c-1.3 0-2.3-1-2.3-2.3zm2.3 30.4h30.4v-30.5h-30.4z"/>
				</g>
				<g id="&lt;Group&gt;">
					<path id="&lt;Path&gt;" class="s4" d="m1375.8 616.3c-0.3 0-0.6-0.1-0.8-0.3l-9-9.5c-0.4-0.5-0.4-1.2 0.1-1.6 0.5-0.5 1.2-0.4 1.6 0l8 8.5 14.6-19.3c0.4-0.5 1.1-0.6 1.6-0.2 0.5 0.4 0.6 1.1 0.2 1.6l-15.4 20.4c-0.2 0.2-0.5 0.4-0.8 0.4 0 0-0.1 0-0.1 0z"/>
				</g>
			</g>
			<g id="&lt;Group&gt;">
				<g id="&lt;Group&gt;">
					<path id="&lt;Path&gt;" class="s4" d="m723.7 183.9c-5.9 0-10.7-4.8-10.7-10.7 0-5.9 4.8-10.7 10.7-10.7 5.9 0 10.7 4.8 10.7 10.7 0 5.9-4.8 10.7-10.7 10.7z"/>
				</g>
				<g id="&lt;Group&gt;">
					<path id="&lt;Path&gt;" class="s4" d="m750.7 157.5q-1 0-2-0.5c-26.2-13.4-48.4-0.3-48.6-0.2-2.1 1.3-4.9 0.6-6.2-1.5-1.3-2.1-0.6-4.9 1.5-6.2 1.1-0.7 26.8-15.8 57.4-0.2 2.2 1.2 3 3.9 1.9 6.1-0.8 1.6-2.4 2.5-4 2.5z"/>
				</g>
				<g id="&lt;Group&gt;">
					<path id="&lt;Path&gt;" class="s4" d="m763.6 139.9q-1 0-2-0.5c-39.9-20.3-73.1-1-74.4-0.1-2.2 1.2-4.9 0.6-6.2-1.6-1.3-2.1-0.6-4.9 1.5-6.2 1.6-0.9 38.7-22.8 83.2-0.1 2.2 1.1 3.1 3.8 2 6-0.8 1.6-2.4 2.5-4.1 2.5z"/>
				</g>
				<g id="&lt;Group&gt;">
					<path id="&lt;Path&gt;" class="s4" d="m776.6 120.1q-1 0-2-0.5c-54-27.5-99.9-0.4-100.4-0.1-2.1 1.2-4.9 0.6-6.2-1.6-1.3-2.1-0.6-4.9 1.6-6.2 2-1.2 50.7-29.9 109-0.1 2.3 1.1 3.1 3.8 2 6-0.8 1.6-2.4 2.5-4 2.5z"/>
				</g>
			</g>
			<g id="&lt;Group&gt;">
				<path id="&lt;Compound Path&gt;" fill-rule="evenodd" class="s4" d="m255.7 407.2q-0.2 0-0.4-0.1l-9.9-5.2-9.9 5.2c-0.2 0.1-0.5 0.1-0.7-0.1-0.2-0.1-0.3-0.4-0.3-0.6l1.9-11.1-8-7.8c-0.2-0.2-0.2-0.4-0.2-0.7 0.1-0.2 0.3-0.4 0.6-0.4l11.1-1.6 4.9-10.1c0.2-0.5 1-0.5 1.2 0l5 10.1 11.1 1.6c0.2 0 0.4 0.2 0.5 0.4 0.1 0.3 0 0.5-0.2 0.7l-8 7.8 1.9 11.1c0.1 0.2 0 0.5-0.3 0.6q-0.1 0.2-0.3 0.2zm-10.3-6.8q0.2 0 0.3 0.1l9.1 4.8-1.8-10.1c0-0.2 0.1-0.4 0.2-0.6l7.3-7.1-10.1-1.5c-0.2 0-0.4-0.1-0.5-0.3l-4.5-9.2-4.5 9.2c-0.1 0.2-0.3 0.3-0.5 0.3l-10.1 1.5 7.3 7.1c0.2 0.2 0.2 0.4 0.2 0.6l-1.7 10.1 9-4.8q0.2-0.1 0.3-0.1z"/>
			</g>
			<g id="&lt;Group&gt;">
				<g id="&lt;Group&gt;">
					<g id="&lt;Group&gt;">
						<path id="&lt;Path&gt;" class="s13" d="m1266.9 348.3c0-0.6 0.5-1.1 1-1.1h189.6c0.6 0 1.1 0.5 1.1 1.1v80.4c0 0.6-0.5 1-1.1 1h-189.6c-0.5 0-1-0.4-1-1z"/>
					</g>
					<g id="&lt;Group&gt;">
						<path id="&lt;Path&gt;" class="s13" d="m1432.1 427.3l21.5 40-52.9-37.6z"/>
					</g>
				</g>
				<g id="&lt;Group&gt;">
					<path id="&lt;Path&gt;" class="s14" d="m1364.2 371.4h-81.7c-2 0-3.6-1.6-3.6-3.6 0-2 1.6-3.6 3.6-3.6h81.7c2 0 3.6 1.6 3.6 3.6 0 2-1.6 3.6-3.6 3.6z"/>
				</g>
				<g id="&lt;Group&gt;">
					<path id="&lt;Path&gt;" class="s14" d="m1322.7 396h-40.2c-2 0-3.6-1.6-3.6-3.6 0-2 1.6-3.6 3.6-3.6h40.2c2 0 3.6 1.6 3.6 3.6 0 2-1.6 3.6-3.6 3.6z"/>
				</g>
				<g id="&lt;Group&gt;">
					<path id="&lt;Path&gt;" class="s14" d="m1433.3 394.8h-84.1c-2 0-3.6-1.6-3.6-3.6 0-2 1.6-3.6 3.6-3.6h84.1c2 0 3.6 1.6 3.6 3.6 0 2-1.6 3.6-3.6 3.6z"/>
				</g>
			</g>
			<g id="&lt;Group&gt;">
				<g id="&lt;Group&gt;">
					<g id="&lt;Group&gt;">
						<g id="&lt;Group&gt;">
							<path id="&lt;Path&gt;" class="s8" d="m1257.4 248.5c0-13 10.6-23.6 23.6-23.6h105.5c13 0 23.5 10.6 23.5 23.6v18.6c0 13-10.5 23.5-23.5 23.5h-105.5c-13 0-23.6-10.5-23.6-23.5z"/>
						</g>
					</g>
					<g id="&lt;Group&gt;">
						<g id="&lt;Group&gt;">
							<path id="&lt;Path&gt;" class="s8" d="m1303.5 290.6l-42.2 29.9 17.2-31.9z"/>
						</g>
					</g>
				</g>
				<g id="&lt;Group&gt;">
					<path id="&lt;Path&gt;" class="s14" d="m1326 241.3h-54.5c-1.6 0-2.9-1.3-2.9-2.9 0-1.6 1.3-2.8 2.9-2.8h54.5c1.6 0 2.9 1.2 2.9 2.8 0 1.6-1.3 2.9-2.9 2.9z"/>
				</g>
				<g id="&lt;Group&gt;">
					<path id="&lt;Path&gt;" class="s14" d="m1343.3 260.2h-72.5c-1.6 0-2.9-1.3-2.9-2.9 0-1.6 1.3-2.9 2.9-2.9h72.5c1.5 0 2.8 1.3 2.8 2.9 0 1.6-1.3 2.9-2.8 2.9z"/>
				</g>
				<g id="&lt;Group&gt;">
					<path id="&lt;Path&gt;" class="s14" d="m1384.9 260.7h-24.2c-1.6 0-2.9-1.3-2.9-2.9 0-1.6 1.3-2.9 2.9-2.9h24.2c1.6 0 2.8 1.3 2.8 2.9 0 1.6-1.2 2.9-2.8 2.9z"/>
				</g>
				<g id="&lt;Group&gt;">
					<path id="&lt;Path&gt;" class="s14" d="m1307.9 276.9h-35.2c-1.6 0-2.9-1.3-2.9-2.8 0-1.6 1.3-2.9 2.9-2.9h35.2c1.5 0 2.8 1.3 2.8 2.9 0 1.5-1.3 2.8-2.8 2.8z"/>
				</g>
			</g>
			<g id="&lt;Group&gt;">
				<path id="&lt;Path&gt;" class="s14" d="m1448.7 874.2h-1377.7c-4.6 0-8.3-5-8.3-11.1 0-6.2 3.7-11.2 8.3-11.2h1377.7c4.5 0 8.3 5 8.3 11.2 0 6.1-3.8 11.1-8.3 11.1z"/>
			</g>
			<g id="&lt;Group&gt;">
				<g id="&lt;Group&gt;">
					<path id="&lt;Path&gt;" class="s15" d="m1164.7 795.9h56.6v16h-56.6z"/>
				</g>
				<g id="&lt;Group&gt;">
					<path id="&lt;Path&gt;" class="s15" d="m992.8 795.9h56.6v16h-56.6z"/>
				</g>
				<g id="&lt;Group&gt;">
					<path id="&lt;Path&gt;" class="s15" d="m923.5 795.9h56.6v16h-56.6z"/>
				</g>
				<g id="&lt;Group&gt;">
					<path id="&lt;Path&gt;" class="s15" d="m854.2 795.9h56.7v16h-56.7z"/>
				</g>
				<g id="&lt;Group&gt;">
					<path id="&lt;Path&gt;" class="s15" d="m469.5 795.9h56.6v16h-56.6z"/>
				</g>
				<g id="&lt;Group&gt;">
					<path id="&lt;Path&gt;" class="s15" d="m397.1 795.9h56.6v16h-56.6z"/>
				</g>
				<g id="&lt;Group&gt;">
					<path id="&lt;Path&gt;" class="s15" d="m325.1 795.9h56.6v16h-56.6z"/>
				</g>
				<g id="&lt;Group&gt;">
					<path id="&lt;Path&gt;" class="s15" d="m544.1 794.9h297.8v17h-297.8z"/>
				</g>
				<g id="&lt;Group&gt;">
					<path id="&lt;Path&gt;" class="s15" d="m1064.1 795.9h81.9v16h-81.9z"/>
				</g>
				<g id="&lt;Group&gt;">
					<path id="&lt;Path&gt;" class="s15" d="m1261.9 851.2c0 0.7-0.6 1.3-1.3 1.3h-1002.1c-0.6 0-1.2-0.5-1.2-1.2v-46.7h1004.6z"/>
				</g>
			</g>
			<g id="&lt;Group&gt;">
				<g id="&lt;Group&gt;">
					<g id="&lt;Group&gt;">
						<path id="&lt;Path&gt;" class="s16" d="m343.1 267.8h339.7v511h-339.7z"/>
					</g>
				</g>
				<g id="&lt;Group&gt;">
					<path id="&lt;Path&gt;" class="s4" d="m358.2 497.7c0-0.7 0.6-1.3 1.3-1.3h306.1c0.7 0 1.3 0.6 1.3 1.3v150.6c0 0.7-0.6 1.3-1.3 1.3h-306.1c-0.7 0-1.3-0.6-1.3-1.3z"/>
				</g>
				<g id="&lt;Group&gt;">
					<g id="&lt;Group&gt;">
						<path id="&lt;Path&gt;" class="s5" d="m343.1 266.9h339.7v17.9h-339.7z"/>
					</g>
				</g>
				<g id="&lt;Group&gt;">
					<path id="&lt;Path&gt;" class="s6" d="m356.4 281.8c-2.5 0-4.6-2.1-4.6-4.6 0-2.6 2.1-4.6 4.6-4.6 2.6 0 4.6 2 4.6 4.6 0 2.5-2 4.6-4.6 4.6z"/>
				</g>
				<g id="&lt;Group&gt;">
					<path id="&lt;Path&gt;" class="s17" d="m371.2 281.8c-2.6 0-4.6-2.1-4.6-4.6 0-2.6 2-4.6 4.6-4.6 2.5 0 4.6 2 4.6 4.6 0 2.5-2.1 4.6-4.6 4.6z"/>
				</g>
				<g id="&lt;Group&gt;">
					<path id="&lt;Path&gt;" class="s18" d="m387.9 281.8c-2.5 0-4.6-2.1-4.6-4.6 0-2.6 2.1-4.6 4.6-4.6 2.6 0 4.6 2 4.6 4.6 0 2.5-2 4.6-4.6 4.6z"/>
				</g>
				<g id="&lt;Clip Group&gt;" clip-path="url(#cp1)">
					<g id="&lt;Group&gt;">
					</g>
					<g id="&lt;Group&gt;">
						<path id="&lt;Path&gt;" class="s1" d="m358.8 304.6h162.5v151.8h-162.5z"/>
					</g>
					<g id="&lt;Group&gt;">
						<g id="&lt;Group&gt;">
							<g id="&lt;Group&gt;">
								<g id="&lt;Group&gt;">
									<path id="&lt;Path&gt;" class="s19" d="m573 711.5c0 0 0.5 11.9 0.7 12.1 11.1 13.8 21.2 25.6 21.2 25.6 0 0-20.1 14.5-23.3 14.8-3.3 0.4-14.4-22.6-14.4-22.6l-5.4-28.7z"/>
								</g>
							</g>
							<g id="&lt;Group&gt;">
								<g id="&lt;Group&gt;">
									<path id="&lt;Path&gt;" class="s19" d="m567.2 747.8l2.4 15.2c0 0-6.3-7.2-7.4-6.9-1.2 0.3-3.3 17.4-7 17.9-3.7 0.4 0.2-13-0.2-18.6-1-14.8 1.1-24.8 1.1-24.8z"/>
								</g>
							</g>
							<g id="&lt;Group&gt;">
								<g id="&lt;Group&gt;">
									<path id="&lt;Path&gt;" class="s19" d="m583.6 738.4l11.3 10.8c0 0 17.3 16.2 15.5 17.7-1.9 1.5-21.4-14-21.4-14 0 0 18.4 25 16.3 26.7-2.1 1.6-22.7-21.7-22.7-21.7 0 0 15.2 30 12.5 31.1-2.7 1.1-18.9-26.5-18.9-26.5 0 0 10 27.6 7 28.2-2.9 0.6-16.1-32.8-16.1-32.8z"/>
								</g>
							</g>
						</g>
						<g id="&lt;Group&gt;">
							<g id="&lt;Group&gt;">
								<path id="&lt;Path&gt;" class="s20" d="m575.3 709.1l2.3 14.2-27.9 5.5-1.8-11z"/>
							</g>
						</g>
						<g id="&lt;Group&gt;">
							<g id="&lt;Group&gt;">
								<path id="&lt;Path&gt;" class="s19" d="m271.1 528c0 0-4.4-16.5-6-17.5-19.7-11.8-27.1-30.3-27.1-30.3 0 0 19.7-12.7 22.8-13.6 3.2-0.9 18.4 19.8 18.4 19.8l10.8 30.5z"/>
							</g>
						</g>
						<g id="&lt;Group&gt;">
							<g id="&lt;Group&gt;">
								<path id="&lt;Path&gt;" class="s19" d="m264 478.9l-16.1-20q0 0 0.1 0l5.6-4.5q0 0 0 0l16.1 20q0 0 0 0.1l-5.6 4.5q-0.1 0-0.1-0.1z"/>
							</g>
						</g>
						<g id="&lt;Group&gt;">
							<g id="&lt;Group&gt;">
								<path id="&lt;Path&gt;" class="s19" d="m260.3 485.9l-17.6-21.9q0 0 0.1 0l5.6-4.5q0 0 0 0l17.6 21.8q0 0.1-0.1 0.1l-5.6 4.5q0 0 0 0z"/>
							</g>
						</g>
						<g id="&lt;Group&gt;">
							<g id="&lt;Group&gt;">
								<path id="&lt;Path&gt;" class="s19" d="m256.3 492.5l-19.1-23.8q0 0 0 0l5.6-4.5q0-0.1 0.1 0l19.1 23.8q0 0 0 0.1l-5.6 4.5q0 0-0.1-0.1z"/>
							</g>
						</g>
						<g id="&lt;Group&gt;">
							<g id="&lt;Group&gt;">
								<path id="&lt;Path&gt;" class="s19" d="m247.2 492.2l-13.3-16.6q0-0.1 0-0.1l5.6-4.5q0 0 0 0l13.4 16.7q0 0 0 0l-5.6 4.5q-0.1 0-0.1 0z"/>
							</g>
						</g>
						<g id="&lt;Group&gt;">
							<g id="&lt;Group&gt;">
								<g id="&lt;Group&gt;">
									<g id="&lt;Group&gt;">
										<path id="&lt;Path&gt;" class="s10" d="m186.1 412.6h116.9l17 70.3h-116.9z"/>
									</g>
								</g>
								<g id="&lt;Group&gt;">
									<g id="&lt;Group&gt;">
										<g id="&lt;Group&gt;">
											<path id="&lt;Compound Path&gt;" fill-rule="evenodd" class="s21" d="m201.5 483.3l-17-70.3c-0.1-0.5 0-1 0.3-1.4 0.3-0.4 0.8-0.6 1.3-0.6h116.9c0.7 0 1.4 0.5 1.6 1.3l16.9 70.3c0.2 0.4 0 1-0.3 1.3-0.3 0.4-0.7 0.7-1.2 0.7h-116.9c-0.7 0-1.4-0.5-1.6-1.3zm100.2-69h-113.5l16.2 67h113.5z"/>
										</g>
									</g>
								</g>
							</g>
							<g id="&lt;Group&gt;">
								<g id="&lt;Group&gt;">
									<path id="&lt;Path&gt;" class="s21" d="m303 412.6l17 70.3h-5.5l-17.3-68.7z"/>
								</g>
							</g>
							<g id="&lt;Group&gt;">
								<g id="&lt;Group&gt;">
									<path id="&lt;Path&gt;" class="s21" d="m193.2 412.6l17 70.3h-5.5l-17.2-68.7z"/>
								</g>
							</g>
						</g>
						<g id="&lt;Group&gt;">
							<g id="&lt;Group&gt;">
								<path id="&lt;Path&gt;" class="s20" d="m265.9 516.8l-2.5-5.4 23.1-10.8 2.1 6.4z"/>
							</g>
						</g>
						<g id="&lt;Group&gt;">
							<g id="&lt;Group&gt;">
								<path id="&lt;Path&gt;" class="s14" d="m323 551.4c0 0 7.9-39.1 15.3-67.7 7.3-28.7 16-30.8 16-30.8l24.8 56.4c0 0-26.2 111-53 106.7-26.9-4.3-63.5-100-63.5-100l27.5-12.8z"/>
							</g>
						</g>
						<g id="&lt;Group&gt;">
							<g id="&lt;Group&gt;">
								<path id="&lt;Path&gt;" class="s22" d="m458.1 394.2l-0.9 48.9-37.7 0.1 9.7-55.8z"/>
							</g>
						</g>
						<g id="&lt;Group&gt;">
							<g id="&lt;Group&gt;">
								<path id="&lt;Path&gt;" class="s4" d="m462.6 438.5c13.4 0.8 56.1 16 56.1 16l-25.4 132.3 3 69.7-119.8 0.4-1.1-71.4c-9-61.8-18.1-129.4-18.1-129.4 32.3-15.3 66.4-19.3 66.4-19.3 0 0 25.5 0.9 38.9 1.7z"/>
							</g>
						</g>
						<g id="&lt;Group&gt;">
							<g id="&lt;Group&gt;">
								<path id="&lt;Path&gt;" class="s4" d="m461.5 442.2l-24.6 2.9-24.7-5.9 8.5-8.4 15 6.6 22-5.5 4.9 6.6z"/>
							</g>
						</g>
						<g id="&lt;Group&gt;">
							<g id="&lt;Group&gt;">
								<path id="&lt;Path&gt;" class="s6" d="m442.9 447.1l-7 10.9-7.6-0.7-3.3-11 7.6-5.9z"/>
							</g>
						</g>
						<g id="&lt;Group&gt;">
							<g id="&lt;Group&gt;">
								<g id="&lt;Group&gt;">
									<path id="&lt;Path&gt;" class="s23" d="m393.1 1076c0 0-0.6-22.4-2.5-67.8l27.3-4.7c0 0 2.4 73.6 3.1 77.4 0.7 3.7-10.4 9.9-10.4 9.9l-13.2-4.9z"/>
								</g>
							</g>
							<g id="&lt;Group&gt;">
								<g id="&lt;Group&gt;">
									<path id="&lt;Path&gt;" class="s24" d="m360.4 1097.4c20.1-4.7 32.8-24.3 32.8-24.3 16.1 18.2 27.5 4.6 27.5 4.6 7.4 20.3 4.2 36 4.2 36 0 0-6.1 0.7-17.8 1.4v-4.7c0 0-8.1-0.2-20.1 5.6q-5.6 0.2-11.9 0.4c-32.6 0.8-38.3-2.3-39.3-5.2-1.1-2.8 4.5-9.1 24.6-13.8z"/>
								</g>
							</g>
						</g>
						<g id="&lt;Group&gt;">
							<g id="&lt;Group&gt;">
								<g id="&lt;Group&gt;">
									<path id="&lt;Path&gt;" class="s23" d="m534.2 1076.9c0 0-0.1-16.5-14.2-68.7l32-3.2c0 0 9.4 73.1 10.1 76.8 0.7 3.8-10.4 9.9-10.4 9.9l-13.2-4.9z"/>
								</g>
							</g>
							<g id="&lt;Group&gt;">
								<g id="&lt;Group&gt;">
									<path id="&lt;Path&gt;" class="s24" d="m501.5 1098.3c20.1-4.7 32.8-24.3 32.8-24.3 16.1 18.2 27.5 4.6 27.5 4.6 7.4 20.3 4.2 36 4.2 36 0 0-6.1 0.7-17.8 1.4v-4.6c0 0-8.1-0.3-20.1 5.5q-5.6 0.2-11.9 0.4c-32.6 0.8-38.3-2.3-39.3-5.2-1.1-2.8 4.5-9.1 24.6-13.8z"/>
								</g>
							</g>
						</g>
						<g id="&lt;Group&gt;">
							<g id="&lt;Group&gt;">
								<path id="&lt;Path&gt;" class="s25" d="m511.6 645.9l61.4 422.5-48.5 0.5-79.5-308.1-17.7 307.6h-45.1l-13.3-430.8z"/>
							</g>
						</g>
						<g id="&lt;Group&gt;">
							<g id="&lt;Group&gt;">
								<path id="&lt;Path&gt;" class="s26" d="m458.1 397.1c0 0-4.2 31.8-35.2 28l1.7-12.2z"/>
							</g>
						</g>
						<g id="&lt;Group&gt;">
							<g id="&lt;Group&gt;">
								<path id="&lt;Path&gt;" class="s6" d="m435.2 456.6l16 149.8-21.9 28-13.3-19.6 12.3-157.5z"/>
							</g>
						</g>
						<g id="&lt;Group&gt;">
							<g id="&lt;Group&gt;">
								<path id="&lt;Path&gt;" class="s14" d="m523.5 452l-7.3 178.8 30.5 225.6c-16.5 11-93.1 3.6-93.1 3.6l-21.5-217.2 29.8-205.3c19.2 4.5 61.6 14.5 61.6 14.5z"/>
							</g>
						</g>
						<g id="&lt;Group&gt;">
							<g id="&lt;Group&gt;">
								<path id="&lt;Path&gt;" class="s14" d="m413 438.1l23.9 215.4 8.3 208.9c0 0-60-0.5-82.9-7.8l6.6-253.5-14.6-148.2c0 0 24.3-10.1 58.7-14.8z"/>
							</g>
						</g>
						<g id="&lt;Group&gt;">
							<g id="&lt;Group&gt;">
								<path id="&lt;Path&gt;" class="s27" d="m433.9 630.4l28-192.9c5.5 1.3 13.1 3.1 21 4.9l-23.8 67.8 11.3 6.4z"/>
							</g>
						</g>
						<g id="&lt;Group&gt;">
							<g id="&lt;Group&gt;">
								<path id="&lt;Path&gt;" class="s27" d="m434.1 630.2l-35-114.5 7.9-7.3-14.6-66.5c7.6-1.8 20.6-3.8 20.6-3.8z"/>
							</g>
						</g>
						<g id="&lt;Group&gt;">
							<g id="&lt;Group&gt;">
								<path id="&lt;Path&gt;" class="s28" d="m406.6 380.9c-9.4-1.9-9.1-11.8-6-14.4 3-2.5 7.5 1.9 7.5 1.9 0.9 7.6-1.5 12.5-1.5 12.5z"/>
							</g>
						</g>
						<path id="&lt;Mesh&gt;" class="s29" d="m422.8 333.3c6-3.3 13.1-4.7 19.7-4.6-4.7 8.8-6.8 19.2-9 28.9-8.5-1.3-17-2.9-25.5-4.1 2.4-8.6 6.8-15.8 14.8-20.2zm-14.8 20.2c8.5 1.2 17 2.8 25.5 4.1-4.5 19.3-12.8 39.2-11.5 59.2-8.2-1.8-11.9-9.2-13.8-14.3-4.5-15.1-4.4-34.2-0.2-49zm34.5-24.8c11.4 0.2 21.6 4.7 27.5 14.8 4.9 8.2 4.8 17.4 3.1 25.2-12.5-5.6-26.1-8.8-39.6-11.1 2.2-9.7 4.3-20.1 9-28.9zm-9 28.9c13.5 2.3 27.1 5.5 39.6 11.1-2.4 10.8-9.1 18.2-9.1 18.2-2.4 3.8-4.8 8.6-7.2 12.4-12.5 18.7-25.9 19.4-34.8 17.5-1.3-20 7-39.9 11.5-59.2z"/>
						<g id="&lt;Group&gt;">
							<g id="&lt;Group&gt;">
								<path id="&lt;Path&gt;" class="s30" d="m413.6 346.6c0 0-5.9 13.4-8.2 20.7 0 0 1.4-20.9 5.4-25.9 3.9-5 2.8 5.2 2.8 5.2z"/>
							</g>
						</g>
						<g id="&lt;Group&gt;">
							<g id="&lt;Group&gt;">
								<path id="&lt;Path&gt;" class="s31" d="m441.1 383.1c-1.2-0.3-1.6-2.8-1-5.7 0.7-2.9 2.1-5.1 3.3-4.8 1.1 0.3 1.6 2.8 0.9 5.7-0.6 2.9-2.1 5.1-3.2 4.8z"/>
							</g>
						</g>
						<g id="&lt;Group&gt;">
							<g id="&lt;Group&gt;">
								<path id="&lt;Path&gt;" class="s31" d="m415.8 378.6c-1.2-0.2-1.7-2.8-1.1-5.7 0.6-2.9 2.1-5.1 3.2-4.8 1.2 0.2 1.7 2.8 1.1 5.7-0.6 2.9-2.1 5.1-3.2 4.8z"/>
							</g>
						</g>
						<g id="&lt;Group&gt;">
							<g id="&lt;Group&gt;" style="opacity: .3">
								<g id="&lt;Group&gt;">
									<path id="&lt;Path&gt;" class="s4" d="m420.1 338.4c-0.1-0.2-0.1-0.1 0 0z"/>
								</g>
							</g>
						</g>
						<g id="&lt;Group&gt;">
							<g id="&lt;Group&gt;">
								<path id="&lt;Path&gt;" class="s32" d="m425.9 390.6c-0.1-0.1-0.1-0.3 0-0.4 0.4-0.4 0.5-0.7 0.3-1.3-0.1-0.1-0.3-0.2-0.6-0.3q-0.2 0-0.3-0.1l-0.3-0.1c-0.6-0.3-1.2-0.5-1.7-0.9-0.6-0.5-1.1-1.4-0.8-2.2 0.1-0.4 0.4-0.7 0.6-1l0.1-0.1c2.1-2.5 3.4-5.7 3.7-9 0-0.1 0.1-0.2 0.4-0.2 0 0 0.1 0.1 0.1 0.3-0.2 3.4-1.6 6.7-3.8 9.3-0.3 0.3-0.5 0.5-0.6 0.8-0.1 0.6 0.2 1.3 0.7 1.6 0.4 0.4 0.9 0.6 1.5 0.9l0.3 0.1q0.1 0 0.3 0.1c0.3 0.1 0.8 0.2 0.9 0.7 0.3 0.8 0.2 1.3-0.4 1.8-0.1 0.1-0.3 0.1-0.3 0.1q0-0.1-0.1-0.1z"/>
							</g>
						</g>
						<g id="&lt;Group&gt;">
							<g id="&lt;Group&gt;">
								<path id="&lt;Path&gt;" class="s30" d="m418.3 326.3c8.9-0.3 17.5-4 26.3-3.3 11.6 0.9 21.3 9.1 29.8 17.1 0.9-1.7 1.2-3.8 1-5.7 1.9 2.2 2.8 5.4 2 8.3 1.2 0 2.3-0.2 3.4-0.7-1.1 1.5-2.3 2.8-3.8 3.8 2.2 2.3 2.5 5.9 2.1 9.1-1.1 10.7-6.7 20.4-12.2 29.7q-2.5-0.5-5-1-0.8-14.4-1.5-28.8c-14.8-5.4-30.5-11-46-7.8-0.9 0.2-1.8 0.4-2.6-0.1-0.6-0.4-0.9-1.1-1.2-1.7-2.8-6.5-3.9-13.7-3.1-20.8 0.4 3 1.4 5.8 2.9 8.3q0.1-4.9 0.2-9.8c1.1 2.8 4.7 3.5 7.7 3.4z"/>
							</g>
						</g>
						<g id="&lt;Group&gt;">
							<g id="&lt;Group&gt;">
								<path id="&lt;Path&gt;" class="s30" d="m423 359.4c-1.2 0.6-2.9-0.5-4.1-0.7-2.7-0.3-4.7 1.6-7.3 1.6-0.7 0.1-1-0.5-0.8-1.1 1.4-4.1 11.6-5.9 12.6-0.6 0.1 0.4-0.2 0.7-0.4 0.8z"/>
							</g>
						</g>
						<g id="&lt;Group&gt;">
							<g id="&lt;Group&gt;">
								<path id="&lt;Path&gt;" class="s30" d="m441.7 361.2c3-4.5 11.7 1 11.5 5.4-0.1 0.6-0.6 1.1-1.2 0.8-2.4-1.1-3.5-3.6-6.2-4.3-1.1-0.3-3.1 0-3.9-1-0.2-0.2-0.4-0.6-0.2-0.9z"/>
							</g>
						</g>
						<g id="&lt;Group&gt;">
							<g id="&lt;Group&gt;">
								<path id="&lt;Path&gt;" class="s4" d="m415.4 394l19.5 2.6c0 0-12.3 16.3-19.5-2.6z"/>
							</g>
						</g>
						<g id="&lt;Group&gt;">
							<g id="&lt;Group&gt;">
								<path id="&lt;Path&gt;" class="s14" d="m523.5 452c19.3 5.2 44.9 147.8 44.9 147.8l10.1 116.2-32.9 4.6-19.2-113.4-13.8-64.1z"/>
							</g>
						</g>
						<g id="&lt;Group&gt;">
							<g id="&lt;Group&gt;">
								<path id="&lt;Path&gt;" class="s23" d="m372.9 760.7v-68.2h47.4v68.2c0 0.1-0.1 0.2-0.2 0.2h-47c-0.1 0-0.2-0.1-0.2-0.2z"/>
							</g>
						</g>
						<g id="&lt;Group&gt;">
							<g id="&lt;Group&gt;">
								<path id="&lt;Path&gt;" class="s23" d="m470.2 760.8l-10.1-67.4 46.9-7.1 10.1 67.5c0 0.2 0 0.3-0.2 0.3l-46.4 6.9c-0.2 0.1-0.3 0-0.3-0.2z"/>
							</g>
						</g>
						<g id="&lt;Group&gt;">
							<g id="&lt;Group&gt;">
								<path id="&lt;Path&gt;" class="s23" d="m439.9 650.7c-2.9 0-5.3-2.3-5.3-5.2 0-2.9 2.4-5.3 5.3-5.3 2.8 0 5.2 2.4 5.2 5.3 0 2.9-2.4 5.2-5.2 5.2z"/>
							</g>
						</g>
						<g id="&lt;Group&gt;">
							<g id="&lt;Group&gt;">
								<path id="&lt;Path&gt;" class="s23" d="m441.3 676.9c-2.8 0-5.2-2.3-5.2-5.2 0-2.9 2.4-5.2 5.2-5.2 2.9 0 5.3 2.3 5.3 5.2 0 2.9-2.4 5.2-5.3 5.2z"/>
							</g>
						</g>
						<g id="&lt;Group&gt;">
							<g id="&lt;Group&gt;">
								<path id="&lt;Compound Path&gt;" fill-rule="evenodd" class="s21" d="m442.6 389.3c-6.6 0-12-5.3-12-12 0-6.6 5.4-11.9 12-11.9 6.6 0 12 5.3 12 11.9 0 6.7-5.4 12-12 12zm10-12c0-5.5-4.5-9.9-10-9.9-5.5 0-9.9 4.4-9.9 9.9 0 5.5 4.4 10 9.9 10 5.5 0 10-4.5 10-10z"/>
							</g>
						</g>
						<g id="&lt;Group&gt;">
							<g id="&lt;Group&gt;">
								<path id="&lt;Compound Path&gt;" fill-rule="evenodd" class="s21" d="m413.8 384.6c-6.7 0-12-5.3-12-12 0-6.6 5.3-11.9 12-11.9 6.6 0 11.9 5.3 11.9 11.9 0 6.7-5.3 12-11.9 12zm9.9-12c0-5.5-4.4-9.9-9.9-9.9-5.5 0-10 4.4-10 9.9 0 5.5 4.5 10 10 10 5.5 0 9.9-4.5 9.9-10z"/>
							</g>
						</g>
						<g id="&lt;Group&gt;">
							<g id="&lt;Group&gt;">
								<path id="&lt;Path&gt;" class="s21" d="m463.7 381.3l-10.3-1.6 0.3-2 10.3 1.5z"/>
							</g>
						</g>
						<g id="&lt;Group&gt;">
							<g id="&lt;Group&gt;">
							</g>
						</g>
						<g id="&lt;Group&gt;">
							<g id="&lt;Group&gt;">
								<path id="&lt;Path&gt;" class="s22" d="m459 384.1c0 0 1.8-10.1 11.3-4.2 3.7 2.3 1.5 13.6-10.2 12.9 0 0-3.8-1.8-1.1-8.7z"/>
							</g>
						</g>
						<g id="&lt;Group&gt;">
							<g id="&lt;Group&gt;">
								<g id="&lt;Group&gt;">
									<path id="&lt;Compound Path&gt;" fill-rule="evenodd" class="s33" d="m234.7 467.7q-0.2 0.1-0.4 0l-16.7-5.1c-0.2 0-0.5-0.3-0.5-0.6l-4-16.9c0-0.3 0.1-0.6 0.3-0.8l12.7-11.9c0.2-0.2 0.5-0.3 0.8-0.2l16.6 5.1c0.3 0.1 0.5 0.3 0.6 0.6l3.9 16.9c0.1 0.3 0 0.6-0.2 0.8l-12.7 11.9q-0.2 0.2-0.4 0.2zm-16.1-6.5l15.7 4.7 12-11.2-3.7-15.9-15.7-4.8-12 11.2z"/>
								</g>
							</g>
							<g id="&lt;Group&gt;">
								<g id="&lt;Group&gt;">
									<path id="&lt;Compound Path&gt;" fill-rule="evenodd" class="s33" d="m276.5 464.4q-0.2 0.1-0.4 0l-16.7-5.1c-0.3-0.1-0.5-0.3-0.5-0.6l-4-16.9c0-0.3 0-0.6 0.3-0.8l12.7-11.9c0.2-0.2 0.5-0.3 0.8-0.2l16.6 5.1c0.3 0 0.5 0.3 0.6 0.6l3.9 16.9c0.1 0.3 0 0.6-0.2 0.8l-12.7 11.9q-0.2 0.1-0.4 0.2zm-16.1-6.6l15.7 4.8 12-11.2-3.7-16-15.7-4.7-12 11.2z"/>
								</g>
							</g>
							<g id="&lt;Group&gt;">
								<g id="&lt;Group&gt;">
									<path id="&lt;Path&gt;" class="s33" d="m240.2 442q-0.2 0.1-0.4 0l-12.7-3.9c-0.5-0.2-0.7-0.6-0.6-1.1 0.1-0.4 0.6-0.7 1.1-0.5l12.7 3.9c0.4 0.1 0.7 0.6 0.5 1.1 0 0.2-0.3 0.5-0.6 0.5z"/>
								</g>
							</g>
							<g id="&lt;Group&gt;">
								<g id="&lt;Group&gt;">
									<path id="&lt;Path&gt;" class="s33" d="m233.5 464c0 0-0.3 0-0.4 0l-12.7-3.9c-0.5-0.2-0.7-0.7-0.6-1.1 0.1-0.4 0.6-0.7 1.1-0.6l12.7 4c0.4 0.1 0.7 0.6 0.5 1-0.1 0.3-0.3 0.5-0.6 0.6z"/>
								</g>
							</g>
							<g id="&lt;Group&gt;">
								<g id="&lt;Group&gt;">
									<path id="&lt;Path&gt;" class="s33" d="m259.8 459.4q-0.3 0-0.5 0l-12.7-4c-0.5-0.1-0.7-0.6-0.6-1 0.2-0.5 0.6-0.7 1.1-0.6l12.7 3.9c0.5 0.2 0.7 0.7 0.6 1.1-0.1 0.3-0.4 0.5-0.6 0.6z"/>
								</g>
							</g>
							<g id="&lt;Group&gt;">
								<g id="&lt;Group&gt;">
									<path id="&lt;Path&gt;" class="s33" d="m268.6 430.5c-0.4 0.1-0.9-0.1-1-0.6l-2.5-10.8c-0.1-0.5 0.2-1 0.6-1.1 0.5-0.1 0.9 0.2 1.1 0.7l2.5 10.8c0.1 0.5-0.2 0.9-0.7 1z"/>
								</g>
							</g>
							<g id="&lt;Group&gt;">
								<g id="&lt;Group&gt;">
									<path id="&lt;Path&gt;" class="s33" d="m275.2 460.5q-0.2 0.1-0.4 0l-12.3-3.7c-0.5-0.1-0.7-0.6-0.6-1 0.1-0.5 0.6-0.7 1.1-0.6l12.2 3.7c0.5 0.1 0.8 0.6 0.6 1-0.1 0.3-0.3 0.5-0.6 0.6z"/>
								</g>
							</g>
							<g id="&lt;Group&gt;">
								<g id="&lt;Group&gt;">
									<path id="&lt;Path&gt;" class="s33" d="m285.7 451.7c-0.5 0.1-0.9-0.2-1-0.7l-3.3-13.8c-0.1-0.5 0.2-1 0.7-1.1 0.4-0.1 0.9 0.2 1 0.7l3.2 13.9c0.1 0.4-0.2 0.9-0.6 1z"/>
								</g>
							</g>
							<g id="&lt;Group&gt;">
								<g id="&lt;Group&gt;">
									<path id="&lt;Path&gt;" class="s33" d="m303.7 466.2c-0.5 0.1-0.9-0.2-1-0.6l-2.2-9.3-11.7-3.8c-0.5-0.1-0.7-0.6-0.6-1.1 0.2-0.4 0.6-0.7 1.1-0.5l12.2 4c0.3 0.1 0.5 0.3 0.6 0.6l2.2 9.7c0.1 0.4-0.1 0.9-0.6 1z"/>
								</g>
							</g>
						</g>
						<g id="&lt;Group&gt;">
							<g id="&lt;Group&gt;">
								<path id="&lt;Path&gt;" class="s19" d="m270 500.5l-0.9-3c-2.3-7.8-4.7-1.7-3.1-11.7 0.5-2.9 5.7-12.9 5.6-13.1-5.9-11.4-8-16.1-4.7-17.8 0.9-0.5 10.5 11.7 12 17.2 3.7 14.4 3.5 24.8 3.5 24.8z"/>
							</g>
						</g>
					</g>
				</g>
				<g id="&lt;Group&gt;">
					<path id="&lt;Path&gt;" class="s1" d="m481.4 481.2h-103.9c-3.2 0-5.8-2.6-5.8-5.7 0-3.2 2.6-5.8 5.8-5.8h103.9c3.2 0 5.7 2.6 5.7 5.8 0 3.1-2.5 5.7-5.7 5.7z"/>
				</g>
				<g id="&lt;Group&gt;">
					<g id="&lt;Group&gt;">
						<path id="&lt;Path&gt;" class="s34" d="m443.7 523.2h-70.5c-2.4 0-4.4-2-4.4-4.4 0-2.4 2-4.4 4.4-4.4h70.5c2.4 0 4.4 2 4.4 4.4 0 2.4-2 4.4-4.4 4.4z"/>
					</g>
					<g id="&lt;Group&gt;">
						<path id="&lt;Path&gt;" class="s34" d="m526.7 523.9h-61.7c-2.4 0-4.4-1.9-4.4-4.4 0-2.4 2-4.4 4.4-4.4h61.7c2.4 0 4.4 2 4.4 4.4 0 2.5-2 4.4-4.4 4.4z"/>
					</g>
					<g id="&lt;Group&gt;">
						<path id="&lt;Path&gt;" class="s34" d="m505.2 542.8h-133.8c-2.4 0-4.4-1.9-4.4-4.4 0-2.4 2-4.4 4.4-4.4h133.8c2.4 0 4.4 2 4.4 4.4 0 2.5-2 4.4-4.4 4.4z"/>
					</g>
					<g id="&lt;Group&gt;">
						<path id="&lt;Path&gt;" class="s34" d="m479.3 562.7h-73.8c-2.4 0-4.4-2-4.4-4.5 0-2.4 2-4.4 4.4-4.4h73.8c2.5 0 4.4 2 4.4 4.4 0 2.5-1.9 4.5-4.4 4.5z"/>
					</g>
					<g id="&lt;Group&gt;">
						<path id="&lt;Path&gt;" class="s34" d="m508.7 581.4h-105.7c-2.5 0-4.4-2-4.4-4.4 0-2.5 1.9-4.4 4.4-4.4h105.7c2.4 0 4.4 1.9 4.4 4.4 0 2.4-2 4.4-4.4 4.4z"/>
					</g>
					<g id="&lt;Group&gt;">
						<path id="&lt;Path&gt;" class="s11" d="m380.6 575.1c-4.3 0-7.7-3.4-7.7-7.7 0-4.2 3.4-7.7 7.7-7.7 4.2 0 7.7 3.5 7.7 7.7 0 4.3-3.5 7.7-7.7 7.7z"/>
					</g>
					<g id="&lt;Group&gt;">
						<path id="&lt;Path&gt;" class="s34" d="m523.4 607.8h-117.9c-2.4 0-4.4-2-4.4-4.4 0-2.4 2-4.4 4.4-4.4h117.9c2.4 0 4.4 2 4.4 4.4 0 2.4-2 4.4-4.4 4.4z"/>
					</g>
					<g id="&lt;Group&gt;">
						<path id="&lt;Path&gt;" class="s34" d="m445.9 626.5h-42c-2.4 0-4.4-1.9-4.4-4.4 0-2.4 2-4.4 4.4-4.4h42c2.4 0 4.4 2 4.4 4.4 0 2.5-2 4.4-4.4 4.4z"/>
					</g>
					<g id="&lt;Group&gt;">
						<path id="&lt;Path&gt;" class="s34" d="m504.8 626.5h-42c-2.4 0-4.4-1.9-4.4-4.4 0-2.4 2-4.4 4.4-4.4h42c2.5 0 4.4 2 4.4 4.4 0 2.5-1.9 4.4-4.4 4.4z"/>
					</g>
					<g id="&lt;Group&gt;">
						<path id="&lt;Path&gt;" class="s11" d="m380.6 620.3c-4.3 0-7.7-3.5-7.7-7.7 0-4.3 3.4-7.7 7.7-7.7 4.2 0 7.7 3.4 7.7 7.7 0 4.2-3.5 7.7-7.7 7.7z"/>
					</g>
				</g>
				<g id="&lt;Group&gt;">
					<g id="&lt;Group&gt;">
						<path id="&lt;Path&gt;" class="s1" d="m393 677.2l8 16.2 17.8 2.6-12.9 12.6 3.1 17.9-16-8.5-16 8.5 3-17.9-12.9-12.6 17.9-2.6z"/>
					</g>
					<g id="&lt;Group&gt;">
						<path id="&lt;Path&gt;" class="s1" d="m452.2 676.2l8 16.2 17.8 2.6-12.9 12.6 3.1 17.8-16-8.4-16 8.4 3-17.8-12.9-12.6 17.9-2.6z"/>
					</g>
					<g id="&lt;Group&gt;">
						<path id="&lt;Path&gt;" class="s1" d="m510.2 676.2l8 16.2 17.9 2.6-12.9 12.6 3 17.8-16-8.4-16 8.4 3.1-17.8-12.9-12.6 17.8-2.6z"/>
					</g>
					<g id="&lt;Group&gt;">
						<path id="&lt;Path&gt;" class="s1" d="m569.2 676.2l8 16.2 17.9 2.6-13 12.6 3.1 17.8-16-8.4-16 8.4 3.1-17.8-13-12.6 17.9-2.6z"/>
					</g>
					<g id="&lt;Group&gt;">
						<path id="&lt;Path&gt;" class="s1" d="m626.4 676.2l8 16.2 17.9 2.6-12.9 12.6 3 17.8-16-8.4-16 8.4 3.1-17.8-13-12.6 17.9-2.6z"/>
					</g>
				</g>
				<g id="&lt;Group&gt;">
					<g id="&lt;Group&gt;">
						<path id="&lt;Path&gt;" class="s1" d="m595.2 626.9c-29.2 0-52.7-23.6-52.7-52.8 0-29.1 23.5-52.7 52.7-52.7 29.2 0 52.8 23.6 52.8 52.7 0 29.2-23.6 52.8-52.8 52.8z"/>
					</g>
					<g id="&lt;Clip Group&gt;" clip-path="url(#cp2)">
						<g id="&lt;Group&gt;">
						</g>
						<g id="&lt;Group&gt;">
						</g>
						<g id="&lt;Group&gt;">
						</g>
						<g id="&lt;Group&gt;">
						</g>
						<g id="&lt;Group&gt;">
						</g>
						<g id="&lt;Group&gt;">
						</g>
						<g id="&lt;Group&gt;">
						</g>
						<g id="&lt;Group&gt;">
						</g>
						<g id="&lt;Group&gt;">
							<path id="&lt;Path&gt;" class="s4" d="m595.2 611.3c-20.2 0-36.5-16.3-36.5-36.5 0-20.1 16.3-36.4 36.5-36.4 20.2 0 36.5 16.3 36.5 36.4 0 20.2-16.3 36.5-36.5 36.5z"/>
						</g>
					</g>
				</g>
				<g id="&lt;Group&gt;">
				</g>
				<g id="&lt;Group&gt;">
					<g id="&lt;Group&gt;">
						<path id="&lt;Path&gt;" class="s4" d="m650.7 422.1h-79.9c-1.5 0-2.8-1.2-2.8-2.8 0-1.6 1.3-2.8 2.8-2.8h79.9c1.6 0 2.9 1.2 2.9 2.8 0 1.6-1.3 2.8-2.9 2.8z"/>
					</g>
					<g id="&lt;Group&gt;">
						<path id="&lt;Path&gt;" class="s4" d="m609.2 438.1h-36.6c-1.5 0-2.8-1.3-2.8-2.8 0-1.6 1.3-2.9 2.8-2.9h36.6c1.6 0 2.8 1.3 2.8 2.9 0 1.5-1.2 2.8-2.8 2.8z"/>
					</g>
					<g id="&lt;Group&gt;">
						<path id="&lt;Path&gt;" class="s4" d="m640.1 438.1h-19.2c-1.6 0-2.8-1.3-2.8-2.8 0-1.6 1.2-2.9 2.8-2.9h19.2c1.6 0 2.8 1.3 2.8 2.9 0 1.5-1.2 2.8-2.8 2.8z"/>
					</g>
				</g>
				<g id="&lt;Group&gt;">
					<g id="&lt;Group&gt;">
						<g id="&lt;Group&gt;">
							<path id="&lt;Compound Path&gt;" fill-rule="evenodd" class="s1" d="m530.8 414.6c0-1.6 1.3-3 3-3h21.4c1.6 0 3 1.4 3 3v21.4c0 1.7-1.4 3-3 3h-21.4c-1.7 0-3-1.3-3-3zm2.9 21.5h21.5v-21.5h-21.5z"/>
						</g>
					</g>
					<g id="&lt;Group&gt;">
						<path id="&lt;Path&gt;" class="s35" d="m546.3 434.7l-12.3-12.4 6.2-6.2 5.4 5.3 9.3-11.6 6.9 5.5z"/>
					</g>
				</g>
				<g id="&lt;Group&gt;">
					<path id="&lt;Path&gt;" class="s34" d="m637.5 308.2h24.1v89.5h-24.1z"/>
				</g>
				<g id="&lt;Group&gt;">
					<path id="&lt;Path&gt;" class="s1" d="m637.5 339.4h24.1v58.1h-24.1z"/>
				</g>
				<g id="&lt;Group&gt;">
					<path id="&lt;Path&gt;" class="s34" d="m597.4 326.6h24.1v71.1h-24.1z"/>
				</g>
				<g id="&lt;Group&gt;">
					<path id="&lt;Path&gt;" class="s1" d="m559.4 353.3h24.1v44.4h-24.1z"/>
				</g>
				<g id="&lt;Group&gt;">
					<path id="&lt;Path&gt;" class="s34" d="m522.6 338h24.1v59.7h-24.1z"/>
				</g>
				<g id="&lt;Group&gt;">
					<path id="&lt;Path&gt;" class="s1" d="m597.4 353.7h24.1v43.8h-24.1z"/>
				</g>
				<g id="&lt;Group&gt;">
					<path id="&lt;Path&gt;" class="s1" d="m522.5 374.6h24.2v22.9h-24.2z"/>
				</g>
			</g>
			<g id="&lt;Group&gt;">
				<g id="&lt;Group&gt;">
					<g id="&lt;Group&gt;">
						<path id="&lt;Path&gt;" class="s16" d="m707.9 267.6l467 1.1-1.2 511-466.9-1.1z"/>
					</g>
				</g>
				<g id="&lt;Group&gt;">
					<g id="&lt;Group&gt;">
						<path id="&lt;Path&gt;" class="s5" d="m706.1 267.8h467v17.9h-467z"/>
					</g>
				</g>
				<g id="&lt;Group&gt;">
					<path id="&lt;Path&gt;" class="s6" d="m719.4 281.8c-2.5 0-4.6-2.1-4.6-4.6 0-2.6 2.1-4.6 4.6-4.6 2.6 0 4.6 2 4.6 4.6 0 2.5-2 4.6-4.6 4.6z"/>
				</g>
				<g id="&lt;Group&gt;">
					<path id="&lt;Path&gt;" class="s17" d="m734.1 281.8c-2.5 0-4.6-2.1-4.6-4.6 0-2.6 2.1-4.6 4.6-4.6 2.6 0 4.6 2 4.6 4.6 0 2.5-2 4.6-4.6 4.6z"/>
				</g>
				<g id="&lt;Group&gt;">
					<path id="&lt;Path&gt;" class="s18" d="m750.9 281.8c-2.5 0-4.6-2.1-4.6-4.6 0-2.6 2.1-4.6 4.6-4.6 2.6 0 4.6 2 4.6 4.6 0 2.5-2 4.6-4.6 4.6z"/>
				</g>
			</g>
			<g id="&lt;Group&gt;">
				<g id="&lt;Group&gt;">
					<path id="&lt;Path&gt;" class="s22" d="m1278.4 838.6c0 0 7.2-20.6 7.4-26.1 0.2-5.5 11.3 2.4 11.3 2.4l-0.4 14.8c0 0-4.4 17.5-4.6 17.7-0.3 0.1-12.2 1.2-12.2 1.2l-2.4-4.2z"/>
				</g>
				<g id="&lt;Group&gt;">
					<path id="&lt;Path&gt;" class="s5" d="m1279.1 843.6l12.5 2.7 5.4-21.2-1.3 29.2-16.6 2.9-2-1.6c-2-3.4-2.4-7.5-1-11.2l4.1-11.5z"/>
				</g>
				<g id="&lt;Group&gt;">
					<path id="&lt;Path&gt;" class="s22" d="m1210.8 822.6l2.5 6-9.6 15.6-8.5 3.8-2.2-1.3c0 0 6.3-21.8 7.1-28.1 0.8-6.2 8.2-1.9 8.2-1.9z"/>
				</g>
				<g id="&lt;Group&gt;">
					<path id="&lt;Path&gt;" class="s5" d="m1214.2 854.1h-1.7c0 0-0.4-13.9-2.1-14.2-1.7-0.2-6.7 15.6-6.7 15.6l-25.1 0.8 14.4-9.6 7.3-0.8c6.7-17 12.2-20 12.2-20 6.3 4.6 1.7 28.2 1.7 28.2z"/>
				</g>
				<g id="&lt;Group&gt;">
					<path id="&lt;Path&gt;" class="s22" d="m1197.6 831.1l6.2-36.2 15.1 5.2-8.9 24.8z"/>
				</g>
				<g id="&lt;Group&gt;">
					<path id="&lt;Path&gt;" class="s30" d="m1252.8 521.2c-7 2.7-14.8 2.9-21.9 0.8 1.4-1.6 2.2-3.7 2.2-5.9-4.9 1.4-10.4-0.5-13.4-4.6 3.5 1.1 7.6-1.4 8.2-5 0.3-2.2-0.5-4.5-0.4-6.7 0.1-2.7 1.5-5.4 3.8-6.9 2.7-1.8 6.5-2.3 7.8-5.2 1.5-3.5-2.1-7.5-1.2-11.3 0.6-2.3 2.8-3.8 4.7-5.3 1.8-1.5 3.7-3.7 3.3-6-0.3-2.1-2.2-3.5-3.3-5.3-1.6-3-0.7-6.9 1.4-9.5 2.1-2.7 5.3-4.3 8.4-5.6 4.4-1.9 8.9-3.2 13.5-4.2 3.9-0.7 8.3-1.1 11.5 1.3 4.3-0.4 8.4 2.3 10.6 6 2.2 3.7 2.8 8.1 3.1 12.3 0.1 1.8 0.1 3.7 0.9 5.4 1.3 2.7 4.3 4.2 5.8 6.8 3.6 6.2-2.7 15.1 1.6 20.9 1.1 1.5 2.8 2.5 4.2 3.7 3.7 3.3 5.4 8.5 5 13.5-0.3 5-2.3 9.7-5 13.8-0.8 1.3-1.7 2.5-3 3.3-1.3 0.9-3 1.2-4.6 1.5q-9.1 1.6-18.2 3.3c2.6-2.6 4.6-5.8 5.6-9.4-2.7 0.7-5 2.6-7.5 3.7-3.7 1.8-8 2.1-12.1 2.4q-7.2 0.6-14.4 1.1c2.4-2.3 3.6-5.6 3.4-8.9z"/>
				</g>
				<g id="&lt;Group&gt;">
					<path id="&lt;Path&gt;" class="s19" d="m1280.2 499l22.3 4.8-2.8 77.3-38-1.2c0 0-13.9-54.3-24.4-69.3l26-12.1z"/>
				</g>
				<g id="&lt;Group&gt;">
					<path id="&lt;Path&gt;" class="s14" d="m1301 575.7c0 0 16.1 18.7 17.4 25.6l-24.8 31.9-44.3-28.3c0 0 1.3-16.6 11.7-26.2z"/>
				</g>
				<g id="&lt;Group&gt;">
					<path id="&lt;Path&gt;" class="s14" d="m1318.5 601c8.2 15.5-5.2 110.9-5.2 110.9l-13.9 104.9-17.1-1.5 0.5-182.4-66.1 178.7-17-4.6c0 0 39.6-200.8 54.7-219 0 0 55.8-2.5 64.1 13z"/>
				</g>
				<g id="&lt;Group&gt;">
					<g id="&lt;Group&gt;">
						<path id="&lt;Path&gt;" class="s19" d="m1194.4 539.9c0 0-5.9-7.5-6-7.5-7.6-2.2-14.4-3.9-14.4-3.9 0 0 3.6-10.5 4.7-11.4 1.1-1 11.1 4.5 11.1 4.5l9.5 9.1z"/>
					</g>
					<g id="&lt;Group&gt;">
						<path id="&lt;Path&gt;" class="s19" d="m1184.5 521.8l-4.8-4.9c0 0 4.1 1 4.5 0.6 0.3-0.4-3.4-7.2-2.2-8.4 1.3-1.1 3.4 4.8 5 6.8 4.2 5.1 6.1 9.3 6.1 9.3z"/>
					</g>
					<g id="&lt;Group&gt;">
						<path id="&lt;Path&gt;" class="s19" d="m1180.9 529.6l-6.9-1.1c0 0-10.6-1.4-10.3-2.4 0.3-1 11.5-0.5 11.5-0.5 0 0-13.3-4.3-12.9-5.4 0.3-1.2 13.9 2 13.9 2 0 0-13.4-7.1-12.7-8.2 0.7-1.1 13.8 4.8 13.8 4.8 0 0-10.8-7.5-9.9-8.5 1-1 14.5 7.8 14.5 7.8z"/>
					</g>
				</g>
				<g id="&lt;Group&gt;">
					<path id="&lt;Path&gt;" class="s36" d="m1252.8 476.4c-0.5-1-0.1-2.3 0.9-2.8 1-0.6 2.2-0.2 2.8 0.8 0.5 1 0.1 2.3-0.9 2.8-1 0.6-2.2 0.2-2.8-0.8z"/>
				</g>
				<g id="&lt;Group&gt;">
					<path id="&lt;Path&gt;" class="s19" d="m1260.2 500.3l0.4-20.8 16.5 0.5 2.2 19.7z"/>
				</g>
				<g id="&lt;Group&gt;" style="mix-blend-mode: multiply">
					<path id="&lt;Path&gt;" class="s19" d="m1277.2 479.8c-1.5 14.5-16.9 14.8-16.9 14.8l0.1-6.4c0 0 18.4-22.9 16.8-8.4z"/>
				</g>
				<g id="&lt;Group&gt;">
					<path id="&lt;Mesh&gt;" class="s37" d="m1284.5 457.8c0.6 5.7-1.9 11.5-2.8 13.7-0.5 0.9-5.6 16.5-16.3 18-1.5 0.3-3.1 0.2-4.9-0.2-2.2-0.6-4.6-1.9-7-6.1-2.9-5-4.6-11.5-3-24.2 0.1-1.2 0.3-2.2 0.4-3.1 0.6-4.1 1.9-6.1 4.9-8.7 2.7-2.2 5.8-3.6 8.8-4.2 3.4-0.6 6.7-0.3 9.2 0.8 3.4 1.5 5.8 3.4 7.4 5.7 2.1 2.8 3 5.6 3.3 8.3z"/>
					<g id="&lt;Group&gt;">
						<path id="&lt;Path&gt;" class="s31" d="m1256 470.6c-0.6 0-1.2-1.3-1.2-2.9 0-1.7 0.6-3 1.2-3 0.7 0 1.2 1.3 1.2 3 0 1.6-0.5 2.9-1.2 2.9z"/>
					</g>
					<g id="&lt;Group&gt;">
						<path id="&lt;Path&gt;" class="s31" d="m1269.6 471.5c-0.7 0-1.2-1.4-1.2-3 0-1.6 0.5-2.9 1.2-2.9 0.6 0 1.2 1.3 1.2 2.9 0 1.6-0.6 3-1.2 3z"/>
					</g>
					<g id="&lt;Group&gt;">
						<path id="&lt;Path&gt;" class="s38" d="m1262.9 476.2c-0.1 0-0.1-0.1 0-0.2 0.1-0.1 0.1-0.3 0.1-0.5-0.4 0-0.8 0-1.1-0.2-0.5-0.2-0.8-0.6-0.8-1.1-0.1-0.3 0.1-0.7 0.3-1v-0.1c0.8-1.7 0.7-3.6 0.6-5.5 0 0 0.1-0.1 0.2-0.1 0.1 0 0.2 0.1 0.2 0.2 0.1 1.7 0.2 3.8-0.7 5.6v0.1c-0.2 0.3-0.3 0.5-0.3 0.8 0 0.4 0.3 0.7 0.6 0.8 0.4 0.1 0.7 0.2 1.1 0.2q0.1 0 0.2 0.1c0.1 0.3 0 0.7-0.1 0.9q-0.1 0.1-0.2 0.1 0 0-0.1-0.1z"/>
					</g>
					<g id="&lt;Group&gt;">
						<g id="&lt;Group&gt;">
							<path id="&lt;Path&gt;" class="s39" d="m1267.5 479.9c0 0-1.6 4.7-4.8 4.5-3.2-0.2-4.2-4.4-4.2-4.4 0 0 1.4-1.6 2.2-1.7 1-0.1 2.1 0.7 2.1 0.7 0 0 0.7-0.7 1.6-0.8 1-0.1 2.4 1.4 3.1 1.7z"/>
						</g>
						<g id="&lt;Group&gt;">
							<path id="&lt;Path&gt;" class="s4" d="m1258.5 480l9-0.1c0 0-5.4 6.3-9 0.1z"/>
						</g>
					</g>
					<g id="&lt;Group&gt;">
						<path id="&lt;Path&gt;" class="s30" d="m1273.5 463.9c-1.4-0.4-2.9-0.9-4.4-0.8-1.2 0.1-2.2 0.7-3.3 0.8-0.3 0-0.4-0.3-0.3-0.5 1.5-3 6.4-1.7 8.3 0 0.2 0.2 0 0.6-0.3 0.5z"/>
					</g>
					<g id="&lt;Group&gt;">
						<path id="&lt;Path&gt;" class="s30" d="m1250.9 463.4c2-1.7 6.8-3 8.3 0 0.1 0.2 0 0.5-0.3 0.5-1.1-0.1-2.1-0.7-3.3-0.8-1.5-0.1-3 0.4-4.4 0.8-0.3 0.1-0.5-0.3-0.3-0.5z"/>
					</g>
					<g id="&lt;Group&gt;">
						<path id="&lt;Path&gt;" class="s30" d="m1249 478.5c-1.9-1-2.9-3.2-3.1-5.3-0.2-2.2 0.3-4.3 0.6-6.4 0.5-4.4 0.3-9 1.9-13.1 2.5-6.4 9.1-10.7 15.9-11.3 6.8-0.6 13.6 2.1 18.9 6.4 1.3 1.2 2.6 2.4 3.5 4 2.4 4 1.6 9-0.1 13.3-1 2.5-2.6 5.1-5.2 5.7-2.2-2.9-4.4-5.8-5.9-9.1-1.6-3.2-2.5-6.9-2.1-10.5-4.8 3-11.6-0.6-16.5 2.3-2.1 1.2-3.4 3.6-3.5 6 0 1 0.2 2.1 0.1 3.1-0.3 2.5-2.4 4.3-3.6 6.5-1.5 2.5-1.8 5.7-0.9 8.4z"/>
					</g>
					<g id="&lt;Group&gt;">
						<g id="&lt;Group&gt;">
							<path id="&lt;Path&gt;" class="s19" d="m1280.2 471c0 0 1.3-4.5 5-1.3 1.5 1.2-0.1 6.3-5.1 5.3 0 0-1.5-1 0.1-4z"/>
						</g>
					</g>
				</g>
				<g id="&lt;Group&gt;">
					<path id="&lt;Path&gt;" class="s19" d="m1229.2 573.4c-9.8 6.3-41.2-42.3-41.2-42.3l0.8-9.3c0 0 40.1 30.2 44.3 39.2 3.7 7.9-3.9 12.4-3.9 12.4z"/>
				</g>
				<g id="&lt;Group&gt;">
					<path id="&lt;Path&gt;" class="s4" d="m1282.7 479.9c-1.2 0-2.1-0.9-2.1-2.1 0-1.1 0.9-2 2.1-2 1.1 0 2 0.9 2 2 0 1.2-0.9 2.1-2 2.1z"/>
				</g>
				<g id="&lt;Group&gt;">
					<path id="&lt;Path&gt;" class="s6" d="m1261 578.7c0 0-7.2 0-16-25.8 0 0-9.6 27.8-23.8 24.9-14.2-2.8-31.3-41.4-31.3-41.4l7.4-9.4 22.4 15.1c0 0 9-25 17.6-31.5 8.6-6.6 19.6-9.7 19.6-9.7 0 0 11.7 12.8 22.5-2.3 0 0 20.1 4.3 24.7 5.4 4.5 1.2 38.3 28.4 38.3 28.4l7.4 9.4c0 0-20.8 24.4-27.3 24.7-6.5 0.3-13.3-7.1-13.3-7.1 0 0-3.6 16.7-8.2 16.3z"/>
				</g>
				<g id="&lt;Group&gt;">
					<path id="&lt;Path&gt;" class="s40" d="m1309 527.6l-8.5 14.7-17.6-9.6-12 13.1-16.4-13.1-21 12.8-9.6-13.6c3.4-7.7 8.5-17.6 13.5-21.3 8.6-6.6 19.6-9.7 19.6-9.7 0 0 11.7 12.8 22.5-2.3 0 0 20.1 4.3 24.7 5.4 2.5 0.6 14 9.3 23.8 16.9l-2 9.5z"/>
				</g>
				<g id="&lt;Group&gt;">
					<g id="&lt;Group&gt;">
						<path id="&lt;Path&gt;" class="s19" d="m1363.8 537.5c0 0 0.3-4.9 1.6-3.9 1.4 0.9 6.3 6.9 6.3 6.9z"/>
					</g>
					<g id="&lt;Group&gt;">
						<g id="&lt;Group&gt;">
							<path id="&lt;Path&gt;" class="s14" d="m1374.5 518.6l-24.7 52.7c-0.1 0.1-0.2 0.1-0.2 0.1l-37.9-17.8c-0.1-0.1-0.1-0.1-0.1-0.2l24.8-52.7c0.1-0.1 0.1-0.1 0.2-0.1l37.9 17.8c0 0.1 0.1 0.2 0 0.2z"/>
						</g>
						<g id="&lt;Group&gt;">
							<path id="&lt;Path&gt;" class="s5" d="m1365.8 515.5l-21.4-10.1 1.6-3.4 21.4 10.1z"/>
						</g>
						<g id="&lt;Group&gt;">
							<path id="&lt;Path&gt;" class="s5" d="m1362.4 509.5l-0.7 1.5c-0.5 1.1-1.8 1.5-2.9 1l-7.5-3.5c-1.1-0.5-1.6-1.8-1.1-2.9l0.7-1.5c0.5-1 1.8-1.5 2.9-1l7.5 3.5c1.1 0.5 1.6 1.8 1.1 2.9z"/>
						</g>
					</g>
					<g id="&lt;Group&gt;">
						<g id="&lt;Group&gt;">
							<path id="&lt;Path&gt;" class="s19" d="m1361.8 539l1.2-2.8q0 0 0.1 0l10.3 4.4q0 0 0 0.1l-1.2 2.8q0 0-0.1 0l-10.2-4.4q-0.1 0-0.1-0.1z"/>
						</g>
						<g id="&lt;Group&gt;">
							<path id="&lt;Path&gt;" class="s19" d="m1359.3 541.4l1.2-2.8q0 0 0.1 0l11.2 4.8q0.1 0 0.1 0.1l-1.2 2.8q0 0-0.1 0l-11.2-4.8q-0.1 0-0.1-0.1z"/>
						</g>
						<g id="&lt;Group&gt;">
							<path id="&lt;Path&gt;" class="s19" d="m1357 543.9l1.2-2.8q0-0.1 0.1 0l12.2 5.2q0.1 0 0.1 0.1l-1.2 2.8q-0.1 0-0.1 0l-12.3-5.2q0 0 0-0.1z"/>
						</g>
						<g id="&lt;Group&gt;">
							<path id="&lt;Path&gt;" class="s19" d="m1358.2 547.7l1.2-2.8q0.1-0.1 0.1-0.1l8.5 3.7q0.1 0.1 0 0.1l-1.2 2.8q0 0.1-0.1 0.1l-8.5-3.7q0-0.1 0-0.1z"/>
						</g>
					</g>
				</g>
				<g id="&lt;Group&gt;">
					<path id="&lt;Path&gt;" class="s41" d="m1313.9 601.1c-3.3 0-8.1-0.6-12.7-3.6-6.2-3.9-10.4-10.8-12.4-20.5-0.2-0.7 0.3-1.5 1.1-1.6 0.7-0.2 1.5 0.3 1.6 1 1.9 8.9 5.6 15.2 11.2 18.8 7.1 4.5 14.8 2.8 14.8 2.8 0.8-0.1 1.5 0.3 1.7 1.1 0.2 0.7-0.3 1.5-1 1.6-0.2 0.1-1.8 0.4-4.3 0.4z"/>
				</g>
				<g id="&lt;Group&gt;">
					<path id="&lt;Path&gt;" class="s41" d="m1246.5 608.2c-0.7 0-1.3-0.4-1.4-1.1-0.2-0.7 0.3-1.5 1.1-1.6 11.6-2.6 19.4-7.1 23-13.6 3.9-6.8 1.8-13.3 1.8-13.4-0.3-0.7 0.1-1.5 0.9-1.8 0.7-0.2 1.5 0.2 1.7 0.9 0.1 0.3 2.5 7.8-1.9 15.7-4.1 7.2-12.5 12.2-24.9 14.9q-0.2 0-0.3 0z"/>
				</g>
				<g id="&lt;Group&gt;">
					<path id="&lt;Path&gt;" class="s41" d="m1292.1 813q0 0-0.1 0c-0.7 0-1.3-0.7-1.2-1.5l14.3-188.9c0.1-0.8 0.6-1.5 1.5-1.3 0.8 0 1.4 0.7 1.3 1.5l-14.4 189c0 0.7-0.6 1.2-1.4 1.2z"/>
				</g>
				<g id="&lt;Group&gt;">
					<path id="&lt;Path&gt;" class="s41" d="m1201.1 806.7q-0.2 0-0.4-0.1c-0.8-0.2-1.2-1-1-1.7l52.8-179.8c0.2-0.8 1-1.2 1.7-1 0.7 0.3 1.2 1 0.9 1.8l-52.7 179.7c-0.2 0.7-0.7 1.1-1.3 1.1z"/>
				</g>
			</g>
			<g id="&lt;Group&gt;">
				<g id="&lt;Group&gt;">
					<path id="&lt;Path&gt;" class="s19" d="m322.3 534.7c0 0 3.4-4.6 10-9.8 2.5-2 6.6-8.7 7.9-7 1.2 1.7-5.2 9.1-4.9 9.7 0.3 0.6 5.7 0.5 5.7 0.5l-7.3 4.7z"/>
				</g>
				<g id="&lt;Group&gt;">
					<path id="&lt;Path&gt;" class="s19" d="m313.2 539.7l14.1-8.6c0 0 13.8-4 14.9-2.5 1.1 1.4 2.6 15.3 2.6 15.3 0 0-8.8 0.3-18.7 0.9-0.2 0-9.4 7.6-9.4 7.6z"/>
				</g>
				<g id="&lt;Group&gt;">
					<path id="&lt;Path&gt;" class="s19" d="m337.9 529c0 0 19-7.2 19.9-5.7 0.8 1.5-14.5 7.8-14.5 7.8 0 0 17.7-3.7 18.3-2.2 0.6 1.6-17.8 6.6-17.8 6.6 0 0 17.6-0.2 17.7 1.3 0.1 1.5-17.4 3.2-17.4 3.2 0 0 13.9 2.4 14 3.7 0.1 1.4-13.3 0.2-13.3 0.2l-8.8-0.6z"/>
				</g>
				<g id="&lt;Group&gt;">
					<g id="&lt;Group&gt;">
						<path id="&lt;Path&gt;" class="s22" d="m238.3 838.6l-5.4-51.8 18.1-3.7-0.8 56.5z"/>
					</g>
					<g id="&lt;Group&gt;">
						<g id="&lt;Group&gt;">
							<path id="&lt;Path&gt;" class="s8" d="m252 831.9c0 0 14.1 8.7 25.2 11.3 11.1 2.6 7.9 12 7.9 12l-49.3-0.9c-1.8-8.8 2.4-20.2 2.4-20.2 6.6 5.8 13.8-2.2 13.8-2.2z"/>
						</g>
						<g id="&lt;Group&gt;">
							<path id="&lt;Path&gt;" class="s42" d="m235.3 849.3l50 0.9c0.6 2.7-0.2 5-0.2 5l-49.3-0.9c-0.3-1.6-0.5-3.3-0.5-5z"/>
						</g>
						<g id="&lt;Group&gt;">
							<path id="&lt;Compound Path&gt;" fill-rule="evenodd" class="s43" d="m249.3 842.8c-0.5-0.3-0.9-1-0.9-1.7-0.1-0.6 0.1-1.3 0.3-1.8q0.6-2.1 1.6-4c0.5-0.8 1-1.6 1.8-2.3 1.1-0.9 2.6-1.1 3.9-1.3q1.6-0.2 3.3-0.2h0.2c1.4 0.1 3.1 0.2 4.5 1.1 0.6 0.5 0.8 1 0.7 1.5q-0.1 0.6-0.9 0.9-0.7 0.3-1.6 0.3c-0.6 0-1.2-0.1-1.8-0.2q-3.6-0.6-7.2-1.5 0.4 1.8 0.3 3.7c0 1.7-0.3 3-0.9 4q-0.6 1-1.3 1.4c-0.3 0.2-0.7 0.3-1.1 0.3q-0.5 0-0.9-0.2zm3.2-9.3c-0.7 0.6-1.2 1.4-1.6 2.1q-1 1.9-1.6 3.9c-0.2 0.5-0.3 1-0.3 1.6 0.1 0.5 0.3 0.9 0.7 1.1q0.2 0.2 0.5 0.2 0.4 0 0.8-0.2 0.6-0.4 1-1.2c0.5-0.9 0.8-2.1 0.9-3.7q0.1-1.9-0.3-3.8-0.1 0-0.1 0zm3.5-1.1c-0.8 0.1-1.7 0.2-2.5 0.6q3.5 0.9 7.1 1.5c0.5 0.1 1.1 0.2 1.6 0.2q0.8 0 1.4-0.3c0.1 0 0.4-0.2 0.5-0.4 0.1-0.3-0.2-0.6-0.5-0.8-1.2-0.9-2.8-1-4.1-1h-0.2q-1.6 0-3.3 0.2z"/>
						</g>
					</g>
					<g id="&lt;Group&gt;">
						<path id="&lt;Path&gt;" class="s43" d="m285.3 850.5l-50-0.9c-0.1 0-0.3-0.1-0.3-0.3 0-0.2 0.2-0.3 0.4-0.3l49.9 0.9c0.2 0 0.4 0.1 0.4 0.3 0 0.2-0.2 0.3-0.4 0.3z"/>
					</g>
					<g id="&lt;Group&gt;">
						<path id="&lt;Path&gt;" class="s43" d="m248.8 849.5c-1.6-10.7-11-13.7-11.1-13.7-0.2-0.1-0.3-0.3-0.2-0.4 0-0.2 0.2-0.3 0.4-0.2 0.1 0 9.9 3 11.5 14.2 0 0.2-0.1 0.4-0.3 0.4q0 0 0 0c-0.2 0-0.3-0.1-0.3-0.3z"/>
					</g>
					<g id="&lt;Group&gt;">
						<path id="&lt;Path&gt;" class="s43" d="m254.8 849.8c0-0.2 0-0.4 0.2-0.4l0.2-0.2c4.5-2.5 9.6-3.8 14.7-3.9h12.5c0.2 0 0.3 0.1 0.3 0.3 0 0.2-0.1 0.3-0.3 0.3l-12.5 0.1c-5 0-10 1.3-14.4 3.8l-0.2 0.1q-0.1 0.1-0.2 0.1-0.2 0-0.3-0.2z"/>
					</g>
					<g id="&lt;Group&gt;">
						<path id="&lt;Path&gt;" class="s43" d="m265.4 843.7l-17.4-8.5c-0.2-0.1-0.3-0.3-0.2-0.4 0.1-0.2 0.3-0.3 0.5-0.2l17.1 8.4 2.3-3.1c0.1-0.1 0.3-0.1 0.4 0 0.2 0.1 0.2 0.3 0.1 0.4l-2.4 3.3q-0.1 0.2-0.3 0.2-0.1 0-0.1-0.1z"/>
					</g>
				</g>
				<g id="&lt;Group&gt;">
					<g id="&lt;Group&gt;">
						<path id="&lt;Path&gt;" class="s22" d="m170 838.6l2.7-52 16.6-2.4-7.4 55.4z"/>
					</g>
					<g id="&lt;Group&gt;">
						<g id="&lt;Group&gt;">
							<path id="&lt;Path&gt;" class="s8" d="m183.7 831.9c0 0 14.2 8.7 25.3 11.3 11.1 2.6 7.9 12 7.9 12l-49.3-0.9c-1.9-8.8 2.4-20.2 2.4-20.2 6.6 5.8 13.7-2.2 13.7-2.2z"/>
						</g>
						<g id="&lt;Group&gt;">
							<path id="&lt;Path&gt;" class="s42" d="m167.1 849.3l50 0.9c0.6 2.7-0.2 5-0.2 5l-49.3-0.9c-0.3-1.6-0.5-3.3-0.5-5z"/>
						</g>
						<g id="&lt;Group&gt;">
							<path id="&lt;Compound Path&gt;" fill-rule="evenodd" class="s43" d="m181.1 842.8c-0.5-0.3-0.9-1-0.9-1.7-0.1-0.6 0.1-1.3 0.3-1.8q0.6-2.1 1.6-4c0.5-0.8 1-1.6 1.8-2.3 1.1-0.9 2.5-1.1 3.8-1.3q1.7-0.2 3.4-0.2h0.1c1.5 0.1 3.2 0.2 4.5 1.1 0.6 0.5 0.9 1 0.8 1.5q-0.1 0.6-0.9 0.9-0.7 0.3-1.6 0.3c-0.6 0-1.2-0.1-1.8-0.2q-3.6-0.6-7.2-1.5 0.4 1.8 0.3 3.7c0 1.7-0.4 3-1 4q-0.5 1-1.2 1.4c-0.3 0.2-0.7 0.3-1.1 0.3q-0.5 0-0.9-0.2zm3.2-9.3c-0.7 0.6-1.2 1.4-1.6 2.1q-1 1.9-1.6 3.9c-0.2 0.5-0.3 1-0.3 1.6 0 0.5 0.3 0.9 0.6 1.1q0.3 0.2 0.6 0.2 0.4 0 0.8-0.2 0.5-0.4 1-1.2c0.5-0.9 0.8-2.1 0.9-3.7q0-1.9-0.4-3.8 0 0 0 0zm3.5-1.1c-0.8 0.1-1.7 0.2-2.5 0.6q3.5 0.9 7 1.5c0.5 0.1 1.1 0.2 1.7 0.2q0.8 0 1.4-0.3c0.1 0 0.4-0.2 0.5-0.4 0-0.3-0.2-0.6-0.5-0.8-1.2-0.9-2.8-1-4.2-1h-0.1q-1.6 0-3.3 0.2z"/>
						</g>
					</g>
					<g id="&lt;Group&gt;">
						<path id="&lt;Path&gt;" class="s43" d="m217.1 850.5l-50-0.9c-0.2 0-0.3-0.1-0.3-0.3 0-0.2 0.2-0.3 0.3-0.3l50 0.9c0.2 0 0.3 0.1 0.3 0.3 0 0.2-0.1 0.3-0.3 0.3z"/>
					</g>
					<g id="&lt;Group&gt;">
						<path id="&lt;Path&gt;" class="s43" d="m180.5 849.5c-1.5-10.7-10.9-13.7-11-13.7-0.2-0.1-0.3-0.3-0.2-0.4 0-0.2 0.2-0.3 0.4-0.2 0.1 0 9.9 3 11.5 14.2 0 0.2-0.1 0.4-0.3 0.4q0 0 0 0c-0.2 0-0.3-0.1-0.4-0.3z"/>
					</g>
					<g id="&lt;Group&gt;">
						<path id="&lt;Path&gt;" class="s43" d="m186.6 849.8c-0.1-0.2 0-0.4 0.1-0.4l0.2-0.2c4.5-2.5 9.6-3.8 14.8-3.9h12.5c0.2 0 0.3 0.1 0.3 0.3 0 0.2-0.1 0.3-0.3 0.3l-12.5 0.1c-5 0-10 1.3-14.4 3.8l-0.2 0.1q-0.1 0.1-0.2 0.1-0.2 0-0.3-0.2z"/>
					</g>
					<g id="&lt;Group&gt;">
						<path id="&lt;Path&gt;" class="s43" d="m197.1 843.7l-17.4-8.5c-0.1-0.1-0.2-0.3-0.1-0.4 0.1-0.2 0.3-0.3 0.4-0.2l17.2 8.4 2.2-3.1c0.1-0.1 0.3-0.1 0.5 0 0.1 0.1 0.2 0.3 0.1 0.4l-2.5 3.3q-0.1 0.2-0.2 0.2-0.1 0-0.2-0.1z"/>
					</g>
				</g>
				<g id="&lt;Group&gt;">
					<path id="&lt;Path&gt;" class="s4" d="m315.5 535.6l4.7-2.9 6.3 13.2-5.1 3.7z"/>
				</g>
				<g id="&lt;Group&gt;">
					<path id="&lt;Path&gt;" class="s5" d="m258.6 499.8c3.3 0 21.8 47.4 21.8 47.4l36.7-14.7 7.9 17.7-39.7 27.8c-8.6 5.9-20.4 3.3-25.6-5.7l-11.4-19.5z"/>
				</g>
				<g id="&lt;Group&gt;">
					<path id="&lt;Path&gt;" class="s19" d="m218.4 464.7l5.2 29.9h-20.2l-0.5-26.2z"/>
				</g>
				<g id="&lt;Group&gt;">
					<path id="&lt;Path&gt;" class="s4" d="m221.3 491.2c0 0 18.3 2.1 35.7 10.3 0 0-4.9 36.3-9.7 69.4l-0.6 38.3-64.3-0.2 1.6-37.4-13.6-70.9c0 0 22.9-8.2 30.1-8.6 7.2-0.4 20.8-0.9 20.8-0.9z"/>
				</g>
				<g id="&lt;Group&gt;">
					<path id="&lt;Path&gt;" class="s13" d="m250.8 598.9l7.3 231h-25l-21.1-155.9-22.3 156-23.7-0.8 8.2-225.9z"/>
				</g>
				<g id="&lt;Group&gt;">
					<path id="&lt;Path&gt;" class="s26" d="m220.9 478.3l0.9 6.6c-16.6 2-15.9-15.9-15.9-15.9z"/>
				</g>
				<g id="&lt;Group&gt;">
					<path id="&lt;Path&gt;" class="s5" d="m200.9 491.5l1.4 88.1 0.9 59c0 0-25.2 2.3-34-3.5l4.8-55.3-6.1-80.5c0 0 22.7-5.3 33-7.8z"/>
				</g>
				<g id="&lt;Group&gt;">
					<path id="&lt;Path&gt;" class="s5" d="m258.6 499.8l-7.8 79.5 3.9 52.9c-12.3 4-26 4-26 4l-4.2-60.6 2.6-83.7c18.5 2.5 31.5 7.9 31.5 7.9z"/>
				</g>
				<g id="&lt;Group&gt;">
					<path id="&lt;Path&gt;" class="s5" d="m178.2 542l-10.8 25.5-17.3 26.4c0 0-11.3-25.3-7.5-37.9 11.3-38.8 25.3-56.7 25.3-56.7 9.8-1 10.3 42.7 10.3 42.7z"/>
				</g>
				<g id="&lt;Group&gt;">
					<g id="&lt;Group&gt;">
						<path id="&lt;Path&gt;" class="s28" d="m229.7 454.5c0 0 2.5-2.4 4-1 1.7 1.4 1.9 6.7-3.2 7.7 0 0-1.2-2.6-0.8-6.7z"/>
					</g>
					<path id="&lt;Mesh&gt;" class="s44" d="m229.8 446.5c-4.6 0.7-9.1 1.5-13.7 2.2-1.2-5.2-2.3-10.8-4.8-15.5 3.5 0 7.3 0.7 10.6 2.5 4.2 2.3 6.6 6.2 7.9 10.8zm-0.1 26.3c-1.1 2.7-3 6.7-7.4 7.6 0.7-10.7-3.8-21.4-6.2-31.7 4.6-0.7 9.1-1.5 13.7-2.2 2.2 7.9 2.3 18.2-0.1 26.3zm-13.6-24.1c-7.2 1.2-14.5 3-21.2 5.9-0.9-4.2-1-9 1.6-13.5 3.2-5.4 8.7-7.8 14.8-7.9 2.5 4.7 3.6 10.3 4.8 15.5zm6.2 31.7c-4.8 1.1-12 0.7-18.7-9.3-1.3-2.1-2.5-4.7-3.8-6.7 0 0-3.6-3.9-4.9-9.8 6.7-2.9 14-4.7 21.2-5.9 2.4 10.3 6.9 21 6.2 31.7z"/>
					<g id="&lt;Group&gt;">
						<path id="&lt;Path&gt;" class="s30" d="m228.3 440c2.1 2.7 2.9 13.9 2.9 13.9-1.2-3.9-4.4-11.1-4.4-11.1 0 0-0.6-5.5 1.5-2.8z"/>
					</g>
					<g id="&lt;Group&gt;">
						<path id="&lt;Path&gt;" class="s31" d="m210.3 459.8c-0.3-1.5-0.1-2.9 0.5-3.1 0.6-0.1 1.4 1.1 1.8 2.6 0.3 1.6 0.1 2.9-0.5 3.1-0.7 0.1-1.4-1-1.8-2.6z"/>
					</g>
					<g id="&lt;Group&gt;">
						<path id="&lt;Path&gt;" class="s31" d="m223.9 457.4c-0.3-1.6-0.1-3 0.6-3.1 0.6-0.1 1.4 1.1 1.7 2.6 0.3 1.6 0 2.9-0.6 3.1-0.6 0.1-1.4-1.1-1.7-2.6z"/>
					</g>
					<g id="&lt;Group&gt;">
						<g id="&lt;Group&gt;" style="opacity: .3">
							<path id="&lt;Path&gt;" class="s4" d="m223.3 438.4q0-0.1 0 0z"/>
						</g>
					</g>
					<g id="&lt;Group&gt;">
						<path id="&lt;Path&gt;" class="s32" d="m220.1 466.4c0 0-0.1 0-0.1 0-0.3-0.3-0.4-0.6-0.2-1 0-0.2 0.3-0.3 0.5-0.4q0 0 0.1 0l0.2-0.1c0.3-0.1 0.6-0.2 0.8-0.4 0.2-0.2 0.4-0.6 0.3-0.9 0-0.1-0.1-0.3-0.3-0.4-1.2-1.4-1.9-3.2-2-5 0-0.1 0-0.2 0-0.2q0.3 0 0.3 0.2c0.1 1.7 0.8 3.4 1.9 4.8h0.1c0.1 0.2 0.2 0.3 0.3 0.5 0.2 0.5-0.1 0.9-0.4 1.2-0.3 0.2-0.6 0.4-0.9 0.5l-0.2 0.1q-0.1 0-0.2 0c-0.1 0.1-0.2 0.1-0.3 0.2-0.1 0.3 0 0.5 0.2 0.7 0 0 0 0.1 0 0.2q0 0-0.1 0z"/>
					</g>
					<g id="&lt;Group&gt;">
						<path id="&lt;Path&gt;" class="s30" d="m228.4 430.1q0.1 2.6 0.1 5.3c0.8-1.4 1.4-2.9 1.6-4.5 0.4 3.8-0.2 7.7-1.7 11.1-0.1 0.4-0.3 0.8-0.6 1-0.5 0.2-1 0.1-1.5 0-8.2-1.7-16.7 1.3-24.6 4.2q-0.4 7.7-0.8 15.5-1.3 0.2-2.7 0.5c-2.9-5-6-10.2-6.6-16-0.1-1.7 0-3.6 1.2-4.8q-1.2-0.8-2-2 0.8 0.3 1.7 0.3c-0.3-1.5 0.1-3.3 1.2-4.4-0.2 1 0 2.1 0.5 3 4.5-4.3 9.7-8.7 16-9.1 4.7-0.4 9.3 1.5 14 1.7 1.7 0.1 3.6-0.3 4.2-1.8z"/>
					</g>
					<g id="&lt;Group&gt;">
						<path id="&lt;Path&gt;" class="s19" d="m201.9 467.6c-6.3 0.4-7.5-5.7-5.5-7 5.1-3.1 6.1 2.3 6.1 2.3 1.4 3.7-0.6 4.7-0.6 4.7z"/>
					</g>
					<g id="&lt;Group&gt;">
						<path id="&lt;Path&gt;" class="s30" d="m221.5 450.7c1-2.8 6.3-1 6.7 1.3 0 0.3-0.2 0.6-0.6 0.6-1.3-0.3-2.2-1.5-3.7-1.5-0.6 0-1.6 0.4-2.2 0-0.1-0.1-0.3-0.3-0.2-0.4z"/>
					</g>
					<g id="&lt;Group&gt;">
						<path id="&lt;Path&gt;" class="s30" d="m213.3 452.4c-0.4 0.6-1.5 0.4-2.1 0.6-1.4 0.3-2 1.7-3.3 2.3-0.3 0.1-0.6-0.1-0.6-0.4-0.2-2.4 4.5-5.3 6.1-2.9 0.1 0.1 0 0.3-0.1 0.4z"/>
					</g>
					<g id="&lt;Group&gt;">
						<path id="&lt;Path&gt;" class="s4" d="m225.8 468.2l-10.4 1.4c0 0 6.6 8.8 10.4-1.4z"/>
					</g>
				</g>
				<g id="&lt;Group&gt;">
					<path id="&lt;Path&gt;" class="s4" d="m201.6 492.3c-1.8-1.7-1.4-1.3-1.3-3.8 0.1-2.5 1.2-3.5 1.1-5.7-0.1-2.3 1.8-2 1.8-2 0 0 7.9 6.9 18.6 4.1 0 0 2.3-0.8 2.9 2 0.6 2.8 3.6 3.5 2 5.1-1.7 1.7-25.1 0.3-25.1 0.3z"/>
				</g>
				<g id="&lt;Group&gt;" style="opacity: .4">
					<path id="&lt;Path&gt;" class="s4" d="m205 437.9c-0.3 0.1-0.7 0.2-1.2 0.2-0.4-0.1-0.8-0.4-0.9-0.8 1.8-2.7 4.8-4.5 8-4.7 0.9-0.1 1.9 0 2.8 0q2 0.2 3.9 0.3c0.3 0 0.7 0.1 1 0.2 0.3 0.2 0.5 0.6 0.3 0.9-0.1 0.3-0.4 0.4-0.6 0.5-2.8 0.8-5.9-0.2-8.6 0.9-0.8 0.4-1.6 0.9-2.4 1.4q-1.1 0.6-2.3 1.1z"/>
				</g>
				<g id="&lt;Group&gt;" style="opacity: .4">
					<path id="&lt;Path&gt;" class="s4" d="m197.2 446c0.1 0.5-0.3 1.1-0.9 1.3-0.5 0.2-1.1 0.1-1.6-0.2-0.5-0.2-0.9-0.6-1.4-0.9q-0.2-0.2-0.5-0.4-0.1-0.1-0.2-0.3c0-0.1 0-0.2 0-0.3 0-0.4 0-0.7 0.1-1.1 0.1-0.3 0.4-0.6 0.7-0.7q1.2 0.5 2.3 1.1c0.7 0.3 1.5 0.8 1.5 1.5z"/>
				</g>
				<g id="&lt;Group&gt;">
					<path id="&lt;Path&gt;" class="s5" d="m183.1 823.6c-0.5-0.1-0.8-0.5-0.8-0.9l12.6-165.6c0.1-0.5 0.5-0.8 0.9-0.8 0.4 0.1 0.8 0.5 0.7 0.9l-12.6 165.6c0 0.4-0.4 0.8-0.8 0.8q0 0 0 0z"/>
				</g>
				<g id="&lt;Group&gt;">
					<path id="&lt;Path&gt;" class="s5" d="m249.1 821.2l-11-163.5c-0.1-0.4 0.3-0.8 0.7-0.8 0.5-0.1 0.8 0.3 0.9 0.7l11 163.5c0 0.5-0.3 0.9-0.7 0.9q-0.1 0-0.1 0c-0.4 0-0.8-0.3-0.8-0.8z"/>
				</g>
				<g id="&lt;Group&gt;">
					<path id="&lt;Path&gt;" class="s14" d="m232.3 546.7c-1.3 0-2.4-1-2.4-2.3 0-1.4 1.1-2.4 2.4-2.4 1.3 0 2.4 1 2.4 2.4 0 1.3-1.1 2.3-2.4 2.3z"/>
				</g>
				<g id="&lt;Group&gt;">
					<path id="&lt;Path&gt;" class="s14" d="m232.4 563c-1.3 0-2.3-1-2.3-2.3 0-1.4 1-2.4 2.3-2.4 1.3 0 2.4 1 2.4 2.4 0 1.3-1.1 2.3-2.4 2.3z"/>
				</g>
				<g id="&lt;Group&gt;">
					<path id="&lt;Path&gt;" class="s14" d="m231.5 579.5c-1.3 0-2.4-1.1-2.4-2.4 0-1.3 1.1-2.4 2.4-2.4 1.3 0 2.4 1.1 2.4 2.4 0 1.3-1.1 2.4-2.4 2.4z"/>
				</g>
				<g id="&lt;Group&gt;">
					<g id="&lt;Group&gt;">
						<path id="&lt;Path&gt;" class="s14" d="m130.1 413.7l1-11 2.7 11.9z"/>
					</g>
					<g id="&lt;Group&gt;">
						<path id="&lt;Path&gt;" class="s45" d="m118.8 473.6c-0.4-12.4 0.9-24.9 3.9-36.9l6.1-24.3 6-0.2 7.6 23.8c3.8 11.9 5.9 24.2 6.4 36.6l11.5 350.6-29.9 1z"/>
					</g>
					<g id="&lt;Group&gt;">
						<path id="&lt;Path&gt;" class="s46" d="m136.4 855.7l-1.6-47.3 20-0.7 1.6 47.3c0 0.2-0.2 0.4-0.5 0.4l-19.1 0.7c-0.2 0-0.4-0.2-0.4-0.4z"/>
					</g>
					<g id="&lt;Group&gt;">
						<path id="&lt;Path&gt;" class="s14" d="m127.2 782.3l34-1.1 1.5 43.4c0 0.2-0.2 0.4-0.5 0.5l-33.1 1c-0.3 0.1-0.5-0.1-0.5-0.4z"/>
					</g>
					<g id="&lt;Group&gt;">
						<path id="&lt;Path&gt;" class="s47" d="m119 478.9l-0.2-5.3c-0.4-12.4 0.9-24.9 3.9-36.9l6.1-24.3 6-0.2 7.6 23.8c3.8 11.9 5.9 24.2 6.4 36.6l0.1 5.4z"/>
					</g>
					<g id="&lt;Group&gt;">
						<path id="&lt;Path&gt;" class="s14" d="m119 676.1c0.5-1.7 2.2-2.8 4-2.5 1.9 0.4 3.2 2.2 2.8 4.1l-5.5 28.4 3.2 97.5 7.2-0.2c1.9-0.1 3.6 1.4 3.6 3.4 0.1 1.9-1.4 3.5-3.4 3.6l-10.7 0.4c-0.9 0-1.8-0.4-2.5-1-0.7-0.6-1.1-1.5-1.1-2.4l-3.4-101.5q0-0.4 0.1-0.8l5.6-28.7q0-0.2 0.1-0.3z"/>
					</g>
				</g>
				<g id="&lt;Group&gt;">
					<path id="&lt;Path&gt;" class="s48" d="m115.4 560.4l-0.8-3.6q0 0 0-0.1l13.1-3.1q0.1 0 0.1 0.1l0.9 3.6q0 0-0.1 0.1l-13.1 3.1q0 0-0.1-0.1z"/>
				</g>
				<g id="&lt;Group&gt;">
					<path id="&lt;Path&gt;" class="s48" d="m114.8 564.6l-0.9-3.6q0-0.1 0.1-0.1l14.2-3.4q0.1 0 0.1 0l0.9 3.6q0 0.1-0.1 0.1l-14.2 3.5q-0.1 0-0.1-0.1z"/>
				</g>
				<g id="&lt;Group&gt;">
					<path id="&lt;Path&gt;" class="s48" d="m114.3 568.7l-0.9-3.6q0-0.1 0.1-0.1l15.5-3.7q0.1 0 0.1 0l0.9 3.6q0 0.1-0.1 0.1l-15.5 3.8q-0.1 0-0.1-0.1z"/>
				</g>
				<g id="&lt;Group&gt;">
					<path id="&lt;Path&gt;" class="s48" d="m118.2 571.6l-0.9-3.6q0-0.1 0.1-0.1l10.8-2.6q0.1 0 0.1 0l0.9 3.6q0 0.1-0.1 0.1l-10.8 2.6q-0.1 0.1-0.1 0z"/>
				</g>
			</g>
			<g id="&lt;Group&gt;">
				<g id="&lt;Group&gt;">
					<g id="&lt;Group&gt;">
						<path id="&lt;Path&gt;" class="s4" d="m783.3 643.8c21-50.3-3.3-70.5-3.3-70.5h305.4c16.8 50 1.6 70.5 1.6 70.5z"/>
					</g>
					<g id="&lt;Group&gt;">
						<path id="&lt;Path&gt;" class="s15" d="m1081.4 593.5c2.7 0 5 2.8 5 5.6 0 2.8-2.2 4.4-5 4.4h-108.9c-2.7 0-5-2.9-5-5.7 0-2.8 2.2-4.4 5-4.4l108.8 0.1z"/>
					</g>
					<g id="&lt;Group&gt;">
						<path id="&lt;Path&gt;" class="s15" d="m1082.2 613.6c2.3 0 4.2 2.9 4.2 5.6 0 2.8-1.9 4.5-4.2 4.5h-91.9c-2.3 0-4.2-3-4.3-5.8 0-2.7 1.9-4.3 4.3-4.3h91.8z"/>
					</g>
					<g id="&lt;Group&gt;">
						<path id="&lt;Path&gt;" class="s14" d="m1083.7 648l-1.4-76.4c0 0 29.1 13.5 28.2 37-0.8 23.5-26.8 39.4-26.8 39.4z"/>
					</g>
					<g id="&lt;Group&gt;">
						<path id="&lt;Path&gt;" class="s49" d="m780 561.4h302c5.6 0 10.1 4.5 10.1 10.1 0 5.6-4.5 10.1-10.1 10.1h-302c-5.6 0-10.1-4.5-10.1-10.1 0-5.6 4.5-10.1 10.1-10.1z"/>
					</g>
					<g id="&lt;Group&gt;">
						<path id="&lt;Path&gt;" class="s49" d="m780 643.8h302c5.6 0 10.1 4.5 10.1 10.1 0 5.5-4.5 10-10.1 10h-302c-5.6 0-10.1-4.5-10.1-10 0-5.6 4.5-10.1 10.1-10.1z"/>
					</g>
					<g id="&lt;Group&gt;">
						<path id="&lt;Path&gt;" class="s49" d="m1090.4 564.1c2.2 0 4.5 0.8 6.4 2.3 14.5 12 22.3 26 23.1 41.7 1.3 27.2-19.8 48.6-20.7 49.5-4 4-10.3 4-14.3 0-3.9-3.9-3.9-10.2 0-14.2 0.3-0.2 15.8-16.2 14.8-34.5-0.5-9.7-5.8-18.8-15.7-27-4.3-3.5-4.9-9.8-1.4-14.1 2-2.4 4.9-3.7 7.8-3.7z"/>
					</g>
					<g id="&lt;Group&gt;">
						<path id="&lt;Path&gt;" class="s15" d="m921.1 613.6c2.3 0 4.2 2.9 4.2 5.6 0 2.8-1.8 4.5-4.2 4.5h-91.8-0.1c-2.3 0-4.2-3-4.2-5.8 0-2.7 1.9-4.3 4.2-4.3h91.9z"/>
					</g>
				</g>
				<g id="&lt;Group&gt;">
					<g id="&lt;Group&gt;">
						<path id="&lt;Path&gt;" class="s4" d="m814.2 547.6c0 0-4.8-16.2 1.4-56.8h246.1c0 0-19.6 16.3-2.7 56.8z"/>
					</g>
					<g id="&lt;Group&gt;">
						<path id="&lt;Path&gt;" class="s15" d="m818.8 507.1l87.7-0.1c2.3 0 4.1 1.3 4.1 3.5 0 2.3-1.9 4.7-4.1 4.7h-87.7c-2.3 0-4.1-1.4-4.1-3.6 0.1-2.2 1.9-4.5 4.1-4.5z"/>
					</g>
					<g id="&lt;Group&gt;">
						<path id="&lt;Path&gt;" class="s15" d="m818.2 523.3l74-0.1c1.9 0.1 3.4 1.3 3.4 3.6 0 2.2-1.5 4.6-3.4 4.6h-74.1c-1.8 0-3.4-1.3-3.4-3.6 0.1-2.2 1.6-4.5 3.5-4.5z"/>
					</g>
					<g id="&lt;Group&gt;">
						<path id="&lt;Path&gt;" class="s14" d="m795.3 519.2c-0.7-18.9 22.8-29.8 22.8-29.8l-1.2 61.6c0 0-20.9-12.8-21.6-31.8z"/>
					</g>
					<g id="&lt;Group&gt;">
						<path id="&lt;Path&gt;" class="s1" d="m1069.8 490.8c0 4.5-3.6 8.1-8.1 8.1h-243.4c-4.5 0-8.1-3.6-8.1-8.1 0-4.5 3.6-8.1 8.1-8.1h243.4c4.5 0 8.1 3.6 8.1 8.1z"/>
					</g>
					<g id="&lt;Group&gt;">
						<path id="&lt;Path&gt;" class="s1" d="m1069.8 555.7c0 4.5-3.6 8.1-8.1 8.1h-243.4c-4.5 0-8.1-3.6-8.1-8.1 0-4.4 3.6-8.1 8.1-8.1h243.4c4.5 0 8.1 3.7 8.1 8.1z"/>
					</g>
					<g id="&lt;Group&gt;">
						<path id="&lt;Path&gt;" class="s1" d="m817.8 486.3c2.8 3.5 2.4 8.6-1.1 11.5-8 6.6-12.3 13.9-12.7 21.7-0.8 14.7 11.7 27.6 11.9 27.8 3.2 3.2 3.2 8.3 0 11.5-3.2 3.1-8.3 3.1-11.5 0-0.7-0.8-17.7-18-16.6-40 0.6-12.6 6.9-23.9 18.6-33.6 1.5-1.2 3.3-1.8 5.1-1.8 2.4 0 4.7 1 6.3 2.9z"/>
					</g>
					<g id="&lt;Group&gt;">
						<path id="&lt;Path&gt;" class="s15" d="m948 523.3l74-0.1c1.9 0.1 3.4 1.3 3.4 3.6 0 2.2-1.5 4.6-3.4 4.6h-74c-1.9 0-3.5-1.3-3.4-3.6 0-2.2 1.5-4.5 3.4-4.5z"/>
					</g>
				</g>
				<g id="&lt;Group&gt;">
					<path id="&lt;Path&gt;" class="s11" d="m909.5 523.1v84.3l-20.1-13-20.7 11.4v-82.7c-0.8 0.8 40.8 0 40.8 0z"/>
				</g>
			</g>
			<g id="&lt;Group&gt;">
				<g id="&lt;Group&gt;">
					<path id="&lt;Path&gt;" class="s14" d="m1033.3 366.3l-4.3 52.3c0 0-88.4 88.6-184 4.5l-6-44.5z"/>
				</g>
				<g id="&lt;Group&gt;">
					<path id="&lt;Path&gt;" class="s4" d="m838.4 367.8l194.3-12.2 2.1 24.4-95.1 37.8-100.2-24z"/>
				</g>
				<g id="&lt;Group&gt;">
					<path id="&lt;Path&gt;" class="s50" d="m1118 379.6l-174.5 51.3-194.9-53-0.4-7.9 180.3-47.1 189 48.8z"/>
				</g>
				<g id="&lt;Group&gt;">
					<path id="&lt;Path&gt;" class="s7" d="m1063 476.1c-1.4 0-2.7-1-2.8-2.4l-7-82-113.8-27.4c-1.4-0.3-2.3-1.8-1.9-3.2 0.3-1.4 1.7-2.2 3.2-1.9l115.5 27.9c1.1 0.2 1.9 1.2 2 2.3l7.3 83.8c0.1 1.5-1 2.7-2.4 2.9q-0.1 0-0.1 0z"/>
				</g>
				<g id="&lt;Group&gt;">
					<path id="&lt;Path&gt;" class="s7" d="m1063 480.8c-4.3 0.2-7.9-3-8.2-7.3-0.2-4.3 3.1-7.9 7.3-8.1 4.3-0.3 7.9 3 8.2 7.2 0.2 4.3-3.1 7.9-7.3 8.2z"/>
				</g>
				<g id="&lt;Group&gt;">
					<path id="&lt;Path&gt;" class="s7" d="m1067.1 475.6l14.2 36.7c0 0-16 14.4-29.2 1.6l7.5-37.2z"/>
				</g>
			</g>
			<g id="&lt;Group&gt;">
				<path id="&lt;Path&gt;" class="s1" d="m846.4 713.8c0-17.3 14.1-31.4 31.4-31.4h128c17.3 0 31.4 14.1 31.4 31.4 0 17.4-14.1 31.4-31.4 31.4h-128c-17.3 0-31.4-14-31.4-31.4z"/>
			</g>
			<g id="&lt;Group&gt;">
				<path id="100" class="s1" aria-label="100"  d="m579.6 587.3q-0.5-4.3-0.7-8.3-0.1-4.1-0.1-8 0-4 0.1-8 0.1-3.9 0-8.2 0-0.2 0.3-0.5 0.2-0.2 0.4-0.2 0.2 0 0.7 0.2 0.5 0.3 0.7 0.5 0 1 0 3.4 0.1 2.3 0.1 5.3 0.1 2.9 0.2 6.2 0.1 3.2 0.1 6.2 0.1 2.9 0.2 5.3 0 2.3 0 3.4 0 0.1 0 0.8 0 0.6 0 0.9 0 0.3 0 0.6 0.1 0.4 0 0.6-0.1 0.2-0.5 0.4-0.2 0.1-0.8 0.1-0.2 0-0.4-0.3-0.3-0.2-0.3-0.4zm12.6-28.6q2.2 0.5 3.4 2 1.2 1.4 1.7 3.4 0.4 2 0.5 4.2 0.2 2.2 0.4 4.1 0 0.9-0.1 2.4 0 1.5-0.3 3.2-0.2 1.7-0.6 3.5-0.4 1.8-1.2 3.3-0.8 1.4-1.9 2.3-1.1 0.9-2.7 0.9-1 0.4-2-0.5-0.9-0.9-1.8-2.7-0.8-1.8-1.5-4.3-0.7-2.5-0.9-5.2-0.3-2.7-0.1-5.4 0.2-2.7 1-5 0.8-2.3 2.3-4 1.4-1.6 3.8-2.2zm-4.9 9.6q0 5.7 0.4 9.3 0.5 3.6 1.2 5.5 0.7 1.9 1.5 2.4 0.9 0.4 1.8-0.2 0.9-0.6 1.7-2 0.9-1.5 1.4-3.4 0.6-1.9 0.8-4 0.3-2.2 0.1-4.2 0-1.5-0.2-3.2-0.2-1.7-0.6-3.2-0.4-1.5-1.1-2.7-0.8-1.2-1.9-1.7-0.9 0-1.9 0.8-0.9 0.8-1.6 1.9-0.7 1.1-1.2 2.3-0.5 1.2-0.5 2.1v0.2q0 0 0.1 0.1zm21.6-9.6q2.3 0.5 3.5 2 1.1 1.4 1.6 3.4 0.5 2 0.6 4.2 0.1 2.2 0.4 4.1 0 0.9-0.2 2.4 0 1.5-0.2 3.2-0.2 1.7-0.7 3.5-0.4 1.8-1.2 3.3-0.7 1.4-1.9 2.3-1.1 0.9-2.7 0.9-0.9 0.4-1.9-0.5-1-0.9-1.8-2.7-0.9-1.8-1.6-4.3-0.6-2.5-0.9-5.2-0.2-2.7-0.1-5.4 0.2-2.7 1-5 0.8-2.3 2.3-4 1.5-1.6 3.8-2.2zm-4.9 9.6q0 5.7 0.5 9.3 0.4 3.6 1.1 5.5 0.7 1.9 1.6 2.4 0.9 0.4 1.7-0.2 0.9-0.6 1.8-2 0.8-1.5 1.3-3.4 0.6-1.9 0.9-4 0.3-2.2 0-4.2 0-1.5-0.2-3.2-0.1-1.7-0.6-3.2-0.3-1.5-1.1-2.7-0.7-1.2-1.8-1.7-1 0-1.9 0.8-0.9 0.8-1.7 1.9-0.7 1.1-1.1 2.3-0.5 1.2-0.5 2.1v0.2q0 0 0 0.1z"/>
			</g>
		</g>
		<path id="Entrar" class="s4" aria-label="Entrar"  d="m878.8 732.5q0-4.8 0-9.4 0.1-4.6 0-9.2-0.1-4.6-0.5-9.1-0.4-4.6-1.1-9.3 0-0.2-0.1-0.5-0.2-0.4-0.3-0.7-0.1-0.4-0.2-0.7-0.1-0.3-0.1-0.4 0-0.3 0.1-0.8 0.3-0.4 0.6-0.7 0.3-0.4 0.7-0.7 0.5-0.2 0.9-0.2 0.7 0.2 1.1 0.9 0.5 0.7 0.7 1.6 0.2 0.9 0.3 1.7 0.1 0.8 0.1 1.2 1.8-1 4-2 2.2-1.2 4.5-2.1 2.4-0.9 4.7-1.5 2.4-0.6 4.4-0.6 0 0.5-0.2 0.9-0.2 0.4-0.8 0.7l-16.6 8.3v2.4q0.1 0.6 0.1 2.2 0.2 1.6 0.3 3.4 0.1 1.8 0.2 3.5 0.1 1.6 0.1 2.1l12.2-6.8 0.3-0.3q0.3-0.4 0.8-0.7 0.4-0.3 0.9-0.3 0.6 0 1 0.6 0 1.1-1 2.1-1.1 1-2.7 2-1.6 1-3.5 2-1.8 0.9-3.4 1.8-1.6 0.9-2.7 1.8-1 0.9-1 1.6v11.4q0.7 0.3 2.1-0.2 1.4-0.6 3.1-1.6 1.7-1 3.6-2.3 1.8-1.4 3.5-2.5 1.8-1.2 3.3-2.2 1.5-0.9 2.5-1.1 0.6 0 1.1 0.2 0.4 0.3 0.4 1 0 0.7-0.8 1.1-2.1 1.3-4.8 3.1-2.6 1.9-5.4 3.8-2.8 1.8-5.5 3.3-2.7 1.5-4.6 2-0.8 0-1.3-0.1-0.4-0.1-1-0.7zm28.5 0.7q-0.7-7.9-1.2-15.9-0.5-8.1-1.1-16.7 0-1.4 1.6-1.4h0.4q0.2 0 0.4 0.5 0.3 0.4 0.5 1.7 0.3 1.3 0.6 3.9 0.4 2.5 0.8 6.6 0.5 4.2 1.1 10.4 1.2-4 2-7.8 0.7-3.8 1.8-6.9 1.1-3.1 3.1-5.5 2.1-2.3 5.9-3.5 2.2 0.4 3.5 2.6 1.3 2.2 2 5.5 0.8 3.2 1.1 7.1 0.3 3.8 0.3 7.3 0.1 3.4 0.1 6.2 0 2.7 0.1 3.9-0.2 0.5-0.5 0.8-0.4 0.4-0.8 0.6-0.4 0.1-0.9 0-0.4-0.1-0.7-0.6 0-0.7-0.1-2.7-0.2-2-0.3-4.6-0.2-2.8-0.5-5.8-0.1-3-0.3-5.7-0.1-2.7-0.2-4.7-0.2-2-0.2-2.7-1.3-2.2-2.5-2.5-1.2-0.3-2.4 0.8-1.2 1.1-2.3 3.2-1.2 2.2-2.2 5-1 2.7-1.9 5.7-0.8 3.1-1.5 5.9-0.6 2.8-1.1 5.1-0.4 2.2-0.5 3.5-0.2 0.4-0.8 0.8-0.6 0.3-1.2 0.5-0.6 0.2-1.2 0.1-0.6-0.1-0.9-0.7zm29.8 1.3l-1.5-25.7q-0.5 0.3-1.1 0.6-0.4 0.3-0.9 0.6-0.5 0.2-1 0.4-0.4 0.1-1 0-0.3 0-0.6-0.5-0.2-0.4-0.4-1-0.1-0.6-0.2-1.1 0-0.6 0-0.9l5.7-3.2 0.4-15.2q0.1-0.7 0.9-0.6 0.8 0.2 1.7 0.4 0.2 0 0.4 0.1 0.3 0.1 0.4 0.1-0.1 1.6-0.3 3.5-0.1 1.9-0.2 3.8-0.1 1.8-0.2 3.6 0 1.7 0.2 3.2l8.8-2.5q0.3-0.1 0.4 0.3 0.2 0.4 0.3 0.9 0.2 0.5 0.2 1.1 0.1 0.5 0.1 0.5l-10.1 4.3q0 0.5 0.1 2.5 0.1 2 0.2 4.8 0.1 2.7 0.3 5.9 0.1 3.1 0.2 5.9 0.1 2.7 0.2 4.7 0 2.1 0 2.6-0.1 1.8-1 1.8-0.9 0-2-0.9zm17.4-1.9l-4.2-27.1v-0.5q0-0.6 0.4-0.8 0.5-0.2 1.1-0.2 0.5 0 0.9 0.1 0.4 0 0.6 0.6 0.2 0.9 0.4 2.5 0.2 1.6 0.4 3.4 0.2 1.9 0.5 4.1 0.3 2 0.5 3.9 0.3 1.9 0.6 3.3 0.3 1.5 0.6 2.3-0.1-5.7 0.4-9.8 0.5-4.2 2-6.8 1.5-2.7 4.1-3.7 2.7-1.1 6.7-0.5 1.8 0 1.8 2 0 0.8-1 1.1-1 0.2-2.3 0.3-1.2 0.1-2.4 0.2-1.2 0.1-1.7 0.6-2.1 1.2-3 3.6-0.8 2.5-1.2 5.9-0.3 3.4-0.5 7.4-0.1 3.9-0.8 8.1 0 0.6-0.5 0.9-0.4 0.3-1.1 0.3-0.7 0-1.3-0.3-0.6-0.3-1-0.9zm36.6-0.1q-0.3-1.6-0.5-3.7-0.2-2.2-0.4-4.4-0.3-2.2-0.6-4.2-0.3-1.9-1-3.2-3 6.2-5.3 9.7-2.3 3.5-4.1 5.1-1.7 1.4-2.9 1.4-1.2-0.1-1.9-1.1-0.8-1-1.2-2.5-0.3-1.6-0.4-3 0-1.3 0.6-3.7 0.6-2.3 1.6-5.1 1-2.8 2.4-5.7 1.4-2.9 3-5.3 1.6-2.4 3.3-3.9 1.7-1.5 3.4-1.5 2.6-0.4 3.8 1.1 1.2 1.5 0.4 5 0 3.9 0.3 6.7 0.4 2.8 0.7 5.3 0.5 2.6 0.7 5.3 0.4 2.8 0.4 6.7 0 0.7-0.2 1.3-0.1 0.4-1.4 0.4-0.2 0-0.5-0.3-0.2-0.3-0.2-0.4zm-3.2-26.5q-0.6-0.9-1.8-0.1-1.1 0.7-2.3 2.5-1.3 1.8-2.6 4.3-1.3 2.4-2.4 5-1.1 2.5-1.9 4.8-0.9 2.3-1.2 3.8 0 2.1 0.7 2.4 0.6 0.2 1.6-0.7 0.9-1 2.1-2.7 1.2-1.8 2.4-3.8 1.1-2 2.2-3.9 1-1.9 1.6-3.1 0.5-1.2 0.8-2.3 0.3-1.1 0.5-2 0.2-1 0.2-2 0.1-1 0.1-2.2zm12.8 26.6l-4.2-27.1v-0.5q0-0.6 0.4-0.8 0.5-0.2 1.1-0.2 0.4 0 0.8 0.1 0.5 0 0.7 0.6 0.2 0.9 0.3 2.5 0.2 1.6 0.5 3.4 0.2 1.9 0.4 4.1 0.3 2 0.6 3.9 0.3 1.9 0.6 3.3 0.3 1.5 0.6 2.3-0.2-5.7 0.4-9.8 0.5-4.2 2-6.8 1.5-2.7 4.1-3.7 2.7-1.1 6.6-0.5 1.9 0 1.9 2 0 0.8-1 1.1-1 0.2-2.3 0.3-1.2 0.1-2.4 0.2-1.2 0.1-1.7 0.6-2.2 1.2-3 3.6-0.9 2.5-1.2 5.9-0.4 3.4-0.6 7.4-0.1 3.9-0.7 8.1 0 0.6-0.5 0.9-0.5 0.3-1.2 0.3-0.6 0-1.3-0.3-0.6-0.3-0.9-0.9z"/>
	</g>
</svg>